<svg width="121" height="87" viewBox="0 0 121 87" fill="none" xmlns="http://www.w3.org/2000/svg">
<path d="M64.9395 20.2413H78.1934L87.2075 8L88.7729 9.36306L79.8861 21.431L85.8317 32.631H96V34.8119H85.8317L79.2534 47.2015H66.216L60.1351 58.6544L64.8091 67.6833C65.2614 67.5317 65.7327 67.426 66.2311 67.426C68.9125 67.426 71.0936 69.7977 71.0936 72.7124C71.0936 75.6272 68.9125 78 66.2311 78C63.5506 78 61.3695 75.6283 61.3695 72.7124C61.3695 71.1226 62.0314 69.7126 63.0552 68.7421L58.3942 59.7383H45.2456L38.6673 47.3476H26V45.1667H38.6673L45.2456 32.7771H53.2519C53.7022 29.9343 55.9805 27.7632 58.7211 27.7632C59.4281 27.7632 60.103 27.9137 60.7257 28.1765L64.9395 20.2413ZM84.0948 33.7225L78.0961 22.4222H66.0967L62.4325 29.3237C63.5616 30.4305 64.2766 32.0269 64.2766 33.8054C64.2766 35.5534 63.5857 37.1258 62.4907 38.2304L66.0967 45.0217H78.0961L84.0948 33.7225ZM40.4031 46.2593L46.4028 57.5596H58.4023L64.402 46.2593L60.7678 39.4168C60.1331 39.6916 59.4432 39.8475 58.7202 39.8475C56.0196 39.8475 53.7663 37.7408 53.269 34.9601H46.4028L40.4031 46.2593Z" fill="#1671B9"/>
<path d="M65.5125 20.5857H78.6529L85.2231 32.6543L78.6529 44.7219H65.5125L58.9423 32.6543L65.5125 20.5857Z" stroke="#10355B" stroke-width="2" stroke-miterlimit="10" stroke-linecap="square"/>
<path d="M45.843 32.7966H58.9844L65.5546 44.8653L58.9844 56.9328H45.843L39.2728 44.8653L45.843 32.7966Z" stroke="#10355B" stroke-width="2" stroke-miterlimit="10" stroke-linecap="square"/>
<path d="M58.9844 56.9328L65.5546 69.3127" stroke="#10355B" stroke-width="2" stroke-miterlimit="10" stroke-linecap="square"/>
<path d="M39.2727 44.8653H27.0447" stroke="#10355B" stroke-width="2" stroke-miterlimit="10" stroke-linecap="square"/>
<path d="M85.2232 32.6543H94.9553" stroke="#10355B" stroke-width="2" stroke-miterlimit="10" stroke-linecap="square"/>
<path d="M78.6529 20.5857L87.3314 9.09375" stroke="#10355B" stroke-width="2" stroke-miterlimit="10" stroke-linecap="square"/>
<path d="M58.7239 37.5569C56.2127 37.5569 54.1769 35.3981 54.1769 32.735C54.1769 30.0719 56.2127 27.9131 58.7239 27.9131C61.2352 27.9131 63.271 30.0719 63.271 32.735C63.271 35.3981 61.2352 37.5569 58.7239 37.5569Z" fill="#FAC855" stroke="#10355B" stroke-width="2" stroke-miterlimit="10" stroke-linejoin="round"/>
<path d="M66.2256 74.7188C64.0971 74.7188 62.3716 72.889 62.3716 70.6318C62.3716 68.3746 64.0971 66.5449 66.2256 66.5449C68.3541 66.5449 70.0796 68.3746 70.0796 70.6318C70.0796 72.889 68.3541 74.7188 66.2256 74.7188Z" fill="#FF527F" stroke="#10355B" stroke-width="2" stroke-miterlimit="10"/>
</svg>
