<svg width="95" height="99" viewBox="0 0 95 99" fill="none" xmlns="http://www.w3.org/2000/svg">
<path d="M40.5463 29.1132C41.5423 27.9823 41.6155 26.2471 40.6383 24.9962C39.537 23.5867 37.5145 23.3192 36.1304 24.4006C34.7463 25.4819 34.5161 27.5094 35.6174 28.919C36.5946 30.1698 38.2965 30.5182 39.6348 29.8254L42.5107 33.5063L39.7105 40.5965L44.4252 46.6311L42.87 50.569C41.9803 50.3799 41.0233 50.5641 40.2599 51.1605C39.487 51.7643 39.0746 52.6635 39.0527 53.5851L33.8993 54.3257L34.0842 55.4839L39.2381 54.743C39.3536 55.0713 39.5203 55.388 39.7466 55.6776C40.7239 56.9284 42.4256 57.2776 43.7639 56.5848L46.7682 60.4301L54.3255 59.4288L58.224 64.4186C57.2769 65.5502 57.2245 67.2482 58.1847 68.4772C59.286 69.8867 61.3085 70.1542 62.6926 69.0729C64.0767 67.9915 64.3069 65.964 63.2056 64.5544C62.2113 63.2818 60.4683 62.9447 59.1195 63.686L55.2366 58.7162L58.036 51.6259L53.3217 45.5918L56.1547 38.4177L50.9783 31.7923L43.4218 32.7937L40.5463 29.1132ZM56.7065 51.8029L54.1532 58.2688L47.2612 59.1823L44.6754 55.8726C45.6714 54.7417 45.7448 53.0057 44.7675 51.7548C44.5333 51.455 44.2558 51.2107 43.9535 51.0163L45.4755 47.1618L52.367 46.2487L56.7065 51.8029ZM54.8251 38.5947L52.2722 45.0611L45.3798 45.9742L41.0404 40.42L43.5941 33.9537L50.4857 33.0405L54.8251 38.5947Z" fill="#1671B9"/>
<path d="M54.2071 38.7572L49.4499 32.6683L41.9672 33.612L39.2408 40.6445L43.998 46.7334L51.4812 45.7894L54.2071 38.7572Z" stroke="#10355B" stroke-width="2" stroke-miterlimit="10" stroke-linecap="square"/>
<path d="M56.1622 51.9058L51.4054 45.8173L43.9226 46.761L41.1963 53.7935L45.9531 59.882L53.4363 58.9379L56.1622 51.9058Z" stroke="#10355B" stroke-width="2" stroke-miterlimit="10" stroke-linecap="square"/>
<path d="M41.1962 53.7935L33.5814 54.8404" stroke="#10355B" stroke-width="2" stroke-miterlimit="10" stroke-linecap="square"/>
<path d="M53.4363 58.9379L57.8632 64.6041" stroke="#10355B" stroke-width="2" stroke-miterlimit="10" stroke-linecap="square"/>
<path d="M41.9672 33.6121L38.4442 29.1028" stroke="#10355B" stroke-width="2" stroke-miterlimit="10" stroke-linecap="square"/>
<path d="M38.5548 29.2443C39.6733 28.3705 39.8482 26.7255 38.9456 25.5701C38.0429 24.4147 36.4044 24.1865 35.2859 25.0604C34.1675 25.9342 33.9925 27.5792 34.8952 28.7346C35.7979 29.89 37.4363 30.1182 38.5548 29.2443Z" fill="#FAC855" stroke="#10355B" stroke-width="2" stroke-miterlimit="10"/>
<path d="M61.583 65.0668C62.4858 66.2223 62.3109 67.867 61.1923 68.741C60.0736 69.615 58.4354 69.3868 57.5326 68.2313C56.6298 67.0758 56.8048 65.431 57.9234 64.5571C59.042 63.6831 60.6802 63.9113 61.583 65.0668Z" fill="#FF527F" stroke="#10355B" stroke-width="2" stroke-miterlimit="10"/>
<path d="M43.2214 52.2113C44.1242 53.3668 43.9493 55.0115 42.8307 55.8855C41.7121 56.7595 40.0738 56.5313 39.1711 55.3758C38.2683 54.2203 38.4432 52.5755 39.5618 51.7016C40.6801 50.8271 42.3187 51.0558 43.2214 52.2113Z" fill="#05CDFF" stroke="#10355B" stroke-width="2" stroke-miterlimit="10"/>
</svg>
