<svg width="42" height="52" viewBox="0 0 42 52" fill="none" xmlns="http://www.w3.org/2000/svg">
<path d="M11.4296 18.5985L18.2878 36.5904C19.4522 39.645 23.0894 41.2711 26.4123 40.2209C29.7345 39.1713 31.4845 35.844 30.3195 32.7888L23.4612 14.7968C22.2969 11.7422 18.659 10.1167 15.3368 11.1664C12.0146 12.216 10.2646 15.5432 11.4296 18.5985Z" fill="#308FFF"/>
<path d="M10.4955 18.8936L17.3537 36.8855C18.6969 40.4091 22.9073 42.2905 26.7389 41.0797C30.5712 39.8689 32.5959 36.0173 31.2528 32.4937L24.3946 14.5017C23.0514 10.9781 18.841 9.09678 15.0094 10.3076C11.1771 11.5183 9.15235 15.3699 10.4955 18.8936ZM29.3854 33.0838C30.3674 35.6602 28.887 38.4769 26.0849 39.3621C23.2828 40.2473 20.2038 38.8718 19.2211 36.2947L12.3629 18.3028C11.3809 15.7264 12.8613 12.9098 15.6634 12.0246C18.4655 11.1393 21.5445 12.5148 22.5272 15.0919L29.3854 33.0838Z" fill="#001419"/>
<path d="M24.663 37.9631C24.7663 38.2338 25.0666 38.4049 25.3795 38.367C25.7097 38.3266 25.9775 38.0539 25.9725 37.7479C25.969 37.548 25.8594 37.363 25.6779 37.2518C25.497 37.1406 25.2687 37.1174 25.0667 37.1907C24.7578 37.3027 24.5623 37.6222 24.6481 37.9183C24.6522 37.9336 24.6576 37.9483 24.663 37.9631Z" fill="#001419"/>
<path d="M18.1996 31.8572L19.6665 35.7062C20.2058 37.1218 21.5373 38.1828 23.141 38.4758C23.4985 38.5412 23.8447 38.3282 23.9138 38.0001C23.9815 37.6724 23.7486 37.3535 23.3905 37.2881C22.2459 37.0791 21.2964 36.3224 20.9117 35.3126L19.4448 31.4636C19.3246 31.1475 18.9477 30.9791 18.6038 31.088C18.2607 31.1969 18.0795 31.5411 18.1996 31.8572Z" fill="#001419"/>
<path d="M23.4613 14.7968L27.0359 24.1755C22.936 24.222 18.1582 25.7916 15.1147 28.2676L11.4289 18.5985C10.2646 15.5439 12.0139 12.216 15.3361 11.1664C18.659 10.1168 22.2969 11.7422 23.4613 14.7968Z" fill="#FF725E"/>
<path d="M10.4955 18.8936L14.1813 28.5627C14.2906 28.8493 14.5483 29.068 14.8683 29.1454C15.1884 29.2227 15.5284 29.1488 15.7744 28.9486C18.5602 26.6815 23.0932 25.1287 27.0545 25.0833C27.3721 25.0801 27.667 24.9367 27.8484 24.6985C28.0299 24.4603 28.075 24.1561 27.9699 23.8805L24.3952 14.5024C23.0521 10.9787 18.8417 9.09742 15.0094 10.3082C11.1771 11.5183 9.15239 15.37 10.4955 18.8936ZM15.5843 26.7546L12.3629 18.3034C11.381 15.727 12.8613 12.9104 15.6634 12.0252C18.4655 11.14 21.5445 12.5155 22.5272 15.0925L25.6676 23.3313C22.0917 23.6234 18.367 24.8901 15.5843 26.7546Z" fill="#001419"/>
<path d="M21.193 16.894L22.9444 21.4894C23.0646 21.8055 23.4415 21.9739 23.7853 21.865C24.1292 21.7561 24.3104 21.4119 24.1896 21.0958L22.4382 16.5003C22.3174 16.1842 21.9411 16.0158 21.5973 16.1247C21.2535 16.233 21.0722 16.5772 21.193 16.894Z" fill="#001419"/>
<path d="M20.559 15.2255C20.6182 15.3802 20.7347 15.5036 20.8946 15.5747C20.9699 15.6083 21.0562 15.6325 21.1419 15.6374C21.2335 15.6406 21.3192 15.6268 21.4 15.6012C21.4374 15.5892 21.4807 15.5755 21.5139 15.5525C21.5549 15.5328 21.588 15.5097 21.6212 15.4867C21.6519 15.4581 21.6833 15.4289 21.705 15.3964C21.7357 15.3672 21.758 15.3347 21.7718 15.2982C21.8851 15.0824 21.8511 14.8111 21.6714 14.631C21.6141 14.572 21.5465 14.523 21.462 14.4855C21.4282 14.4704 21.3884 14.4574 21.3426 14.4461C21.3028 14.4332 21.2587 14.428 21.2171 14.4283C21.1731 14.4225 21.1315 14.4229 21.0856 14.4315C21.0458 14.4374 21 14.4454 20.9632 14.4575C20.8818 14.483 20.8077 14.5258 20.7377 14.5803C20.6738 14.6325 20.6208 14.6942 20.5847 14.7632C20.5504 14.8377 20.5305 14.9151 20.5197 14.9952C20.515 15.0726 20.5306 15.1512 20.559 15.2255Z" fill="#001419"/>
</svg>
