<svg width="53" height="85" viewBox="0 0 53 85" fill="none" xmlns="http://www.w3.org/2000/svg">
<path d="M21.3141 15.3424L21.3141 69.2751C21.3141 72.7321 24.2089 75.6354 27.8412 75.6459C27.8644 75.6459 27.8865 75.6459 27.9096 75.6459C27.9328 75.6459 27.956 75.6459 27.9781 75.6459C31.6094 75.6354 34.5052 72.733 34.5052 69.2751V15.3424H21.3141Z" fill="white" stroke="#10355B" stroke-width="2" stroke-miterlimit="10"/>
<path d="M21.3141 48.6605V69.2751C21.3141 72.7321 24.2089 75.6354 27.8412 75.6459C27.8644 75.6459 27.8875 75.6459 27.9096 75.6459C27.9328 75.6459 27.956 75.6459 27.9781 75.6459C31.6094 75.6354 34.5052 72.733 34.5052 69.2751V48.6605H21.3141Z" fill="url(#paint0_linear_46_798)" stroke="#10355B" stroke-width="2" stroke-miterlimit="10"/>
<path d="M21.3081 17.1155C19.4315 17.1155 17.9102 15.6672 17.9102 13.8807C17.9102 12.0942 19.4315 10.6459 21.3081 10.6459L34.5113 10.6459C36.3878 10.6459 37.9102 12.0942 37.9102 13.8807C37.9102 15.6672 36.3888 17.1155 34.5113 17.1155H28.7015" fill="white"/>
<path d="M21.3081 17.1155C19.4315 17.1155 17.9102 15.6672 17.9102 13.8807C17.9102 12.0942 19.4315 10.6459 21.3081 10.6459L34.5113 10.6459C36.3878 10.6459 37.9102 12.0942 37.9102 13.8807C37.9102 15.6672 36.3888 17.1155 34.5113 17.1155H28.7015" stroke="#10355B" stroke-width="2" stroke-miterlimit="10" stroke-linecap="square"/>
<path d="M24.7583 25.4088V52.1443" stroke="#10355B" stroke-width="2" stroke-miterlimit="10" stroke-linecap="square"/>
<defs>
<linearGradient id="paint0_linear_46_798" x1="27.9097" y1="48.6605" x2="27.9097" y2="75.6459" gradientUnits="userSpaceOnUse">
<stop offset="0.203125" stop-color="#308FFF"/>
<stop offset="1" stop-color="#FF725E" stop-opacity="0.82"/>
</linearGradient>
</defs>
</svg>
