<svg width="80" height="54" viewBox="0 0 80 54" fill="none" xmlns="http://www.w3.org/2000/svg">
<path d="M29.1909 40.0819L57.5707 29.9676C62.3889 28.2505 64.7826 23.2655 62.9148 18.8327C61.0479 14.4008 55.6283 12.1991 50.8091 13.9172L22.4293 24.0314C17.611 25.7486 15.2184 30.7345 17.0853 35.1664C18.9521 39.5983 24.3717 41.8 29.1909 40.0819Z" fill="#308FFF"/>
<path d="M29.7157 41.328L58.0955 31.2137C63.6535 29.2329 66.4229 23.4623 64.2694 18.3508C62.1159 13.2385 55.8423 10.6912 50.2843 12.672L21.9045 22.7863C16.3464 24.7671 13.5771 30.5377 15.7306 35.6491C17.8841 40.7615 24.1577 43.3088 29.7157 41.328ZM51.3339 15.1632C55.3978 13.715 59.9856 15.5773 61.5601 19.3154C63.1345 23.0535 61.1098 27.2734 57.0449 28.7225L28.6651 38.8368C24.6012 40.285 20.0134 38.4227 18.4389 34.6846C16.8645 30.9465 18.8892 26.7266 22.9541 25.2775L51.3339 15.1632Z" fill="#001419"/>
<path d="M59.4037 21.3007C59.8307 21.1484 60.0873 20.7352 60.0089 20.3148C59.9256 19.8712 59.4744 19.523 58.9854 19.5444C58.6659 19.5586 58.3763 19.7154 58.2088 19.9656C58.0413 20.215 58.0171 20.5241 58.1459 20.793C58.3425 21.2045 58.8644 21.453 59.333 21.323C59.3572 21.3167 59.3805 21.3087 59.4037 21.3007Z" fill="#001419"/>
<path d="M50.0074 30.3132L56.0786 28.1498C58.3115 27.3545 59.9324 25.5073 60.31 23.3296C60.3943 22.8442 60.0341 22.3873 59.5054 22.3098C58.9777 22.2341 58.4809 22.5636 58.3967 23.0499C58.1275 24.6041 56.9713 25.9214 55.3785 26.4888L49.3073 28.6522C48.8086 28.8294 48.5607 29.346 48.7544 29.8047C48.948 30.2625 49.5087 30.4905 50.0074 30.3132Z" fill="#001419"/>
<path d="M22.4293 24.0315L37.223 18.7597C37.5299 24.2889 40.3108 30.6597 44.4426 34.6472L29.191 40.0829C24.3727 41.8 18.9522 39.5992 17.0853 35.1673C15.2184 30.7345 17.6111 25.7486 22.4293 24.0315Z" fill="#FF725E"/>
<path d="M29.7158 41.328L44.9674 35.8923C45.4196 35.7311 45.7546 35.3731 45.8602 34.9375C45.9657 34.502 45.8282 34.0469 45.4941 33.7245C41.711 30.0745 38.9707 24.0332 38.6735 18.6911C38.6502 18.2627 38.4043 17.8717 38.0131 17.6383C37.6219 17.405 37.1329 17.3586 36.6982 17.5136L21.9055 22.7854C16.3474 24.7662 13.5781 30.5368 15.7316 35.6491C17.8841 40.7615 24.1578 43.3088 29.7158 41.328ZM41.9967 34.0861L28.6662 38.8368C24.6022 40.285 20.0144 38.4227 18.4399 34.6846C16.8655 30.9465 18.8902 26.7266 22.9551 25.2775L35.9506 20.6461C36.6207 25.4565 38.8574 30.421 41.9967 34.0861Z" fill="#001419"/>
<path d="M25.9113 26.9911L33.16 24.4082C33.6587 24.231 33.9065 23.7144 33.7129 23.2557C33.5192 22.797 32.9586 22.569 32.4599 22.7471L25.2112 25.33C24.7125 25.5081 24.4647 26.0238 24.6583 26.4825C24.851 26.9412 25.4117 27.1692 25.9113 26.9911Z" fill="#001419"/>
<path d="M23.2795 27.9263C23.5235 27.839 23.7142 27.676 23.8188 27.4569C23.8682 27.3536 23.9021 27.236 23.905 27.1202C23.905 26.9964 23.8779 26.8815 23.8324 26.7738C23.8111 26.7239 23.7868 26.666 23.7481 26.6224C23.7142 26.568 23.6755 26.5244 23.6368 26.4807C23.5893 26.4407 23.5409 26.3997 23.4877 26.3721C23.4392 26.332 23.386 26.3035 23.3269 26.2866C22.9754 26.1441 22.5436 26.2029 22.2656 26.454C22.1746 26.5342 22.1001 26.6277 22.0449 26.7435C22.0226 26.7898 22.0042 26.8441 21.9887 26.9065C21.9703 26.9608 21.9645 27.0205 21.9674 27.0766C21.9607 27.1363 21.9636 27.1924 21.98 27.2538C21.9916 27.3073 22.0071 27.3687 22.0284 27.4177C22.0739 27.5264 22.1466 27.6243 22.2376 27.7161C22.3247 27.7998 22.4264 27.8684 22.5388 27.9138C22.6598 27.9565 22.7847 27.9797 22.9134 27.9904C23.0374 27.9931 23.1623 27.9681 23.2795 27.9263Z" fill="#001419"/>
</svg>
