<svg width="502" height="59" viewBox="0 0 502 59" fill="none" xmlns="http://www.w3.org/2000/svg">
<path d="M17 41.9847V56.0153C17.0008 56.5692 16.8432 57.112 16.5456 57.5809C16.2479 58.0498 15.8222 58.4256 15.3179 58.6648C14.7195 58.9448 14.0537 59.0526 13.3964 58.976C12.7392 58.8994 12.1169 58.6415 11.6004 58.2315L3.02157 51.2162C2.7009 50.9409 2.44373 50.6006 2.26747 50.2182C2.09122 49.8358 2 49.4204 2 49C2 48.5796 2.09122 48.1642 2.26747 47.7818C2.44373 47.3994 2.7009 47.0591 3.02157 46.7838L11.6004 39.7685C12.1169 39.3585 12.7392 39.1006 13.3964 39.024C14.0537 38.9474 14.7195 39.0552 15.3179 39.3352C15.8222 39.5744 16.2479 39.9502 16.5456 40.4191C16.8432 40.888 17.0008 41.4308 17 41.9847Z" fill="#FF725E"/>
<path d="M500 55.1119C500 55.1119 296 -55.3894 9 55.1114" stroke="#FF725E" stroke-width="5" stroke-miterlimit="10" stroke-dasharray="7 7"/>
<path d="M498 52C498 52 294 -58.2496 7 51.9995" stroke="#0F355B" stroke-width="5" stroke-miterlimit="10" stroke-dasharray="7 7"/>
<path d="M15 40.9847L15 55.0153C15.0008 55.5692 14.8432 56.112 14.5456 56.5809C14.2479 57.0498 13.8222 57.4256 13.3179 57.6648C12.7195 57.9448 12.0537 58.0526 11.3964 57.976C10.7392 57.8994 10.1169 57.6415 9.60039 57.2315L1.02157 50.2162C0.700902 49.9409 0.443729 49.6006 0.267474 49.2182C0.0912187 48.8358 0 48.4204 0 48C0 47.5796 0.0912187 47.1642 0.267474 46.7818C0.443729 46.3994 0.700902 46.0591 1.02157 45.7838L9.60039 38.7685C10.1169 38.3585 10.7392 38.1006 11.3964 38.024C12.0537 37.9474 12.7195 38.0552 13.3179 38.3352C13.8222 38.5744 14.2479 38.9502 14.5456 39.4191C14.8432 39.888 15.0008 40.4308 15 40.9847Z" fill="#0F355B"/>
</svg>
