<svg xmlns="http://www.w3.org/2000/svg" width="5" height="11" viewBox="0 0 5 11" fill="none">
  <path d="M4.8088 0.535505C4.93123 0.674512 5 0.86302 5 1.05958C5 1.25613 4.93123 1.44464 4.8088 1.58365L1.57628 5.25289L4.8088 8.92212C4.92776 9.06193 4.99358 9.24917 4.99209 9.44353C4.9906 9.63788 4.92192 9.8238 4.80085 9.96124C4.67977 10.0987 4.51598 10.1766 4.34476 10.1783C4.17353 10.18 4.00857 10.1053 3.88541 9.97027L0.191199 5.77696C0.0687744 5.63795 0 5.44944 0 5.25289C0 5.05633 0.0687744 4.86782 0.191199 4.72881L3.88541 0.535505C4.00787 0.39654 4.17394 0.318474 4.34711 0.318474C4.52027 0.318474 4.68634 0.39654 4.8088 0.535505Z" fill="#333333"/>
</svg>