          <svg
            xmlns="http://www.w3.org/2000/svg"
            width="10"
            height="15"
            viewBox="0 0 10 15"
            fill="none"
          >
            <path
              d="M9.6176 0.330173C9.86245 0.541647 10 0.828428 10 1.12745C10 1.42648 9.86245 1.71326 9.6176 1.92473L3.15257 7.50681L9.6176 13.0889C9.85551 13.3016 9.98716 13.5864 9.98418 13.8821C9.9812 14.1778 9.84385 14.4606 9.60169 14.6697C9.35954 14.8788 9.03196 14.9974 8.68951 15C8.34706 15.0025 8.01715 14.8889 7.77082 14.6834L0.382399 8.30409C0.137549 8.09261 0 7.80583 0 7.50681C0 7.20778 0.137549 6.921 0.382399 6.70953L7.77082 0.330173C8.01575 0.118763 8.34789 0 8.69421 0C9.04053 0 9.37268 0.118763 9.6176 0.330173Z"
              fill="#333333"
            />
          </svg>
