<svg width="20" height="113" viewBox="0 0 20 113" fill="none" xmlns="http://www.w3.org/2000/svg">
<g filter="url(#filter0_d_388_1027)">
<path d="M12.0006 -1.65403e-06C12.0006 -1.65403e-06 12.0006 44.6677 12 100" stroke="#FF725E" stroke-width="5" stroke-miterlimit="10" stroke-dasharray="7 7"/>
<path d="M6.98575 96.0654H14.2516C14.5384 96.065 14.8195 96.146 15.0624 96.299C15.3052 96.452 15.4998 96.6708 15.6236 96.93C15.7686 97.2376 15.8245 97.5798 15.7848 97.9176C15.7452 98.2555 15.6116 98.5753 15.3993 98.8408L11.7664 103.25C11.6238 103.415 11.4475 103.547 11.2495 103.638C11.0515 103.729 10.8364 103.775 10.6187 103.775C10.401 103.775 10.1858 103.729 9.98783 103.638C9.78981 103.547 9.61355 103.415 9.47098 103.25L5.83805 98.8408C5.62577 98.5753 5.49218 98.2555 5.45251 97.9176C5.41284 97.5798 5.46869 97.2376 5.61369 96.93C5.73756 96.6708 5.93216 96.452 6.17498 96.299C6.4178 96.146 6.6989 96.065 6.98575 96.0654Z" fill="#FF725E"/>
<path d="M6.48648 97.1025H13.7523C14.0392 97.1021 14.3203 97.1831 14.5631 97.3361C14.8059 97.4891 15.0005 97.7079 15.1244 97.9671C15.2694 98.2747 15.3252 98.6169 15.2856 98.9547C15.2459 99.2926 15.1123 99.6124 14.9 99.8779L11.2671 104.287C11.1245 104.452 10.9483 104.584 10.7502 104.675C10.5522 104.766 10.3371 104.812 10.1194 104.812C9.90172 104.812 9.68658 104.766 9.48856 104.675C9.29055 104.584 9.11428 104.452 8.97171 104.287L5.33879 99.8779C5.1265 99.6124 4.99291 99.2926 4.95324 98.9547C4.91358 98.6169 4.96943 98.2747 5.11443 97.9671C5.23829 97.7079 5.4329 97.4891 5.67571 97.3361C5.91853 97.1831 6.19963 97.1021 6.48648 97.1025Z" fill="#0F355B"/>
<path d="M10.0006 0.999998C10.0006 0.999998 10.0006 45.6677 10 101" stroke="#0F355B" stroke-width="5" stroke-miterlimit="10" stroke-dasharray="7 7"/>
</g>
<defs>
<filter id="filter0_d_388_1027" x="0.940796" y="0" width="18.8564" height="112.812" filterUnits="userSpaceOnUse" color-interpolation-filters="sRGB">
<feFlood flood-opacity="0" result="BackgroundImageFix"/>
<feColorMatrix in="SourceAlpha" type="matrix" values="0 0 0 0 0 0 0 0 0 0 0 0 0 0 0 0 0 0 127 0" result="hardAlpha"/>
<feOffset dy="4"/>
<feGaussianBlur stdDeviation="2"/>
<feComposite in2="hardAlpha" operator="out"/>
<feColorMatrix type="matrix" values="0 0 0 0 0 0 0 0 0 0 0 0 0 0 0 0 0 0 0.25 0"/>
<feBlend mode="normal" in2="BackgroundImageFix" result="effect1_dropShadow_388_1027"/>
<feBlend mode="normal" in="SourceGraphic" in2="effect1_dropShadow_388_1027" result="shape"/>
</filter>
</defs>
</svg>
