<svg width="73" height="106" viewBox="0 0 73 106" fill="none" xmlns="http://www.w3.org/2000/svg">
<path d="M66.562 22.9716H63.5908H61.8295L66.8276 11.2899C68.089 8.34567 66.8562 4.86168 64.0836 3.52447L64.0821 3.52295C61.3138 2.18877 58.0269 3.49567 56.767 6.43996L49.6933 22.9716H42.9767H8.43947C4.88976 22.9716 2 26.0372 2 29.8062C2 33.2614 4.43838 36.0965 7.57956 36.5483V66.8963V93.2872C7.57956 99.1939 12.1092 104 17.6744 104H57.3256C62.8923 104 67.4204 99.1939 67.4204 93.2872V66.8963V36.5483C70.5616 36.0965 73 33.2614 73 29.8062C73.0014 26.0372 70.1131 22.9716 66.562 22.9716Z" fill="#FF725E"/>
<path d="M56.365 101H15.6351C10.7196 101 6.73291 96.7969 6.73291 91.6111V30.9065H65.2672V91.6111C65.2672 96.7969 61.282 101 56.365 101Z" fill="white" stroke="#0F355B" stroke-width="2" stroke-miterlimit="10"/>
<path d="M62.6978 1.39836C60.5819 0.384728 58.0875 1.37204 57.1264 3.60511L30.3009 65.9037C30.2745 65.964 30.2657 66.0259 30.2422 66.0863H39.4657L64.7888 7.27585C65.7513 5.04278 64.8137 2.41198 62.6978 1.39836Z" fill="#FAC855" stroke="#0F355B" stroke-width="2" stroke-miterlimit="10"/>
<g filter="url(#filter0_f_77_22872)">
<path d="M7 32V82.373C7 92.6612 10.9488 101 15.8209 101H56.1791C61.0497 101 65 92.6612 65 82.373V32H7Z" fill="#05CDFF"/>
<path d="M7 32V82.373C7 92.6612 10.9488 101 15.8209 101H56.1791C61.0497 101 65 92.6612 65 82.373V32H7Z" stroke="#0F355B" stroke-width="2" stroke-miterlimit="10"/>
</g>
<path d="M65.8526 32.2434H6.1474C3.3052 32.2434 1 29.8138 1 26.8147C1 23.8171 3.30373 21.386 6.1474 21.386H65.8526C68.6948 21.386 71 23.8156 71 26.8147C71 29.8138 68.6948 32.2434 65.8526 32.2434Z" fill="white" stroke="#0F355B" stroke-width="2" stroke-miterlimit="10"/>
<path d="M18.354 41.7932V87.4234" stroke="#0F355B" stroke-width="2" stroke-miterlimit="10"/>
<path d="M18.354 65.9532H25.8007" stroke="#0F355B" stroke-width="2" stroke-miterlimit="10"/>
<path d="M18.354 73.6908H25.8007" stroke="#0F355B" stroke-width="2" stroke-miterlimit="10"/>
<path d="M18.354 81.4285H25.8007" stroke="#0F355B" stroke-width="2" stroke-miterlimit="10"/>
<path d="M18.354 58.2156H25.8007" stroke="#0F355B" stroke-width="2" stroke-miterlimit="10"/>
<path d="M18.354 50.478H25.8007" stroke="#0F355B" stroke-width="2" stroke-miterlimit="10"/>
<path d="M41.6243 21.3878H62.8006" stroke="#0F355B" stroke-width="2" stroke-miterlimit="10"/>
<path d="M40.4607 32.2437H58.1228" stroke="#0F355B" stroke-width="2" stroke-miterlimit="10"/>
<path d="M31.47 65.36C31.47 64.4453 31.4233 63.6567 31.33 62.994C31.2367 62.322 31.05 61.5193 30.77 60.586L32.17 60.096C32.4687 61.0387 32.6647 61.8647 32.758 62.574C32.8607 63.2833 32.912 64.2073 32.912 65.346V69H31.47V65.36ZM37.9376 62.07C38.4042 62.07 38.8522 62.2007 39.2816 62.462C39.7202 62.7233 40.0702 63.0687 40.3316 63.498C40.5929 63.9273 40.7236 64.3753 40.7236 64.842C40.7236 65.3087 40.5929 65.7613 40.3316 66.2C40.0702 66.6293 39.7202 66.9747 39.2816 67.236C38.8522 67.4973 38.4042 67.628 37.9376 67.628C37.4709 67.628 37.0182 67.4973 36.5796 67.236C36.1502 66.9747 35.8049 66.6293 35.5436 66.2C35.2822 65.7613 35.1516 65.3087 35.1516 64.842C35.1516 64.3753 35.2822 63.9273 35.5436 63.498C35.8049 63.0687 36.1502 62.7233 36.5796 62.462C37.0182 62.2007 37.4709 62.07 37.9376 62.07ZM37.9376 66.242C38.1616 66.242 38.3809 66.1767 38.5956 66.046C38.8196 65.906 38.9969 65.7287 39.1276 65.514C39.2676 65.29 39.3376 65.066 39.3376 64.842C39.3376 64.618 39.2676 64.3987 39.1276 64.184C38.9969 63.9693 38.8196 63.7967 38.5956 63.666C38.3809 63.5353 38.1616 63.47 37.9376 63.47C37.7136 63.47 37.4896 63.54 37.2656 63.68C37.0509 63.8107 36.8736 63.9833 36.7336 64.198C36.6029 64.4033 36.5376 64.618 36.5376 64.842C36.5376 65.066 36.6029 65.29 36.7336 65.514C36.8736 65.7287 37.0509 65.906 37.2656 66.046C37.4896 66.1767 37.7136 66.242 37.9376 66.242ZM45.6075 62.07C46.0742 62.07 46.5222 62.2007 46.9515 62.462C47.3902 62.7233 47.7402 63.0687 48.0015 63.498C48.2628 63.9273 48.3935 64.3753 48.3935 64.842C48.3935 65.3087 48.2628 65.7613 48.0015 66.2C47.7402 66.6293 47.3902 66.9747 46.9515 67.236C46.5222 67.4973 46.0742 67.628 45.6075 67.628C45.1408 67.628 44.6882 67.4973 44.2495 67.236C43.8202 66.9747 43.4748 66.6293 43.2135 66.2C42.9522 65.7613 42.8215 65.3087 42.8215 64.842C42.8215 64.3753 42.9522 63.9273 43.2135 63.498C43.4748 63.0687 43.8202 62.7233 44.2495 62.462C44.6882 62.2007 45.1408 62.07 45.6075 62.07ZM45.6075 66.242C45.8315 66.242 46.0508 66.1767 46.2655 66.046C46.4895 65.906 46.6668 65.7287 46.7975 65.514C46.9375 65.29 47.0075 65.066 47.0075 64.842C47.0075 64.618 46.9375 64.3987 46.7975 64.184C46.6668 63.9693 46.4895 63.7967 46.2655 63.666C46.0508 63.5353 45.8315 63.47 45.6075 63.47C45.3835 63.47 45.1595 63.54 44.9355 63.68C44.7208 63.8107 44.5435 63.9833 44.4035 64.198C44.2728 64.4033 44.2075 64.618 44.2075 64.842C44.2075 65.066 44.2728 65.29 44.4035 65.514C44.5435 65.7287 44.7208 65.906 44.9355 66.046C45.1595 66.1767 45.3835 66.242 45.6075 66.242ZM53.3194 63.736C53.0114 64.0813 52.5634 64.254 51.9754 64.254C51.3874 64.254 50.9394 64.0813 50.6314 63.736C50.3234 63.3907 50.1694 62.9333 50.1694 62.364C50.1694 61.7107 50.3234 61.2067 50.6314 60.852C50.9394 60.488 51.3874 60.306 51.9754 60.306C52.5727 60.306 53.0254 60.488 53.3334 60.852C53.6414 61.2067 53.7954 61.7107 53.7954 62.364C53.7954 62.9333 53.6367 63.3907 53.3194 63.736ZM57.1694 60.432L52.8434 69H51.4154L55.7414 60.432H57.1694ZM51.0374 62.322C51.0374 63.022 51.3501 63.372 51.9754 63.372C52.6194 63.372 52.9414 63.022 52.9414 62.322C52.9414 61.93 52.8621 61.6453 52.7034 61.468C52.5541 61.2813 52.3114 61.188 51.9754 61.188C51.6581 61.188 51.4201 61.2813 51.2614 61.468C51.1121 61.6547 51.0374 61.9393 51.0374 62.322ZM57.9674 68.622C57.6594 68.9673 57.2114 69.14 56.6234 69.14C56.0354 69.14 55.5827 68.9673 55.2654 68.622C54.9574 68.2767 54.8034 67.8193 54.8034 67.25C54.8034 66.5967 54.9574 66.088 55.2654 65.724C55.5827 65.36 56.0354 65.178 56.6234 65.178C57.2114 65.178 57.6594 65.36 57.9674 65.724C58.2847 66.088 58.4434 66.5967 58.4434 67.25C58.4434 67.8193 58.2847 68.2767 57.9674 68.622ZM55.6714 67.208C55.6714 67.8987 55.9887 68.244 56.6234 68.244C57.2674 68.244 57.5894 67.8987 57.5894 67.208C57.5894 66.816 57.5101 66.5313 57.3514 66.354C57.1927 66.1673 56.9501 66.074 56.6234 66.074C56.2967 66.074 56.0541 66.1673 55.8954 66.354C55.7461 66.5313 55.6714 66.816 55.6714 67.208Z" fill="white"/>
<defs>
<filter id="filter0_f_77_22872" x="2" y="27" width="68" height="79" filterUnits="userSpaceOnUse" color-interpolation-filters="sRGB">
<feFlood flood-opacity="0" result="BackgroundImageFix"/>
<feBlend mode="normal" in="SourceGraphic" in2="BackgroundImageFix" result="shape"/>
<feGaussianBlur stdDeviation="2" result="effect1_foregroundBlur_77_22872"/>
</filter>
</defs>
</svg>
