<svg width="30" height="35" viewBox="0 0 30 35" fill="none" xmlns="http://www.w3.org/2000/svg">
<path d="M1.90688 19.7436H7.5C7.675 19.7436 7.835 19.7855 7.98 19.8692C8.12375 19.953 8.2375 20.0786 8.32125 20.2462L11.25 25.7851L17.9288 13.0703C18.1038 12.7268 18.3838 12.5551 18.7688 12.5551C19.1525 12.5551 19.4325 12.7268 19.6087 13.0703L23.0963 19.7454H28.0931C27.8644 16.4644 26.4894 13.6997 23.9681 11.4513C21.4456 9.20171 18.4562 8.07692 15 8.07692C11.5437 8.07692 8.55437 9.20111 6.03188 11.4495C3.51062 13.6979 2.13563 16.4626 1.90688 19.7436ZM15 33.2051C18.4562 33.2051 21.4456 32.0809 23.9681 29.8326C26.4894 27.5842 27.8644 24.8195 28.0931 21.5385H22.5C22.325 21.5385 22.165 21.4966 22.02 21.4128C21.8763 21.3291 21.7625 21.2034 21.6788 21.0359L18.75 15.4969L12.0712 28.2459C11.8962 28.5893 11.6163 28.755 11.2312 28.7431C10.8475 28.7311 10.5675 28.554 10.3912 28.2118L6.90375 21.5385H1.90875C2.1375 24.8195 3.5125 27.5842 6.03375 29.8326C8.555 32.0809 11.5437 33.2051 15 33.2051ZM15 35C12.9275 35 10.9819 34.6255 9.16313 33.8764C7.34562 33.1273 5.755 32.1007 4.39125 30.7964C3.02875 29.4921 1.95625 27.9695 1.17375 26.2285C0.39125 24.4874 0 22.625 0 20.641H1.875C1.875 24.1111 3.15625 27.0727 5.71875 29.5256C8.28125 31.9786 11.375 33.2051 15 33.2051C18.625 33.2051 21.7188 31.9786 24.2813 29.5256C26.8438 27.0727 28.125 24.1111 28.125 20.641H30C30 22.625 29.6088 24.4874 28.8263 26.2285C28.0438 27.9683 26.9713 29.4909 25.6088 30.7964C24.2463 32.1007 22.6556 33.1273 20.8369 33.8764C19.0181 34.6255 17.0725 35 15 35ZM0 20.641C0 18.6571 0.39125 16.7946 1.17375 15.0536C1.95625 13.3138 3.02875 11.7911 4.39125 10.4856C5.75375 9.18137 7.345 8.1547 9.165 7.40564C10.9825 6.65658 12.9275 6.28205 15 6.28205C16.8175 6.28205 18.575 6.59316 20.2725 7.21538C21.9688 7.83521 23.5263 8.7135 24.945 9.85026L26.9925 7.89026L28.32 9.16103L26.2725 11.121C27.46 12.4791 28.3781 13.9701 29.0269 15.5938C29.6756 17.2188 30 18.9012 30 20.641H28.125C28.125 17.1709 26.8438 14.2094 24.2813 11.7564C21.7188 9.30342 18.625 8.07692 15 8.07692C11.375 8.07692 8.28125 9.30342 5.71875 11.7564C3.15625 14.2094 1.875 17.1709 1.875 20.641H0ZM10.0969 1.79487V0H19.9031V1.79487H10.0969ZM15 33.2051C11.375 33.2051 8.28125 31.9786 5.71875 29.5256C3.15625 27.0727 1.875 24.1111 1.875 20.641C1.875 17.1709 3.15625 14.2094 5.71875 11.7564C8.28125 9.30342 11.375 8.07692 15 8.07692C18.625 8.07692 21.7188 9.30342 24.2813 11.7564C26.8438 14.2094 28.125 17.1709 28.125 20.641C28.125 24.1111 26.8438 27.0727 24.2813 29.5256C21.7188 31.9786 18.625 33.2051 15 33.2051Z" fill="#333333"/>
</svg>
