<svg width="30" height="30" viewBox="0 0 30 30" fill="none" xmlns="http://www.w3.org/2000/svg">
<path d="M15 30C6.72857 30 0 23.2714 0 15C0 6.72857 6.72857 0 15 0C23.2714 0 30 6.72857 30 15C30 23.2714 23.2714 30 15 30ZM15 2.14286C7.90714 2.14286 2.14286 7.90714 2.14286 15C2.14286 22.0929 7.90714 27.8571 15 27.8571C22.0929 27.8571 27.8571 22.0929 27.8571 15C27.8571 7.90714 22.0929 2.14286 15 2.14286Z" fill="#333333"/>
<path d="M19.2856 20.3573C19.0927 20.3573 18.8999 20.3144 18.7284 20.2073L13.3713 16.993C13.2126 16.8976 13.0817 16.7624 12.9914 16.6008C12.9012 16.4391 12.8549 16.2567 12.857 16.0716V7.50014C12.857 6.90014 13.3284 6.42871 13.9284 6.42871C14.5284 6.42871 14.9999 6.90014 14.9999 7.50014V15.4716L19.8427 18.3644C20.0422 18.4867 20.1964 18.6706 20.2819 18.8884C20.3674 19.1062 20.3796 19.3459 20.3166 19.5712C20.2536 19.7965 20.1189 19.9952 19.9328 20.137C19.7468 20.2789 19.5195 20.3562 19.2856 20.3573Z" fill="#333333"/>
</svg>
