<svg width="1277" height="720" viewBox="0 0 1277 720" fill="none" xmlns="http://www.w3.org/2000/svg">
<path d="M1130 234C1126 234 1126 228 1130 228C1134 228 1134 234 1130 234Z" fill="#323233"/>
<path d="M1170 289C1166 289 1166 283 1170 283C1174 283 1174 289 1170 289Z" fill="#323233"/>
<path d="M1190 3C1186 3 1186 9 1190 9C1194 9 1194 3 1190 3Z" fill="#323233"/>
<path d="M912 267C908.004 267 907.996 261 912 261C915.996 261 916.004 267 912 267Z" fill="#323233"/>
<path d="M1274 217C1278 217 1278 223 1274 223C1270 223 1270 217 1274 217Z" fill="#323233"/>
<path d="M1025 180C1021 180 1021 174 1025 174C1029 174 1029 180 1025 180Z" fill="#323233"/>
<path d="M1208 79C1204 79 1204 85 1208 85C1212 85 1212 79 1208 79Z" fill="#323233"/>
<path d="M1196 130C1200 130 1200 136 1196 136C1192 136 1192 130 1196 130Z" fill="#323233"/>
<path d="M899 124C896.336 124 896.331 120 899 120C901.664 120 901.669 124 899 124Z" fill="#323233"/>
<path d="M891 46C888.336 46 888.331 50 891 50C893.664 50 893.669 46 891 46Z" fill="#323233"/>
<path d="M1089 182C1086.34 182 1086.33 178 1089 178C1091.66 178 1091.67 182 1089 182Z" fill="#323233"/>
<path d="M1112 278C1109.34 278 1109.33 274 1112 274C1114.66 274 1114.67 278 1112 278Z" fill="#323233"/>
<path d="M979 97C976.336 97 976.331 93 979 93C981.664 93 981.669 97 979 97Z" fill="#323233"/>
<path d="M1132 14C1129.34 14 1129.33 18 1132 18C1134.66 18 1134.67 14 1132 14Z" fill="#323233"/>
<path d="M883 206C880.336 206 880.331 202 883 202C885.664 202 885.669 206 883 206Z" fill="#323233"/>
<path d="M1037 268C1034.34 268 1034.33 264 1037 264C1039.66 264 1039.67 268 1037 268Z" fill="#323233"/>
<path d="M974 210C971.336 210 971.331 206 974 206C976.664 206 976.669 210 974 210Z" fill="#323233"/>
<path d="M876 163C873.336 163 873.331 159 876 159C878.664 159 878.669 163 876 163Z" fill="#323233"/>
<path d="M1083 117C1081.67 117 1081.67 115 1083 115C1084.33 115 1084.33 117 1083 117Z" fill="#323233"/>
<path d="M1106 213C1104.67 213 1104.67 211 1106 211C1107.33 211 1107.33 213 1106 213Z" fill="#323233"/>
<path d="M912 141C910.668 141 910.665 139 912 139C913.332 139 913.335 141 912 141Z" fill="#323233"/>
<path d="M973 32C971.668 32 971.665 30 973 30C974.332 30 974.335 32 973 32Z" fill="#323233"/>
<path d="M1110 92C1108.67 92 1108.67 94 1110 94C1111.33 94 1111.33 92 1110 92Z" fill="#323233"/>
<path d="M1253 250C1251.67 250 1251.67 248 1253 248C1254.33 248 1254.33 250 1253 250Z" fill="#323233"/>
<path d="M959 166C957.668 166 957.665 164 959 164C960.332 164 960.335 166 959 166Z" fill="#323233"/>
<path d="M1242 157C1243.33 157 1243.33 159 1242 159C1240.67 159 1240.67 157 1242 157Z" fill="#323233"/>
<path d="M1137 114C1135.67 114 1135.67 112 1137 112C1138.33 112 1138.33 114 1137 114Z" fill="#323233"/>
<path d="M1160 210C1158.67 210 1158.67 208 1160 208C1161.33 208 1161.33 210 1160 210Z" fill="#323233"/>
<path d="M1027 29C1025.67 29 1025.67 27 1027 27C1028.33 27 1028.33 29 1027 29Z" fill="#323233"/>
<path d="M1180 82C1178.67 82 1178.67 84 1180 84C1181.33 84 1181.33 82 1180 82Z" fill="#323233"/>
<path d="M938 96C936.668 96 936.665 94 938 94C939.332 94 939.335 96 938 96Z" fill="#323233"/>
<path d="M942 20C940.668 20 940.665 18 942 18C943.332 18 943.335 20 942 20Z" fill="#323233"/>
<path d="M996 121C994.668 121 994.665 119 996 119C997.332 119 997.335 121 996 121Z" fill="#323233"/>
<path d="M1025 26C1023.67 26 1023.67 24 1025 24C1026.33 24 1026.33 26 1025 26Z" fill="#323233"/>
<path d="M1044 144C1042.67 144 1042.67 142 1044 142C1045.33 142 1045.33 144 1044 144Z" fill="#323233"/>
<path d="M1067 240C1065.67 240 1065.67 238 1067 238C1068.33 238 1068.33 240 1067 240Z" fill="#323233"/>
<path d="M873 168C871.668 168 871.665 166 873 166C874.332 166 874.335 168 873 168Z" fill="#323233"/>
<path d="M934 59C932.668 59 932.665 57 934 57C935.332 57 935.335 59 934 59Z" fill="#323233"/>
<path d="M1087 52C1085.67 52 1085.67 54 1087 54C1088.33 54 1088.33 52 1087 52Z" fill="#323233"/>
<path d="M1195 220C1193.67 220 1193.67 218 1195 218C1196.33 218 1196.33 220 1195 220Z" fill="#323233"/>
<path d="M1046 49C1044.67 49 1044.67 47 1046 47C1047.33 47 1047.33 49 1046 49Z" fill="#323233"/>
<path d="M1233 30C1231.67 30 1231.67 32 1233 32C1234.33 32 1234.33 30 1233 30Z" fill="#323233"/>
<path d="M1216 165C1217.33 165 1217.33 167 1216 167C1214.67 167 1214.67 165 1216 165Z" fill="#323233"/>
<path d="M1130 168C1128.67 168 1128.67 166 1130 166C1131.33 166 1131.33 168 1130 168Z" fill="#323233"/>
<path d="M1153 264C1151.67 264 1151.67 262 1153 262C1154.33 262 1154.33 264 1153 264Z" fill="#323233"/>
<path d="M958 246C956.668 246 956.665 244 958 244C959.332 244 959.335 246 958 246Z" fill="#323233"/>
<path d="M1020 83C1018.67 83 1018.67 81 1020 81C1021.33 81 1021.33 83 1020 83Z" fill="#323233"/>
<path d="M1173 28C1171.67 28 1171.67 30 1173 30C1174.33 30 1174.33 28 1173 28Z" fill="#323233"/>
<path d="M676 91C672.004 91 671.996 85 676 85C679.996 85 680.004 91 676 91Z" fill="#323233"/>
<path d="M716 146C712.004 146 711.996 140 716 140C719.996 140 720.004 146 716 146Z" fill="#323233"/>
<path d="M458 124C454.004 124 453.996 118 458 118C461.996 118 462.004 124 458 124Z" fill="#323233"/>
<path d="M820 74C823.996 74 824.004 80 820 80C816.004 80 815.996 74 820 74Z" fill="#323233"/>
<path d="M836 131C832.004 131 831.996 125 836 125C839.996 125 840.004 131 836 131Z" fill="#323233"/>
<path d="M571 37C567.004 37 566.996 31 571 31C574.996 31 575.004 37 571 37Z" fill="#323233"/>
<path d="M635 39C632.336 39 632.331 35 635 35C637.664 35 637.669 39 635 39Z" fill="#323233"/>
<path d="M658 135C655.336 135 655.331 131 658 131C660.664 131 660.669 135 658 135Z" fill="#323233"/>
<path d="M429 63C426.336 63 426.331 59 429 59C431.664 59 431.669 63 429 63Z" fill="#323233"/>
<path d="M583 125C580.336 125 580.331 121 583 121C585.664 121 585.669 125 583 125Z" fill="#323233"/>
<path d="M520 67C517.336 67 517.331 63 520 63C522.664 63 522.669 67 520 67Z" fill="#323233"/>
<path d="M422 20C419.336 20 419.331 16 422 16C424.664 16 424.669 20 422 20Z" fill="#323233"/>
<path d="M652 70C650.668 70 650.665 68 652 68C653.332 68 653.335 70 652 70Z" fill="#323233"/>
<path d="M835 39C836.332 39 836.335 41 835 41C833.668 41 833.665 39 835 39Z" fill="#323233"/>
<path d="M799 107C797.668 107 797.665 105 799 105C800.332 105 800.335 107 799 107Z" fill="#323233"/>
<path d="M505 23C503.668 23 503.665 21 505 21C506.332 21 506.335 23 505 23Z" fill="#323233"/>
<path d="M788 14C789.332 14 789.335 16 788 16C786.668 16 786.665 14 788 14Z" fill="#323233"/>
<path d="M706 67C704.668 67 704.665 65 706 65C707.332 65 707.335 67 706 67Z" fill="#323233"/>
<path d="M865 90C866.332 90 866.335 92 865 92C863.668 92 863.665 90 865 90Z" fill="#323233"/>
<path d="M613 97C611.668 97 611.665 95 613 95C614.332 95 614.335 97 613 97Z" fill="#323233"/>
<path d="M419 25C417.668 25 417.665 23 419 23C420.332 23 420.335 25 419 25Z" fill="#323233"/>
<path d="M874 12C875.332 12 875.335 14 874 14C872.668 14 872.665 12 874 12Z" fill="#323233"/>
<path d="M741 77C739.668 77 739.665 75 741 75C742.332 75 742.335 77 741 77Z" fill="#323233"/>
<path d="M762 22C763.332 22 763.335 24 762 24C760.668 24 760.665 22 762 22Z" fill="#323233"/>
<path d="M676 25C674.668 25 674.665 23 676 23C677.332 23 677.335 25 676 25Z" fill="#323233"/>
<path d="M699 121C697.668 121 697.665 119 699 119C700.332 119 700.335 121 699 121Z" fill="#323233"/>
<path d="M504 103C502.668 103 502.665 101 504 101C505.332 101 505.335 103 504 103Z" fill="#323233"/>
<path d="M1148 525C1144 525 1144 519 1148 519C1152 519 1152 525 1148 525Z" fill="#323233"/>
<path d="M1188 580C1184 580 1184 574 1188 574C1192 574 1192 580 1188 580Z" fill="#323233"/>
<path d="M1208 294C1204 294 1204 300 1208 300C1212 300 1212 294 1208 294Z" fill="#323233"/>
<path d="M930 558C926.004 558 925.996 552 930 552C933.996 552 934.004 558 930 558Z" fill="#323233"/>
<path d="M1043 471C1039 471 1039 465 1043 465C1047 465 1047 471 1043 471Z" fill="#323233"/>
<path d="M1226 370C1222 370 1222 376 1226 376C1230 376 1230 370 1226 370Z" fill="#323233"/>
<path d="M1214 421C1218 421 1218 427 1214 427C1210 427 1210 421 1214 421Z" fill="#323233"/>
<path d="M917 415C914.336 415 914.331 411 917 411C919.664 411 919.669 415 917 415Z" fill="#323233"/>
<path d="M909 337C906.336 337 906.331 341 909 341C911.664 341 911.669 337 909 337Z" fill="#323233"/>
<path d="M1107 473C1104.34 473 1104.33 469 1107 469C1109.66 469 1109.67 473 1107 473Z" fill="#323233"/>
<path d="M1130 569C1127.34 569 1127.33 565 1130 565C1132.66 565 1132.67 569 1130 569Z" fill="#323233"/>
<path d="M997 388C994.336 388 994.331 384 997 384C999.664 384 999.669 388 997 388Z" fill="#323233"/>
<path d="M1150 305C1147.34 305 1147.33 309 1150 309C1152.66 309 1152.67 305 1150 305Z" fill="#323233"/>
<path d="M901 497C898.336 497 898.331 493 901 493C903.664 493 903.669 497 901 497Z" fill="#323233"/>
<path d="M1055 559C1052.34 559 1052.33 555 1055 555C1057.66 555 1057.67 559 1055 559Z" fill="#323233"/>
<path d="M992 501C989.336 501 989.331 497 992 497C994.664 497 994.669 501 992 501Z" fill="#323233"/>
<path d="M894 454C891.336 454 891.331 450 894 450C896.664 450 896.669 454 894 454Z" fill="#323233"/>
<path d="M1101 408C1099.67 408 1099.67 406 1101 406C1102.33 406 1102.33 408 1101 408Z" fill="#323233"/>
<path d="M1124 504C1122.67 504 1122.67 502 1124 502C1125.33 502 1125.33 504 1124 504Z" fill="#323233"/>
<path d="M930 432C928.668 432 928.665 430 930 430C931.332 430 931.335 432 930 432Z" fill="#323233"/>
<path d="M991 323C989.668 323 989.665 321 991 321C992.332 321 992.335 323 991 323Z" fill="#323233"/>
<path d="M1128 383C1126.67 383 1126.67 385 1128 385C1129.33 385 1129.33 383 1128 383Z" fill="#323233"/>
<path d="M1271 541C1269.67 541 1269.67 539 1271 539C1272.33 539 1272.33 541 1271 541Z" fill="#323233"/>
<path d="M977 457C975.668 457 975.665 455 977 455C978.332 455 978.335 457 977 457Z" fill="#323233"/>
<path d="M1260 448C1261.33 448 1261.33 450 1260 450C1258.67 450 1258.67 448 1260 448Z" fill="#323233"/>
<path d="M1155 405C1153.67 405 1153.67 403 1155 403C1156.33 403 1156.33 405 1155 405Z" fill="#323233"/>
<path d="M1178 501C1176.67 501 1176.67 499 1178 499C1179.33 499 1179.33 501 1178 501Z" fill="#323233"/>
<path d="M1045 320C1043.67 320 1043.67 318 1045 318C1046.33 318 1046.33 320 1045 320Z" fill="#323233"/>
<path d="M1198 373C1196.67 373 1196.67 375 1198 375C1199.33 375 1199.33 373 1198 373Z" fill="#323233"/>
<path d="M956 387C954.668 387 954.665 385 956 385C957.332 385 957.335 387 956 387Z" fill="#323233"/>
<path d="M960 311C958.668 311 958.665 309 960 309C961.332 309 961.335 311 960 311Z" fill="#323233"/>
<path d="M1014 412C1012.67 412 1012.67 410 1014 410C1015.33 410 1015.33 412 1014 412Z" fill="#323233"/>
<path d="M1043 317C1041.67 317 1041.67 315 1043 315C1044.33 315 1044.33 317 1043 317Z" fill="#323233"/>
<path d="M1062 435C1060.67 435 1060.67 433 1062 433C1063.33 433 1063.33 435 1062 435Z" fill="#323233"/>
<path d="M1085 531C1083.67 531 1083.67 529 1085 529C1086.33 529 1086.33 531 1085 531Z" fill="#323233"/>
<path d="M891 459C889.668 459 889.665 457 891 457C892.332 457 892.335 459 891 459Z" fill="#323233"/>
<path d="M952 350C950.668 350 950.665 348 952 348C953.332 348 953.335 350 952 350Z" fill="#323233"/>
<path d="M1105 343C1103.67 343 1103.67 345 1105 345C1106.33 345 1106.33 343 1105 343Z" fill="#323233"/>
<path d="M1213 511C1211.67 511 1211.67 509 1213 509C1214.33 509 1214.33 511 1213 511Z" fill="#323233"/>
<path d="M1064 340C1062.67 340 1062.67 338 1064 338C1065.33 338 1065.33 340 1064 340Z" fill="#323233"/>
<path d="M1251 321C1249.67 321 1249.67 323 1251 323C1252.33 323 1252.33 321 1251 321Z" fill="#323233"/>
<path d="M1234 456C1235.33 456 1235.33 458 1234 458C1232.67 458 1232.67 456 1234 456Z" fill="#323233"/>
<path d="M1148 459C1146.67 459 1146.67 457 1148 457C1149.33 457 1149.33 459 1148 459Z" fill="#323233"/>
<path d="M1171 555C1169.67 555 1169.67 553 1171 553C1172.33 553 1172.33 555 1171 555Z" fill="#323233"/>
<path d="M976 537C974.668 537 974.665 535 976 535C977.332 535 977.335 537 976 537Z" fill="#323233"/>
<path d="M1038 374C1036.67 374 1036.67 372 1038 372C1039.33 372 1039.33 374 1038 374Z" fill="#323233"/>
<path d="M1191 319C1189.67 319 1189.67 321 1191 321C1192.33 321 1192.33 319 1191 319Z" fill="#323233"/>
<path d="M951 602C954.996 602 955.004 596 951 596C947.004 596 946.996 602 951 602Z" fill="#323233"/>
<path d="M1053 581C1057 581 1057 587 1053 587C1049 587 1049 581 1053 581Z" fill="#323233"/>
<path d="M1035 657C1039 657 1039 663 1035 663C1031 663 1031 657 1035 657Z" fill="#323233"/>
<path d="M1047 708C1043 708 1043 714 1047 714C1051 714 1051 708 1047 708Z" fill="#323233"/>
<path d="M1264 675C1266.66 675 1266.67 671 1264 671C1261.34 671 1261.33 675 1264 675Z" fill="#323233"/>
<path d="M1111 592C1113.66 592 1113.67 596 1111 596C1108.34 596 1108.33 592 1111 592Z" fill="#323233"/>
<path d="M925 695C922.336 695 922.331 699 925 699C927.664 699 927.669 695 925 695Z" fill="#323233"/>
<path d="M1160 695C1161.33 695 1161.33 693 1160 693C1158.67 693 1158.67 695 1160 695Z" fill="#323233"/>
<path d="M1270 610C1271.33 610 1271.33 608 1270 608C1268.67 608 1268.67 610 1270 610Z" fill="#323233"/>
<path d="M1133 670C1134.33 670 1134.33 672 1133 672C1131.67 672 1131.67 670 1133 670Z" fill="#323233"/>
<path d="M1106 692C1107.33 692 1107.33 690 1106 690C1104.67 690 1104.67 692 1106 692Z" fill="#323233"/>
<path d="M1216 607C1217.33 607 1217.33 605 1216 605C1214.67 605 1214.67 607 1216 607Z" fill="#323233"/>
<path d="M1063 660C1064.33 660 1064.33 662 1063 662C1061.67 662 1061.67 660 1063 660Z" fill="#323233"/>
<path d="M1247 699C1248.33 699 1248.33 697 1247 697C1245.67 697 1245.67 699 1247 699Z" fill="#323233"/>
<path d="M1218 604C1219.33 604 1219.33 602 1218 602C1216.67 602 1216.67 604 1218 604Z" fill="#323233"/>
<path d="M940 668C941.332 668 941.335 670 940 670C938.668 670 938.665 668 940 668Z" fill="#323233"/>
<path d="M1156 630C1157.33 630 1157.33 632 1156 632C1154.67 632 1154.67 630 1156 630Z" fill="#323233"/>
<path d="M1197 627C1198.33 627 1198.33 625 1197 625C1195.67 625 1195.67 627 1197 627Z" fill="#323233"/>
<path d="M1010 608C1011.33 608 1011.33 610 1010 610C1008.67 610 1008.67 608 1010 608Z" fill="#323233"/>
<path d="M1223 661C1224.33 661 1224.33 659 1223 659C1221.67 659 1221.67 661 1223 661Z" fill="#323233"/>
<path d="M1070 606C1071.33 606 1071.33 608 1070 608C1068.67 608 1068.67 606 1070 606Z" fill="#323233"/>
<path d="M965 686C963.668 686 963.665 688 965 688C966.332 688 966.335 686 965 686Z" fill="#323233"/>
<path d="M494 600C497.996 600 498.004 594 494 594C490.004 594 489.996 600 494 600Z" fill="#323233"/>
<path d="M596 579C599.996 579 600.004 585 596 585C592.004 585 591.996 579 596 579Z" fill="#323233"/>
<path d="M578 655C581.996 655 582.004 661 578 661C574.004 661 573.996 655 578 655Z" fill="#323233"/>
<path d="M590 706C586.004 706 585.996 712 590 712C593.996 712 594.004 706 590 706Z" fill="#323233"/>
<path d="M887 700C889.664 700 889.669 696 887 696C884.336 696 884.331 700 887 700Z" fill="#323233"/>
<path d="M895 622C897.664 622 897.669 626 895 626C892.336 626 892.331 622 895 622Z" fill="#323233"/>
<path d="M807 673C809.664 673 809.669 669 807 669C804.336 669 804.331 673 807 673Z" fill="#323233"/>
<path d="M654 590C656.664 590 656.669 594 654 594C651.336 594 651.331 590 654 590Z" fill="#323233"/>
<path d="M468 693C465.336 693 465.331 697 468 697C470.664 697 470.669 693 468 693Z" fill="#323233"/>
<path d="M703 693C704.332 693 704.335 691 703 691C701.668 691 701.665 693 703 693Z" fill="#323233"/>
<path d="M874 717C875.332 717 875.335 715 874 715C872.668 715 872.665 717 874 717Z" fill="#323233"/>
<path d="M813 608C814.332 608 814.335 606 813 606C811.668 606 811.665 608 813 608Z" fill="#323233"/>
<path d="M676 668C677.332 668 677.335 670 676 670C674.668 670 674.665 668 676 668Z" fill="#323233"/>
<path d="M649 690C650.332 690 650.335 688 649 688C647.668 688 647.665 690 649 690Z" fill="#323233"/>
<path d="M759 605C760.332 605 760.335 603 759 603C757.668 603 757.665 605 759 605Z" fill="#323233"/>
<path d="M606 658C607.332 658 607.335 660 606 660C604.668 660 604.665 658 606 658Z" fill="#323233"/>
<path d="M848 672C849.332 672 849.335 670 848 670C846.668 670 846.665 672 848 672Z" fill="#323233"/>
<path d="M844 596C845.332 596 845.335 594 844 594C842.668 594 842.665 596 844 596Z" fill="#323233"/>
<path d="M790 697C791.332 697 791.335 695 790 695C788.668 695 788.665 697 790 697Z" fill="#323233"/>
<path d="M761 602C762.332 602 762.335 600 761 600C759.668 600 759.665 602 761 602Z" fill="#323233"/>
<path d="M483 666C484.332 666 484.335 668 483 668C481.668 668 481.665 666 483 666Z" fill="#323233"/>
<path d="M742 720C743.332 720 743.335 718 742 718C740.668 718 740.665 720 742 720Z" fill="#323233"/>
<path d="M852 635C853.332 635 853.335 633 852 633C850.668 633 850.665 635 852 635Z" fill="#323233"/>
<path d="M699 628C700.332 628 700.335 630 699 630C697.668 630 697.665 628 699 628Z" fill="#323233"/>
<path d="M740 625C741.332 625 741.335 623 740 623C738.668 623 738.665 625 740 625Z" fill="#323233"/>
<path d="M553 606C554.332 606 554.335 608 553 608C551.668 608 551.665 606 553 606Z" fill="#323233"/>
<path d="M766 659C767.332 659 767.335 657 766 657C764.668 657 764.665 659 766 659Z" fill="#323233"/>
<path d="M613 604C614.332 604 614.335 606 613 606C611.668 606 611.665 604 613 604Z" fill="#323233"/>
<path d="M508 684C506.668 684 506.665 686 508 686C509.332 686 509.335 684 508 684Z" fill="#323233"/>
<path d="M199 632C202.996 632 203.004 638 199 638C195.004 638 194.996 632 199 632Z" fill="#323233"/>
<path d="M159 577C162.996 577 163.004 583 159 583C155.004 583 154.996 577 159 577Z" fill="#323233"/>
<path d="M417 599C420.996 599 421.004 605 417 605C413.004 605 412.996 599 417 599Z" fill="#323233"/>
<path d="M55 649C51.0036 649 50.9965 643 55 643C58.9965 643 59.0035 649 55 649Z" fill="#323233"/>
<path d="M39 592C42.9964 592 43.0035 598 39 598C35.0035 598 34.9965 592 39 592Z" fill="#323233"/>
<path d="M304 686C307.996 686 308.004 692 304 692C300.004 692 299.996 686 304 686Z" fill="#323233"/>
<path d="M240 684C242.664 684 242.669 688 240 688C237.336 688 237.331 684 240 684Z" fill="#323233"/>
<path d="M217 588C219.664 588 219.669 592 217 592C214.336 592 214.331 588 217 588Z" fill="#323233"/>
<path d="M446 660C448.664 660 448.669 664 446 664C443.336 664 443.331 660 446 660Z" fill="#323233"/>
<path d="M292 598C294.664 598 294.669 602 292 602C289.336 602 289.331 598 292 598Z" fill="#323233"/>
<path d="M355 656C357.664 656 357.669 660 355 660C352.336 660 352.331 656 355 656Z" fill="#323233"/>
<path d="M453 703C455.664 703 455.669 707 453 707C450.336 707 450.331 703 453 703Z" fill="#323233"/>
<path d="M223 653C224.332 653 224.335 655 223 655C221.668 655 221.665 653 223 653Z" fill="#323233"/>
<path d="M40 684C38.6679 684 38.6655 682 40 682C41.3322 682 41.3345 684 40 684Z" fill="#323233"/>
<path d="M76 616C77.3321 616 77.3345 618 76 618C74.6678 618 74.6655 616 76 616Z" fill="#323233"/>
<path d="M370 700C371.332 700 371.335 702 370 702C368.668 702 368.665 700 370 700Z" fill="#323233"/>
<path d="M87 709C85.6679 709 85.6655 707 87 707C88.3322 707 88.3345 709 87 709Z" fill="#323233"/>
<path d="M169 656C170.332 656 170.335 658 169 658C167.668 658 167.665 656 169 656Z" fill="#323233"/>
<path d="M10 633C8.66785 633 8.66548 631 10 631C11.3322 631 11.3345 633 10 633Z" fill="#323233"/>
<path d="M262 626C263.332 626 263.335 628 262 628C260.668 628 260.665 626 262 626Z" fill="#323233"/>
<path d="M456 698C457.332 698 457.335 700 456 700C454.668 700 454.665 698 456 698Z" fill="#323233"/>
<path d="M1 711C-0.33215 711 -0.334516 709 1 709C2.33215 709 2.33452 711 1 711Z" fill="#323233"/>
<path d="M134 646C135.332 646 135.335 648 134 648C132.668 648 132.665 646 134 646Z" fill="#323233"/>
<path d="M113 701C111.668 701 111.665 699 113 699C114.332 699 114.335 701 113 701Z" fill="#323233"/>
<path d="M199 698C200.332 698 200.335 700 199 700C197.668 700 197.665 698 199 698Z" fill="#323233"/>
<path d="M176 602C177.332 602 177.335 604 176 604C174.668 604 174.665 602 176 602Z" fill="#323233"/>
<path d="M371 620C372.332 620 372.335 622 371 622C369.668 622 369.665 620 371 620Z" fill="#323233"/>
<path d="M12 551C15.9964 551 16.0035 557 12 557C8.00355 557 7.99645 551 12 551Z" fill="#323233"/>
<path d="M174 341C177.996 341 178.004 347 174 347C170.004 347 169.996 341 174 341Z" fill="#323233"/>
<path d="M134 286C137.996 286 138.004 292 134 292C130.004 292 129.996 286 134 286Z" fill="#323233"/>
<path d="M114 572C117.996 572 118.004 566 114 566C110.004 566 109.996 572 114 572Z" fill="#323233"/>
<path d="M392 308C395.996 308 396.004 314 392 314C388.004 314 387.996 308 392 308Z" fill="#323233"/>
<path d="M30 358C26.0036 358 25.9965 352 30 352C33.9965 352 34.0035 358 30 358Z" fill="#323233"/>
<path d="M14 301C17.9964 301 18.0035 307 14 307C10.0035 307 9.99645 301 14 301Z" fill="#323233"/>
<path d="M279 395C282.996 395 283.004 401 279 401C275.004 401 274.996 395 279 395Z" fill="#323233"/>
<path d="M96 496C99.9964 496 100.004 490 96 490C92.0035 490 91.9965 496 96 496Z" fill="#323233"/>
<path d="M108 445C104.004 445 103.996 439 108 439C111.996 439 112.004 445 108 445Z" fill="#323233"/>
<path d="M405 451C407.664 451 407.669 455 405 455C402.336 455 402.331 451 405 451Z" fill="#323233"/>
<path d="M413 529C415.664 529 415.669 525 413 525C410.336 525 410.331 529 413 529Z" fill="#323233"/>
<path d="M215 393C217.664 393 217.669 397 215 397C212.336 397 212.331 393 215 393Z" fill="#323233"/>
<path d="M192 297C194.664 297 194.669 301 192 301C189.336 301 189.331 297 192 297Z" fill="#323233"/>
<path d="M325 478C327.664 478 327.669 482 325 482C322.336 482 322.331 478 325 478Z" fill="#323233"/>
<path d="M172 561C174.664 561 174.669 557 172 557C169.336 557 169.331 561 172 561Z" fill="#323233"/>
<path d="M421 369C423.664 369 423.669 373 421 373C418.336 373 418.331 369 421 369Z" fill="#323233"/>
<path d="M267 307C269.664 307 269.669 311 267 311C264.336 311 264.331 307 267 307Z" fill="#323233"/>
<path d="M330 365C332.664 365 332.669 369 330 369C327.336 369 327.331 365 330 365Z" fill="#323233"/>
<path d="M428 412C430.664 412 430.669 416 428 416C425.336 416 425.331 412 428 412Z" fill="#323233"/>
<path d="M221 458C222.332 458 222.335 460 221 460C219.668 460 219.665 458 221 458Z" fill="#323233"/>
<path d="M198 362C199.332 362 199.335 364 198 364C196.668 364 196.665 362 198 362Z" fill="#323233"/>
<path d="M392 434C393.332 434 393.335 436 392 436C390.668 436 390.665 434 392 434Z" fill="#323233"/>
<path d="M331 543C332.332 543 332.335 545 331 545C329.668 545 329.665 543 331 543Z" fill="#323233"/>
<path d="M194 483C195.332 483 195.335 481 194 481C192.668 481 192.665 483 194 483Z" fill="#323233"/>
<path d="M15 393C13.6679 393 13.6655 391 15 391C16.3322 391 16.3345 393 15 393Z" fill="#323233"/>
<path d="M51 325C52.3321 325 52.3345 327 51 327C49.6678 327 49.6655 325 51 325Z" fill="#323233"/>
<path d="M345 409C346.332 409 346.335 411 345 411C343.668 411 343.665 409 345 409Z" fill="#323233"/>
<path d="M62 418C60.6679 418 60.6655 416 62 416C63.3322 416 63.3345 418 62 418Z" fill="#323233"/>
<path d="M167 461C168.332 461 168.335 463 167 463C165.668 463 165.665 461 167 461Z" fill="#323233"/>
<path d="M144 365C145.332 365 145.335 367 144 367C142.668 367 142.665 365 144 365Z" fill="#323233"/>
<path d="M277 546C278.332 546 278.335 548 277 548C275.668 548 275.665 546 277 546Z" fill="#323233"/>
<path d="M124 493C125.332 493 125.335 491 124 491C122.668 491 122.665 493 124 493Z" fill="#323233"/>
<path d="M366 479C367.332 479 367.335 481 366 481C364.668 481 364.665 479 366 479Z" fill="#323233"/>
<path d="M362 555C363.332 555 363.335 557 362 557C360.668 557 360.665 555 362 555Z" fill="#323233"/>
<path d="M308 454C309.332 454 309.335 456 308 456C306.668 456 306.665 454 308 454Z" fill="#323233"/>
<path d="M279 549C280.332 549 280.335 551 279 551C277.668 551 277.665 549 279 549Z" fill="#323233"/>
<path d="M1 485C2.33215 485 2.33452 483 1 483C-0.33215 483 -0.334516 485 1 485Z" fill="#323233"/>
<path d="M260 431C261.332 431 261.335 433 260 433C258.668 433 258.665 431 260 431Z" fill="#323233"/>
<path d="M237 335C238.332 335 238.335 337 237 337C235.668 337 235.665 335 237 335Z" fill="#323233"/>
<path d="M431 407C432.332 407 432.335 409 431 409C429.668 409 429.665 407 431 407Z" fill="#323233"/>
<path d="M370 516C371.332 516 371.335 518 370 518C368.668 518 368.665 516 370 516Z" fill="#323233"/>
<path d="M217 523C218.332 523 218.335 521 217 521C215.668 521 215.665 523 217 523Z" fill="#323233"/>
<path d="M109 355C110.332 355 110.335 357 109 357C107.668 357 107.665 355 109 355Z" fill="#323233"/>
<path d="M258 526C259.332 526 259.335 528 258 528C256.668 528 256.665 526 258 526Z" fill="#323233"/>
<path d="M71 545C72.3321 545 72.3345 543 71 543C69.6678 543 69.6655 545 71 545Z" fill="#323233"/>
<path d="M88 410C86.6679 410 86.6655 408 88 408C89.3322 408 89.3345 410 88 410Z" fill="#323233"/>
<path d="M174 407C175.332 407 175.335 409 174 409C172.668 409 172.665 407 174 407Z" fill="#323233"/>
<path d="M151 311C152.332 311 152.335 313 151 313C149.668 313 149.665 311 151 311Z" fill="#323233"/>
<path d="M346 329C347.332 329 347.335 331 346 331C344.668 331 344.665 329 346 329Z" fill="#323233"/>
<path d="M284 492C285.332 492 285.335 494 284 494C282.668 494 282.665 492 284 492Z" fill="#323233"/>
<path d="M131 547C132.332 547 132.335 545 131 545C129.668 545 129.665 547 131 547Z" fill="#323233"/>
<path d="M26 467C24.6679 467 24.6655 465 26 465C27.3322 465 27.3345 467 26 467Z" fill="#323233"/>
<path d="M37 21C40.9964 21 41.0035 15 37 15C33.0035 15 32.9965 21 37 21Z" fill="#323233"/>
<path d="M199 231C202.996 231 203.004 225 199 225C195.004 225 194.996 231 199 231Z" fill="#323233"/>
<path d="M159 286C162.996 286 163.004 280 159 280C155.004 280 154.996 286 159 286Z" fill="#323233"/>
<path d="M139 0C142.996 0 143.004 6 139 6C135.004 6 134.996 0 139 0Z" fill="#323233"/>
<path d="M417 264C420.996 264 421.004 258 417 258C413.004 258 412.996 264 417 264Z" fill="#323233"/>
<path d="M55 214C51.0036 214 50.9965 220 55 220C58.9965 220 59.0035 214 55 214Z" fill="#323233"/>
<path d="M39 271C42.9964 271 43.0035 265 39 265C35.0035 265 34.9965 271 39 271Z" fill="#323233"/>
<path d="M304 177C307.996 177 308.004 171 304 171C300.004 171 299.996 177 304 177Z" fill="#323233"/>
<path d="M121 76C124.996 76 125.004 82 121 82C117.004 82 116.996 76 121 76Z" fill="#323233"/>
<path d="M133 127C129.004 127 128.996 133 133 133C136.996 133 137.004 127 133 127Z" fill="#323233"/>
<path d="M430 121C432.664 121 432.669 117 430 117C427.336 117 427.331 121 430 121Z" fill="#323233"/>
<path d="M438 43C440.664 43 440.669 47 438 47C435.336 47 435.331 43 438 43Z" fill="#323233"/>
<path d="M240 179C242.664 179 242.669 175 240 175C237.336 175 237.331 179 240 179Z" fill="#323233"/>
<path d="M217 275C219.664 275 219.669 271 217 271C214.336 271 214.331 275 217 275Z" fill="#323233"/>
<path d="M350 94C352.664 94 352.669 90 350 90C347.336 90 347.331 94 350 94Z" fill="#323233"/>
<path d="M197 11C199.664 11 199.669 15 197 15C194.336 15 194.331 11 197 11Z" fill="#323233"/>
<path d="M446 203C448.664 203 448.669 199 446 199C443.336 199 443.331 203 446 203Z" fill="#323233"/>
<path d="M11 114C8.3357 114 8.33097 118 11 118C13.6643 118 13.669 114 11 114Z" fill="#323233"/>
<path d="M292 265C294.664 265 294.669 261 292 261C289.336 261 289.331 265 292 265Z" fill="#323233"/>
<path d="M355 207C357.664 207 357.669 203 355 203C352.336 203 352.331 207 355 207Z" fill="#323233"/>
<path d="M453 160C455.664 160 455.669 156 453 156C450.336 156 450.331 160 453 160Z" fill="#323233"/>
<path d="M246 114C247.332 114 247.335 112 246 112C244.668 112 244.665 114 246 114Z" fill="#323233"/>
<path d="M223 210C224.332 210 224.335 208 223 208C221.668 208 221.665 210 223 210Z" fill="#323233"/>
<path d="M417 138C418.332 138 418.335 136 417 136C415.668 136 415.665 138 417 138Z" fill="#323233"/>
<path d="M356 29C357.332 29 357.335 27 356 27C354.668 27 354.665 29 356 29Z" fill="#323233"/>
<path d="M219 89C220.332 89 220.335 91 219 91C217.668 91 217.665 89 219 89Z" fill="#323233"/>
<path d="M40 179C38.6679 179 38.6655 181 40 181C41.3322 181 41.3345 179 40 179Z" fill="#323233"/>
<path d="M76 247C77.3321 247 77.3345 245 76 245C74.6678 245 74.6655 247 76 247Z" fill="#323233"/>
<path d="M370 163C371.332 163 371.335 161 370 161C368.668 161 368.665 163 370 163Z" fill="#323233"/>
<path d="M87 154C85.6679 154 85.6655 156 87 156C88.3322 156 88.3345 154 87 154Z" fill="#323233"/>
<path d="M192 111C193.332 111 193.335 109 192 109C190.668 109 190.665 111 192 111Z" fill="#323233"/>
<path d="M169 207C170.332 207 170.335 205 169 205C167.668 205 167.665 207 169 207Z" fill="#323233"/>
<path d="M302 26C303.332 26 303.335 24 302 24C300.668 24 300.665 26 302 26Z" fill="#323233"/>
<path d="M149 79C150.332 79 150.335 81 149 81C147.668 81 147.665 79 149 79Z" fill="#323233"/>
<path d="M391 93C392.332 93 392.335 91 391 91C389.668 91 389.665 93 391 93Z" fill="#323233"/>
<path d="M387 17C388.332 17 388.335 15 387 15C385.668 15 385.665 17 387 17Z" fill="#323233"/>
<path d="M333 118C334.332 118 334.335 116 333 116C331.668 116 331.665 118 333 118Z" fill="#323233"/>
<path d="M304 23C305.332 23 305.335 21 304 21C302.668 21 302.665 23 304 23Z" fill="#323233"/>
<path d="M26 87C27.3321 87 27.3345 89 26 89C24.6678 89 24.6655 87 26 87Z" fill="#323233"/>
<path d="M10 230C8.66785 230 8.66548 232 10 232C11.3322 232 11.3345 230 10 230Z" fill="#323233"/>
<path d="M285 141C286.332 141 286.335 139 285 139C283.668 139 283.665 141 285 141Z" fill="#323233"/>
<path d="M262 237C263.332 237 263.335 235 262 235C260.668 235 260.665 237 262 237Z" fill="#323233"/>
<path d="M456 165C457.332 165 457.335 163 456 163C454.668 163 454.665 165 456 165Z" fill="#323233"/>
<path d="M395 56C396.332 56 396.335 54 395 54C393.668 54 393.665 56 395 56Z" fill="#323233"/>
<path d="M242 49C243.332 49 243.335 51 242 51C240.668 51 240.665 49 242 49Z" fill="#323233"/>
<path d="M1 152C-0.33215 152 -0.334516 154 1 154C2.33215 154 2.33452 152 1 152Z" fill="#323233"/>
<path d="M134 217C135.332 217 135.335 215 134 215C132.668 215 132.665 217 134 217Z" fill="#323233"/>
<path d="M283 46C284.332 46 284.335 44 283 44C281.668 44 281.665 46 283 46Z" fill="#323233"/>
<path d="M96 27C97.3321 27 97.3345 29 96 29C94.6678 29 94.6655 27 96 27Z" fill="#323233"/>
<path d="M113 162C111.668 162 111.665 164 113 164C114.332 164 114.335 162 113 162Z" fill="#323233"/>
<path d="M199 165C200.332 165 200.335 163 199 163C197.668 163 197.665 165 199 165Z" fill="#323233"/>
<path d="M176 261C177.332 261 177.335 259 176 259C174.668 259 174.665 261 176 261Z" fill="#323233"/>
<path d="M371 243C372.332 243 372.335 241 371 241C369.668 241 369.665 243 371 243Z" fill="#323233"/>
<path d="M309 80C310.332 80 310.335 78 309 78C307.668 78 307.665 80 309 80Z" fill="#323233"/>
<path d="M156 25C157.332 25 157.335 27 156 27C154.668 27 154.665 25 156 25Z" fill="#323233"/>
<path d="M51 105C49.6679 105 49.6655 107 51 107C52.3322 107 52.3345 105 51 105Z" fill="#323233"/>
</svg>
