<svg width="550" height="363" viewBox="0 0 550 363" fill="none" xmlns="http://www.w3.org/2000/svg">
<path d="M77.6791 350.673C88.1941 332.776 96.0371 313.685 94.8951 293.302C93.5301 268.941 79.5021 247.438 67.4671 226.213C49.9901 195.388 35.6931 161.731 34.1011 126.332C32.5091 90.9329 45.4271 53.4519 73.7991 32.2219C91.4451 19.0179 113.41 13.0169 135.109 9.16181C157.111 5.25281 180.09 3.31781 201.542 9.57181C231.362 18.2659 254.298 41.3909 279.16 60.0109C318.526 89.4929 365.412 108.85 414.112 115.725C440.932 119.511 470.277 120.365 491.133 137.648C516.716 158.848 519.811 197.145 514.079 229.872C508.347 262.599 495.844 294.685 497.709 327.858C498.41 340.324 501.715 353.615 511.294 361.623" stroke="#FF725E" stroke-width="2.5436" stroke-miterlimit="10" stroke-linecap="round" stroke-linejoin="round" stroke-dasharray="8.9 8.9"/>
<path d="M497.842 116.484C502.525 116.484 506.321 112.688 506.321 108.005C506.321 103.322 502.525 99.5259 497.842 99.5259C493.159 99.5259 489.363 103.322 489.363 108.005C489.363 112.688 493.159 116.484 497.842 116.484Z" fill="#0F355B"/>
<path d="M296.622 41.5457C297.851 37.0267 295.184 32.3673 290.665 31.1385C286.146 29.9098 281.486 32.577 280.258 37.0959C279.029 41.6148 281.696 46.2743 286.215 47.503C290.734 48.7318 295.393 46.0646 296.622 41.5457Z" fill="#0F355B"/>
<path d="M58.6548 132.169C58.6548 135.213 56.1878 137.68 53.1438 137.68C50.0998 137.68 47.6328 135.213 47.6328 132.169C47.6328 129.125 50.0998 126.658 53.1438 126.658C56.1868 126.658 58.6548 129.126 58.6548 132.169Z" fill="#8EE4FD"/>
<path d="M13.7181 213.139C17.4642 213.139 20.5011 210.102 20.5011 206.356C20.5011 202.61 17.4642 199.573 13.7181 199.573C9.97192 199.573 6.93506 202.61 6.93506 206.356C6.93506 210.102 9.97192 213.139 13.7181 213.139Z" fill="#0F355B"/>
<path d="M291.814 37.633C296.964 37.633 301.14 33.4576 301.14 28.307C301.14 23.1563 296.964 18.981 291.814 18.981C286.663 18.981 282.488 23.1563 282.488 28.307C282.488 33.4576 286.663 37.633 291.814 37.633Z" stroke="#0F355B" stroke-width="1.2718" stroke-miterlimit="10"/>
<path d="M507.168 118.18C510.914 118.18 513.951 115.143 513.951 111.397C513.951 107.651 510.914 104.614 507.168 104.614C503.422 104.614 500.385 107.651 500.385 111.397C500.385 115.143 503.422 118.18 507.168 118.18Z" stroke="#0F355B" stroke-width="1.2718" stroke-miterlimit="10"/>
<path d="M547.709 242.706C548.822 236.96 545.065 231.399 539.319 230.287C533.572 229.174 528.012 232.93 526.899 238.677C525.786 244.424 529.543 249.984 535.289 251.097C541.036 252.209 546.597 248.453 547.709 242.706Z" stroke="#0F355B" stroke-width="1.2718" stroke-miterlimit="10"/>
<path d="M9.479 206.357C14.1618 206.357 17.958 202.561 17.958 197.878C17.958 193.195 14.1618 189.399 9.479 189.399C4.79617 189.399 1 193.195 1 197.878C1 202.561 4.79617 206.357 9.479 206.357Z" stroke="#0F355B" stroke-width="1.2718" stroke-miterlimit="10"/>
<path d="M154.567 44.0658H20.606V91.5458H154.567V44.0658Z" fill="#FCB13A"/>
<path d="M116.626 59.6448H75.9292V64.7318H116.626V59.6448Z" fill="white"/>
<path d="M142.909 70.8789H75.9292V75.9659H142.909V70.8789Z" fill="white"/>
<path d="M63.3249 80.5459C70.361 73.5099 70.361 62.1022 63.3249 55.0662C56.2889 48.0302 44.8813 48.0302 37.8453 55.0662C30.8093 62.1022 30.8093 73.5099 37.8453 80.5459C44.8813 87.5819 56.2889 87.5819 63.3249 80.5459Z" fill="white"/>
<path d="M50.5088 77.7739L39.0908 69.3339L41.3588 66.2668L49.4398 72.2388L56.8428 60.2488L60.0888 62.2538L50.5088 77.7739Z" fill="#00A2DD"/>
<path d="M54.1948 59.3458L62.0828 64.2148L60.5738 57.8378L54.1948 59.3458Z" fill="#00A2DD"/>
<path d="M535.305 156.133H422.117V212.091H535.305V156.133Z" fill="#C6F1FE"/>
<path d="M456.715 163.923H429.852V204.302H456.715V163.923Z" fill="#F64652"/>
<path d="M527.571 184.112H462.165V204.302H527.571V184.112Z" fill="#00A2DD"/>
<path d="M527.571 163.923H462.165V179.168H527.571V163.923Z" fill="#00A2DD"/>
<path d="M421.442 113.812C411.371 98.4198 383.6 52.9348 385.33 21.8668C385.43 20.0818 387.663 19.3368 388.818 20.7018C397.862 31.3848 424.282 66.4738 425.073 112.673C425.108 114.668 422.534 115.482 421.442 113.812Z" fill="#2CD0D1"/>
<path d="M388.679 23.8788L419.429 88.1288" stroke="#0B334C" stroke-miterlimit="10" stroke-linecap="round" stroke-linejoin="round"/>
<path d="M427.449 111.863C411.395 102.885 365.717 75.4308 352.864 47.0938C352.125 45.4658 353.76 43.7708 355.416 44.4458C368.379 49.7258 408.044 68.5908 430.141 109.171C431.094 110.924 429.19 112.837 427.449 111.863Z" fill="#2FDDDE"/>
<path d="M357.679 48.8788L407.429 84.8788" stroke="#0B334C" stroke-miterlimit="10" stroke-linecap="round" stroke-linejoin="round"/>
<path d="M410.859 114.008C424.22 101.367 464.058 65.9668 494.94 62.1588C496.715 61.9398 497.844 64.0058 496.706 65.3848C487.797 76.1808 457.951 108.406 412.625 117.38C410.667 117.767 409.41 115.379 410.859 114.008Z" fill="#2FDDDE"/>
<path d="M494.179 63.6288L440.179 103.629" stroke="#0B334C" stroke-miterlimit="10" stroke-linecap="round" stroke-linejoin="round"/>
<path d="M456.564 117.402C458.235 112.714 458.815 106.798 455.197 103.379C453.422 101.702 450.933 100.96 449.108 99.3358C446.139 96.6948 445.518 92.1498 446.544 88.3118C447.571 84.4728 449.958 81.1658 452.298 77.9538C454.554 74.8578 456.81 71.7618 459.066 68.6648C460.874 66.1838 462.708 63.6528 463.684 60.7428C464.66 57.8328 464.658 54.4299 462.937 51.8889C461.406 49.6279 458.718 48.2968 457.375 45.9188C456.147 43.7438 456.244 41.0188 456.591 38.6208C456.932 36.2628 457.531 33.9508 458.328 31.7068C460.443 25.7548 463.56 18.9648 462.555 12.2878C462.41 11.3278 462.154 10.3728 461.806 9.44985C460.472 3.91185 455.924 -0.925157 448.718 1.20385C447.323 1.61585 446.009 2.29985 444.864 3.19685C438.546 8.14285 437.419 16.7938 435.801 23.8398C435.26 26.1958 434.517 28.4998 433.522 30.7028C432.525 32.9088 431.141 35.2538 428.939 36.4248C426.528 37.7068 423.546 37.3828 421.039 38.4658C418.221 39.6818 416.39 42.5499 415.646 45.5279C414.903 48.5059 415.088 51.6268 415.277 54.6898C415.513 58.5138 415.75 62.3378 415.986 66.1608C416.231 70.1268 416.464 74.1988 415.265 77.9868C414.065 81.7748 411.096 85.2718 407.173 85.9008C404.762 86.2878 402.264 85.5738 399.865 86.0338C394.977 86.9698 392.283 92.2688 391.169 97.1198C391.008 97.8228 390.864 98.5298 390.739 99.2388C388.379 112.626 396.509 125.655 409.463 129.777L422.585 133.953C436.408 138.353 451.504 131.3 456.465 117.669C456.5 117.581 456.532 117.492 456.564 117.402Z" fill="#2CD0D1"/>
<path d="M453.429 4.12891L417.929 124.379" stroke="#0B334C" stroke-miterlimit="10" stroke-linecap="round" stroke-linejoin="round"/>
<path d="M438.929 22.1288L443.179 38.8788" stroke="#0B334C" stroke-miterlimit="10" stroke-linecap="round" stroke-linejoin="round"/>
<path d="M435.929 31.8788L440.179 48.6288" stroke="#0B334C" stroke-miterlimit="10" stroke-linecap="round" stroke-linejoin="round"/>
<path d="M456.429 53.2958L437.012 59.7958" stroke="#0B334C" stroke-miterlimit="10" stroke-linecap="round" stroke-linejoin="round"/>
<path d="M455.262 57.7958L435.845 64.2958" stroke="#0B334C" stroke-miterlimit="10" stroke-linecap="round" stroke-linejoin="round"/>
<path d="M420.429 61.3788L430.095 82.8788" stroke="#0B334C" stroke-miterlimit="10" stroke-linecap="round" stroke-linejoin="round"/>
<path d="M419.054 65.2958L428.72 86.7958" stroke="#0B334C" stroke-miterlimit="10" stroke-linecap="round" stroke-linejoin="round"/>
<path d="M446.026 291.665H99.8311V93.5557C99.8311 88.3299 104.067 84.0938 109.293 84.0938H436.564C441.79 84.0938 446.026 88.3299 446.026 93.5557V291.665Z" fill="#8EE4FD" stroke="#333333"/>
<path d="M111.036 111.007H135.37" stroke="#0B334C" stroke-miterlimit="10" stroke-linecap="round" stroke-linejoin="round"/>
<path d="M139.87 111.007H164.203" stroke="#0B334C" stroke-miterlimit="10" stroke-linecap="round" stroke-linejoin="round"/>
<path d="M168.703 111.007H193.036" stroke="#0B334C" stroke-miterlimit="10" stroke-linecap="round" stroke-linejoin="round"/>
<path d="M446.526 101.398H99.3311V93.5548C99.3311 88.0528 103.791 83.5928 109.293 83.5928H436.564C442.066 83.5928 446.526 88.0528 446.526 93.5548V101.398Z" fill="#1F5B99"/>
<path d="M395.036 92.3408C395.036 94.4578 393.32 96.1738 391.203 96.1738C389.086 96.1738 387.37 94.4578 387.37 92.3408C387.37 90.2238 389.086 88.5078 391.203 88.5078C393.32 88.5068 395.036 90.2238 395.036 92.3408Z" stroke="#0B334C" stroke-miterlimit="10" stroke-linecap="round" stroke-linejoin="round"/>
<path d="M413.036 92.3408C413.036 94.4578 411.32 96.1738 409.203 96.1738C407.086 96.1738 405.37 94.4578 405.37 92.3408C405.37 90.2238 407.086 88.5078 409.203 88.5078C411.32 88.5068 413.036 90.2238 413.036 92.3408Z" stroke="#0B334C" stroke-miterlimit="10" stroke-linecap="round" stroke-linejoin="round"/>
<path d="M431.036 92.3408C431.036 94.4578 429.32 96.1738 427.203 96.1738C425.086 96.1738 423.37 94.4578 423.37 92.3408C423.37 90.2238 425.086 88.5078 427.203 88.5078C429.32 88.5068 431.036 90.2238 431.036 92.3408Z" stroke="#0B334C" stroke-miterlimit="10" stroke-linecap="round" stroke-linejoin="round"/>
<path d="M272.929 162.867C258.553 162.867 246.858 151.172 246.858 136.796C246.858 122.42 258.553 110.724 272.929 110.724C278.719 110.724 284.202 112.583 288.785 116.098L286.343 119.281C282.467 116.307 277.828 114.735 272.929 114.735C260.765 114.735 250.869 124.631 250.869 136.796C250.869 148.961 260.765 158.856 272.929 158.856C285.093 158.856 294.989 148.96 294.989 136.796C294.989 135.299 294.838 133.802 294.541 132.347L298.472 131.544C298.823 133.263 299.001 135.029 299.001 136.796C299 151.172 287.305 162.867 272.929 162.867Z" fill="#1F5B99"/>
<path d="M376.897 192.33H168.961C163.869 192.33 159.741 188.202 159.741 183.11C159.741 178.018 163.869 173.89 168.961 173.89H376.897C381.989 173.89 386.117 178.018 386.117 183.11C386.117 188.202 381.989 192.33 376.897 192.33Z" fill="white"/>
<path d="M194.714 192.33H168.961C163.869 192.33 159.741 188.202 159.741 183.11C159.741 178.018 163.869 173.89 168.961 173.89H194.714V192.33Z" fill="#F64652"/>
<path d="M180.168 182.077C180.168 185.106 177.712 187.562 174.684 187.562C171.656 187.562 169.199 185.106 169.199 182.077C169.199 179.048 171.655 176.592 174.684 176.592C177.713 176.592 180.168 179.048 180.168 182.077Z" stroke="white" stroke-width="1.2718" stroke-miterlimit="10"/>
<path d="M183.904 189.628L179.254 184.978" stroke="white" stroke-width="1.2718" stroke-miterlimit="10"/>
<path d="M192.171 259.099H124.767C123.713 259.099 122.859 258.245 122.859 257.191V221.157C122.859 220.103 123.713 219.249 124.767 219.249H192.171C193.225 219.249 194.079 220.103 194.079 221.157V257.191C194.078 258.245 193.224 259.099 192.171 259.099Z" fill="#FCB13A"/>
<path d="M194.079 267.577H122.859V276.056H194.079V267.577Z" fill="#1F5B99"/>
<path d="M128.87 254.341V247.674H145.87V254.341" stroke="#0B334C" stroke-miterlimit="10" stroke-linecap="round" stroke-linejoin="round"/>
<path d="M149.87 254.341V247.674H166.87V254.341" stroke="#0B334C" stroke-miterlimit="10" stroke-linecap="round" stroke-linejoin="round"/>
<path d="M170.87 254.341V247.674H187.87V254.341" stroke="#0B334C" stroke-miterlimit="10" stroke-linecap="round" stroke-linejoin="round"/>
<path d="M306.631 259.099H239.227C238.174 259.099 237.319 258.245 237.319 257.191V221.157C237.319 220.103 238.173 219.249 239.227 219.249H306.631C307.684 219.249 308.539 220.103 308.539 221.157V257.191C308.538 258.245 307.684 259.099 306.631 259.099Z" fill="#0F355B"/>
<path d="M308.538 267.577H237.319V276.056H308.538V267.577Z" fill="#1F5B99"/>
<path d="M259.87 247.674C259.87 250.251 257.781 252.341 255.203 252.341C252.626 252.341 250.536 250.252 250.536 247.674C250.536 245.096 252.625 243.007 255.203 243.007C257.78 243.007 259.87 245.097 259.87 247.674Z" stroke="white" stroke-miterlimit="10"/>
<path d="M266.203 242.341C271.173 242.341 275.203 238.311 275.203 233.341C275.203 228.37 271.173 224.341 266.203 224.341C261.232 224.341 257.203 228.37 257.203 233.341C257.203 238.311 261.232 242.341 266.203 242.341Z" stroke="white" stroke-miterlimit="10"/>
<path d="M290.536 230.341C290.536 232.366 288.894 234.008 286.869 234.008C284.844 234.008 283.202 232.366 283.202 230.341C283.202 228.316 284.844 226.674 286.869 226.674C288.895 226.674 290.536 228.316 290.536 230.341Z" stroke="white" stroke-miterlimit="10"/>
<path d="M286.703 252.341C290.109 252.341 292.87 249.58 292.87 246.174C292.87 242.768 290.109 240.007 286.703 240.007C283.297 240.007 280.536 242.768 280.536 246.174C280.536 249.58 283.297 252.341 286.703 252.341Z" stroke="white" stroke-miterlimit="10"/>
<path d="M421.091 259.099H353.687C352.633 259.099 351.779 258.245 351.779 257.191V221.157C351.779 220.103 352.633 219.249 353.687 219.249H421.091C422.145 219.249 422.999 220.103 422.999 221.157V257.191C422.998 258.245 422.144 259.099 421.091 259.099Z" fill="#F64652"/>
<path d="M422.999 267.577H351.779V276.056H422.999V267.577Z" fill="#1F5B99"/>
<path d="M360.203 253.674V225.007H369.536" stroke="#0B334C" stroke-miterlimit="10" stroke-linecap="round" stroke-linejoin="round"/>
<path d="M375.87 225.007V253.674H386.536" stroke="#0B334C" stroke-miterlimit="10" stroke-linecap="round" stroke-linejoin="round"/>
<path d="M391.536 253.674V225.007H415.536" stroke="#0B334C" stroke-miterlimit="10" stroke-linecap="round" stroke-linejoin="round"/>
<path d="M66.165 324.453C67.238 326.71 70.699 325.891 70.668 323.391C70.502 309.689 65.211 295.883 57.036 284.691C54.06 280.617 50.72 276.81 47.922 272.612C44.034 266.779 41.27 260.318 38.852 253.716C37.989 251.361 34.586 251.753 34.252 254.239C31.567 274.256 38.124 295.486 52.686 309.515C55.905 312.616 59.453 315.392 62.373 318.777C64.04 320.708 65.269 322.567 66.165 324.453Z" fill="#2CD0D1"/>
<path d="M78.8589 323.888C72.6079 319.303 68.2459 312.218 66.9669 304.572C65.6879 296.926 67.5069 288.807 71.9259 282.437C75.0159 277.982 79.2479 274.443 82.6089 270.189C90.7789 259.851 93.0539 245.24 88.7659 232.825C88.3009 231.48 89.8669 230.332 90.9839 231.214C97.8629 236.645 102.16 244.167 103.625 253.143C105.36 263.771 102.999 274.828 98.1519 284.444C93.0259 294.612 84.9249 304.445 86.0289 315.778C86.2989 318.547 87.1029 321.492 85.8989 324C84.6939 326.507 79.5399 326.586 78.8589 323.888Z" fill="#2CD0D1"/>
<path d="M69.3422 316.553C69.3592 317.457 68.2932 317.949 67.6412 317.323C59.6452 309.657 55.6442 298.251 55.5852 287.113C55.5322 276.898 58.4672 266.936 60.0432 256.844C61.3832 248.266 61.6272 239.07 58.4412 231.127C58.0492 230.151 59.2912 229.319 60.0632 230.034C67.7312 237.131 72.1912 246.919 74.2922 257.376C76.7062 269.39 75.8192 281.825 74.0972 293.957C73.0012 301.679 69.2032 308.918 69.3422 316.553Z" fill="#2CD0D1"/>
<path d="M77.9431 307.778C76.9701 301.488 79.2502 295.126 82.3142 289.546C85.3782 283.967 89.2572 278.837 91.9232 273.057C96.1822 263.822 97.1101 253.092 94.4991 243.263" stroke="#0B334C" stroke-miterlimit="10" stroke-linecap="round" stroke-linejoin="round"/>
<path d="M64.2617 291.213C64.2617 291.213 72.5947 263.88 64.2617 240.546" stroke="#0B334C" stroke-miterlimit="10" stroke-linecap="round" stroke-linejoin="round"/>
<path d="M37.7168 263.517C41.9998 281.653 54.0238 297.824 70.1578 307.149" stroke="#0B334C" stroke-miterlimit="10" stroke-linecap="round" stroke-linejoin="round"/>
<path d="M84.209 361.623H56.839C55.931 361.623 55.159 360.962 55.019 360.066L47.965 314.999C47.79 313.882 48.654 312.872 49.785 312.872H91.263C92.394 312.872 93.258 313.882 93.083 314.999L86.029 360.066C85.889 360.963 85.117 361.623 84.209 361.623Z" fill="#0B334C"/>
<path d="M51.7622 320.713H89.7622" stroke="white" stroke-miterlimit="10" stroke-linecap="round" stroke-linejoin="round"/>
<path d="M195.459 216.021C188.683 216.884 181.636 216.455 174.649 214.541C146.218 206.752 129.423 177.285 137.21 148.855C140.982 135.082 149.892 123.603 162.299 116.532C174.706 109.461 189.124 107.643 202.895 111.417C231.326 119.204 248.121 148.67 240.334 177.102C234.46 198.546 216.251 213.372 195.459 216.021ZM183.553 122.028C178.267 122.702 173.111 124.414 168.341 127.134C158.767 132.59 151.89 141.449 148.979 152.078C142.969 174.02 155.931 196.76 177.872 202.772C199.82 208.78 222.554 195.819 228.564 173.879C234.574 151.937 221.612 129.197 199.671 123.187C194.338 121.726 188.879 121.35 183.553 122.028Z" fill="#0B334C"/>
<path d="M142.693 52.7915L132.092 58.8339L167.956 121.754L178.557 115.712L142.693 52.7915Z" fill="#0B334C"/>
<path d="M144.966 51.4984L129.82 60.1312L148.438 92.7954L163.584 84.1626L144.966 51.4984Z" fill="#2CD0D1"/>
<path d="M444.971 226.104L453.512 244.738L477.582 223.861L471.732 302.963H441.16L432.246 303.46C432.246 303.46 433.567 289.629 434.111 281.821C434.215 280.335 434.656 271.637 436.827 263.436C441.388 246.207 444.971 226.104 444.971 226.104Z" fill="#FAFAFA"/>
<path d="M456.399 262.693C456.475 262.806 453.021 266.027 448.687 269.887C444.351 273.748 440.777 276.786 440.702 276.673C440.626 276.559 444.079 273.339 448.415 269.477C452.749 265.618 456.324 262.58 456.399 262.693Z" fill="#263238"/>
<path d="M502.83 231.181L487.641 223.873L481.684 216.793L473.257 225.553L450.915 302.88H489.229L494.143 289.613L502.83 238.376V231.181Z" fill="#FF725E"/>
<path d="M434.478 304L433.451 287.589L479.737 279.747C479.737 279.747 487.644 241.552 492.515 235.293C497.011 229.518 502.873 231.521 502.873 231.521C502.873 231.521 508.154 235.139 506.891 248.992C506.23 256.246 503.578 281.397 502.616 290.483C502.386 292.661 501.666 294.756 500.509 296.615C497.861 300.871 493.204 303.459 488.192 303.459L434.478 304Z" fill="#FF725E"/>
<path d="M487.294 289.282C487.227 289.289 487.162 288.553 486.825 287.431C486.495 286.313 485.833 284.806 484.684 283.445C483.536 282.083 482.164 281.176 481.117 280.662C480.067 280.141 479.353 279.953 479.371 279.887C479.379 279.844 480.126 279.932 481.237 280.4C482.343 280.86 483.8 281.764 484.996 283.183C486.191 284.6 486.836 286.189 487.103 287.356C487.377 288.531 487.339 289.281 487.294 289.282Z" fill="#263238"/>
<g opacity="0.2">
<path d="M486.451 224.988C486.012 229.818 485.086 234.602 483.692 239.247C482.531 238.906 481.371 238.565 480.21 238.225C481.639 240.271 481.814 242.988 481.249 245.419C480.683 247.85 479.455 250.068 478.241 252.248C472.482 262.592 466.724 272.936 460.966 283.28L478.38 243.742L477.927 236.433L481.279 235.717L486.451 224.988Z" fill="black"/>
</g>
<g opacity="0.2">
<path d="M479.586 279.289C481.691 279.167 483.832 279.791 485.54 281.028C487.248 282.264 488.511 284.103 489.052 286.141C489.181 286.629 489.268 287.16 489.079 287.628C488.89 288.096 488.334 288.447 487.87 288.246C487.518 288.093 487.346 287.701 487.193 287.349C485.681 283.896 482.698 281.117 479.146 279.852" fill="black"/>
</g>
<path d="M461.095 282.906C461.082 282.9 461.163 282.682 461.329 282.272C461.514 281.829 461.763 281.234 462.076 280.484C462.757 278.903 463.716 276.677 464.893 273.941C467.322 268.401 470.651 260.807 474.329 252.417C475.678 249.369 476.98 246.426 478.202 243.664L478.185 243.755C478.031 241.158 477.886 238.708 477.752 236.445L477.742 236.293L477.889 236.262C479.07 236.015 480.186 235.781 481.245 235.56L481.134 235.647C482.871 232.133 484.297 229.248 485.308 227.203C485.801 226.229 486.192 225.456 486.477 224.892C486.604 224.65 486.709 224.453 486.793 224.294C486.867 224.16 486.908 224.093 486.916 224.097C486.923 224.101 486.896 224.174 486.837 224.315C486.763 224.48 486.673 224.684 486.563 224.934C486.297 225.507 485.932 226.293 485.471 227.283C484.491 229.343 483.108 232.249 481.423 235.788L481.389 235.859L481.312 235.876C480.254 236.107 479.141 236.35 477.962 236.606L478.101 236.424C478.247 238.686 478.406 241.135 478.575 243.731L478.578 243.778L478.558 243.822C477.341 246.587 476.044 249.532 474.701 252.582C470.98 260.953 467.613 268.53 465.156 274.058C463.928 276.772 462.93 278.98 462.22 280.548C461.877 281.285 461.604 281.871 461.402 282.305C461.214 282.704 461.107 282.911 461.095 282.906Z" fill="#263238"/>
<path d="M434.443 303.46C434.436 303.46 434.423 303.368 434.406 303.187C434.389 302.985 434.365 302.72 434.336 302.385C434.283 301.653 434.207 300.618 434.111 299.298C433.931 296.591 433.676 292.719 433.361 287.947L433.352 287.817L433.481 287.793C442.173 286.197 453.975 284.029 466.963 281.642C471.255 280.863 475.417 280.108 479.309 279.402L479.154 279.546C481.868 269.235 484.223 260.287 485.907 253.887C486.757 250.723 487.436 248.19 487.911 246.421C488.146 245.57 488.331 244.905 488.464 244.426C488.525 244.216 488.575 244.047 488.615 243.913C488.651 243.798 488.672 243.74 488.677 243.741C488.683 243.743 488.673 243.803 488.648 243.922C488.617 244.058 488.579 244.229 488.53 244.443C488.413 244.926 488.249 245.597 488.041 246.454C487.592 248.231 486.951 250.774 486.149 253.95C484.499 260.359 482.192 269.32 479.534 279.646L479.503 279.768L479.379 279.791C475.489 280.501 471.327 281.26 467.036 282.044C454.04 284.387 442.231 286.516 433.534 288.084L433.654 287.93C433.914 292.705 434.125 296.579 434.273 299.289C434.335 300.611 434.385 301.646 434.42 302.38C434.432 302.715 434.44 302.981 434.447 303.185C434.453 303.366 434.451 303.459 434.443 303.46Z" fill="#263238"/>
<path d="M500.497 229.899C500.509 229.973 499.722 230.088 498.539 230.529C497.358 230.963 495.801 231.797 494.395 233.108C492.994 234.427 492.06 235.926 491.55 237.077C491.033 238.229 490.867 239.005 490.794 238.989C490.766 238.984 490.788 238.786 490.853 238.431C490.91 238.075 491.055 237.57 491.285 236.965C491.738 235.756 492.667 234.174 494.117 232.811C495.571 231.454 497.21 230.63 498.446 230.257C499.064 230.067 499.578 229.955 499.937 229.922C500.295 229.881 500.493 229.872 500.497 229.899Z" fill="#263238"/>
<path d="M457.9 220.248L447.983 232.976L453.331 245.515L467.571 235.869L481.61 219.154L457.9 220.248Z" fill="#FFD1BD"/>
<path d="M433.698 289.893L434.96 303.875L428.358 303.849C428.183 303.849 425.488 303.804 422.516 303.754C420.33 304.033 416.864 304.044 415.812 303.933C415.626 303.914 415.515 303.89 415.501 303.864C415.501 303.864 415.003 303.803 414.483 303.618C414.468 303.618 414.454 303.617 414.454 303.617L414.456 303.608C413.858 303.389 413.244 303.005 413.339 302.348C413.628 300.343 414.82 300.182 414.82 300.182C414.82 300.182 415.045 300.165 415.418 300.14L415.467 299.965C414.559 299.967 413.797 299.943 413.393 299.9C413.207 299.88 413.097 299.857 413.083 299.83C413.083 299.83 410.742 299.552 410.921 298.314C411.211 296.309 412.402 296.148 412.402 296.148C412.402 296.148 413.211 296.091 414.329 296.019C413.393 296.022 412.6 295.998 412.187 295.954C412.001 295.934 411.89 295.911 411.876 295.884C411.876 295.884 409.536 295.606 409.714 294.368C410.003 292.363 411.195 292.202 411.195 292.202C411.195 292.202 411.848 292.156 412.789 292.094C412.031 292.09 411.405 292.066 411.052 292.029C410.865 292.009 410.755 291.986 410.741 291.959C410.741 291.959 408.4 291.681 408.579 290.443C408.868 288.437 410.06 288.277 410.06 288.277C410.06 288.277 413.744 288.015 416.273 287.91C416.274 287.907 419.142 285.323 420.272 285.442C421.96 285.62 431.78 289.245 431.78 289.245L433.698 289.893Z" fill="#FFD1BD"/>
<path d="M421.307 299.771C421.298 299.887 419.832 300.028 418.034 300.086C416.236 300.144 414.787 300.097 414.796 299.982C414.805 299.866 416.27 299.725 418.069 299.667C419.867 299.608 421.316 299.655 421.307 299.771Z" fill="#CC8F75"/>
<path d="M421.329 295.806C421.333 295.923 419.25 296.092 416.676 296.183C414.102 296.275 412.012 296.254 412.007 296.137C412.003 296.02 414.086 295.851 416.661 295.76C419.235 295.669 421.325 295.69 421.329 295.806Z" fill="#CC8F75"/>
<g opacity="0.78">
<path d="M420.995 291.779C420.999 291.896 418.916 292.065 416.342 292.156C413.768 292.247 411.678 292.226 411.673 292.109C411.669 291.993 413.752 291.824 416.327 291.733C418.901 291.641 420.991 291.662 420.995 291.779Z" fill="#CC8F75"/>
</g>
<path d="M415.218 287.992C415.219 288.04 415.785 288.076 416.701 288.109C417.751 288.143 418.952 288.182 420.278 288.225C421.603 288.273 422.805 288.316 423.854 288.354C424.77 288.383 425.339 288.387 425.343 288.339C425.347 288.293 424.785 288.202 423.871 288.111C422.957 288.019 421.691 287.929 420.29 287.881C418.89 287.834 417.621 287.837 416.702 287.866C415.785 287.894 415.217 287.945 415.218 287.992Z" fill="#CC8F75"/>
<path d="M488.094 174.094C489.752 170.059 495.004 168.223 499.101 169.723C503.197 171.222 505.932 175.428 506.425 179.762C506.667 181.894 506.399 184.17 505.175 185.931C503.886 187.784 501.674 188.843 499.44 189.156C495.447 189.717 491.212 187.975 488.766 184.769C486.321 181.563 485.764 177.018 487.361 173.316" fill="#263238"/>
<path d="M504.765 174.629C504.786 174.644 504.688 174.838 504.47 175.164C504.253 175.491 503.904 175.942 503.417 176.45C502.454 177.466 500.857 178.68 498.806 179.383C496.755 180.088 494.749 180.111 493.365 179.9C492.669 179.798 492.116 179.657 491.744 179.533C491.372 179.409 491.175 179.317 491.183 179.292C491.202 179.224 492.028 179.486 493.398 179.614C494.759 179.747 496.693 179.677 498.673 178.997C500.653 178.319 502.221 177.185 503.214 176.244C504.218 175.302 504.708 174.588 504.765 174.629Z" fill="#455A64"/>
<path d="M506.506 179.232C506.524 179.254 506.363 179.403 506.058 179.655C505.755 179.912 505.29 180.249 504.697 180.637C503.508 181.399 501.737 182.332 499.591 182.781C498.521 183 497.475 183.064 496.531 183.024C495.585 182.972 494.745 182.812 494.06 182.616C493.376 182.416 492.837 182.211 492.484 182.027C492.127 181.854 491.937 181.746 491.948 181.721C491.979 181.649 492.775 182.018 494.131 182.337C494.809 182.492 495.63 182.619 496.547 182.649C497.463 182.668 498.472 182.594 499.51 182.383C501.589 181.948 503.337 181.081 504.548 180.391C505.759 179.69 506.466 179.177 506.506 179.232Z" fill="#455A64"/>
<path d="M445.755 186.144C436.063 164.828 459.117 154.119 471.696 157.671C483.519 161.01 488.561 166.893 490.506 174.8C492.453 182.711 492.36 191.278 489.259 198.811C487.73 202.526 484.977 206.3 480.987 206.765" fill="#263238"/>
<path d="M457.332 238.828C457.164 228.644 457.046 214.654 457.042 214.711C457.042 214.711 448.287 213.258 446.474 201.836C445.572 196.156 445.858 186.842 446.337 179.229C446.769 172.377 451.31 163.969 458.137 164.691L479.457 170.08C481.531 170.299 483.093 172.069 483.052 174.154L481.663 218.253" fill="#FFD1BD"/>
<path d="M451.566 187.344C451.53 188.113 452.151 188.777 452.953 188.83C453.753 188.882 454.433 188.304 454.47 187.535C454.506 186.767 453.885 186.101 453.085 186.049C452.283 185.996 451.602 186.576 451.566 187.344Z" fill="#263238"/>
<path d="M467.365 187.345C467.329 188.114 467.95 188.778 468.751 188.83C469.552 188.883 470.231 188.304 470.268 187.535C470.304 186.767 469.683 186.102 468.883 186.049C468.08 185.996 467.401 186.576 467.365 187.345Z" fill="#263238"/>
<path d="M457.91 195.431C457.917 195.342 456.938 195.173 455.35 194.97C454.948 194.928 454.566 194.848 454.498 194.573C454.403 194.282 454.572 193.848 454.767 193.38C455.145 192.406 455.541 191.385 455.957 190.316C457.61 185.952 458.807 182.363 458.63 182.298C458.454 182.233 456.97 185.717 455.317 190.082C454.919 191.157 454.539 192.183 454.177 193.165C454.024 193.622 453.763 194.141 453.968 194.745C454.076 195.045 454.372 195.264 454.63 195.334C454.887 195.412 455.114 195.417 455.313 195.428C456.914 195.514 457.905 195.521 457.91 195.431Z" fill="#263238"/>
<path d="M457.023 214.758C457.023 214.758 464.708 215.253 472.32 210.677C472.32 210.677 468.455 218.623 457.023 217.554V214.758Z" fill="#CC8F75"/>
<path d="M480.871 188.565C481.038 188.484 486.985 185.854 487.055 192.693C487.125 199.531 480.244 198.191 480.231 197.995C480.217 197.799 480.871 188.565 480.871 188.565Z" fill="#FFD1BD"/>
<path d="M482.294 195.383C482.324 195.36 482.414 195.465 482.617 195.555C482.814 195.643 483.152 195.702 483.507 195.565C484.226 195.292 484.823 194.139 484.844 192.906C484.855 192.283 484.719 191.691 484.493 191.204C484.28 190.706 483.952 190.36 483.588 190.298C483.226 190.219 482.971 190.439 482.888 190.632C482.799 190.824 482.844 190.96 482.808 190.972C482.789 190.989 482.66 190.859 482.712 190.576C482.739 190.439 482.818 190.277 482.977 190.144C483.14 190.009 483.38 189.939 483.634 189.963C484.161 189.995 484.641 190.475 484.889 191.011C485.166 191.55 485.333 192.214 485.321 192.913C485.291 194.291 484.599 195.588 483.613 195.884C483.133 196.014 482.731 195.874 482.522 195.714C482.307 195.548 482.27 195.395 482.294 195.383Z" fill="#CC8F75"/>
<path d="M458.375 199.824C458.605 200.405 458.839 200.996 459.224 201.489C459.61 201.982 460.173 202.372 460.797 202.402C461.463 202.433 462.105 202.039 462.476 201.487C462.847 200.933 462.974 200.243 462.944 199.578C462.917 198.976 462.642 198.258 462.043 198.187C461.794 198.157 461.549 198.253 461.316 198.348C460.268 198.773 459.22 199.198 458.171 199.623" fill="#CC8F75"/>
<path d="M459.632 202.425C459.648 202.327 460.338 202.607 461.309 202.218C461.779 202.029 462.293 201.654 462.577 201.066C462.86 200.485 462.916 199.698 462.618 199.009C462.549 198.836 462.445 198.679 462.344 198.539C462.22 198.408 462.242 198.414 462.107 198.434C461.979 198.468 461.772 198.566 461.603 198.632C461.428 198.703 461.256 198.774 461.087 198.843C460.413 199.115 459.804 199.353 459.289 199.545C458.26 199.929 457.607 200.132 457.577 200.061C457.546 199.99 458.143 199.659 459.133 199.18C459.628 198.941 460.222 198.665 460.883 198.367C461.05 198.292 461.219 198.216 461.392 198.139C461.576 198.064 461.715 197.981 461.967 197.902C462.09 197.868 462.264 197.848 462.433 197.916C462.599 197.983 462.703 198.096 462.78 198.19C462.921 198.377 463.045 198.569 463.134 198.786C463.504 199.646 463.414 200.597 463.038 201.303C462.653 202.023 461.998 202.428 461.441 202.593C460.875 202.768 460.388 202.725 460.079 202.646C459.766 202.563 459.62 202.457 459.632 202.425Z" fill="#263238"/>
<path d="M488.541 183.885C487.84 183.835 482.193 184.567 482.637 195.065C483.053 204.871 489.932 202.712 492.127 199.02C494.207 195.522 495.408 184.366 488.541 183.885Z" fill="#455A64"/>
<path d="M492.032 185.125C492.024 185.125 492.015 185.03 492.005 184.848C491.996 184.644 491.985 184.379 491.972 184.049C491.952 183.324 491.923 182.314 491.888 181.058C491.837 178.479 491.765 174.898 491.682 170.761L491.808 170.885C490.877 170.887 489.899 170.888 488.897 170.889L489.027 170.755C489.048 171.537 489.071 172.361 489.094 173.198C489.192 177.138 489.283 180.808 489.359 183.878L489.361 183.968L489.274 183.989C487.963 184.296 486.927 185.057 486.275 185.919C485.609 186.782 485.279 187.699 485.077 188.452C484.875 189.211 484.806 189.828 484.768 190.245C484.749 190.454 484.739 190.616 484.734 190.724C484.727 190.833 484.723 190.889 484.718 190.89C484.713 190.89 484.704 190.834 484.7 190.724C484.695 190.615 484.694 190.453 484.702 190.241C484.719 189.819 484.767 189.195 484.953 188.421C485.14 187.653 485.458 186.712 486.131 185.811C486.79 184.912 487.866 184.102 489.223 183.773L489.139 183.884C489.05 180.813 488.945 177.144 488.832 173.204C488.81 172.367 488.788 171.543 488.767 170.762L488.763 170.627H488.898C489.9 170.629 490.878 170.629 491.81 170.631H491.935L491.937 170.755C491.982 174.892 492.021 178.474 492.05 181.053C492.054 182.309 492.057 183.32 492.06 184.045C492.056 184.375 492.053 184.64 492.051 184.845C492.045 185.03 492.039 185.125 492.032 185.125Z" fill="#455A64"/>
<path d="M488.539 170.759C488.539 170.759 485.586 163.847 478.547 160.435C475.138 158.783 472.587 157.931 470.116 157.309C470.116 157.309 474.222 156.334 480.867 159.291C483.886 160.634 486.928 162.383 488.939 165.005C490.217 166.671 491.812 169.925 491.81 170.76L488.539 170.759Z" fill="#455A64"/>
<path d="M487.788 201.953C487.785 201.961 487.717 201.941 487.59 201.895C487.466 201.844 487.283 201.762 487.066 201.624C486.632 201.353 486.053 200.845 485.585 200.045C485.111 199.248 484.797 198.171 484.677 196.966C484.56 195.76 484.56 194.431 484.672 193.042C484.79 191.654 485.024 190.342 485.322 189.173C485.616 188.007 485.969 186.96 486.451 186.17C486.927 185.376 487.503 184.866 487.94 184.599C488.159 184.464 488.341 184.381 488.467 184.333C488.594 184.287 488.663 184.271 488.666 184.278C488.675 184.301 488.407 184.396 487.997 184.685C487.588 184.971 487.052 185.483 486.612 186.264C486.164 187.041 485.836 188.07 485.557 189.232C485.274 190.392 485.05 191.691 484.934 193.064C484.823 194.436 484.816 195.756 484.917 196.942C485.021 198.126 485.309 199.172 485.746 199.952C486.178 200.737 486.716 201.249 487.121 201.538C487.53 201.834 487.799 201.928 487.788 201.953Z" fill="#263238"/>
<path d="M465.742 203.385L460.335 204.445C459.613 204.587 458.914 204.117 458.772 203.396L458.691 202.986C458.549 202.264 459.02 201.565 459.741 201.423L465.148 200.362C465.87 200.221 466.569 200.691 466.711 201.412L466.792 201.822C466.934 202.543 466.464 203.243 465.742 203.385Z" fill="#455A64"/>
<path d="M466.03 201.162L490.031 193.632C490.624 193.446 491.258 193.774 491.447 194.367C491.644 194.981 491.288 195.637 490.665 195.805L466.123 202.436L466.03 201.162Z" fill="#455A64"/>
<path d="M483.77 197.852C483.765 197.835 484.048 197.736 484.565 197.573C485.126 197.402 485.866 197.177 486.759 196.904C487.68 196.62 488.811 196.32 490.006 195.928C490.295 195.817 490.575 195.666 490.792 195.444C491 195.229 491.136 194.917 491.13 194.609C491.13 194.301 490.934 194.024 490.635 193.922C490.334 193.822 489.976 193.866 489.632 193.952C486.842 194.85 484.319 195.662 482.436 196.268C481.543 196.543 480.805 196.772 480.244 196.945C479.725 197.099 479.435 197.177 479.429 197.159C479.424 197.141 479.703 197.031 480.212 196.847C480.767 196.654 481.496 196.398 482.378 196.091C484.215 195.467 486.735 194.604 489.568 193.697C489.934 193.608 490.332 193.546 490.722 193.675C491.118 193.801 491.397 194.207 491.39 194.603C491.393 194.995 491.23 195.355 490.973 195.62C490.717 195.878 490.401 196.039 490.095 196.154C488.854 196.547 487.747 196.818 486.812 197.083C485.909 197.322 485.161 197.52 484.594 197.671C484.067 197.805 483.775 197.87 483.77 197.852Z" fill="#263238"/>
<path d="M471.175 183.991C470.991 184.28 469.347 183.384 467.308 183.752C465.263 184.092 464.017 185.487 463.746 185.277C463.616 185.187 463.751 184.681 464.297 184.063C464.831 183.452 465.826 182.768 467.099 182.547C468.373 182.327 469.539 182.636 470.248 183.033C470.97 183.43 471.268 183.862 471.175 183.991Z" fill="#CC8F75"/>
<path d="M470.943 184.247C470.914 184.304 470.507 184.118 469.819 183.964C469.137 183.808 468.153 183.717 467.116 183.95C466.078 184.184 465.228 184.687 464.678 185.121C464.123 185.554 463.835 185.897 463.784 185.858C463.745 185.831 463.955 185.418 464.491 184.902C465.017 184.39 465.908 183.804 467.027 183.553C468.146 183.301 469.202 183.449 469.897 183.686C470.6 183.922 470.967 184.206 470.943 184.247Z" fill="#263238"/>
<path d="M471.996 179.655C471.829 180.203 470.084 180.162 468.007 180.262C465.928 180.327 464.179 180.485 463.979 179.947C463.89 179.686 464.248 179.286 464.96 178.926C465.667 178.568 466.729 178.271 467.929 178.225C469.127 178.178 470.212 178.393 470.946 178.703C471.684 179.012 472.067 179.389 471.996 179.655Z" fill="#263238"/>
<path d="M454.783 185.195C454.624 185.284 454.317 184.991 453.823 184.65C453.331 184.305 452.615 183.944 451.742 183.81C449.972 183.517 448.552 184.337 448.347 184.049C448.253 183.925 448.493 183.521 449.12 183.129C449.737 182.745 450.779 182.421 451.93 182.602C453.084 182.774 454.001 183.43 454.433 184.038C454.877 184.648 454.918 185.126 454.783 185.195Z" fill="#CC8F75"/>
<path d="M454.976 186.046C454.921 186.082 454.658 185.689 454.104 185.199C453.557 184.711 452.679 184.145 451.587 183.908C450.496 183.672 449.462 183.822 448.761 184.039C448.053 184.253 447.651 184.5 447.615 184.444C447.587 184.408 447.941 184.067 448.664 183.767C449.377 183.466 450.49 183.253 451.673 183.51C452.857 183.766 453.781 184.422 454.304 184.992C454.838 185.566 455.017 186.024 454.976 186.046Z" fill="#263238"/>
<path d="M455.686 180.34C455.584 180.902 453.916 181.063 451.939 181.085C449.959 181.093 448.291 180.96 448.18 180.4C448.066 179.856 449.729 179.059 451.923 179.046C454.115 179.025 455.791 179.794 455.686 180.34Z" fill="#263238"/>
<path d="M474.121 164.146C472.886 166.005 471.633 167.899 470.994 170.038C470.355 172.177 470.408 174.636 471.664 176.481C472.866 178.248 474.931 179.174 476.806 180.201C478.681 181.227 480.606 182.633 481.072 184.72C481.218 185.373 480.939 187.652 481.429 188.107C482.102 188.731 483.282 188.347 483.794 187.585C484.304 186.822 484.635 184.316 484.649 183.398C484.689 180.552 484.729 177.707 484.769 174.861C484.802 172.451 484.77 169.953 483.726 167.78C482.265 164.742 479.239 163.771 474.823 163.986" fill="#263238"/>
<path d="M446.08 181.273C446.459 178.393 447.505 175.567 449.321 173.298C451.136 171.03 453.753 169.356 456.626 168.923C459.507 168.489 462.415 169.288 465.324 169.453C468.233 169.619 471.545 168.906 473.063 166.419C473.537 165.644 473.761 164.559 473.156 163.881C472.927 163.625 472.612 163.467 472.302 163.321C468.443 161.502 464.07 160.68 459.851 161.307C455.631 161.933 451.595 164.065 448.944 167.407C446.293 170.748 445.137 175.309 446.179 179.445" fill="#263238"/>
<path d="M444.339 176.984C444.326 176.988 444.28 176.861 444.204 176.613C444.124 176.366 444.039 175.99 443.973 175.5C443.843 174.527 443.826 173.052 444.364 171.351C444.888 169.664 445.983 167.744 447.798 166.228C449.587 164.698 452.014 163.573 454.687 163.13C457.367 162.682 459.98 162.944 462.249 163.47C463.386 163.738 464.448 164.064 465.418 164.426C466.393 164.783 467.265 165.179 468.099 165.402C469.782 165.749 471.22 165.961 472.16 165.764C473.117 165.572 473.454 165.064 473.484 165.113C473.491 165.117 473.417 165.236 473.221 165.412C473.029 165.593 472.68 165.793 472.194 165.919C471.201 166.17 469.768 166.003 468.026 165.682C467.159 165.468 466.269 165.082 465.304 164.745C464.339 164.401 463.287 164.091 462.166 163.837C459.928 163.339 457.367 163.097 454.755 163.532C452.149 163.964 449.788 165.048 448.04 166.515C446.27 167.97 445.186 169.807 444.639 171.44C444.081 173.085 444.052 174.521 444.131 175.484C444.217 176.452 444.38 176.974 444.339 176.984Z" fill="#455A64"/>
<path d="M456.974 159.021C456.971 158.996 457.225 158.934 457.693 158.882C458.161 158.826 458.847 158.804 459.689 158.879C461.361 159.024 463.718 159.679 465.765 161.309C466.777 162.116 467.622 162.989 468.519 163.596C469.396 164.211 470.363 164.482 471.16 164.66C471.964 164.829 472.635 164.852 473.087 164.792C473.54 164.736 473.771 164.615 473.789 164.648C473.801 164.663 473.586 164.839 473.115 164.948C472.648 165.061 471.946 165.082 471.108 164.944C470.279 164.797 469.267 164.55 468.31 163.909C467.361 163.288 466.496 162.411 465.514 161.63C463.541 160.059 461.283 159.382 459.657 159.166C458.015 158.945 456.98 159.098 456.974 159.021Z" fill="#455A64"/>
<path d="M491.553 179.993C491.517 180.009 491.395 179.721 491.065 179.283C490.726 178.857 490.143 178.292 489.249 177.887C488.367 177.475 487.204 177.2 485.911 177.218C484.611 177.233 483.192 177.523 481.691 177.802C480.193 178.088 478.707 178.261 477.366 178.129C476.027 178.01 474.852 177.681 473.918 177.298C472.978 176.92 472.279 176.487 471.816 176.167C471.353 175.846 471.13 175.627 471.142 175.61C471.186 175.542 472.162 176.339 474.021 177.028C474.947 177.37 476.097 177.659 477.395 177.754C478.695 177.861 480.123 177.685 481.618 177.4C483.112 177.124 484.558 176.837 485.908 176.841C487.261 176.844 488.466 177.161 489.376 177.628C490.296 178.087 490.883 178.719 491.194 179.191C491.341 179.436 491.446 179.63 491.492 179.773C491.545 179.912 491.566 179.987 491.553 179.993Z" fill="#455A64"/>
<path d="M490.314 174.508C490.281 174.524 490.162 174.24 489.826 173.822C489.487 173.412 488.891 172.887 488.002 172.534C487.119 172.17 485.967 172.041 484.702 172.183C483.434 172.308 482.068 172.692 480.588 172.968C479.116 173.245 477.613 173.315 476.333 172.901C475.055 172.51 474.06 171.785 473.374 171.068C472.679 170.348 472.288 169.628 472.073 169.121C471.966 168.865 471.898 168.662 471.866 168.519C471.83 168.378 471.817 168.302 471.83 168.299C471.914 168.251 472.192 169.509 473.579 170.864C474.263 171.528 475.229 172.192 476.441 172.542C477.647 172.912 479.068 172.84 480.516 172.568C481.968 172.298 483.355 171.92 484.667 171.81C485.973 171.682 487.198 171.849 488.115 172.27C489.038 172.678 489.641 173.269 489.954 173.727C490.264 174.195 490.332 174.503 490.314 174.508Z" fill="#455A64"/>
<path d="M460.969 252.812C460.966 252.809 461.016 252.767 461.114 252.69C461.211 252.611 461.362 252.502 461.551 252.346C461.932 252.039 462.481 251.565 463.143 250.898C463.806 250.233 464.567 249.361 465.39 248.29C466.215 247.219 467.093 245.944 468.056 244.517C469.983 241.662 472.238 238.19 474.63 234.182C475.828 232.181 477.062 230.045 478.309 227.791C478.619 227.227 478.932 226.655 479.247 226.079C479.561 225.501 479.885 224.907 480.319 224.375C480.747 223.842 481.321 223.399 481.98 223.17C482.307 223.055 482.667 222.982 483.037 223.054C483.22 223.096 483.401 223.188 483.54 223.329C483.683 223.472 483.754 223.659 483.81 223.841L483.821 223.877L483.807 223.917C483.722 224.144 483.615 224.373 483.437 224.562C483.262 224.753 483.005 224.874 482.75 224.891C482.236 224.923 481.783 224.689 481.393 224.423C480.546 223.904 480.171 222.725 480.521 221.752C480.69 221.262 481.063 220.847 481.518 220.617C481.972 220.385 482.5 220.306 483.002 220.41C483.492 220.515 484.005 220.801 484.206 221.345C484.312 221.612 484.243 221.973 484.031 222.175C483.83 222.384 483.582 222.49 483.327 222.558C482.431 222.779 481.458 222.326 481.031 221.508C480.817 221.099 480.776 220.603 480.896 220.165C481.008 219.722 481.26 219.325 481.594 219.03C481.928 218.734 482.362 218.547 482.815 218.556C483.258 218.575 483.705 218.769 483.969 219.163C484.102 219.358 484.154 219.615 484.112 219.855C484.074 220.1 483.919 220.315 483.731 220.446C483.35 220.71 482.874 220.754 482.457 220.605C482.025 220.442 481.754 220.051 481.6 219.657C481.448 219.255 481.406 218.831 481.408 218.418C481.426 217.601 481.56 216.758 482.025 216.06C482.268 215.726 482.581 215.427 483.005 215.32C483.418 215.218 483.842 215.322 484.188 215.534C484.522 215.747 484.831 216.132 484.781 216.592C484.748 217.042 484.385 217.395 483.999 217.503C483.615 217.626 483.174 217.57 482.85 217.317C482.528 217.072 482.34 216.692 482.27 216.311C482.191 215.931 482.261 215.516 482.367 215.177C482.466 214.823 482.583 214.472 482.755 214.144C482.922 213.818 483.175 213.507 483.495 213.325C483.807 213.138 484.15 213.017 484.508 212.983C484.68 212.971 484.879 212.964 485.06 213.057C485.231 213.146 485.366 213.277 485.474 213.424C485.581 213.572 485.661 213.74 485.702 213.923C485.746 214.102 485.74 214.318 485.636 214.494C485.431 214.862 484.99 214.927 484.666 214.871C484.322 214.826 484.013 214.637 483.774 214.409C483.294 213.94 483.037 213.286 483.006 212.644C482.963 212.003 483.128 211.353 483.485 210.845C483.668 210.597 483.881 210.37 484.15 210.221C484.415 210.071 484.709 209.996 485.002 209.985C485.293 209.98 485.597 210.044 485.835 210.232C486.069 210.419 486.217 210.724 486.187 211.028C486.118 211.642 485.587 212.053 485.063 212.123C484.503 212.19 484.032 211.815 483.78 211.399C483.518 210.973 483.423 210.474 483.459 210.008C483.554 209.067 484.027 208.332 484.31 207.62C484.622 206.912 484.907 206.263 485.164 205.679C485.677 204.524 486.077 203.622 486.354 202.998C486.49 202.7 486.594 202.47 486.67 202.303C486.742 202.148 486.786 202.071 486.786 202.071C486.786 202.071 486.759 202.155 486.694 202.315C486.624 202.484 486.527 202.719 486.402 203.021C486.136 203.649 485.751 204.557 485.257 205.722C485.007 206.308 484.728 206.96 484.424 207.671C484.144 208.391 483.684 209.133 483.605 210.019C483.574 210.454 483.667 210.921 483.912 211.311C484.143 211.693 484.58 212.017 485.044 211.952C485.495 211.897 485.966 211.507 486.01 211.016C486.033 210.776 485.913 210.53 485.722 210.38C485.529 210.227 485.265 210.17 485.004 210.176C484.742 210.187 484.475 210.257 484.24 210.393C484.005 210.523 483.807 210.736 483.641 210.962C483.317 211.428 483.164 212.033 483.208 212.63C483.238 213.228 483.482 213.829 483.917 214.251C484.139 214.458 484.398 214.614 484.698 214.654C484.986 214.702 485.316 214.633 485.445 214.385C485.583 214.152 485.468 213.806 485.294 213.563C485.203 213.439 485.088 213.331 484.961 213.266C484.84 213.201 484.685 213.204 484.524 213.215C483.89 213.287 483.246 213.629 482.957 214.258C482.798 214.562 482.686 214.899 482.591 215.242C482.485 215.593 482.434 215.921 482.502 216.266C482.564 216.601 482.728 216.923 482.993 217.122C483.248 217.323 483.611 217.371 483.927 217.269C484.247 217.175 484.51 216.905 484.535 216.573C484.574 216.245 484.341 215.938 484.054 215.754C483.76 215.574 483.391 215.487 483.059 215.573C482.732 215.65 482.436 215.918 482.227 216.212C481.811 216.834 481.673 217.642 481.66 218.422C481.658 218.813 481.7 219.208 481.836 219.563C481.97 219.911 482.212 220.241 482.543 220.36C482.875 220.482 483.287 220.439 483.578 220.233C483.882 220.039 483.947 219.611 483.748 219.316C483.553 219.017 483.168 218.839 482.8 218.827C482.43 218.82 482.051 218.978 481.76 219.238C481.17 219.745 480.884 220.678 481.26 221.384C481.619 222.087 482.498 222.495 483.262 222.3C483.477 222.243 483.695 222.145 483.839 221.992C483.985 221.843 484.023 221.638 483.954 221.44C483.808 221.031 483.376 220.766 482.944 220.677C482.066 220.484 481.05 220.975 480.765 221.846C480.459 222.702 480.78 223.746 481.537 224.206C481.899 224.458 482.322 224.659 482.728 224.631C483.144 224.616 483.425 224.245 483.561 223.837L483.558 223.913C483.485 223.604 483.276 223.375 482.979 223.314C482.684 223.257 482.36 223.314 482.058 223.421C481.446 223.633 480.915 224.039 480.507 224.544C480.093 225.049 479.774 225.629 479.46 226.205C479.143 226.781 478.828 227.352 478.517 227.917C477.263 230.171 476.022 232.305 474.817 234.305C472.408 238.308 470.135 241.772 468.188 244.617C467.216 246.039 466.325 247.309 465.488 248.376C464.652 249.443 463.877 250.31 463.202 250.968C461.853 252.283 460.969 252.812 460.969 252.812Z" fill="#263238"/>
<path d="M406.797 236.999C406.797 236.999 406.781 236.219 406.934 233.103C407.082 230.064 407.907 225.928 407.907 225.928C407.907 225.928 405.077 217.558 405.195 216.463C405.312 215.368 405.454 215.389 406.56 215.872C407.665 216.354 410.877 224.006 410.877 224.006L412.211 218.463C412.211 218.463 409.524 212.499 409.323 211.674C409.122 210.849 408.762 210.16 409.491 210.11C410.22 210.06 415.419 216.875 415.419 216.875L414.765 222.977C414.765 222.977 414.856 223.467 415.668 222.634C416.481 221.802 416.54 214.498 416.54 214.498C416.54 214.498 414.841 210.112 414.908 209.486C414.975 208.861 414.615 208.171 415.017 207.118C415.42 206.065 416.442 207.331 416.442 207.331L419.839 213.401L421.332 207.565C421.332 207.565 421.322 206.309 422.62 206.345L421.444 225.403L419.058 241.334L406.797 236.999Z" fill="#FFD1BD"/>
<path d="M448.563 222.723C448.563 222.723 434.466 227.735 434.466 228.667V228.672C431.977 230.626 423.684 250.671 421.047 254.462L413.505 265.571L419.83 240.884L405.915 236.791C405.915 236.791 394.033 265.507 392.588 271.894C391.144 278.281 392.813 283.348 392.813 283.348L392.89 283.282C393.903 286.375 395.859 288.855 398.102 290.293C404.003 294.076 409.51 294.788 415.147 290.623C418.343 288.261 421.99 285.416 425.332 282.754L426.209 303.482H433.892C433.892 302.318 433.659 288.114 433.659 288.114C433.659 288.114 435.289 282.759 435.988 277.868C436.686 272.978 448.133 240.893 448.133 240.893L457.021 223.78L457.227 217.448L448.563 222.723Z" fill="#FF725E"/>
<path d="M426.057 303.307C426.044 303.308 426.021 303.086 425.991 302.662C425.962 302.203 425.924 301.584 425.876 300.803C425.79 299.149 425.67 296.813 425.522 293.929C425.259 288.071 424.895 279.995 424.487 270.948L424.486 270.925L424.491 270.898C424.657 270.041 424.833 269.128 425.011 268.206C426.874 258.697 428.56 250.092 429.789 243.82C430.414 240.731 430.922 238.219 431.283 236.44C431.462 235.597 431.604 234.929 431.709 234.438C431.758 234.23 431.798 234.06 431.83 233.919C431.86 233.803 431.878 233.744 431.885 233.746C431.892 233.747 431.887 233.809 431.871 233.928C431.849 234.071 431.822 234.244 431.789 234.455C431.703 234.951 431.586 235.624 431.438 236.473C431.108 238.259 430.643 240.78 430.071 243.879C428.872 250.158 427.227 258.772 425.41 268.29C425.231 269.212 425.054 270.125 424.888 270.982L424.892 270.932C425.249 279.981 425.568 288.059 425.799 293.918C425.894 296.804 425.972 299.141 426.027 300.797C426.044 301.579 426.058 302.2 426.069 302.659C426.074 303.083 426.071 303.306 426.057 303.307Z" fill="#263238"/>
<path d="M433.936 284.908C433.922 284.906 433.947 284.682 434.007 284.258C434.077 283.798 434.17 283.182 434.288 282.408C434.556 280.764 434.932 278.453 435.395 275.615C436.375 269.851 437.717 261.954 439.199 253.231C440.195 247.521 441.129 242.165 441.925 237.604L441.929 237.582L441.937 237.563C443.891 233.133 445.526 229.426 446.689 226.786C447.261 225.517 447.718 224.506 448.048 223.775C448.199 223.453 448.322 223.193 448.419 222.986C448.506 222.809 448.555 222.719 448.564 222.723C448.573 222.727 448.541 222.824 448.471 223.008C448.386 223.22 448.281 223.487 448.149 223.818C447.842 224.559 447.415 225.583 446.88 226.868C445.749 229.522 444.161 233.249 442.262 237.704L442.274 237.664C441.494 242.227 440.578 247.587 439.602 253.3C438.074 262.016 436.69 269.906 435.68 275.664C435.164 278.493 434.744 280.797 434.445 282.435C434.297 283.204 434.178 283.816 434.089 284.273C434.002 284.691 433.951 284.91 433.936 284.908Z" fill="#263238"/>
<path d="M406.929 282.606C406.874 282.566 407.478 281.703 408.322 280.233C409.172 278.766 410.223 276.669 411.15 274.254C412.072 271.837 412.701 269.576 413.09 267.925C413.481 266.274 413.662 265.236 413.726 265.246C413.754 265.25 413.739 265.514 413.687 265.989C413.639 266.464 413.534 267.148 413.372 267.986C413.053 269.664 412.462 271.96 411.53 274.401C410.594 276.839 409.489 278.94 408.569 280.382C408.112 281.104 407.716 281.672 407.418 282.046C407.124 282.423 406.951 282.622 406.929 282.606Z" fill="#263238"/>
<g opacity="0.2">
<path d="M407.991 281.46C407.465 281.506 407.166 282.195 407.396 282.67C407.626 283.145 408.22 283.364 408.742 283.287C409.265 283.21 409.722 282.896 410.112 282.539C411.31 281.442 412.018 279.909 412.506 278.359C413.697 274.587 413.754 270.564 413.801 266.609C412.695 271.758 410.735 276.721 408.025 281.237" fill="black"/>
</g>
<g opacity="0.2">
<path d="M425.111 283.302C422.727 279.51 421.957 275.082 422.269 270.614C422.69 264.588 425.619 259.079 427.805 253.448C426.547 259.368 425.83 265.246 424.69 270.939C424.69 270.939 425.299 279.398 425.313 283.155" fill="black"/>
</g>
<g opacity="0.2">
<path d="M434.833 279.526C435.445 270.509 436.06 261.47 437.654 252.575C439.25 243.679 442.347 234.46 446.733 226.558C445.597 230.131 442.099 237.634 442.099 237.634C442.099 237.634 437.045 264.269 434.855 277.684" fill="black"/>
</g>
<path d="M328.248 100.777C333.56 98.4536 339.401 97.1186 345.548 97.0076C370.562 96.5536 391.283 116.535 391.737 141.548C391.958 153.665 387.446 165.143 379.033 173.867C370.62 182.591 359.314 187.518 347.197 187.736C322.183 188.191 301.463 168.211 301.008 143.197C300.666 124.331 311.95 107.904 328.248 100.777ZM360.412 174.472C364.556 172.66 368.345 170.033 371.579 166.678C378.071 159.946 381.553 151.088 381.383 141.737C381.032 122.432 365.041 107.013 345.737 107.363C326.428 107.717 311.013 123.706 311.363 143.009C311.714 162.314 327.705 177.733 347.009 177.383C351.701 177.296 356.237 176.298 360.412 174.472Z" fill="#0B334C"/>
<path d="M373.151 170.97L365.963 178.425L410.204 221.086L417.393 213.632L373.151 170.97Z" fill="#0B334C"/>
<path d="M396.016 189.909L385.745 200.558L408.713 222.709L418.984 212.06L396.016 189.909Z" fill="#1F5B99"/>
</svg>
