<svg width="1050" height="400" viewBox="0 0 1050 400" fill="none" xmlns="http://www.w3.org/2000/svg">
<g opacity="0.53">
<g opacity="0.4">
<path d="M1041.6 311.187L1042.61 312.999L986.286 338.374L1024.38 389.049L1022.49 390.258L982.926 337.581L1041.6 311.187Z" fill="#003394"/>
<path d="M927.697 230.643L928.159 231.587L985.657 337.506L983.599 338.374L926.605 233.286L766.207 290.758L798.883 368.621L796.699 369.376L763.225 289.55L764.275 289.21L927.697 230.643Z" fill="#003394"/>
<path d="M651.882 198.924L766.668 290.305L677.124 337.884L676.536 337.657L586.782 302.993L537.768 353.592L536.886 352.988L437.262 283.961L401.982 334.636L400.092 333.541L436.716 280.865L437.682 281.62L537.432 350.798L586.152 300.538L586.908 300.84L676.956 335.505L762.762 290.003L650.37 200.472L651.882 198.924Z" fill="#003394"/>
<path d="M326.046 118.682L327.431 123.176L371.825 267.384L437.262 281.393L436.715 283.357L369.935 269.083L369.767 268.479L326.549 128.198L314.285 194.355L313.236 194.204L211.385 185.217L131.292 204.512L52.3315 247.069L9.3655 276.749L7.9375 275.125L51.0715 245.407L130.536 202.549L211.217 183.14H211.427L312.396 192.127L326.046 118.682Z" fill="#003394"/>
<path d="M48.3841 250.845L74.3401 285.736L72.3661 286.831L46.4941 251.94L48.3841 250.845Z" fill="#003394"/>
<path d="M79.6323 91.0034L80.1363 91.9852L131.88 203.191L129.78 203.946L78.4983 93.8355L14.9103 123.1L13.9023 121.174L79.6323 91.0034Z" fill="#003394"/>
<path d="M532.182 158.293H534.45V235.59L586.824 300.5L675.066 260.814L676.116 262.664L586.11 303.068L585.522 302.388L532.182 236.156V158.293Z" fill="#003394"/>
<path d="M1014.22 88.9266L1015.35 90.7392L901.278 146.474L770.238 149.08L770.028 149.004L672.294 112.791L673.134 110.866L770.7 146.927L900.942 144.435L1014.22 88.9266Z" fill="#003394"/>
<path d="M927.444 25.111L929.712 25.3375L911.022 148.098L908.754 147.871L927.444 25.111Z" fill="#003394"/>
<path d="M223.146 13.3673L225.372 13.8204L208.11 87.4539L212.478 183.895L266.91 258.586L264.978 259.681L210.168 184.537V184.235L205.842 87.3029L223.146 13.3673Z" fill="#003394"/>
<path d="M1011.95 389.653C1011.95 383.989 1017.07 379.345 1023.46 379.345C1029.76 379.345 1034.92 383.989 1034.92 389.653C1034.92 395.318 1029.76 400 1023.46 400C1017.07 399.962 1011.95 395.318 1011.95 389.653Z" fill="#00A3EB"/>
<path d="M1027.03 314.056C1027.03 308.392 1032.15 303.748 1038.53 303.748C1044.88 303.748 1050 308.392 1050 314.056C1050 319.721 1044.88 324.365 1038.53 324.365C1032.15 324.365 1027.03 319.721 1027.03 314.056Z" fill="#015197"/>
<path d="M961.632 341.848C961.632 331.464 970.998 323.119 982.464 323.119C993.972 323.119 1003.34 331.464 1003.34 341.848C1003.34 352.157 993.972 360.578 982.464 360.578C970.956 360.578 961.632 352.195 961.632 341.848Z" fill="#003B9C"/>
<path d="M927.864 271.424C947.697 271.424 963.774 256.97 963.774 239.139C963.774 221.308 947.697 206.854 927.864 206.854C908.032 206.854 891.954 221.308 891.954 239.139C891.954 256.97 908.032 271.424 927.864 271.424Z" fill="#015197"/>
<path d="M974.526 91.7587C974.526 73.9356 990.612 59.4733 1010.44 59.4733C1030.26 59.4733 1046.39 73.9734 1046.39 91.7587C1046.39 109.62 1030.26 124.044 1010.44 124.044C990.612 124.044 974.526 109.62 974.526 91.7587Z" fill="#003B9C"/>
<path d="M885.444 145.379C885.444 135.41 894.474 127.292 905.52 127.292C916.65 127.292 925.68 135.41 925.68 145.379C925.68 155.423 916.65 163.504 905.52 163.504C894.474 163.542 885.444 155.423 885.444 145.379Z" fill="#00A3EB"/>
<path d="M907.705 27.7919C907.705 16.0106 918.373 6.53259 931.435 6.53259C944.539 6.53259 955.165 16.0483 955.165 27.7919C955.165 39.5733 944.539 49.089 931.435 49.089C918.373 49.089 907.705 39.5355 907.705 27.7919Z" fill="#015197"/>
<path d="M354.773 265.609C354.773 255.867 363.551 247.9 374.471 247.9C385.307 247.9 394.169 255.867 394.169 265.609C394.169 275.352 385.307 283.319 374.471 283.319C363.551 283.282 354.773 275.314 354.773 265.609Z" fill="#00A3EB"/>
<path d="M306.18 127.971C306.18 116.605 316.47 107.241 329.196 107.241C341.88 107.241 352.212 116.605 352.212 127.971C352.212 139.337 341.88 148.626 329.196 148.626C316.47 148.626 306.18 139.337 306.18 127.971Z" fill="#00A3EB"/>
<path d="M295.386 195.148C295.386 186.576 303.156 179.666 312.648 179.666C322.182 179.666 329.868 186.614 329.868 195.148C329.868 203.719 322.14 210.63 312.648 210.63C303.156 210.667 295.386 203.719 295.386 195.148Z" fill="#003B9C"/>
<path d="M232.891 253.941C232.891 240.725 244.777 230.039 259.477 230.039C274.177 230.039 286.063 240.725 286.063 253.941C286.063 267.195 274.177 277.919 259.477 277.919C244.777 277.919 232.891 267.233 232.891 253.941Z" fill="#015197"/>
<path d="M194.041 183.518C194.041 175.323 201.433 168.715 210.631 168.715C219.787 168.715 227.179 175.361 227.179 183.518C227.179 191.787 219.787 198.433 210.631 198.433C201.433 198.395 194.041 191.787 194.041 183.518Z" fill="#003B9C"/>
<path d="M182.616 93.7223C182.616 80.506 194.46 69.782 209.16 69.782C223.902 69.782 235.788 80.506 235.788 93.7223C235.788 106.901 223.902 117.663 209.16 117.663C194.46 117.663 182.616 106.901 182.616 93.7223Z" fill="#00A3EB"/>
<path d="M201.978 17.4455C201.978 7.77872 210.672 0 221.382 0C232.134 0 240.786 7.77872 240.786 17.4455C240.786 27.1122 232.092 34.891 221.382 34.891C210.672 34.891 201.978 27.1122 201.978 17.4455Z" fill="#015197"/>
<path d="M58.9258 91.1545C58.9258 81.4878 67.6198 73.6713 78.3718 73.6713C89.0818 73.6713 97.7758 81.4878 97.7758 91.1545C97.7758 100.859 89.0818 108.6 78.3718 108.6C67.6198 108.562 58.9258 100.821 58.9258 91.1545Z" fill="#00A3EB"/>
<path d="M0 122.156C0 114.982 6.426 109.242 14.406 109.242C22.344 109.242 28.77 114.982 28.77 122.156C28.77 129.293 22.386 135.07 14.406 135.07C6.426 135.07 0 129.293 0 122.156Z" fill="#015197"/>
<path d="M103.529 205.494C103.529 191.938 115.709 180.95 130.829 180.95C145.949 180.95 158.129 191.938 158.129 205.494C158.129 219.05 145.949 230.039 130.829 230.039C115.709 230.039 103.529 219.05 103.529 205.494Z" fill="#00A3EB"/>
<path d="M26.6279 246.2C26.6279 236.911 34.9439 229.397 45.3179 229.397C55.6499 229.397 63.9659 236.911 63.9659 246.2C63.9659 255.489 55.6499 263.004 45.3179 263.004C34.9439 263.004 26.6279 255.489 26.6279 246.2Z" fill="#015197"/>
<path d="M63.9658 284.981C63.9658 280.261 68.1658 276.56 73.2898 276.56C78.4978 276.56 82.6978 280.261 82.6978 284.981C82.6978 289.625 78.4978 293.401 73.2898 293.401C68.1658 293.401 63.9658 289.625 63.9658 284.981Z" fill="#003B9C"/>
<path d="M0 279.845C0 275.125 4.2 271.425 9.408 271.425C14.532 271.425 18.732 275.125 18.732 279.845C18.732 284.49 14.532 288.19 9.408 288.19C4.2 288.153 0 284.49 0 279.845Z" fill="#00A3EB"/>
<path d="M643.944 118.229C643.944 105.768 655.242 95.6104 669.144 95.6104C683.046 95.6104 694.302 105.768 694.302 118.229C694.302 130.766 683.046 140.886 669.144 140.886C655.242 140.886 643.944 130.766 643.944 118.229Z" fill="#015197"/>
<path d="M627.438 206.136C627.438 195.45 637.098 186.727 649.068 186.727C660.954 186.727 670.613 195.412 670.613 206.136C670.613 216.86 660.996 225.545 649.068 225.545C637.098 225.545 627.438 216.86 627.438 206.136Z" fill="#00A3EB"/>
<path d="M657.637 265.609C657.637 256.698 665.659 249.448 675.571 249.448C685.525 249.448 693.589 256.66 693.589 265.609C693.589 274.521 685.567 281.771 675.571 281.771C665.701 281.733 657.637 274.521 657.637 265.609Z" fill="#015197"/>
<path d="M517.482 160.936C517.482 152.025 525.504 144.775 535.416 144.775C545.37 144.775 553.434 151.987 553.434 160.936C553.434 169.848 545.412 177.098 535.416 177.098C525.546 177.098 517.482 169.886 517.482 160.936Z" fill="#015197"/>
<path d="M386.652 336.675C386.652 329.538 393.078 323.686 401.058 323.686C409.038 323.686 415.464 329.501 415.464 336.675C415.464 343.812 409.038 349.589 401.058 349.589C393.078 349.589 386.652 343.85 386.652 336.675Z" fill="#015197"/>
<path d="M415.464 285.66C415.464 276.371 423.78 268.857 434.112 268.857C444.444 268.857 452.802 276.371 452.802 285.66C452.802 294.874 444.444 302.388 434.112 302.388C423.78 302.388 415.464 294.874 415.464 285.66Z" fill="#003B9C"/>
<path d="M568.512 303.71C568.512 294.798 576.534 287.548 586.488 287.548C596.358 287.548 604.422 294.761 604.422 303.71C604.422 312.621 596.4 319.872 586.488 319.872C576.534 319.872 568.512 312.659 568.512 303.71Z" fill="#003B9C"/>
<path d="M779.772 368.319C779.772 359.407 787.794 352.157 797.79 352.157C807.66 352.157 815.724 359.37 815.724 368.319C815.724 377.23 807.702 384.48 797.79 384.48C787.836 384.48 779.772 377.268 779.772 368.319Z" fill="#00A3EB"/>
<path d="M649.026 341.207C649.026 327.99 660.912 317.304 675.57 317.304C690.312 317.304 702.198 327.99 702.198 341.207C702.198 354.423 690.312 365.109 675.57 365.109C660.912 365.071 649.026 354.385 649.026 341.207Z" fill="#003B9C"/>
<path d="M736.638 293.401C736.638 280.185 748.566 269.423 763.266 269.423C778.008 269.423 789.894 280.185 789.894 293.401C789.894 306.617 778.008 317.304 763.266 317.304C748.566 317.304 736.638 306.617 736.638 293.401Z" fill="#00A3EB"/>
<path d="M509.586 352.195C509.586 338.979 521.472 328.292 536.214 328.292C550.872 328.292 562.758 338.979 562.758 352.195C562.758 365.411 550.872 376.097 536.214 376.097C521.472 376.097 509.586 365.373 509.586 352.195Z" fill="#015197"/>
<path d="M507.402 236.534C507.402 224.073 518.616 213.877 532.602 213.877C546.462 213.877 557.76 224.073 557.76 236.534C557.76 248.995 546.462 259.115 532.602 259.115C518.658 259.115 507.402 248.995 507.402 236.534Z" fill="#00A3EB"/>
<path d="M740.25 149.948C740.25 133.22 755.37 119.551 774.06 119.551C792.708 119.551 807.828 133.182 807.828 149.948C807.828 166.676 792.75 180.346 774.06 180.346C755.37 180.346 740.25 166.676 740.25 149.948Z" fill="#003B9C"/>
</g>
<path d="M8.40058 311.187L7.39258 312.999L63.7146 338.374L25.6206 389.049L27.5106 390.258L67.0746 337.581L8.40058 311.187Z" fill="#003394"/>
<path d="M122.304 230.643L121.842 231.587L64.3438 337.506L66.4018 338.374L123.396 233.286L283.794 290.758L251.118 368.621L253.302 369.376L286.776 289.55L285.726 289.21L122.304 230.643Z" fill="#003394"/>
<path d="M398.118 198.924L283.332 290.305L372.876 337.884L373.464 337.657L463.218 302.993L512.232 353.592L513.114 352.988L612.738 283.961L648.018 334.636L649.908 333.541L613.284 280.865L612.318 281.62L512.568 350.798L463.848 300.538L463.092 300.84L373.044 335.505L287.238 290.003L399.63 200.472L398.118 198.924Z" fill="#003394"/>
<path d="M723.954 118.682L722.568 123.176L678.174 267.384L612.738 281.393L613.284 283.357L680.064 269.083L680.232 268.479L723.45 128.198L735.714 194.355L736.764 194.204L838.614 185.217L918.708 204.512L997.668 247.069L1040.63 276.749L1042.02 275.125L998.928 245.407L919.464 202.549L838.782 183.14H838.572L737.604 192.127L723.954 118.682Z" fill="#003394"/>
<path d="M1001.62 250.845L975.66 285.736L977.634 286.831L1003.51 251.94L1001.62 250.845Z" fill="#003394"/>
<path d="M970.369 91.0034L969.865 91.9852L918.121 203.191L920.221 203.946L971.503 93.8355L1035.09 123.1L1036.1 121.174L970.369 91.0034Z" fill="#003394"/>
<path d="M517.819 158.293H515.551V235.59L463.177 300.5L374.935 260.814L373.885 262.664L463.891 303.068L464.479 302.388L517.819 236.156V158.293Z" fill="#003394"/>
<path d="M35.7844 88.9266L34.6504 90.7392L148.722 146.474L279.762 149.08L279.972 149.004L377.706 112.791L376.866 110.866L279.3 146.927L149.058 144.435L35.7844 88.9266Z" fill="#003394"/>
<path d="M122.556 25.111L120.288 25.3375L138.978 148.098L141.246 147.871L122.556 25.111Z" fill="#003394"/>
<path d="M826.896 13.3673L824.628 13.8204L841.89 87.4539L837.522 183.895L783.09 258.586L785.022 259.681L839.832 184.537V184.235L844.158 87.3029L826.896 13.3673Z" fill="#003394"/>
<path d="M38.0521 389.653C38.0521 383.989 32.9281 379.345 26.5441 379.345C20.2441 379.345 15.0781 383.989 15.0781 389.653C15.0781 395.318 20.2441 400 26.5441 400C32.9281 399.962 38.0521 395.318 38.0521 389.653Z" fill="#00A3EB"/>
<path d="M22.974 314.056C22.974 308.392 17.85 303.748 11.508 303.748C5.124 303.71 0 308.355 0 314.056C0 319.758 5.124 324.365 11.466 324.365C17.85 324.365 22.974 319.721 22.974 314.056Z" fill="#015197"/>
<path d="M88.3681 341.848C88.3681 331.464 79.0021 323.119 67.5361 323.119C56.0281 323.119 46.6621 331.464 46.6621 341.848C46.6621 352.157 56.0281 360.578 67.5361 360.578C79.0441 360.578 88.3681 352.195 88.3681 341.848Z" fill="#003B9C"/>
<path d="M122.137 271.424C141.969 271.424 158.047 256.97 158.047 239.139C158.047 221.308 141.969 206.854 122.137 206.854C102.304 206.854 86.2266 221.308 86.2266 239.139C86.2266 256.97 102.304 271.424 122.137 271.424Z" fill="#015197"/>
<path d="M75.4743 91.7587C75.4743 73.9356 59.3883 59.4733 39.5643 59.4733C19.6983 59.4733 3.6123 73.9734 3.6123 91.7587C3.6123 109.62 19.7403 124.044 39.5643 124.044C59.3883 124.082 75.4743 109.62 75.4743 91.7587Z" fill="#003B9C"/>
<path d="M164.556 145.379C164.556 135.41 155.526 127.292 144.438 127.292C133.308 127.292 124.32 135.41 124.32 145.379C124.32 155.423 133.35 163.504 144.438 163.504C155.526 163.542 164.556 155.423 164.556 145.379Z" fill="#00A3EB"/>
<path d="M142.296 27.7919C142.296 16.0106 131.628 6.53259 118.566 6.53259C105.462 6.53259 94.8779 16.0483 94.8779 27.7919C94.8779 39.5733 105.504 49.089 118.566 49.089C131.628 49.089 142.296 39.5355 142.296 27.7919Z" fill="#015197"/>
<path d="M695.226 265.609C695.226 255.867 686.448 247.9 675.528 247.9C664.692 247.9 655.83 255.867 655.83 265.609C655.83 275.352 664.692 283.319 675.528 283.319C686.448 283.282 695.226 275.314 695.226 265.609Z" fill="#00A3EB"/>
<path d="M743.82 127.971C743.82 116.605 733.53 107.241 720.804 107.241C708.12 107.241 697.788 116.605 697.788 127.971C697.788 139.337 708.12 148.626 720.804 148.626C733.53 148.626 743.82 139.337 743.82 127.971Z" fill="#00A3EB"/>
<path d="M754.614 195.148C754.614 186.576 746.844 179.666 737.352 179.666C727.818 179.666 720.132 186.614 720.132 195.148C720.132 203.719 727.86 210.63 737.352 210.63C746.844 210.667 754.614 203.719 754.614 195.148Z" fill="#003B9C"/>
<path d="M817.111 253.941C817.111 240.725 805.225 230.039 790.525 230.039C775.825 230.039 763.938 240.725 763.938 253.941C763.938 267.195 775.825 277.919 790.525 277.919C805.225 277.919 817.111 267.233 817.111 253.941Z" fill="#015197"/>
<path d="M855.96 183.518C855.96 175.323 848.568 168.715 839.37 168.715C830.214 168.715 822.822 175.361 822.822 183.518C822.822 191.787 830.214 198.433 839.37 198.433C848.568 198.395 855.96 191.787 855.96 183.518Z" fill="#003B9C"/>
<path d="M867.383 93.7223C867.383 80.506 855.539 69.782 840.839 69.782C826.097 69.782 814.211 80.506 814.211 93.7223C814.211 106.901 826.097 117.663 840.839 117.663C855.539 117.663 867.383 106.901 867.383 93.7223Z" fill="#00A3EB"/>
<path d="M848.022 17.4455C848.022 7.77872 839.328 0 828.618 0C817.866 0 809.214 7.77872 809.214 17.4455C809.214 27.1122 817.866 34.891 828.618 34.891C839.328 34.891 848.022 27.1122 848.022 17.4455Z" fill="#015197"/>
<path d="M991.074 91.1545C991.074 81.4878 982.38 73.6713 971.628 73.6713C960.918 73.6713 952.224 81.4878 952.224 91.1545C952.224 100.859 960.918 108.6 971.628 108.6C982.38 108.562 991.074 100.821 991.074 91.1545Z" fill="#00A3EB"/>
<path d="M1050 122.156C1050 115.019 1043.57 109.242 1035.59 109.242C1027.66 109.242 1021.23 114.982 1021.23 122.156C1021.23 129.293 1027.61 135.07 1035.59 135.07C1043.57 135.07 1050 129.293 1050 122.156Z" fill="#015197"/>
<path d="M919.169 230.039C934.247 230.039 946.469 219.05 946.469 205.494C946.469 191.939 934.247 180.95 919.169 180.95C904.092 180.95 891.869 191.939 891.869 205.494C891.869 219.05 904.092 230.039 919.169 230.039Z" fill="#00A3EB"/>
<path d="M1023.37 246.2C1023.37 236.911 1015.06 229.397 1004.68 229.397C994.35 229.397 986.034 236.911 986.034 246.2C986.034 255.489 994.35 263.004 1004.68 263.004C1015.06 263.004 1023.37 255.489 1023.37 246.2Z" fill="#015197"/>
<path d="M986.034 284.981C986.034 280.261 981.834 276.56 976.71 276.56C971.502 276.56 967.302 280.261 967.302 284.981C967.302 289.625 971.502 293.401 976.71 293.401C981.834 293.401 986.034 289.625 986.034 284.981Z" fill="#003B9C"/>
<path d="M1050 279.845C1050 275.125 1045.8 271.425 1040.59 271.425C1035.47 271.425 1031.27 275.125 1031.27 279.845C1031.27 284.49 1035.47 288.19 1040.59 288.19C1045.8 288.153 1050 284.49 1050 279.845Z" fill="#00A3EB"/>
<path d="M406.055 118.229C406.055 105.768 394.757 95.6104 380.855 95.6104C366.953 95.6104 355.697 105.768 355.697 118.229C355.697 130.766 366.953 140.886 380.855 140.886C394.757 140.886 406.055 130.766 406.055 118.229Z" fill="#015197"/>
<path d="M422.563 206.136C422.563 195.45 412.903 186.727 400.933 186.727C389.047 186.727 379.387 195.412 379.387 206.136C379.387 216.86 389.005 225.545 400.933 225.545C412.903 225.545 422.563 216.86 422.563 206.136Z" fill="#00A3EB"/>
<path d="M392.364 265.609C392.364 256.698 384.342 249.448 374.43 249.448C364.476 249.448 356.412 256.66 356.412 265.609C356.412 274.521 364.434 281.771 374.43 281.771C384.3 281.733 392.364 274.521 392.364 265.609Z" fill="#015197"/>
<path d="M532.518 160.936C532.518 152.025 524.496 144.775 514.584 144.775C504.63 144.775 496.566 151.987 496.566 160.936C496.566 169.848 504.588 177.098 514.584 177.098C524.454 177.098 532.518 169.886 532.518 160.936Z" fill="#015197"/>
<path d="M663.348 336.675C663.348 329.538 656.922 323.686 648.942 323.686C641.004 323.686 634.536 329.501 634.536 336.675C634.536 343.812 640.962 349.589 648.942 349.589C656.922 349.589 663.348 343.85 663.348 336.675Z" fill="#015197"/>
<path d="M634.535 285.66C634.535 276.371 626.219 268.857 615.887 268.857C605.555 268.857 597.197 276.371 597.197 285.66C597.197 294.874 605.555 302.388 615.887 302.388C626.219 302.388 634.535 294.874 634.535 285.66Z" fill="#003B9C"/>
<path d="M481.488 303.71C481.488 294.798 473.466 287.548 463.512 287.548C453.642 287.548 445.578 294.761 445.578 303.71C445.578 312.621 453.6 319.872 463.512 319.872C473.466 319.872 481.488 312.659 481.488 303.71Z" fill="#003B9C"/>
<path d="M270.228 368.319C270.228 359.407 262.206 352.157 252.21 352.157C242.34 352.157 234.276 359.37 234.276 368.319C234.276 377.23 242.298 384.48 252.21 384.48C262.164 384.48 270.228 377.268 270.228 368.319Z" fill="#00A3EB"/>
<path d="M400.974 341.207C400.974 327.99 389.088 317.304 374.43 317.304C359.688 317.304 347.802 327.99 347.802 341.207C347.802 354.423 359.688 365.109 374.43 365.109C389.088 365.071 400.974 354.385 400.974 341.207Z" fill="#003B9C"/>
<path d="M313.362 293.401C313.362 280.185 301.434 269.423 286.734 269.423C271.992 269.423 260.106 280.185 260.106 293.401C260.106 306.617 271.992 317.304 286.734 317.304C301.434 317.304 313.362 306.617 313.362 293.401Z" fill="#00A3EB"/>
<path d="M540.414 352.195C540.414 338.979 528.528 328.292 513.786 328.292C499.128 328.292 487.242 338.979 487.242 352.195C487.242 365.411 499.128 376.097 513.786 376.097C528.528 376.097 540.414 365.373 540.414 352.195Z" fill="#015197"/>
<path d="M542.598 236.534C542.598 224.073 531.384 213.877 517.398 213.877C503.538 213.877 492.24 224.073 492.24 236.534C492.24 248.995 503.538 259.115 517.398 259.115C531.342 259.115 542.598 248.995 542.598 236.534Z" fill="#00A3EB"/>
<path d="M309.75 149.948C309.75 133.22 294.63 119.551 275.94 119.551C257.292 119.551 242.172 133.182 242.172 149.948C242.172 166.676 257.25 180.346 275.94 180.346C294.63 180.346 309.75 166.676 309.75 149.948Z" fill="#003B9C"/>
</g>
</svg>
