<svg width="112" height="71" viewBox="0 0 112 71" fill="none" xmlns="http://www.w3.org/2000/svg">
<path d="M11.3154 46.0069H2.44482V71H17.8612H22.0199H30.2895H34.4482H42.7158H46.8745H55.1441H59.3028H67.5703H71.729H79.9986H84.1574H92.4249H96.5836H112V46.0069H103.127C100.734 21.3407 80.9385 2.31117 57.2255 2.31117C33.5125 2.31117 13.7108 21.3407 11.3154 46.0069ZM35.2613 46.0069C37.4529 35.1855 46.5147 27.3021 57.2214 27.3021C67.9259 27.3021 76.9898 35.1855 79.1815 46.0069H35.2613Z" fill="#FF725E"/>
<path d="M100.085 46.54C98.6678 21.1747 78.9936 1 55.0061 1C31.0143 1 11.3422 21.1724 9.92499 46.54H1V68.0135H109.012V46.54H100.085ZM55.0039 22.4735C67.9524 22.4735 78.6398 33.0285 80.0059 46.54H29.9999C31.3659 33.0285 42.0554 22.4735 55.0039 22.4735Z" fill="#FAC855" stroke="#0F355B" stroke-width="2" stroke-miterlimit="10"/>
<path d="M55.004 59.8275V68.0136" stroke="#0F355B" stroke-width="2" stroke-miterlimit="10" stroke-linecap="square"/>
<path d="M42.2686 59.8275V68.0136" stroke="#0F355B" stroke-width="2" stroke-miterlimit="10" stroke-linecap="square"/>
<path d="M29.5332 59.8275V68.0136" stroke="#0F355B" stroke-width="2" stroke-miterlimit="10" stroke-linecap="square"/>
<path d="M16.7979 59.8275V68.0136" stroke="#0F355B" stroke-width="2" stroke-miterlimit="10" stroke-linecap="square"/>
<path d="M93.2101 59.8275V68.0136" stroke="#0F355B" stroke-width="2" stroke-miterlimit="10" stroke-linecap="square"/>
<path d="M80.4746 59.8275V68.0136" stroke="#0F355B" stroke-width="2" stroke-miterlimit="10" stroke-linecap="square"/>
<path d="M67.7394 59.8275V68.0136" stroke="#0F355B" stroke-width="2" stroke-miterlimit="10" stroke-linecap="square"/>
<path d="M55.004 59.8275V68.0136" stroke="#0F355B" stroke-width="2" stroke-miterlimit="10" stroke-linecap="square"/>
<path d="M75.6837 64.7144C77.8891 64.7144 79.6827 63.1184 79.6827 61.1569C79.6827 59.5971 77.3423 55.6484 76.6261 54.475L75.6837 52.9333L74.7413 54.475C74.0251 55.6484 71.6857 59.5971 71.6857 61.1569C71.6867 63.1193 73.4804 64.7144 75.6837 64.7144Z" fill="#FF725E"/>
<path d="M74.1665 48.4649C74.9331 47.7828 75.3555 46.8755 75.3555 45.911C75.3555 44.9465 74.932 44.0392 74.1665 43.358L73.0644 42.3773C73.7173 40.0161 72.9561 37.5462 71.0027 35.807L56.8869 23.2464L59.444 20.9711L57.928 19.6221L55.3709 21.8974L44.2904 12.0376C41.2413 9.32346 36.2794 9.32536 33.2313 12.0376C30.1822 14.7509 30.1822 19.1661 33.2313 21.8783L44.3118 31.7381L42.0475 33.753L43.5635 35.102L45.8278 33.0871L46.7702 33.9257L59.9436 45.6477C61.4081 46.9509 63.3348 47.6587 65.3268 47.6854C65.9915 47.695 66.6627 47.6282 67.3253 47.4832L68.4274 48.4639C69.2186 49.168 70.2575 49.5191 71.2975 49.5191C72.3364 49.52 73.3764 49.1689 74.1665 48.4649Z" fill="#FF725E"/>
<path d="M31.9076 11.7944C29.2107 14.2369 29.2107 18.1968 31.9076 20.6393L59.2446 45.3974C61.1647 47.1364 63.9319 47.6302 66.3413 46.8929L67.9279 48.3298C69.1217 49.41 71.056 49.41 72.2487 48.3298C73.4425 47.2487 73.4425 45.4968 72.2487 44.4166L70.6622 42.9797C71.4763 40.7976 70.931 38.2914 69.0108 36.5525L41.6739 11.7944C38.9769 9.35186 34.6045 9.35186 31.9076 11.7944Z" fill="white" stroke="#0F355B" stroke-width="2" stroke-miterlimit="10"/>
<path d="M70.6632 42.9797C71.4774 40.7976 70.9321 38.2914 69.0119 36.5525L67.1697 34.884H47.6361L59.2457 45.3984C61.1658 47.1374 63.9329 47.6312 66.3424 46.8939L67.929 48.3308C69.1228 49.411 71.0571 49.411 72.2498 48.3308C73.4436 47.2497 73.4436 45.4978 72.2498 44.4176L70.6632 42.9797Z" fill="#FF527F" stroke="#0F355B" stroke-width="2" stroke-miterlimit="10"/>
<path d="M53.7893 22.7669L41.6739 11.7944C38.9769 9.35186 34.6045 9.35186 31.9076 11.7944C29.2107 14.2369 29.2107 18.1968 31.9076 20.6393L44.023 31.6118L53.7893 22.7669Z" fill="#05CDFF" stroke="#0F355B" stroke-width="2" stroke-miterlimit="10"/>
<path d="M41.7058 33.7105L56.4062 20.3969" stroke="#0F355B" stroke-width="2" stroke-miterlimit="10" stroke-linecap="square"/>
<path d="M77.5637 60.9856C77.5637 62.4831 76.2229 63.6974 74.5694 63.6974C72.9159 63.6974 71.5751 62.4831 71.5751 60.9856C71.5751 59.4881 74.5694 54.5007 74.5694 54.5007C74.5694 54.5007 77.5637 59.4881 77.5637 60.9856Z" fill="#FF527F" stroke="#0F355B" stroke-width="2" stroke-miterlimit="10"/>
</svg>
