<svg width="66" height="81" viewBox="0 0 66 81" fill="none" xmlns="http://www.w3.org/2000/svg">
<path d="M45.3727 2.81824H24.7234C22.9151 2.81824 21.3176 3.6603 20.3569 4.94205H4.09521V81H66V4.94205H49.7393C48.7785 3.6603 47.1811 2.81824 45.3727 2.81824Z" fill="#FF725E"/>
<path d="M62.9048 3.14786H1V78.2727H62.9048V3.14786Z" fill="#05CDFF" stroke="#0F355B" stroke-width="2" stroke-miterlimit="10"/>
<path d="M59.4544 7.33607H4.45142V74.0847H59.4544V7.33607Z" fill="white" stroke="#0F355B" stroke-width="2" stroke-miterlimit="10"/>
<path d="M47.1035 9.1318H16.8032V5.08117C16.8032 2.82723 18.8159 1 21.2985 1H42.6082C45.0909 1 47.1035 2.82723 47.1035 5.08117V9.1318Z" fill="#FAC855" stroke="#0F355B" stroke-width="2" stroke-miterlimit="10"/>
<path d="M27.1407 61.8001C27.1469 61.8001 27.153 61.8001 27.1575 61.8001C27.3996 61.8001 27.6279 61.6874 27.7722 61.4952L56.1011 23.748C56.2896 23.4964 56.3003 23.1563 56.1278 22.8943C55.9545 22.6316 55.6384 22.5009 55.3238 22.5685L8.10135 32.6739C7.85474 32.7264 7.65013 32.8961 7.55545 33.1273C7.46078 33.3578 7.48903 33.6199 7.63027 33.8263L13.5169 42.4392L14.8492 54.9958V54.9966C14.8591 55.0912 14.8927 55.1812 14.9393 55.2668C14.969 55.3216 15.0003 55.3757 15.0423 55.4215L15.0446 55.4245C15.0492 55.429 15.0553 55.4305 15.0599 55.435C15.121 55.4973 15.1943 55.5469 15.2744 55.5859C15.3012 55.5987 15.3279 55.6077 15.3561 55.6175C15.3874 55.6287 15.4157 55.646 15.4493 55.6527C15.502 55.664 15.5554 55.6685 15.6081 55.6685C15.7096 55.6685 15.8058 55.643 15.8982 55.6054C15.9081 55.6017 15.9196 55.6032 15.9288 55.5987L20.9503 53.3133L26.5231 61.4675C26.6628 61.6709 26.8926 61.7941 27.1407 61.8001Z" fill="#FF725E"/>
<path d="M26.393 59.5481L54.7226 21.8001L7.50018 31.9062L26.393 59.5481Z" fill="white" stroke="#0F355B" stroke-width="2" stroke-miterlimit="10" stroke-linejoin="round"/>
<path d="M38.1002 32.4767L13.4926 40.6736L14.844 53.4164L18.4913 47.2008L38.1002 32.4767Z" fill="#05CDFF" stroke="#0F355B" stroke-width="2" stroke-miterlimit="10" stroke-linejoin="round"/>
<path d="M14.844 53.4164L20.4565 50.8623L18.4912 47.2008L14.844 53.4164Z" fill="#05CDFF" stroke="#0F355B" stroke-width="2" stroke-miterlimit="10" stroke-linecap="round" stroke-linejoin="round"/>
</svg>
