<svg width="94" height="83" viewBox="0 0 94 83" fill="none" xmlns="http://www.w3.org/2000/svg">
<path d="M14.9274 5.96648V62.9878C14.9274 66.6428 17.918 69.7124 21.6706 69.7225C21.6945 69.7225 21.7184 69.7225 21.7413 69.7225C21.7642 69.7225 21.7891 69.7225 21.812 69.7225C25.5635 69.7114 28.5552 66.6428 28.5552 62.9878V5.96648H14.9274Z" fill="#FF725E" stroke="#FF725E" stroke-width="2" stroke-miterlimit="10"/>
<path d="M14.9274 39.1671V62.9878C14.9274 66.6428 17.918 69.7124 21.6706 69.7235C21.6945 69.7235 21.7184 69.7235 21.7413 69.7235C21.7652 69.7235 21.7891 69.7235 21.812 69.7235C25.5635 69.7124 28.5552 66.6438 28.5552 62.9878V39.1671H14.9274Z" fill="#FF725E" stroke="#FF725E" stroke-width="2" stroke-miterlimit="10"/>
<path d="M14.921 7.84107C12.9824 7.84107 11.4106 6.30981 11.4106 4.42004C11.4106 2.53128 12.9824 1 14.921 1H28.5614C30.5 1 32.0717 2.53128 32.0717 4.42004C32.0717 6.3088 30.5 7.84107 28.5614 7.84107H22.5583" fill="#FF725E"/>
<path d="M14.921 7.84107C12.9824 7.84107 11.4106 6.30981 11.4106 4.42004C11.4106 2.53128 12.9824 1 14.921 1H28.5614C30.5 1 32.0717 2.53128 32.0717 4.42004C32.0717 6.3088 30.5 7.84107 28.5614 7.84107H22.5583" stroke="#FF725E" stroke-width="2" stroke-miterlimit="10" stroke-linecap="square"/>
<path d="M18.4855 16.6084V44.876" stroke="#FF725E" stroke-width="2" stroke-miterlimit="10" stroke-linecap="square"/>
<path d="M41.3036 5.96648V62.9878C41.3036 66.6428 44.2942 69.7124 48.0468 69.7225C48.0707 69.7225 48.0946 69.7225 48.1175 69.7225C48.1404 69.7225 48.1653 69.7225 48.1882 69.7225C51.9398 69.7114 54.9314 66.6428 54.9314 62.9878V5.96648H41.3036Z" fill="#FF725E" stroke="#FF725E" stroke-width="2" stroke-miterlimit="10"/>
<path d="M41.3036 24.9888V62.9878C41.3036 66.6428 44.2942 69.7124 48.0468 69.7235C48.0707 69.7235 48.0946 69.7235 48.1175 69.7235C48.1414 69.7235 48.1653 69.7235 48.1882 69.7235C51.9398 69.7124 54.9314 66.6438 54.9314 62.9878V24.9888H41.3036Z" fill="#FF725E" stroke="#FF725E" stroke-width="2" stroke-miterlimit="10"/>
<path d="M41.2974 7.84107C39.3587 7.84107 37.787 6.30981 37.787 4.42004C37.787 2.53128 39.3587 1 41.2974 1H54.9377C56.8764 1 58.4481 2.53128 58.4481 4.42004C58.4481 6.3088 56.8764 7.84107 54.9377 7.84107H48.9346" fill="#FF725E"/>
<path d="M41.2974 7.84107C39.3587 7.84107 37.787 6.30981 37.787 4.42004C37.787 2.53128 39.3587 1 41.2974 1H54.9377C56.8764 1 58.4481 2.53128 58.4481 4.42004C58.4481 6.3088 56.8764 7.84107 54.9377 7.84107H48.9346" stroke="#FF725E" stroke-width="2" stroke-miterlimit="10" stroke-linecap="square"/>
<path d="M44.8629 16.6084V44.876" stroke="#FF725E" stroke-width="2" stroke-miterlimit="10" stroke-linecap="square"/>
<path d="M67.7173 5.96648V62.9878C67.7173 66.6428 70.7079 69.7124 74.4605 69.7225C74.4844 69.7225 74.5083 69.7225 74.5312 69.7225C74.5541 69.7225 74.579 69.7225 74.6019 69.7225C78.3534 69.7114 81.3451 66.6428 81.3451 62.9878V5.96648H67.7173Z" fill="#FF725E" stroke="#FF725E" stroke-width="2" stroke-miterlimit="10"/>
<path d="M67.7173 41.1927V62.9878C67.7173 66.6428 70.7079 69.7124 74.4605 69.7236C74.4844 69.7236 74.5083 69.7236 74.5312 69.7236C74.5541 69.7236 74.579 69.7236 74.6019 69.7236C78.3534 69.7124 81.3451 66.6438 81.3451 62.9878V41.1927H67.7173Z" fill="#FF725E" stroke="#FF725E" stroke-width="2" stroke-miterlimit="10"/>
<path d="M67.7111 7.84107C65.7724 7.84107 64.2007 6.30981 64.2007 4.42004C64.2007 2.53128 65.7724 1 67.7111 1H81.3514C83.2901 1 84.8628 2.53128 84.8628 4.42004C84.8628 6.3088 83.2911 7.84107 81.3514 7.84107H75.3483" fill="#FF725E"/>
<path d="M67.7111 7.84107C65.7724 7.84107 64.2007 6.30981 64.2007 4.42004C64.2007 2.53128 65.7724 1 67.7111 1H81.3514C83.2901 1 84.8628 2.53128 84.8628 4.42004C84.8628 6.3088 83.2911 7.84107 81.3514 7.84107H75.3483" stroke="#FF725E" stroke-width="2" stroke-miterlimit="10" stroke-linecap="square"/>
<path d="M71.2766 16.6084V44.876" stroke="#FF725E" stroke-width="2" stroke-miterlimit="10" stroke-linecap="square"/>
<path d="M93 76.0035H2V82H93V76.0035Z" fill="#FF725E" stroke="#FF725E" stroke-width="2" stroke-miterlimit="10"/>
<path d="M93 21.991H2V27.9875H93V21.991Z" fill="#FF725E" stroke="#FF725E" stroke-width="2" stroke-miterlimit="10"/>
<path d="M9.474 24.9888V79.0013" stroke="#FF725E" stroke-width="2" stroke-miterlimit="10" stroke-linecap="square"/>
<path d="M87.2848 24.9888V79.0013" stroke="#FF725E" stroke-width="2" stroke-miterlimit="10" stroke-linecap="square"/>
<path d="M13.7853 5.90515V62.2225C13.7853 65.8324 16.7431 68.8641 20.4544 68.8741C20.4781 68.8741 20.5017 68.8741 20.5243 68.8741C20.5469 68.8741 20.5716 68.8741 20.5942 68.8741C24.3046 68.8631 27.2634 65.8324 27.2634 62.2225V5.90515H13.7853Z" fill="white" stroke="#0F355B" stroke-width="2" stroke-miterlimit="10"/>
<path d="M13.7853 38.696V62.2225C13.7853 65.8324 16.7431 68.8641 20.4544 68.8751C20.4781 68.8751 20.5017 68.8751 20.5243 68.8751C20.548 68.8751 20.5716 68.8751 20.5942 68.8751C24.3046 68.8641 27.2634 65.8334 27.2634 62.2225V38.696H13.7853Z" fill="#05CDFF" stroke="#0F355B" stroke-width="2" stroke-miterlimit="10"/>
<path d="M13.7791 7.75661C11.8617 7.75661 10.3073 6.24426 10.3073 4.37782C10.3073 2.51237 11.8617 1 13.7791 1H27.2695C29.1869 1 30.7413 2.51237 30.7413 4.37782C30.7413 6.24326 29.1869 7.75661 27.2695 7.75661H21.3324" fill="white"/>
<path d="M13.7791 7.75661C11.8617 7.75661 10.3073 6.24426 10.3073 4.37782C10.3073 2.51237 11.8617 1 13.7791 1H27.2695C29.1869 1 30.7413 2.51237 30.7413 4.37782C30.7413 6.24326 29.1869 7.75661 27.2695 7.75661H21.3324" stroke="#0F355B" stroke-width="2" stroke-miterlimit="10" stroke-linecap="square"/>
<path d="M17.3043 16.4157V44.3343" stroke="#0F355B" stroke-width="2" stroke-miterlimit="10" stroke-linecap="square"/>
<path d="M39.8717 5.90515V62.2225C39.8717 65.8324 42.8295 68.8641 46.5408 68.8741C46.5645 68.8741 46.5881 68.8741 46.6107 68.8741C46.6334 68.8741 46.658 68.8741 46.6807 68.8741C50.391 68.8631 53.3498 65.8324 53.3498 62.2225V5.90515H39.8717Z" fill="white" stroke="#0F355B" stroke-width="2" stroke-miterlimit="10"/>
<path d="M39.8717 24.6926V62.2225C39.8717 65.8324 42.8295 68.8641 46.5408 68.8751C46.5645 68.8751 46.5881 68.8751 46.6107 68.8751C46.6344 68.8751 46.658 68.8751 46.6807 68.8751C50.391 68.8641 53.3498 65.8334 53.3498 62.2225V24.6926H39.8717Z" fill="#FF527F" stroke="#0F355B" stroke-width="2" stroke-miterlimit="10"/>
<path d="M39.8655 7.75661C37.9481 7.75661 36.3937 6.24426 36.3937 4.37782C36.3937 2.51237 37.9481 1 39.8655 1H53.3559C55.2733 1 56.8278 2.51237 56.8278 4.37782C56.8278 6.24326 55.2733 7.75661 53.3559 7.75661H47.4188" fill="white"/>
<path d="M39.8655 7.75661C37.9481 7.75661 36.3937 6.24426 36.3937 4.37782C36.3937 2.51237 37.9481 1 39.8655 1H53.3559C55.2733 1 56.8278 2.51237 56.8278 4.37782C56.8278 6.24326 55.2733 7.75661 53.3559 7.75661H47.4188" stroke="#0F355B" stroke-width="2" stroke-miterlimit="10" stroke-linecap="square"/>
<path d="M43.3918 16.4157V44.3343" stroke="#0F355B" stroke-width="2" stroke-miterlimit="10" stroke-linecap="square"/>
<path d="M65.9952 5.90515V62.2225C65.9952 65.8324 68.953 68.8641 72.6644 68.8741C72.688 68.8741 72.7117 68.8741 72.7343 68.8741C72.7569 68.8741 72.7816 68.8741 72.8042 68.8741C76.5145 68.8631 79.4733 65.8324 79.4733 62.2225V5.90515H65.9952Z" fill="white" stroke="#0F355B" stroke-width="2" stroke-miterlimit="10"/>
<path d="M65.9952 40.6964V62.2225C65.9952 65.8324 68.953 68.8641 72.6644 68.8751C72.688 68.8751 72.7117 68.8751 72.7343 68.8751C72.7569 68.8751 72.7816 68.8751 72.8042 68.8751C76.5145 68.8641 79.4733 65.8334 79.4733 62.2225V40.6964H65.9952Z" fill="#FAC855" stroke="#0F355B" stroke-width="2" stroke-miterlimit="10"/>
<path d="M65.989 7.75661C64.0716 7.75661 62.5172 6.24426 62.5172 4.37782C62.5172 2.51237 64.0716 1 65.989 1H79.4795C81.3968 1 82.9523 2.51237 82.9523 4.37782C82.9523 6.24326 81.3979 7.75661 79.4795 7.75661H73.5423" fill="white"/>
<path d="M65.989 7.75661C64.0716 7.75661 62.5172 6.24426 62.5172 4.37782C62.5172 2.51237 64.0716 1 65.989 1H79.4795C81.3968 1 82.9523 2.51237 82.9523 4.37782C82.9523 6.24326 81.3979 7.75661 79.4795 7.75661H73.5423" stroke="#0F355B" stroke-width="2" stroke-miterlimit="10" stroke-linecap="square"/>
<path d="M69.5154 16.4157V44.3343" stroke="#0F355B" stroke-width="2" stroke-miterlimit="10" stroke-linecap="square"/>
<path d="M91 75.0776H1V81H91V75.0776Z" fill="#FAC855" stroke="#0F355B" stroke-width="2" stroke-miterlimit="10"/>
<path d="M91 21.7319H1V27.6543H91V21.7319Z" fill="#FAC855" stroke="#0F355B" stroke-width="2" stroke-miterlimit="10"/>
<path d="M8.39185 24.6926V78.0383" stroke="#0F355B" stroke-width="2" stroke-miterlimit="10" stroke-linecap="square"/>
<path d="M85.3477 24.6926V78.0383" stroke="#0F355B" stroke-width="2" stroke-miterlimit="10" stroke-linecap="square"/>
</svg>
