<svg width="" height="" viewBox="0 0 137 137" fill="none" xmlns="http://www.w3.org/2000/svg">
<path d="M96.9 136.569H39.669C17.76 136.569 0 118.809 0 96.9V39.669C0 17.76 17.76 0 39.669 0H96.9C118.809 0 136.569 17.76 136.569 39.669V96.9C136.569 118.809 118.809 136.569 96.9 136.569Z" fill="url(#paint0_radial_704_1269)"/>
<path d="M83.216 106.799H53.353C40.349 106.799 29.77 96.22 29.77 83.216V53.354C29.77 40.35 40.349 29.771 53.353 29.771H83.216C96.22 29.771 106.799 40.35 106.799 53.354V83.216C106.799 96.22 96.22 106.799 83.216 106.799ZM53.353 35.539C43.53 35.539 35.538 43.531 35.538 53.354V83.216C35.538 93.039 43.53 101.031 53.353 101.031H83.216C93.04 101.031 101.032 93.039 101.032 83.216V53.354C101.032 43.531 93.04 35.539 83.216 35.539H53.353Z" fill="white"/>
<path d="M68.284 87.77C57.54 87.77 48.8 79.029 48.8 68.285C48.8 57.541 57.54 48.8 68.284 48.8C79.028 48.8 87.769 57.541 87.769 68.285C87.769 79.029 79.028 87.77 68.284 87.77ZM68.284 54.706C60.797 54.706 54.706 60.797 54.706 68.285C54.706 75.772 60.797 81.863 68.284 81.863C75.771 81.863 81.863 75.772 81.863 68.285C81.863 60.798 75.772 54.706 68.284 54.706Z" fill="white"/>
<path d="M94.962 46.6799C94.962 49.4819 92.691 51.7529 89.889 51.7529C87.087 51.7529 84.816 49.4819 84.816 46.6799C84.816 43.8779 87.087 41.6069 89.889 41.6069C92.691 41.6069 94.962 43.8779 94.962 46.6799Z" fill="white"/>
<defs>
<radialGradient id="paint0_radial_704_1269" cx="0" cy="0" r="1" gradientUnits="userSpaceOnUse" gradientTransform="translate(-14.9223 184.436) scale(284.715)">
<stop stop-color="#F9ED41"/>
<stop offset="0.2412" stop-color="#FF833D"/>
<stop offset="0.401" stop-color="#EE5568"/>
<stop offset="0.4888" stop-color="#E7407B"/>
<stop offset="1" stop-color="#0028FF"/>
</radialGradient>
</defs>
</svg>
