<svg width="19" height="38" viewBox="0 0 19 38" fill="none" xmlns="http://www.w3.org/2000/svg">
<path d="M7.95443 7.91675C9.58991 7.91675 9.59204 5.54175 7.95443 5.54175C6.31967 5.54175 6.31683 7.91675 7.95443 7.91675Z" fill="#FAC855"/>
<path d="M4.7633 0.84929C5.056 1.72355 5.76425 2.40886 6.66779 2.69207C6.74708 2.71669 6.74708 2.82515 6.66779 2.84978C5.76425 3.13299 5.056 3.81828 4.7633 4.69254C4.73785 4.76926 4.62577 4.76926 4.60031 4.69254C4.30762 3.81828 3.59936 3.13299 2.69582 2.84978C2.61653 2.82515 2.61653 2.71669 2.69582 2.69207C3.59936 2.40886 4.30762 1.72355 4.60031 0.84929C4.62577 0.772567 4.73785 0.772567 4.7633 0.84929Z" fill="#FF527F"/>
<path d="M12.5852 0.0922153C13.0532 1.49129 14.1869 2.58758 15.6323 3.04039C15.7588 3.07993 15.7588 3.25327 15.6323 3.29335C14.1863 3.74616 13.0527 4.84299 12.5852 6.24152C12.5443 6.36394 12.3652 6.36394 12.3243 6.24152C11.8563 4.84245 10.7227 3.74616 9.27665 3.29335C9.15013 3.25381 9.15013 3.08047 9.27665 3.04039C10.7227 2.58758 11.8558 1.49075 12.3243 0.0922153C12.3646 -0.0307384 12.5438 -0.0307384 12.5852 0.0922153Z" fill="#0F355B"/>
<path d="M1.9748 28.1248C1.95784 28.211 1.9373 28.2959 1.92346 28.3825C1.90293 28.5094 1.89043 28.6363 1.8757 28.7636C1.86588 28.8494 1.85204 28.9343 1.8449 29.0209C1.82749 29.2353 1.81812 29.4497 1.81812 29.6645C1.81812 34.2604 5.67231 38 10.409 38C15.1457 38 18.9999 34.2604 18.9999 29.6645C18.9999 29.4086 18.9843 29.1547 18.9598 28.9031C18.9557 28.8602 18.9486 28.8173 18.9437 28.774C18.9196 28.5588 18.887 28.3461 18.8455 28.1347C18.8401 28.1061 18.8383 28.0784 18.8325 28.0503L18.7674 27.7298L18.7611 27.7293C18.079 24.9981 15.9885 22.7086 13.1936 21.7782V12.644C13.8887 12.4556 14.3998 11.8354 14.3998 11.1017C14.3998 10.2186 13.6592 9.5 12.749 9.5H8.06901C7.15881 9.5 6.41824 10.2186 6.41824 11.1017C6.41824 11.835 6.92892 12.4552 7.62485 12.644V21.7782C5.0911 22.6215 3.1399 24.5835 2.28817 26.9774L2.27612 26.9826L2.21541 27.1702C2.17211 27.3044 2.13774 27.44 2.10158 27.5751C2.0864 27.6314 2.0681 27.6869 2.05426 27.7436C2.02346 27.8697 1.9998 27.9974 1.9748 28.1248Z" fill="#FF725E"/>
<path d="M11.5307 21.6941V11.8435H11.533C12.2011 11.8435 12.7428 11.3188 12.7428 10.6717C12.7428 10.0246 12.2011 9.5 11.533 9.5H6.83164C6.16348 9.5 5.62178 10.0246 5.62178 10.6717C5.62178 11.3188 6.16348 11.8435 6.83164 11.8435H6.83388V21.6941C3.46036 22.6717 1.00073 25.6996 1.00073 29.2846C1.00073 33.661 4.66394 37.2083 9.18229 37.2083C13.7007 37.2083 17.3639 33.6606 17.3639 29.2846C17.3639 25.6996 14.9042 22.6717 11.5307 21.6941Z" fill="white"/>
<path d="M14.2766 28.2286C12.9067 28.7158 11.5928 29.2392 10.1197 29.3512C8.6587 29.4624 7.31521 29.0468 6.02687 28.4118C4.94572 27.8794 3.89684 27.1459 2.77443 26.8545C2.29416 26.7298 1.95515 26.7029 1.46816 26.8749C1.43811 26.8857 1.40896 26.9005 1.37892 26.9131C1.13632 27.6627 1 28.4579 1 29.2848C1 33.6611 4.6632 37.2084 9.18156 37.2084C13.6999 37.2084 17.3631 33.6607 17.3631 29.2848C17.3631 28.7593 17.3044 28.2472 17.2035 27.7504C16.2299 27.6718 15.2694 27.8755 14.2766 28.2286Z" fill="#05CDFF"/>
<path d="M14.2766 28.2286C12.9067 28.7158 11.5928 29.2392 10.1197 29.3512C8.6587 29.4624 7.31521 29.0468 6.02687 28.4118C4.94572 27.8794 3.89684 27.1459 2.77443 26.8545C2.29416 26.7298 1.95515 26.7029 1.46816 26.8749C1.43811 26.8857 1.40896 26.9005 1.37892 26.9131C1.13632 27.6627 1 28.4579 1 29.2848C1 33.6611 4.6632 37.2084 9.18156 37.2084C13.6999 37.2084 17.3631 33.6607 17.3631 29.2848C17.3631 28.7593 17.3044 28.2472 17.2035 27.7504C16.2299 27.6718 15.2694 27.8755 14.2766 28.2286Z" stroke="#0F355B" stroke-miterlimit="10"/>
<path d="M11.5307 21.6941V11.8435H11.533C12.2011 11.8435 12.7428 11.3188 12.7428 10.6717C12.7428 10.0246 12.2011 9.5 11.533 9.5H6.83164C6.16348 9.5 5.62178 10.0246 5.62178 10.6717C5.62178 11.3188 6.16348 11.8435 6.83164 11.8435H6.83388V21.6941C3.46036 22.6717 1.00073 25.6996 1.00073 29.2846C1.00073 33.661 4.66394 37.2083 9.18229 37.2083C13.7007 37.2083 17.3639 33.6606 17.3639 29.2846C17.3639 25.6996 14.9042 22.6717 11.5307 21.6941Z" stroke="#0F355B" stroke-miterlimit="10"/>
<path d="M11.5304 11.8438H9.18201" stroke="#0F355B" stroke-miterlimit="10"/>
<path d="M8.04392 32.8754C8.04392 33.5603 7.47083 34.1153 6.76366 34.1153C6.05694 34.1153 5.4834 33.5603 5.4834 32.8754C5.4834 32.1905 6.05649 31.6355 6.76366 31.6355C7.47083 31.6355 8.04392 32.1905 8.04392 32.8754Z" fill="#05CDFF" stroke="#0F355B" stroke-miterlimit="10"/>
<path d="M12.8502 30.2393C13.5791 30.2393 14.17 29.6671 14.17 28.9612C14.17 28.2553 13.5791 27.6831 12.8502 27.6831C12.1214 27.6831 11.5305 28.2553 11.5305 28.9612C11.5305 29.6671 12.1214 30.2393 12.8502 30.2393Z" fill="#05CDFF" stroke="#0F355B" stroke-miterlimit="10"/>
<path d="M9.56366 24.6982C9.56366 25.4469 8.93675 26.054 8.16366 26.054C7.39057 26.054 6.76367 25.4469 6.76367 24.6982C6.76367 23.9494 7.39057 23.3423 8.16366 23.3423C8.93675 23.3419 9.56366 23.949 9.56366 24.6982Z" fill="#05CDFF" stroke="#0F355B" stroke-miterlimit="10"/>
</svg>
