<svg width="30" height="35" viewBox="0 0 30 35" fill="none" xmlns="http://www.w3.org/2000/svg">
<path fill-rule="evenodd" clip-rule="evenodd" d="M6.62378 14.8188C6.62378 12.6853 7.50627 10.6392 9.07712 9.13057C10.648 7.62195 12.7785 6.77441 15 6.77441C17.2215 6.77441 19.352 7.62195 20.9229 9.13057C22.4937 10.6392 23.3762 12.6853 23.3762 14.8188C23.3762 16.9523 22.4937 18.9985 20.9229 20.5071C19.352 22.0157 17.2215 22.8632 15 22.8632C12.7785 22.8632 10.648 22.0157 9.07712 20.5071C7.50627 18.9985 6.62378 16.9523 6.62378 14.8188ZM15 9.31475C13.48 9.31475 12.0223 9.89464 10.9475 10.9269C9.87271 11.9591 9.2689 13.359 9.2689 14.8188C9.2689 16.2786 9.87271 17.6786 10.9475 18.7108C12.0223 19.743 13.48 20.3229 15 20.3229C16.52 20.3229 17.9777 19.743 19.0525 18.7108C20.1273 17.6786 20.7311 16.2786 20.7311 14.8188C20.7311 13.359 20.1273 11.9591 19.0525 10.9269C17.9777 9.89464 16.52 9.31475 15 9.31475Z" fill="#333333"/>
<path fill-rule="evenodd" clip-rule="evenodd" d="M0.0533182 12.8829C0.354732 9.37182 2.01993 6.09798 4.71828 3.71139C7.41664 1.3248 10.9508 -1.07297e-05 14.6191 0H15.3809C19.0492 -1.07297e-05 22.5834 1.3248 25.2818 3.71139C27.9801 6.09798 29.6453 9.37182 29.9467 12.8829C30.2822 16.7938 29.0241 20.6771 26.4375 23.7149L17.9855 33.6408C17.6238 34.0656 17.1683 34.408 16.652 34.643C16.1357 34.8781 15.5714 35 15 35C14.4286 35 13.8644 34.8781 13.3481 34.643C12.8318 34.408 12.3763 34.0656 12.0146 33.6408L3.56251 23.7149C0.975789 20.6772 -0.282286 16.7938 0.0533182 12.8829ZM14.6191 2.54034C11.6151 2.54077 8.7211 3.62596 6.51151 5.58048C4.30193 7.535 2.93833 10.216 2.69139 13.0912C2.41206 16.346 3.45898 19.5779 5.6116 22.106L14.0637 32.0337C14.1773 32.1672 14.3204 32.2748 14.4826 32.3487C14.6449 32.4226 14.8222 32.461 15.0018 32.461C15.1814 32.461 15.3587 32.4226 15.5209 32.3487C15.6832 32.2748 15.8263 32.1672 15.9399 32.0337L24.392 22.106C26.5433 19.5773 27.589 16.3455 27.3087 13.0912C27.0617 10.2157 25.6979 7.53447 23.4879 5.5799C21.2779 3.62534 18.3835 2.54035 15.3792 2.54034H14.6191Z" fill="#333333"/>
</svg>
