<svg width="100" height="120" viewBox="0 0 100 120" fill="none" xmlns="http://www.w3.org/2000/svg">
<path d="M4.96732 0.668842C7.16305 0.417988 9.31404 1.85822 10.15 3.79531C11.0167 5.80215 10.2534 8.10148 8.53475 9.43614C6.80023 10.7834 4.41959 10.9974 2.54095 9.77996C0.706043 8.59155 -0.335668 6.4772 0.0977125 4.34349C0.580792 1.96667 2.81429 0.19714 5.24361 0.00246204C5.77937 -0.0401541 6.2376 0.478019 6.2376 0.97101C6.2376 1.53083 5.78036 1.89694 5.24361 1.93956C3.94049 2.04416 2.6354 3.0476 2.18016 4.27571C1.68912 5.60069 2.14831 6.96438 3.2586 7.89612C4.30925 8.77847 5.70282 8.90343 6.87474 8.21963C8.01683 7.55327 8.77922 6.22926 8.47705 5.00017C8.09834 3.45728 6.53979 2.42676 4.96829 2.60594C4.43452 2.66696 3.9743 2.11682 3.9743 1.63739C3.97331 1.06304 4.43156 0.72986 4.96732 0.668842Z" fill="#323233"/>
<path d="M52.335 11.81C50.9106 11.6938 49.5478 12.4212 48.851 13.6783C48.19 14.8706 48.5061 16.339 49.4504 17.3346C50.4334 18.37 51.8141 18.6954 53.1192 18.1608C54.4194 17.6291 55.3388 16.3961 55.2911 15.0614C55.2404 13.6338 54.1311 12.2429 52.6709 11.8749C51.4334 11.562 51.9582 9.69374 53.1997 10.0075C55.2255 10.5189 56.8497 12.2817 57.1916 14.2934C57.5584 16.4523 56.4809 18.5327 54.5416 19.6233C52.5944 20.7187 50.2545 20.5395 48.524 19.1448C46.9047 17.8412 46.0688 15.5612 46.7438 13.5834C47.5101 11.3374 49.8768 9.67339 52.3339 9.87291C52.8687 9.9165 53.3279 10.2865 53.3279 10.8415C53.3289 11.3315 52.8727 11.8536 52.335 11.81Z" fill="#323233"/>
<path d="M22.5778 35.1995C24.9455 33.9946 27.6621 35.4823 28.67 37.7003C29.2087 38.8858 29.4175 40.1875 29.4383 41.4786C29.4612 42.9537 28.8648 44.1392 27.6183 44.9818C25.86 46.1712 23.4148 46.0385 21.6047 45.038C19.6336 43.9484 18.5919 41.8873 18.9318 39.7081C19.2897 37.4184 21.2429 35.2702 23.6494 34.9544C24.1811 34.8847 24.7169 35.0784 24.8719 35.6305C24.9992 36.0818 24.7129 36.7521 24.1781 36.8218C22.6981 37.0155 21.5302 38.0402 21.068 39.3478C20.8165 40.0597 20.7588 40.7183 20.9437 41.3837C21.1236 42.0316 21.4606 42.5072 22.0381 42.9905C23.0201 43.8138 24.541 44.1188 25.7974 43.7208C26.0429 43.6433 26.3689 43.4961 26.6721 43.2704C26.9981 43.0273 27.2555 42.7241 27.3728 42.3386C27.503 41.9106 27.4593 41.434 27.4325 40.9943C27.4036 40.5178 27.346 40.05 27.2356 39.5851C27.0209 38.6805 26.5935 37.709 25.8172 37.1879C25.4415 36.9351 25.0876 36.7773 24.6264 36.7095C24.3093 36.662 23.8919 36.7153 23.5847 36.8722C22.4486 37.4485 21.4417 35.7777 22.5778 35.1995Z" fill="#323233"/>
<path d="M57.5494 59.696C59.2173 58.7623 61.3783 58.8582 63.0015 59.8461C64.7499 60.9096 65.5481 62.7876 65.2091 64.7469C64.898 66.5455 63.4796 68.2356 61.6248 68.6647C59.6537 69.1209 57.5951 68.2395 56.4113 66.684C55.7324 65.792 55.4561 64.6646 55.5932 63.5672C55.7692 62.1609 56.4789 60.9444 57.3934 59.8664C57.7353 59.4625 58.445 59.5216 58.7989 59.8664C59.2084 60.2655 59.1418 60.8321 58.7989 61.236C58.2442 61.8897 57.8019 62.6403 57.6111 63.4723C57.5663 63.667 57.5574 63.7212 57.5465 63.9237C57.5405 64.0428 57.5395 64.1629 57.5455 64.283C57.5455 64.2937 57.5952 64.6772 57.5544 64.4496C57.623 64.8448 57.6836 64.9978 57.8228 65.2477C57.8675 65.3281 57.9152 65.4065 57.9659 65.483C57.9729 65.4927 58.1498 65.7378 58.0285 65.5838C58.123 65.7048 58.2313 65.8181 58.3416 65.9257C58.4082 65.9905 58.4778 66.0535 58.5494 66.1136C58.5354 66.1019 58.775 66.2889 58.6697 66.2124C58.5633 66.1349 58.8168 66.3082 58.8009 66.2986C58.9063 66.3664 59.0146 66.4303 59.1259 66.4893C59.1955 66.5262 59.2671 66.5601 59.3376 66.594C59.3774 66.6133 59.5672 66.6831 59.4052 66.624C59.5821 66.6889 59.762 66.7451 59.9469 66.7867C60.0085 66.8003 60.0702 66.8109 60.1318 66.8245C60.4161 66.8874 59.949 66.8255 60.2402 66.839C60.4291 66.8487 60.6139 66.8458 60.8028 66.8448C61.089 66.8429 60.6298 66.8913 60.9111 66.8351C61.0036 66.8167 61.096 66.7993 61.1875 66.7751C61.2491 66.7596 61.3097 66.7412 61.3694 66.7218C61.3863 66.716 61.6666 66.6027 61.4797 66.686C61.6338 66.6172 61.7829 66.5368 61.926 66.4468C61.9906 66.4061 62.0542 66.3644 62.1158 66.3189C61.9637 66.4312 62.2421 66.2046 62.2679 66.1814C62.7182 65.7658 62.9975 65.3 63.1635 64.7653C63.2182 64.59 63.257 64.4128 63.2918 64.2326C63.2987 64.1968 63.3096 64.0447 63.2937 64.2201C63.3016 64.129 63.3096 64.0389 63.3126 63.9479C63.3186 63.7958 63.3076 63.6467 63.3027 63.4956C63.2937 63.2137 63.3504 63.6709 63.2918 63.3949C63.2669 63.2767 63.243 63.1585 63.2092 63.0423C63.1923 62.9842 63.1735 62.9261 63.1546 62.8689C63.1486 62.8515 63.0293 62.5832 63.1158 62.7624C63.0423 62.6113 62.9597 62.465 62.8653 62.3246C62.8226 62.2616 62.7798 62.1987 62.7321 62.1387C62.8563 62.2946 62.6605 62.067 62.6516 62.0563C62.5263 61.9226 62.3912 61.8006 62.249 61.6844C62.4021 61.8103 62.1675 61.6272 62.1536 61.6185C62.0642 61.5585 61.9717 61.5023 61.8782 61.449C61.8106 61.4113 61.7431 61.3745 61.6735 61.3396C61.6397 61.3231 61.3037 61.1846 61.4846 61.2505C61.3087 61.1856 61.1318 61.1284 60.9489 61.0839C60.8584 61.0616 60.766 61.0413 60.6745 61.0248C60.6546 61.0209 60.3584 60.9851 60.5682 61.0054C60.3505 60.9841 60.1328 60.9744 59.9142 60.9832C59.8515 60.9851 59.7899 60.9919 59.7283 60.9938C59.609 61.0064 59.605 61.0054 59.7154 60.99C59.6537 60.9987 59.5931 61.0093 59.5324 61.0209C59.3495 61.0558 59.1696 61.1023 58.9937 61.1614C58.9758 61.1672 58.7005 61.2844 58.8853 61.1992C58.772 61.2515 58.6627 61.3076 58.5534 61.3686C57.4411 61.9905 56.4391 60.3178 57.5494 59.696Z" fill="#323233"/>
<path d="M93.031 72.3646C95.336 71.8483 97.7186 72.8334 99.0824 74.6862C100.42 76.5051 100.24 79.0311 98.8985 80.7968C97.489 82.6525 95.0637 83.5678 92.7835 82.7203C90.6176 81.9145 88.8592 79.8553 89.06 77.5018C89.2866 74.8528 91.542 72.6135 94.2934 72.4924C95.5726 72.4362 95.5696 74.3733 94.2934 74.4295C92.8203 74.4944 91.4893 75.6896 91.1236 77.1134C90.7568 78.5371 91.5996 79.957 92.9455 80.6776C94.2884 81.3963 95.8321 81.1813 96.9116 80.1091C97.9413 79.0863 98.3876 77.4495 97.7067 76.2049C96.9056 74.7424 95.1482 73.8775 93.5608 74.2329C92.3143 74.5109 91.7825 72.6445 93.031 72.3646Z" fill="#323233"/>
<path d="M80.4042 106.396C79.1866 106.849 78.2811 108.241 78.2284 109.496C78.1708 110.864 79.0663 112.108 80.3675 112.625C81.7789 113.186 83.1815 112.91 84.1963 111.799C85.1058 110.802 85.418 109.244 84.7948 108.095C84.4011 107.37 83.8007 106.848 83.0155 106.493C82.3336 106.185 81.4907 106.106 80.773 106.283C79.5325 106.589 79.0028 104.722 80.2443 104.415C82.4082 103.88 84.7202 104.748 86.0661 106.457C87.4447 108.209 87.4 110.679 86.1436 112.487C84.8574 114.338 82.6268 115.236 80.3834 114.666C78.2045 114.112 76.5138 112.342 76.2643 110.15C75.989 107.733 77.5843 105.379 79.8755 104.528C80.3774 104.342 80.9659 104.734 81.0981 105.205C81.2522 105.75 80.9082 106.21 80.4042 106.396Z" fill="#323233"/>
<path d="M22.4238 80.4888C24.3124 79.6365 26.6632 79.5958 28.4345 80.7658C30.1611 81.9058 31.0159 83.9853 30.5686 85.9756C30.1283 87.935 28.3272 89.1592 26.3372 89.2629C24.38 89.3646 22.4497 88.3893 21.4249 86.764C20.75 85.6928 20.4627 84.3146 20.8553 83.0961C21.241 81.899 22.1505 80.9489 23.3761 80.5518C23.885 80.3871 24.4616 80.7426 24.5987 81.2278C24.7478 81.7557 24.4159 82.2535 23.9049 82.4191C23.8155 82.4482 23.6773 82.5111 23.4924 82.6245C23.4775 82.6332 23.3473 82.7339 23.4467 82.6545C23.3672 82.7184 23.2926 82.7891 23.221 82.8627C23.062 83.0254 22.8394 83.379 22.7877 83.562C22.7598 83.6598 22.733 83.7596 22.7042 83.8564C22.6177 84.1441 22.7032 83.7673 22.6813 83.9572C22.6575 84.1654 22.6555 84.3824 22.6813 84.5906C22.6694 84.4918 22.6972 84.6768 22.6962 84.6749C22.7201 84.7882 22.7469 84.9005 22.7807 85.0119C22.8463 85.2318 22.894 85.347 22.9934 85.533C23.1813 85.8817 23.3682 86.1354 23.6386 86.395C23.6823 86.4376 23.728 86.4783 23.7747 86.519C23.7856 86.5287 24.0222 86.7137 23.8622 86.5965C24.0103 86.7059 24.1693 86.8028 24.3313 86.8909C24.4128 86.9355 24.4973 86.9732 24.5798 87.0159C24.6067 87.0294 24.7538 87.0924 24.5987 87.0285C24.7568 87.0933 24.9208 87.1456 25.0848 87.1912C25.2498 87.2367 25.4168 87.2696 25.5858 87.3016C25.7806 87.3384 25.6414 87.3093 25.5987 87.3045C25.7219 87.3171 25.8452 87.3258 25.9685 87.3296C26.1215 87.3335 26.2756 87.3306 26.4287 87.32C26.4575 87.318 26.7517 87.2754 26.5271 87.3132C26.5867 87.3035 26.6464 87.2929 26.706 87.2812C26.8839 87.2454 27.0539 87.1902 27.2268 87.1388C27.2606 87.1292 27.4027 87.0681 27.2387 87.1388C27.3481 87.0924 27.4545 87.0391 27.5579 86.981C27.6225 86.9442 27.6841 86.9045 27.7477 86.8657C27.7874 86.8415 27.9385 86.7224 27.7994 86.8347C27.9167 86.7408 28.027 86.6391 28.1284 86.5296C28.1343 86.5238 28.3153 86.2952 28.2129 86.4366C28.2695 86.3592 28.3222 86.2788 28.3709 86.1965C28.4037 86.1413 28.4316 86.0851 28.4634 86.0299C28.5131 85.9253 28.519 85.9165 28.4823 86.0027C28.5061 85.9446 28.528 85.8856 28.5489 85.8255C28.7556 85.2231 28.7546 84.6739 28.5886 84.0821C28.5449 83.9271 28.4952 83.7722 28.4306 83.625C28.4932 83.7693 28.4047 83.5823 28.3878 83.5484C28.351 83.4768 28.3123 83.4061 28.2705 83.3363C28.0797 83.0157 27.9813 82.8889 27.6463 82.6012C27.1781 82.1993 26.3133 81.8632 25.7219 81.8186C25.5092 81.8031 25.2985 81.7915 25.0848 81.7973C24.9784 81.8002 24.8721 81.8051 24.7657 81.8138C24.7657 81.8138 24.4506 81.8545 24.6067 81.8302C24.2071 81.8932 23.6653 82.054 23.4258 82.1615C22.9387 82.3813 22.3543 82.2952 22.066 81.8138C21.8165 81.3954 21.9348 80.7096 22.4238 80.4888Z" fill="#323233"/>
<path d="M6.15206 109.811C8.27423 109.694 10.4103 110.985 11.2671 112.879C12.1518 114.834 11.6141 117.172 10.0416 118.652C8.46609 120.133 6.18987 120.372 4.24264 119.476C2.33617 118.598 1.22086 116.664 1.53695 114.631C1.88187 112.407 3.88875 110.579 6.1958 110.465C6.73256 110.439 7.18979 110.929 7.18979 111.434C7.18979 111.98 6.73454 112.376 6.1958 112.402C5.65408 112.429 5.008 112.702 4.57959 113.079C4.09154 113.509 3.75059 114.022 3.57863 114.586C3.21483 115.78 3.71385 116.926 4.82215 117.582C5.91255 118.228 7.21364 118.304 8.311 117.551C8.80104 117.215 9.28116 116.585 9.48791 116.045C9.74535 115.376 9.80104 114.776 9.63703 114.16C9.23844 112.666 7.70368 111.663 6.15206 111.749C5.6153 111.778 5.15807 111.283 5.15807 110.78C5.15807 110.23 5.61431 109.841 6.15206 109.811Z" fill="#323233"/>
<path d="M24.0201 88.4697C18.9716 96.5387 13.6966 104.469 8.20078 112.255C7.48013 113.276 5.75657 112.309 6.48417 111.278C11.9799 103.492 17.255 95.5614 22.3035 87.4924C22.9685 86.429 24.6881 87.4014 24.0201 88.4697Z" fill="#323233"/>
<path d="M77.7901 108.465C61.2918 102.347 44.9814 95.7541 28.8817 88.7002C27.7168 88.1897 28.7267 86.52 29.8847 87.0275C45.8283 94.0127 61.9807 100.538 78.3189 106.598C79.5027 107.037 78.9889 108.91 77.7901 108.465Z" fill="#323233"/>
<path d="M94.363 82.0598C91.2668 90.0998 88.1715 98.1406 85.0752 106.181C84.6299 107.337 82.7075 106.836 83.1578 105.665C86.2541 97.6254 89.3493 89.5845 92.4456 81.5446C92.8919 80.3881 94.8143 80.8889 94.363 82.0598Z" fill="#323233"/>
<path d="M90.1484 76.1526C81.3606 73.2276 72.5736 70.3016 63.7858 67.3766C62.582 66.9756 63.099 65.1044 64.3146 65.5083C73.1025 68.4333 81.8893 71.3593 90.6772 74.2843C91.8809 74.6853 91.3631 76.5575 90.1484 76.1526Z" fill="#323233"/>
<path d="M56.2483 63.5897C46.8302 57.0665 37.5542 50.3515 28.4214 43.4535C27.4115 42.6913 28.828 41.3295 29.8269 42.084C38.8265 48.8793 47.9723 55.4897 57.2522 61.917C58.2859 62.6337 57.294 64.3141 56.2483 63.5897Z" fill="#323233"/>
<path d="M49.2585 19.3434C41.8901 25.2263 34.9232 31.5626 27.8868 37.8136C26.9425 38.6524 25.533 37.2857 26.4813 36.4441C33.5187 30.1931 40.4846 23.8568 47.853 17.9739C48.8341 17.1894 50.2486 18.5521 49.2585 19.3434Z" fill="#323233"/>
<path d="M47.5568 14.2217C34.4818 12.4851 21.4695 10.3301 8.53967 7.75954C7.28724 7.51062 7.81702 5.64325 9.06845 5.89217C21.9973 8.4627 35.0106 10.6177 48.0856 12.3544C49.3479 12.5209 48.8102 14.3883 47.5568 14.2217Z" fill="#323233"/>
<path d="M57.618 67.3088C48.526 72.2775 39.434 77.2461 30.3429 82.2158C29.2257 82.826 28.2227 81.1542 29.3399 80.5431C38.431 75.5735 47.523 70.6048 56.6151 65.6362C57.7323 65.026 58.7353 66.6987 57.618 67.3088Z" fill="#323233"/>
<path d="M22.8164 81.16C23.4267 68.9127 24.1623 56.6722 25.0231 44.4404C25.1106 43.2036 27.0986 43.1939 27.0111 44.4404C26.1513 56.6732 25.4157 68.9137 24.8044 81.16C24.7428 82.4007 22.7548 82.4075 22.8164 81.16Z" fill="#323233"/>
</svg>
