<svg width="70" height="160" viewBox="0 0 70 160" fill="none" xmlns="http://www.w3.org/2000/svg">
<path d="M2.95938 5.58054C4.63905 1.91262 8.70342 0.109727 12.7082 0.00487365C17.2644 -0.114542 21.2812 1.97087 24.3345 5.12132C28.0474 8.95331 30.3139 13.8649 32.5763 18.561C35.1812 23.9687 37.6083 29.4589 39.7889 35.0384C40.9201 37.9326 41.9847 40.851 42.9715 43.7946C43.3391 44.8917 43.7997 46.0101 43.1583 47.0965C42.5402 48.1422 41.1878 48.7829 40.1788 49.415C35.4215 52.3955 30.3664 55.0421 24.9234 56.6663C22.3226 57.443 19.2228 58.3081 16.4695 58.145C13.6768 57.9809 12.7516 55.7246 11.8709 53.5334C9.60135 47.881 7.53685 42.1529 5.68245 36.3627C3.69472 30.1569 1.6464 23.7997 0.471745 17.3969C-0.373646 12.7872 -0.495853 7.14751 3.69877 3.94755C4.70678 3.17863 6.14505 4.54366 5.12695 5.32035C1.71711 7.92226 1.69485 12.3931 2.30087 16.1969C3.08162 21.0939 4.63203 25.9521 6.04506 30.7084C7.57524 35.8617 9.27103 40.9704 11.1285 46.0228C12.0435 48.5121 12.996 50.9907 13.9929 53.4508C14.4322 54.5343 14.8555 55.8615 16.1766 56.1498C17.4613 56.4304 19.0773 56.0081 20.3479 55.7722C25.4011 54.8333 30.1563 52.8441 34.6135 50.4101C35.7084 49.812 36.7861 49.1878 37.8516 48.5431C38.8536 47.9363 40.3737 47.3033 41.1332 46.4296C41.9089 45.5373 40.7575 43.5141 40.4221 42.5471C39.9646 41.2267 39.4909 39.9122 39.0041 38.6025C37.1113 33.5122 35.0024 28.4977 32.7248 23.556C30.6946 19.1503 28.6877 14.627 26.0415 10.5222C23.5184 6.60868 19.9339 2.82911 14.9777 2.0767C10.9719 1.46894 6.43591 2.77766 4.70473 6.55916C4.18053 7.70187 2.44023 6.71451 2.95938 5.58054Z" fill="#323233"/>
<path d="M41.4452 46.1431C42.7573 45.2121 44.1582 44.4432 45.6672 43.8461C47.055 43.2966 48.7619 42.616 50.284 42.816C51.6506 42.9956 52.4848 43.9441 53.2827 44.9373C54.2564 46.149 55.1775 47.4159 55.8714 48.7984C57.1562 51.3576 57.6389 54.3343 55.7431 56.7449C53.8938 59.0973 50.6183 60.5701 48.0074 62.0051C42.0119 65.3012 35.6316 67.9701 29.0412 69.9535C25.6445 70.9758 22.1872 71.8137 18.6915 72.4593C16.1624 72.9263 13.001 73.4729 10.9557 71.5283C9.79422 70.4244 9.43564 68.8448 9.07304 67.3739C8.57106 65.339 8.0731 63.3031 7.57213 61.2682C7.25195 59.9634 6.4015 58.1022 7.55696 56.9585C8.16803 56.3537 9.14575 56.0906 9.92347 55.7595C10.9739 55.3129 12.0253 54.8663 13.0768 54.4197C14.2555 53.9188 15.2836 55.5916 14.0958 56.0964C12.7444 56.6702 11.391 57.2391 10.0426 57.8187C9.08715 58.2294 8.93768 58.3401 9.17402 59.343C9.35886 60.1274 9.55883 60.909 9.75073 61.6915C10.0972 63.1002 10.4437 64.5099 10.7901 65.9186C11.0961 67.1633 11.2587 68.7429 12.0698 69.8011C13.6272 71.8331 17.1381 70.7933 19.245 70.3788C21.9337 69.8506 24.5971 69.2079 27.2272 68.4555C32.6894 66.8924 37.9991 64.8555 43.0745 62.3624C45.5844 61.1303 48.0367 59.7896 50.4204 58.3459C52.6394 57.0022 55.1957 55.5537 55.0058 52.6819C54.8331 50.078 52.8747 47.18 51.0304 45.3441C49.8669 44.1849 47.9397 45.0558 46.5913 45.5674C45.1117 46.1276 43.7401 46.913 42.4644 47.8198C41.418 48.5635 40.41 46.879 41.4452 46.1431Z" fill="#323233"/>
<path d="M52.2505 59.9294C54.7281 71.4293 58.5369 82.6583 63.6729 93.3174C65.9656 98.0756 69.0472 103.156 67.214 108.549C66.3757 111.015 64.8193 113.155 63.4719 115.376C62.073 117.681 61.1104 120.095 60.9014 122.772C60.6963 125.391 61.2044 127.959 61.1792 130.565C61.16 132.532 60.6025 134.665 58.9107 135.917C57.0502 137.293 54.5716 136.992 52.6546 135.883C50.4729 134.622 49.276 132.496 48.0882 130.417C46.7631 128.096 45.2228 126.279 42.9068 124.818C40.9706 123.597 38.8748 122.638 36.8861 121.504C34.8337 120.335 32.9116 118.963 31.4501 117.131C29.9381 115.236 28.9584 113.016 28.2423 110.742C27.3394 107.874 26.8182 104.906 26.1223 101.988C25.3415 98.7124 24.4628 95.4581 23.4861 92.2319C21.5126 85.7126 19.146 79.303 16.3967 73.0487C15.8968 71.9108 17.636 70.9205 18.141 72.0691C22.6952 82.4253 26.2485 93.1581 28.6877 104.157C29.7109 108.77 30.6199 113.907 34.3216 117.321C37.5426 120.291 42.0028 121.586 45.4874 124.221C47.3812 125.653 48.6842 127.421 49.8336 129.437C51.0517 131.574 52.3182 134.013 54.9463 134.753C60.8731 136.421 58.7591 126.649 58.8258 123.913C58.8834 121.513 59.35 119.168 60.3489 116.961C61.3559 114.736 62.8437 112.766 64.0466 110.641C65.3899 108.269 66.1162 105.803 65.5839 103.099C65.0556 100.415 63.7294 97.9629 62.5245 95.5164C57.0168 84.3408 52.9131 72.5535 50.3042 60.4449C50.0406 59.2265 51.9869 58.7052 52.2505 59.9294Z" fill="#323233"/>
<path d="M59.1692 134.993C61.767 138.708 64.4183 142.394 66.9595 146.147C69.018 149.186 70.8865 152.97 69.5492 156.643C68.3473 159.945 64.6496 161.05 61.7357 158.877C60.1873 157.721 59.2591 156.008 58.4783 154.32C57.6602 152.552 56.9855 150.727 56.4896 148.852C55.3321 144.476 55.1281 139.958 55.7745 135.492C55.9533 134.26 57.8996 134.784 57.7229 136.008C57.1189 140.181 57.3845 144.459 58.4905 148.534C59.0399 150.559 59.7793 152.551 60.7519 154.424C61.6387 156.133 63.076 158.308 65.3788 158.086C67.6989 157.863 68.121 154.9 67.9099 153.136C67.6615 151.063 66.5949 149.2 65.4445 147.469C62.8629 143.583 60.0994 139.798 57.4239 135.972C56.6977 134.932 58.446 133.96 59.1692 134.993Z" fill="#323233"/>
<path d="M56.2916 78.4146C45.7571 82.0622 34.965 84.9777 23.9951 87.1378C22.7265 87.3873 22.1831 85.5165 23.4578 85.265C34.4266 83.1049 45.2197 80.1894 55.7543 76.5418C56.9805 76.1185 57.5077 77.9933 56.2916 78.4146Z" fill="#323233"/>
<path d="M13.8869 5.50481C19.8026 9.44651 23.1144 15.7484 26.1021 21.8464C29.5846 28.957 32.543 36.2976 34.966 43.8024C35.3519 44.9985 33.4025 45.5102 33.0177 44.3189C30.6936 37.119 27.8828 30.0696 24.5598 23.2405C21.6984 17.361 18.5835 10.9902 12.8678 7.18149C11.8062 6.47471 12.8142 4.79026 13.8869 5.50481Z" fill="#323233"/>
<path d="M18.6036 17.028C19.2349 18.5454 19.8662 20.0619 20.4974 21.5794C20.6944 22.0522 20.2833 22.6658 19.7924 22.7735C19.2086 22.9017 18.7602 22.6017 18.5501 22.0959C17.9189 20.5784 17.2876 19.0619 16.6563 17.5445C16.4594 17.0716 16.8704 16.4581 17.3613 16.3503C17.9451 16.2221 18.3925 16.5212 18.6036 17.028Z" fill="#323233"/>
<path d="M11.8981 9.50186C12.3779 10.4086 12.8586 11.3154 13.3384 12.2232C13.4616 12.4562 13.5141 12.7135 13.4404 12.9717C13.3758 13.197 13.195 13.4406 12.9758 13.5523C12.5153 13.7863 11.8496 13.6872 11.5941 13.2038C11.1133 12.297 10.6336 11.3902 10.1538 10.4824C10.0306 10.2494 9.97808 9.99214 10.0518 9.73389C10.1165 9.50865 10.2973 9.26497 10.5164 9.15332C10.977 8.91934 11.6426 9.01837 11.8981 9.50186Z" fill="#323233"/>
<path d="M41.4039 52.5246C45.241 50.9712 48.872 48.945 52.2131 46.5606C52.6515 46.248 53.3414 46.4917 53.5949 46.9091C53.8959 47.4043 53.6716 47.9237 53.2323 48.2373C49.7386 50.7314 45.95 52.7751 41.9412 54.3974C41.4382 54.6013 40.8302 54.178 40.6989 53.7197C40.5383 53.1576 40.8999 52.7285 41.4039 52.5246Z" fill="#323233"/>
<path d="M56.6764 83.0136C57.8268 90.7824 59.7893 98.3163 62.581 105.69C60.3085 106.292 58.0359 106.895 55.7634 107.497C54.8523 103.046 53.9413 98.5969 53.0312 94.1465C52.606 92.0698 52.1808 89.9931 51.7566 87.9164C51.5132 86.73 51.2708 85.5427 51.0284 84.3563C50.4062 82.4282 50.4133 82.0321 51.0496 83.1699C51.8829 83.5019 52.7161 83.833 53.5494 84.165C54.819 83.6893 54.5281 83.8951 52.6777 84.7835C51.6132 85.3466 50.5365 85.8873 49.4477 86.4048C47.5408 87.3116 45.5955 88.1446 43.6269 88.9223C39.1152 90.7038 34.4933 92.0795 29.7462 93.1484C30.5694 91.7552 31.3925 90.3621 32.2157 88.9689C33.9741 97.0756 35.7336 105.182 37.492 113.289C35.177 113.59 32.8631 113.891 30.5481 114.192C31.0804 108.074 31.6127 101.956 32.145 95.8387C32.4076 92.8203 37.0991 90.7873 38.7324 94.1241C42.0836 100.968 45.0652 107.951 47.662 115.092C45.3894 115.694 43.1169 116.296 40.8443 116.899C39.2333 109.187 38.5526 101.442 38.9021 93.5805C39.0778 89.6388 44.4794 89.1106 45.846 92.6776C48.269 99.0027 50.1436 105.436 51.4899 112.051C49.2174 112.653 46.9448 113.256 44.6723 113.858C42.8896 104.792 42.8128 95.8435 44.3986 86.7466C44.8521 84.1447 48.571 83.5864 50.3072 85.2475C53.6322 88.4281 53.5595 92.8572 54.1069 97.1008C54.8624 102.962 55.6179 108.823 56.3734 114.684C54.1776 114.112 51.9818 113.54 49.786 112.97C51.4768 109.392 53.1676 105.814 54.8574 102.237C55.4897 100.899 57.4612 100.295 58.85 100.675C60.2135 101.048 61.2165 101.693 61.9942 102.843C62.4931 103.581 62.5376 105.429 63.1345 105.903C62.3012 105.571 61.468 105.24 60.6347 104.908C60.8276 104.912 61.0215 104.916 61.2144 104.921C60.3812 105.253 59.5479 105.584 58.7146 105.916C60.3175 104.447 57.2057 97.4076 56.4997 95.9989C58.653 95.1261 60.8074 94.2533 62.9608 93.3805C64.3748 99.5513 64.5536 105.788 63.1436 111.984C61.7467 118.125 56.3825 124.853 58.3319 131.255C56.0169 131.556 53.7029 131.857 51.388 132.158C50.9466 128.343 49.5911 124.989 47.4802 121.746C49.6335 121.475 51.7879 121.205 53.9413 120.934C53.6968 122.201 53.714 123.46 53.9908 124.712C54.3382 127.286 50.7385 128.93 48.672 127.646C43.2118 124.256 38.4121 120.225 34.2832 115.391C36.1335 114.018 37.9849 112.645 39.8353 111.273C41.0099 112.847 41.4099 114.323 41.3503 116.239C41.215 120.602 34.1438 120.621 34.2802 116.239C34.0973 115.728 33.9135 115.216 33.7307 114.703C31.4127 111.597 36.7325 107.601 39.2828 110.586C43.036 114.979 47.266 118.69 52.2414 121.778C50.4678 122.756 48.6952 123.734 46.9216 124.712C46.6549 122.736 46.7964 121.078 47.1247 119.129C47.6398 116.071 52.1131 116.055 53.5857 118.317C56.3946 122.631 57.8753 127.116 58.4591 132.159C58.9106 136.063 52.598 136.618 51.5152 133.062C49.7083 127.128 52.0152 122.001 54.2483 116.501C57.0723 109.544 57.8208 102.502 56.1442 95.1872C55.327 91.6242 60.7791 88.9252 62.6052 92.5688C64.7657 96.8794 68.4149 106.267 64.0951 110.373C62.5225 111.869 60.358 112.176 58.4935 110.973C57.3653 110.245 54.9351 106.669 56.9713 107.227C58.3025 106.707 59.6327 106.186 60.964 105.665C59.2732 109.242 57.5824 112.82 55.8926 116.398C54.2614 119.851 49.679 117.581 49.3053 114.683C48.7882 110.673 48.272 106.663 47.7549 102.652C47.3569 99.5639 47.6509 92.2902 45.3106 90.0523C47.2802 89.5524 49.2497 89.0524 51.2192 88.5533C49.8537 96.3862 49.9587 104.25 51.493 112.052C52.3323 116.32 45.551 118.161 44.6753 113.859C43.3289 107.243 41.4544 100.81 39.0313 94.4853C41.3463 94.1843 43.6603 93.8834 45.9753 93.5824C45.652 100.846 46.1742 107.961 47.665 115.095C48.5619 119.39 42.3533 121.041 40.8473 116.902C38.4506 110.312 35.7235 103.874 32.6298 97.5571C34.8256 96.9853 37.0214 96.4134 39.2171 95.8416C38.6849 101.959 38.1526 108.077 37.6203 114.195C37.3102 117.759 31.546 119.106 30.6764 115.098C28.9179 106.991 27.1585 98.8843 25.4 90.7776C25.0223 89.0349 25.9142 87.0378 27.8686 86.598C33.7954 85.2631 39.5667 83.4602 45.0602 80.9195C47.8256 79.6399 52.0202 76.0807 55.3361 77.835C58.5026 79.5107 58.354 85.0175 58.9419 87.8912C60.1559 93.8242 61.371 99.7581 62.5851 105.691C63.4668 110.002 57.3249 111.61 55.7674 107.498C52.9757 100.123 51.0143 92.5892 49.8628 84.8213C49.2245 80.5428 56.0361 78.6942 56.6764 83.0136Z" fill="#323233"/>
<path d="M21.9559 49.9334C19.3491 51.5936 16.4068 52.7392 13.3323 53.2887C12.697 53.4023 12.4243 52.4664 13.0637 52.3528C16.0624 51.8168 18.9036 50.7139 21.4459 49.0955C21.9903 48.7489 22.4963 49.5897 21.9559 49.9334Z" fill="#323233"/>
<path d="M18.5219 47.3742C16.4695 48.1111 14.4182 48.848 12.3658 49.5839C12.1103 49.6752 11.8123 49.482 11.7446 49.2451C11.6669 48.9732 11.8406 48.7402 12.0971 48.648C14.1495 47.9111 16.2008 47.1742 18.2532 46.4383C18.5087 46.347 18.8067 46.5402 18.8744 46.7771C18.9521 47.049 18.7784 47.282 18.5219 47.3742Z" fill="#323233"/>
<path d="M15.914 43.917C14.2878 44.5335 12.6627 45.15 11.0365 45.7665C10.783 45.8626 10.482 45.6606 10.4154 45.4276C10.3366 45.1519 10.5134 44.9267 10.7679 44.8305C12.394 44.214 14.0192 43.5975 15.6453 42.9811C15.8988 42.8849 16.1998 43.0869 16.2665 43.3199C16.3453 43.5956 16.1685 43.8199 15.914 43.917Z" fill="#323233"/>
<path d="M14.3221 40.251C12.9081 40.752 11.4951 41.2529 10.0811 41.7539C9.82554 41.8442 9.5276 41.652 9.45993 41.4151C9.38215 41.1442 9.55588 40.9092 9.81242 40.818C11.2254 40.317 12.6395 39.816 14.0535 39.3151C14.309 39.2248 14.607 39.417 14.6746 39.6539C14.7524 39.9248 14.5797 40.1597 14.3221 40.251Z" fill="#323233"/>
<path d="M14.6282 33.9647C12.5607 34.7763 10.5276 35.6676 8.53074 36.6287C7.95099 36.9083 7.4389 36.0705 8.02068 35.7909C10.0963 34.7918 12.2113 33.8724 14.3596 33.0288C14.6121 32.9297 14.9151 33.1365 14.9807 33.3676C15.0605 33.6453 14.8818 33.8647 14.6282 33.9647Z" fill="#323233"/>
<path d="M9.44882 32.755C9.27409 32.7793 9.10135 32.8142 8.93167 32.8628C8.8448 32.888 8.75796 32.9162 8.67312 32.9472C8.65292 32.955 8.63371 32.9628 8.61351 32.9696C8.55088 32.9929 8.6246 32.9676 8.64581 32.956C8.6044 32.9783 8.55692 32.9938 8.5145 33.0142C8.35593 33.088 8.20246 33.1734 8.05702 33.2686C8.02167 33.2919 7.98631 33.3152 7.95197 33.3404C7.9348 33.3521 7.91862 33.3657 7.90044 33.3773C7.92064 33.3637 7.9772 33.3181 7.9267 33.3589C7.85297 33.4191 7.78022 33.4783 7.70952 33.5424C7.51761 33.7171 7.18332 33.7394 6.99546 33.5424C6.81467 33.353 6.79043 33.0424 6.99546 32.856C7.59238 32.3113 8.36306 31.9317 9.18016 31.82C9.32056 31.8006 9.44171 31.7977 9.56897 31.8686C9.67401 31.9278 9.77405 32.0433 9.80132 32.1589C9.83061 32.2831 9.8245 32.423 9.75077 32.5327C9.68411 32.6307 9.57507 32.7385 9.44882 32.755Z" fill="#323233"/>
<path d="M9.87703 27.6725C8.47613 28.3074 7.07528 28.9424 5.67438 29.5773C5.42793 29.689 5.12996 29.6433 4.9835 29.4035C4.85523 29.1928 4.91686 28.8521 5.16431 28.7395C6.56522 28.1045 7.96613 27.4696 9.36703 26.8346C9.61347 26.723 9.91139 26.7686 10.0578 27.0084C10.1861 27.2191 10.1245 27.5599 9.87703 27.6725Z" fill="#323233"/>
<path d="M9.22452 23.3114C7.90947 24.191 6.45202 24.8638 4.92082 25.3133C4.29764 25.4958 4.031 24.5589 4.65216 24.3774C6.10458 23.9512 7.46913 23.3075 8.7155 22.4735C8.93972 22.324 9.27608 22.4337 9.40637 22.6473C9.55283 22.8891 9.44975 23.1609 9.22452 23.3114Z" fill="#323233"/>
<path d="M7.58832 20.1609C6.18641 20.8968 4.78554 21.6337 3.38363 22.3696C2.81297 22.6696 2.3029 21.8318 2.87356 21.5318C4.27548 20.7959 5.67634 20.059 7.07825 19.3231C7.64993 19.0231 8.15999 19.8609 7.58832 20.1609Z" fill="#323233"/>
<path d="M7.04694 15.7465C6.05207 16.6435 4.8885 17.3299 3.61284 17.7891C3.36538 17.8785 3.04824 17.6901 2.99168 17.4503C2.92603 17.1746 3.07854 16.9484 3.34418 16.8532C3.85828 16.6678 4.41481 16.4047 4.92992 16.0979C5.46523 15.7785 5.87425 15.4736 6.33381 15.0601C6.52672 14.8863 6.85905 14.863 7.04793 15.0601C7.2267 15.2484 7.25298 15.561 7.04694 15.7465Z" fill="#323233"/>
<path d="M3.93305 12.4815C3.70176 12.5319 3.47347 12.5931 3.25025 12.6679C3.13814 12.7047 3.02807 12.7455 2.91797 12.7882C2.86444 12.8096 2.86342 12.8096 2.91594 12.7892C2.88867 12.8009 2.8614 12.8125 2.83413 12.8232C2.7806 12.8465 2.72606 12.8708 2.67354 12.895C2.46043 12.9941 2.25338 13.1047 2.05239 13.2261C1.9524 13.2863 1.85342 13.3504 1.75747 13.4164C1.70899 13.4494 1.66149 13.4834 1.61402 13.5174C1.56756 13.5513 1.56656 13.5513 1.611 13.5193C1.58777 13.5368 1.56451 13.5543 1.54128 13.5727C1.33624 13.7319 1.02518 13.7805 0.827219 13.5727C0.658545 13.396 0.608044 13.0562 0.827219 12.8863C1.65948 12.2426 2.62003 11.7737 3.66439 11.5455C3.92195 11.4892 4.22293 11.6213 4.28555 11.8844C4.34413 12.131 4.20879 12.4213 3.93305 12.4815Z" fill="#323233"/>
<path d="M22.0933 66.0866C18.6683 67.0352 15.1594 67.6623 11.6102 67.9749C10.9628 68.0322 10.9668 67.0604 11.6102 67.0041C15.0695 66.6992 18.4865 66.075 21.8246 65.1507C22.4498 64.9779 22.7175 65.9138 22.0933 66.0866Z" fill="#323233"/>
<path d="M15.6272 64.0032C14.1131 64.3187 12.6001 64.6342 11.0861 64.9507C10.8194 65.0061 10.5396 64.874 10.4649 64.6119C10.3952 64.3692 10.5497 64.0711 10.8174 64.0148C12.3314 63.6993 13.8444 63.3838 15.3584 63.0673C15.6251 63.0119 15.9049 63.144 15.9796 63.4061C16.0493 63.6488 15.8948 63.9468 15.6272 64.0032Z" fill="#323233"/>
<path d="M12.6627 61.3236C11.589 61.5643 10.5153 61.8061 9.44168 62.0469C9.18513 62.1041 8.88314 61.9702 8.82052 61.708C8.76194 61.4595 8.89829 61.1731 9.17302 61.111C10.2467 60.8702 11.3203 60.6284 12.3939 60.3877C12.6505 60.3304 12.9525 60.4644 13.0152 60.7265C13.0737 60.9741 12.9374 61.2614 12.6627 61.3236Z" fill="#323233"/>
<path d="M26.6515 75.5049C24.5588 75.8311 22.5064 76.402 20.5672 77.2282C20.3177 77.334 20.0248 77.2981 19.8763 77.0544C19.75 76.8476 19.8066 76.4972 20.0571 76.3904C22.0812 75.5292 24.1972 74.9108 26.3829 74.57C26.6515 74.5282 26.9262 74.637 27.004 74.9088C27.0697 75.1399 26.9222 75.4632 26.6515 75.5049Z" fill="#323233"/>
<path d="M25.6738 79.2253C24.1537 79.6195 22.6326 80.0136 21.1125 80.4078C20.4843 80.5709 20.2156 79.634 20.8439 79.4719C22.364 79.0777 23.885 78.6836 25.4051 78.2894C26.0334 78.1263 26.302 79.0622 25.6738 79.2253Z" fill="#323233"/>
<path d="M27.9918 86.8465C26.4828 87.3766 25.3132 88.5824 24.8445 90.0552C24.5627 89.8979 24.282 89.7407 24.0002 89.5834C24.7597 88.9533 25.0304 87.9989 24.7042 87.0863C25.0345 87.0436 25.3657 86.9999 25.696 86.9572C25.7071 88.0494 25.7182 89.1416 25.7293 90.2348C25.7354 90.8737 24.79 90.8407 24.7193 90.2348C24.5849 89.0688 24.6779 87.9038 24.9809 86.7679C25.094 86.3456 25.6738 86.3145 25.9041 86.6524C26.3636 87.3261 26.8232 87.9989 27.2837 88.6727C27.0534 88.6145 26.8232 88.5562 26.5929 88.4989C29.0826 87.1155 31.5733 85.732 34.063 84.3485C34.1923 84.6446 34.3226 84.9398 34.4519 85.2359C32.9035 85.8038 31.5238 86.7805 30.5108 88.0436C30.1199 88.531 29.2412 88.0485 29.6391 87.5533C30.8279 86.0728 32.3642 84.9669 34.1842 84.3C34.7276 84.1009 35.0579 84.9174 34.5731 85.1873C32.0824 86.5708 29.5927 87.9543 27.103 89.3378C26.8575 89.4737 26.5626 89.3844 26.4121 89.164C25.9525 88.4902 25.493 87.8174 25.0324 87.1436C25.3404 87.1048 25.6475 87.0659 25.9555 87.0281C25.6737 88.0854 25.6041 89.1533 25.7303 90.2368C25.394 90.2368 25.0567 90.2368 24.7203 90.2368C24.7092 89.1446 24.6981 88.0523 24.687 86.9592C24.6809 86.3922 25.498 86.3252 25.6788 86.83C26.1131 88.0426 25.7263 89.4319 24.7153 90.2717C24.3557 90.5708 23.7143 90.2931 23.8709 89.7989C24.4486 87.9844 25.8738 86.5621 27.7241 85.9116C28.3352 85.6961 28.5988 86.6339 27.9918 86.8465Z" fill="#323233"/>
<path d="M32.646 92.1387C32.9581 91.8562 33.2711 91.5737 33.5832 91.2912C33.9145 90.9921 34.4175 91.2164 34.4458 91.6348C34.5438 93.1057 34.3388 94.5746 33.8398 95.9688C33.6479 96.5057 32.9086 96.3794 32.848 95.8396C32.5743 93.3989 33.656 90.895 35.6498 89.3591C35.9811 89.1048 36.5043 89.2514 36.5123 89.7028C36.5426 91.4048 36.4023 93.0979 36.1093 94.7756C35.7851 94.6892 35.4599 94.6037 35.1357 94.5173C35.7417 92.8746 36.6315 91.3756 37.789 90.0349C38.0768 89.7019 38.6536 89.9824 38.6515 90.3785C38.6414 92.0368 38.2233 93.6426 37.4304 95.1144C37.1688 95.6008 36.3336 95.2659 36.5073 94.7406C37.1981 92.6513 38.3051 90.7368 39.7757 89.0621C40.0727 88.7242 40.6262 89.0145 40.6383 89.4057C40.6908 91.23 40.1555 93.0261 39.097 94.5406C38.79 94.9804 38.0062 94.7193 38.1738 94.1668C38.9152 91.7251 40.2282 89.4912 42.017 87.6174C42.318 87.3019 42.8785 87.5524 42.8795 87.9611C42.8826 90.1038 41.8826 92.1805 40.1545 93.5397C39.7394 93.8659 39.0343 93.4523 39.3616 92.9513C40.3746 91.3999 41.4938 89.9184 42.7098 88.5077C43.0664 88.0941 43.6279 88.5572 43.5542 88.9795C43.1552 91.2601 41.3513 93.1669 39.0535 93.8193C38.4293 93.9969 38.1617 93.0601 38.7849 92.8834C40.7706 92.3193 42.2392 90.6756 42.5805 88.7222C42.8623 88.8795 43.1431 89.0368 43.4249 89.1941C42.2634 90.5407 41.2018 91.9591 40.2353 93.4406C39.9706 93.2445 39.707 93.0484 39.4424 92.8523C40.9756 91.6465 41.8745 89.8679 41.8715 87.9601C42.1583 88.0747 42.4462 88.1892 42.734 88.3038C41.0635 90.0543 39.8424 92.1445 39.1505 94.4251C38.8425 94.3008 38.5354 94.1756 38.2274 94.0513C39.1939 92.6669 39.6788 91.0737 39.6313 89.4057C39.9181 89.5203 40.206 89.6349 40.4939 89.7494C39.1394 91.2921 38.1213 93.0766 37.485 94.9989C37.1769 94.8746 36.8699 94.7494 36.5618 94.6251C37.2729 93.3057 37.6365 91.864 37.6445 90.3795C37.9314 90.4941 38.2192 90.6086 38.5071 90.7232C37.4658 91.928 36.6578 93.3018 36.1134 94.7775C35.8942 95.3727 35.0326 95.1329 35.1397 94.5193C35.4175 92.9271 35.5346 91.3183 35.5063 89.7048C35.7942 89.8193 36.081 89.9339 36.3689 90.0485C34.5549 91.4455 33.6136 93.6212 33.8631 95.8426C33.5328 95.7998 33.2015 95.7561 32.8712 95.7134C33.3439 94.3931 33.5348 93.0319 33.4419 91.6378C33.7297 91.7523 34.0166 91.8669 34.3045 91.9814C33.9924 92.264 33.6792 92.5465 33.3671 92.829C32.8874 93.2533 32.1723 92.5678 32.646 92.1387Z" fill="#323233"/>
<path d="M47.3893 66.1672C48.2357 68.6206 48.7033 71.1817 48.7891 73.7642C48.8093 74.3894 47.7993 74.3885 47.7791 73.7642C47.6963 71.2642 47.2347 68.7992 46.4156 66.4255C46.2106 65.8313 47.1862 65.576 47.3893 66.1672Z" fill="#323233"/>
<path d="M44.9279 68.0031C45.3319 69.673 45.7349 71.3439 46.1389 73.0137C46.2864 73.6215 45.3117 73.8807 45.1653 73.272C44.7613 71.6021 44.3582 69.9312 43.9542 68.2614C43.8078 67.6536 44.7814 67.3944 44.9279 68.0031Z" fill="#323233"/>
<path d="M42.9381 68.1516C42.825 69.4837 43.1088 70.8118 43.7845 71.9827C44.0997 72.5292 43.228 73.0195 42.9128 72.4729C42.1563 71.1613 41.8018 69.6487 41.9281 68.1516C41.9503 67.8905 42.1442 67.6662 42.4331 67.6662C42.6886 67.6662 42.9603 67.8885 42.9381 68.1516Z" fill="#323233"/>
<path d="M61.369 145.663C60.0711 146.185 58.7742 146.707 57.4764 147.228C57.2249 147.329 56.9209 147.12 56.8552 146.89C56.7754 146.61 56.9552 146.394 57.2077 146.292C58.5056 145.771 59.8024 145.249 61.1003 144.727C61.3518 144.626 61.6558 144.836 61.7215 145.066C61.8023 145.346 61.6215 145.561 61.369 145.663Z" fill="#323233"/>
<path d="M61.065 148.829C59.9934 149.257 58.8277 149.462 57.6682 149.44C57.4046 149.435 57.1511 149.221 57.1632 148.955C57.1754 148.695 57.3854 148.464 57.6682 148.469C58.754 148.489 59.7741 148.301 60.7963 147.892C61.0407 147.794 61.3619 147.997 61.4175 148.231C61.4852 148.516 61.3276 148.724 61.065 148.829Z" fill="#323233"/>
<path d="M62.3629 151.012C61.3791 151.405 60.3953 151.797 59.4116 152.189C59.1672 152.288 58.846 152.085 58.7904 151.851C58.7238 151.567 58.8813 151.358 59.1429 151.254C60.1267 150.86 61.1105 150.468 62.0942 150.076C62.3386 149.978 62.6598 150.181 62.7154 150.415C62.782 150.698 62.6245 150.907 62.3629 151.012Z" fill="#323233"/>
<path d="M62.6709 153.47C62.1305 153.678 61.5892 153.886 61.0478 154.094C60.9337 154.138 60.7599 154.102 60.6589 154.046C60.5539 153.987 60.4539 153.871 60.4267 153.755C60.3974 153.631 60.4034 153.491 60.4771 153.382C60.5529 153.269 60.6499 153.208 60.7792 153.158C61.3195 152.951 61.8609 152.743 62.4023 152.534C62.5164 152.49 62.6901 152.526 62.7911 152.583C62.8962 152.642 62.9961 152.757 63.0234 152.873C63.0527 152.997 63.0467 153.137 62.9729 153.247C62.8972 153.359 62.7992 153.42 62.6709 153.47Z" fill="#323233"/>
<path d="M64.9545 155.393C64.8424 155.419 64.7323 155.45 64.6253 155.488C64.599 155.498 64.5728 155.511 64.5455 155.518C64.6839 155.475 64.596 155.498 64.5617 155.514C64.5101 155.537 64.4587 155.562 64.4082 155.588C64.3072 155.642 64.2101 155.701 64.1182 155.765C64.091 155.785 64.0193 155.849 64.1294 155.756C64.1082 155.775 64.0849 155.791 64.0627 155.809C64.0193 155.845 63.9759 155.882 63.9345 155.919C63.8516 155.996 63.7759 156.079 63.7011 156.162C63.6405 156.23 63.7678 156.073 63.7092 156.151C63.692 156.173 63.6749 156.195 63.6587 156.218C63.6254 156.263 63.5951 156.309 63.5648 156.356C63.5072 156.447 63.4587 156.541 63.4123 156.636C63.39 156.681 63.4607 156.52 63.4183 156.621C63.4082 156.647 63.3981 156.673 63.388 156.699C63.3668 156.755 63.3486 156.813 63.3325 156.87C63.2618 157.115 62.9709 157.29 62.7113 157.209C62.4518 157.128 62.2831 156.874 62.3588 156.612C62.6628 155.564 63.5799 154.703 64.6859 154.456C64.9424 154.399 65.2444 154.532 65.307 154.795C65.3656 155.044 65.2293 155.331 64.9545 155.393Z" fill="#323233"/>
</svg>
