<svg width="301" height="165" viewBox="0 0 301 165" fill="none" xmlns="http://www.w3.org/2000/svg">
<path d="M213.011 95.877C213.528 95.877 213.941 95.7427 214.251 95.474C214.582 95.1847 214.747 94.8023 214.747 94.327V89.336H218.684V94.172C218.684 95.3087 219.263 95.877 220.42 95.877H221.598C221.805 95.877 221.908 96.59 221.908 98.016C221.908 99.3387 221.805 100 221.598 100H220.234C218.498 100 217.32 99.504 216.7 98.512C216.328 99.0287 215.832 99.411 215.212 99.659C214.613 99.8863 213.879 100 213.011 100H202.843C200.983 100 199.557 99.5143 198.565 98.543C197.573 97.551 197.077 96.1353 197.077 94.296V89.336H201.014V93.769C201.014 94.4717 201.169 94.9987 201.479 95.35C201.81 95.7013 202.326 95.877 203.029 95.877H213.011ZM212.267 83.663V87.197H203.525V83.663H212.267ZM226.074 95.877C225.33 95.4223 224.772 94.8953 224.4 94.296C224.049 93.676 223.873 92.932 223.873 92.064C223.873 90.9067 224.142 89.8527 224.679 88.902C225.217 87.9513 225.961 87.2073 226.911 86.67C227.862 86.112 228.937 85.833 230.135 85.833C232.161 85.833 233.721 86.4427 234.816 87.662C235.932 88.8813 236.49 90.5657 236.49 92.715V93.769C236.49 95.8563 235.777 97.4167 234.351 98.45C232.946 99.4833 230.859 100 228.089 100H221.61C221.404 100 221.3 99.3387 221.3 98.016C221.3 96.59 221.404 95.877 221.61 95.877H225.144H226.074ZM231.871 95.567C232.347 95.071 232.584 94.327 232.584 93.335V92.87C232.584 90.8033 231.758 89.77 230.104 89.77C229.464 89.77 228.916 89.9973 228.461 90.452C228.027 90.886 227.81 91.4233 227.81 92.064C227.81 92.808 228.11 93.4487 228.709 93.986C229.309 94.5027 230.363 95.0297 231.871 95.567ZM227.903 83.012V79.478H232.119V83.012H227.903ZM247.336 95.877C247.44 95.877 247.512 96.0113 247.553 96.28C247.615 96.5487 247.646 97.1273 247.646 98.016C247.646 98.8427 247.615 99.38 247.553 99.628C247.512 99.876 247.44 100 247.336 100H246.22C244.484 100 243.162 99.504 242.252 98.512C241.364 97.4993 240.919 96.063 240.919 94.203V80.036H244.887V93.924C244.887 94.5853 245.011 95.0813 245.259 95.412C245.528 95.722 245.941 95.877 246.499 95.877H247.336ZM265.137 95.877C265.633 95.877 266.036 95.7427 266.346 95.474C266.676 95.1847 266.842 94.792 266.842 94.296V89.336H270.779V94.482C270.779 96.1973 270.262 97.551 269.229 98.543C268.216 99.5143 266.842 100 265.106 100H257.573C257.366 100 257.263 99.3387 257.263 98.016C257.263 96.59 257.366 95.877 257.573 95.877H265.137ZM266.625 103.224V106.758H257.883V103.224H266.625ZM280.286 98.853C280.286 100.548 279.945 102.036 279.263 103.317C278.581 104.619 277.599 105.621 276.318 106.324C275.057 107.047 273.59 107.409 271.916 107.409H270.924L270.583 103.286H271.854C273.28 103.286 274.386 102.893 275.171 102.108C275.956 101.343 276.349 100.258 276.349 98.853V89.336H280.286V98.853ZM296.131 90.266C296.895 91.1547 297.433 91.9607 297.743 92.684C298.053 93.4073 298.208 94.172 298.208 94.978C298.208 96.4453 297.681 97.6543 296.627 98.605C295.593 99.535 294.147 100 292.287 100H283.886L283.576 95.877H292.101C292.741 95.877 293.237 95.7737 293.589 95.567C293.94 95.3603 294.116 95.071 294.116 94.699C294.116 94.4303 294.043 94.172 293.899 93.924C293.754 93.6553 293.485 93.2937 293.093 92.839L287.761 86.577L290.613 83.756L296.131 90.266Z" fill="#333333"/>
<path d="M149.684 165H39.3157C38.0366 165 37 163.964 37 162.685V17.9708C37 16.692 38.0366 15.6556 39.3157 15.6556H149.684C150.963 15.6556 152 16.692 152 17.9708V162.685C152 163.964 150.963 165 149.684 165Z" fill="#0F355B"/>
<path d="M142.51 26.9768H46.3462V137.556L59.8469 155.195H142.51V26.9768Z" fill="#E3E4D7"/>
<path d="M57.031 26.9768V146.619" stroke="#05CDFF" stroke-width="0.25" stroke-miterlimit="10"/>
<path d="M67.7157 26.9768V155.195" stroke="#05CDFF" stroke-width="0.25" stroke-miterlimit="10"/>
<path d="M78.4005 26.9768V155.195" stroke="#05CDFF" stroke-width="0.25" stroke-miterlimit="10"/>
<path d="M89.0855 26.9768V155.195" stroke="#05CDFF" stroke-width="0.25" stroke-miterlimit="10"/>
<path d="M99.7702 26.9768V155.195" stroke="#05CDFF" stroke-width="0.25" stroke-miterlimit="10"/>
<path d="M110.455 26.9768V155.195" stroke="#05CDFF" stroke-width="0.25" stroke-miterlimit="10"/>
<path d="M121.14 26.9768V155.195" stroke="#05CDFF" stroke-width="0.25" stroke-miterlimit="10"/>
<path d="M131.825 26.9768V155.195" stroke="#05CDFF" stroke-width="0.25" stroke-miterlimit="10"/>
<path d="M46.3452 123.118H142.51" stroke="#05CDFF" stroke-width="0.25" stroke-miterlimit="10"/>
<path d="M46.3452 112.436H142.51" stroke="#05CDFF" stroke-width="0.25" stroke-miterlimit="10"/>
<path d="M46.3452 101.754H142.51" stroke="#05CDFF" stroke-width="0.25" stroke-miterlimit="10"/>
<path d="M46.3452 91.0714H142.51" stroke="#05CDFF" stroke-width="0.25" stroke-miterlimit="10"/>
<path d="M46.3452 80.3891H142.51" stroke="#05CDFF" stroke-width="0.25" stroke-miterlimit="10"/>
<path d="M57.031 144.513H142.51" stroke="#05CDFF" stroke-width="0.25" stroke-miterlimit="10"/>
<path d="M46.3452 133.831H142.51" stroke="#05CDFF" stroke-width="0.25" stroke-miterlimit="10"/>
<path d="M46.3452 69.7068H142.51" stroke="#05CDFF" stroke-width="0.25" stroke-miterlimit="10"/>
<path d="M46.3452 59.0236H142.51" stroke="#05CDFF" stroke-width="0.25" stroke-miterlimit="10"/>
<path d="M46.3452 48.3423H142.51" stroke="#05CDFF" stroke-width="0.25" stroke-miterlimit="10"/>
<path d="M46.3452 37.6591H142.51" stroke="#05CDFF" stroke-width="0.25" stroke-miterlimit="10"/>
<path d="M59.8469 137.556H46.3462L59.8469 155.195V137.556Z" fill="#05CDFF"/>
<path d="M115.191 20.0857H105.285V12.8143C105.285 9.85018 103.487 7.28853 100.928 6.15762C100.796 2.73571 97.986 0 94.5311 0C91.0761 0 88.2663 2.73571 88.1345 6.15762C85.5762 7.28853 83.7768 9.85018 83.7768 12.8143V20.0857H74.4737C69.0191 20.0857 64.5558 24.548 64.5558 30.0013H125.109C125.11 24.547 120.647 20.0857 115.191 20.0857ZM94.5321 4.14935C95.779 4.14935 96.7894 5.15952 96.7894 6.40614C96.7894 7.65275 95.779 8.66292 94.5321 8.66292C93.2852 8.66292 92.2747 7.65275 92.2747 6.40614C92.2747 5.15952 93.2852 4.14935 94.5321 4.14935Z" fill="#05CDFF"/>
<path d="M125.932 32.0609H63.0674C62.4988 32.0609 62.0378 31.6001 62.0378 31.0316C62.0378 30.4631 62.4988 30.0013 63.0674 30.0013H125.932C126.501 30.0013 126.962 30.4621 126.962 31.0316C126.963 31.599 126.501 32.0609 125.932 32.0609Z" fill="#474443"/>
<path d="M14.384 93.738C14.384 94.482 14.5183 95.0297 14.787 95.381C15.0557 95.7117 15.4587 95.877 15.996 95.877H16.957C17.0603 95.877 17.1327 96.0113 17.174 96.28C17.236 96.5487 17.267 97.1273 17.267 98.016C17.267 98.8427 17.236 99.38 17.174 99.628C17.1327 99.876 17.0603 100 16.957 100H15.965C14.849 100 13.919 99.814 13.175 99.442C12.4517 99.0493 11.9453 98.419 11.656 97.551C11.222 97.923 10.6537 98.202 9.951 98.388C9.269 98.5533 8.556 98.636 7.812 98.636C5.952 98.636 4.526 98.1297 3.534 97.117C2.56267 96.0837 2.077 94.5543 2.077 92.529C2.077 91.3717 2.33533 90.297 2.852 89.305C3.38933 88.2923 4.13333 87.4863 5.084 86.887C6.05533 86.267 7.161 85.957 8.401 85.957H10.447V83.942H14.384V93.738ZM5.983 92.498C5.983 93.18 6.138 93.6967 6.448 94.048C6.77867 94.3787 7.30567 94.544 8.029 94.544C8.81433 94.544 9.41367 94.4097 9.827 94.141C10.261 93.8517 10.478 93.4487 10.478 92.932V89.894H8.463C6.80967 89.894 5.983 90.762 5.983 92.498ZM27.2141 86.577C28.4955 86.577 29.5391 86.794 30.3451 87.228C31.1511 87.662 31.8228 88.3957 32.3601 89.429C32.8975 90.4417 33.3831 91.8987 33.8171 93.8L31.8641 95.04C32.0501 95.3087 32.3498 95.5153 32.7631 95.66C33.1765 95.8047 33.6621 95.877 34.2201 95.877H36.0801C36.2868 95.877 36.3901 96.59 36.3901 98.016C36.3901 98.8633 36.3591 99.411 36.2971 99.659C36.2351 99.8863 36.1628 100 36.0801 100H34.0031C32.8458 100 31.8745 99.7727 31.0891 99.318C30.3245 98.8633 29.6321 98.0883 29.0121 96.993L27.8341 97.737C26.4288 98.605 25.0855 99.2043 23.8041 99.535C22.5228 99.845 20.9418 100 19.0611 100H16.9531C16.7465 100 16.6431 99.3387 16.6431 98.016C16.6431 96.59 16.7465 95.877 16.9531 95.877H19.2471C20.8178 95.877 22.1095 95.7737 23.1221 95.567C24.1555 95.3603 25.2198 94.947 26.3151 94.327L29.1981 92.684C28.9915 91.8987 28.6815 91.3717 28.2681 91.103C27.8755 90.8137 27.2761 90.669 26.4701 90.669H19.3711L19.8361 86.577H27.2141ZM21.9751 106.758V103.224H26.1911V106.758H21.9751ZM155.312 95.877C155.829 95.877 156.242 95.7427 156.552 95.474C156.883 95.1847 157.048 94.792 157.048 94.296V89.336H160.985V94.172C160.985 95.3087 161.564 95.877 162.721 95.877H163.899C164.106 95.877 164.209 96.5693 164.209 97.954C164.209 99.318 164.106 100 163.899 100H162.535C160.799 100 159.621 99.504 159.001 98.512C158.629 99.0287 158.133 99.411 157.513 99.659C156.914 99.8863 156.18 100 155.312 100H151.716C151.509 100 151.406 99.3387 151.406 98.016C151.406 96.59 151.509 95.877 151.716 95.877H155.312ZM158.226 103.224V106.758H149.484V103.224H158.226ZM169.559 95.877C170.076 95.877 170.489 95.7427 170.799 95.474C171.109 95.1847 171.264 94.792 171.264 94.296V89.336H175.232V94.172C175.232 95.3087 175.811 95.877 176.968 95.877H178.115C178.322 95.877 178.425 96.5693 178.425 97.954C178.425 99.318 178.322 100 178.115 100H176.782C175.005 100 173.827 99.504 173.248 98.512C172.876 99.0287 172.38 99.411 171.76 99.659C171.161 99.8863 170.427 100 169.559 100H163.886C163.679 100 163.576 99.3387 163.576 98.016C163.576 96.59 163.679 95.877 163.886 95.877H169.559ZM175.17 82.578V86.112H166.428V82.578H175.17ZM186.825 94.482C186.825 96.1973 186.309 97.551 185.275 98.543C184.263 99.5143 182.888 100 181.152 100H178.114C177.908 100 177.804 99.3387 177.804 98.016C177.804 96.59 177.908 95.877 178.114 95.877H181.152C181.669 95.877 182.082 95.7427 182.392 95.474C182.723 95.1847 182.888 94.792 182.888 94.296V89.336H186.825V94.482ZM181.4 86.112V82.578H185.616V86.112H181.4Z" fill="#333333"/>
<path d="M257.474 2.06601H248.682V127.285H257.474V2.06601Z" fill="#E3E4D7"/>
<path d="M258.229 2.06593H247.931C247.434 2.06593 247.032 1.62262 247.032 1.0766V0.989328C247.032 0.442533 247.435 0 247.931 0H258.229C258.726 0 259.128 0.443305 259.128 0.989328V1.0766C259.128 1.62262 258.726 2.06593 258.229 2.06593Z" fill="#05CDFF"/>
<path d="M248.682 23.2882H254.314" stroke="#474443" stroke-miterlimit="10"/>
<path d="M248.682 36.9997H254.314" stroke="#474443" stroke-miterlimit="10"/>
<path d="M248.682 50.7113H254.314" stroke="#474443" stroke-miterlimit="10"/>
<path d="M248.682 64.4229H254.314" stroke="#474443" stroke-miterlimit="10"/>
<path d="M248.682 78.1345H254.314" stroke="#474443" stroke-miterlimit="10"/>
<path d="M248.682 91.8461H254.314" stroke="#474443" stroke-miterlimit="10"/>
<path d="M248.682 105.558H254.314" stroke="#474443" stroke-miterlimit="10"/>
<path d="M248.682 30.2452H252.254" stroke="#474443" stroke-miterlimit="10"/>
<path d="M248.682 43.9667H252.254" stroke="#474443" stroke-miterlimit="10"/>
<path d="M248.682 57.6884H252.254" stroke="#474443" stroke-miterlimit="10"/>
<path d="M248.682 71.4099H252.254" stroke="#474443" stroke-miterlimit="10"/>
<path d="M248.682 85.1316H252.254" stroke="#474443" stroke-miterlimit="10"/>
<path d="M248.682 98.8532H252.254" stroke="#474443" stroke-miterlimit="10"/>
<path d="M248.682 127.284L251.179 132.225H254.977L257.474 127.284H248.682Z" fill="#E3E4D7"/>
<path d="M255.036 152.093V132.225H251.259V152.093C251.259 153.127 251.326 154.16 251.46 155.183L252.278 160H253.995L254.835 155.183C254.969 154.16 255.036 153.127 255.036 152.093Z" fill="#E3E4D7"/>
<path d="M259.295 115.69H247V127.285H259.295V115.69Z" fill="#05CDFF"/>
<path d="M261.871 118.652H251.259V124.323H261.871V118.652Z" fill="#474443"/>
<path d="M263.907 120.486H261.87V122.49H263.907V120.486Z" fill="#474443"/>
<path d="M265.111 126.431H265.277C266.41 126.431 267.234 125.248 266.94 124.044L266.439 121.992C266.359 121.666 266.361 121.321 266.443 120.995L266.92 119.095C267.223 117.888 266.398 116.694 265.261 116.694H265.111H264.962C263.824 116.694 262.999 117.888 263.303 119.095L263.78 120.995C263.862 121.32 263.863 121.665 263.783 121.992L263.282 124.044C262.988 125.248 263.812 126.431 264.945 126.431H265.111Z" fill="#474443"/>
</svg>
