<svg width="110" height="150" viewBox="0 0 110 150" fill="none" xmlns="http://www.w3.org/2000/svg">
<path d="M14.3047 25.896C10.2366 27.7931 5.47762 29.4555 2.38966 32.8762C0.188427 35.315 -1.08694 39.4667 1.23682 42.2801C4.20126 45.8699 9.40007 43.1581 12.6407 41.5329C17.487 39.1021 22.2872 36.5807 27.0381 33.9687C31.7197 31.3949 36.3552 28.7346 40.9384 25.9876C43.2642 24.594 45.5779 23.1812 47.8755 21.7413C49.8428 20.5088 51.8603 19.231 53.4529 17.5161C55.9052 14.8779 57.6315 9.98614 54.2051 7.34289C50.9906 4.86378 46.329 6.86056 43.222 8.517C37.8695 11.3707 32.728 14.7057 27.5111 17.8011C21.9969 21.0727 16.4828 24.3453 10.9677 27.6179C9.85599 28.2774 10.8652 30.0194 11.9809 29.3569C20.3601 24.3845 28.7392 19.4132 37.1184 14.4409C40.7054 12.3122 44.3588 9.59645 48.4449 8.53009C49.9984 8.1253 51.9627 7.92089 53.227 9.13829C54.5997 10.4594 54.191 12.7039 53.3957 14.2163C52.4216 16.0701 50.6994 17.4527 49.0053 18.6147C47.1214 19.9066 45.1471 21.0757 43.1979 22.2659C39.2513 24.6786 35.2656 27.0278 31.2437 29.3116C27.2219 31.5953 23.1628 33.8146 19.0707 35.9685C17.0241 37.0449 14.9694 38.1053 12.9068 39.1485C10.9425 40.1413 8.94919 41.3114 6.79113 41.8229C4.81986 42.2902 2.67787 41.8723 2.14664 39.6691C1.71483 37.8817 2.40974 35.9594 3.55756 34.588C6.46275 31.114 11.3382 29.4908 15.3169 27.634C16.4898 27.0892 15.4705 25.3522 14.3047 25.896Z" fill="#323233"/>
<path d="M11.0681 41.9075C21.778 59.5402 31.6786 77.6482 41.5199 95.7794C46.4486 104.86 51.3642 113.947 56.3632 122.989C58.6779 127.176 60.9494 131.4 63.4017 135.51C65.3619 138.793 67.5541 142.034 70.373 144.644C73.2219 147.282 76.7045 149.189 80.5667 149.775C85.1088 150.464 89.6428 149.511 93.8254 147.721C100.407 144.904 107.128 140.14 109.326 132.965C110.529 129.036 110.034 124.883 108.528 121.111C106.721 116.586 104.068 112.379 101.782 108.087C96.9113 98.9463 92.2076 89.7135 87.1654 80.6641C76.7517 61.971 66.0227 43.4481 55.4463 24.8477C54.1218 22.5176 52.7962 20.1876 51.4716 17.8575C50.832 16.7317 49.0957 17.7447 49.7374 18.8735C59.9643 36.8586 70.1902 54.8448 80.4171 72.83C85.3739 81.5472 90.169 90.3368 94.8316 99.2151C97.1664 103.662 99.4982 108.11 101.884 112.53C104.105 116.645 106.838 120.783 107.741 125.444C109.243 133.202 104.136 139.553 97.8834 143.385C90.7173 147.776 81.5388 150.136 74.0906 145.066C70.9434 142.924 68.5363 139.84 66.4856 136.672C64.1237 133.022 62.0852 129.153 59.9723 125.356C55.1491 116.683 50.4142 107.962 45.6823 99.2393C36.1835 81.7314 26.6937 64.2105 16.522 47.0842C15.2928 45.0149 14.0526 42.9517 12.8034 40.8945C12.1306 39.7848 10.3933 40.7958 11.0681 41.9075Z" fill="#323233"/>
<path d="M42.1285 93.4323C45.3128 92.7566 48.1236 91.1001 50.9254 89.5091C54.1921 87.6543 57.4588 85.7996 60.7245 83.9448C67.1846 80.2764 73.6457 76.6081 80.1058 72.9408C81.2305 72.3024 80.2193 70.5613 79.0916 71.2018C72.7761 74.7875 66.4616 78.3733 60.1461 81.959C57.025 83.7313 53.9039 85.5035 50.7818 87.2757C47.8454 88.9432 44.9362 90.7809 41.5942 91.4898C40.3309 91.7587 40.8652 93.7001 42.1285 93.4323Z" fill="#323233"/>
<path d="M31.6142 39.2189C26.797 42.3918 21.9788 45.5647 17.1616 48.7366C16.0851 49.4455 17.0903 51.1896 18.1748 50.4756C22.993 47.3027 27.8103 44.1298 32.6275 40.9579C33.704 40.25 32.6988 38.505 31.6142 39.2189Z" fill="#323233"/>
<path d="M32.0088 49.0549C28.3244 51.1101 24.6399 53.1663 20.9554 55.2214C19.8257 55.8518 20.838 57.5918 21.9687 56.9604C25.6532 54.9042 29.3376 52.8491 33.0221 50.7929C34.1518 50.1635 33.1406 48.4235 32.0088 49.0549Z" fill="#323233"/>
<path d="M36.1513 55.886C32.5572 58.1778 28.9631 60.4706 25.369 62.7625C24.2815 63.4563 25.2877 65.1993 26.3833 64.5015C29.9774 62.2086 33.5715 59.9168 37.1655 57.625C38.2521 56.9322 37.2459 55.1882 36.1513 55.886Z" fill="#323233"/>
<path d="M39.7072 62.7081C36.0167 64.7522 32.3252 66.7963 28.6347 68.8394C27.503 69.4658 28.5152 71.2058 29.648 70.5784C33.3385 68.5343 37.0299 66.4902 40.7204 64.4471C41.8532 63.8198 40.8409 62.0808 39.7072 62.7081Z" fill="#323233"/>
<path d="M43.3646 70.1576C40.1752 72.541 36.8191 74.6919 33.3224 76.594C32.1857 77.2123 33.1989 78.9513 34.3357 78.333C37.8324 76.4309 41.1884 74.28 44.3778 71.8966C44.8116 71.5723 45.0336 71.0256 44.7383 70.5191C44.4883 70.0901 43.8014 69.8313 43.3646 70.1576Z" fill="#323233"/>
<path d="M49.5727 77.5687C45.2908 80.0095 41.0078 82.4504 36.7258 84.8912C35.6021 85.5316 36.6133 87.2727 37.7401 86.6302C42.022 84.1894 46.305 81.7485 50.587 79.3077C51.7097 78.6673 50.6985 76.9263 49.5727 77.5687Z" fill="#323233"/>
<path d="M77.7921 86.8216C79.0845 86.8216 79.0865 84.8077 77.7921 84.8077C76.4997 84.8077 76.4977 86.8216 77.7921 86.8216Z" fill="#323233"/>
<path d="M76.4062 103.352C77.6987 103.352 77.7007 101.338 76.4062 101.338C75.1138 101.338 75.1118 103.352 76.4062 103.352Z" fill="#323233"/>
<path d="M84.1145 101.06C84.1778 101.115 84.2411 101.171 84.3033 101.226C84.3947 101.325 84.5022 101.394 84.6267 101.434C84.7462 101.498 84.8757 101.526 85.0133 101.521C85.1519 101.526 85.2804 101.498 85.3999 101.434C85.5245 101.394 85.6319 101.325 85.7233 101.226C85.7755 101.159 85.8277 101.09 85.88 101.023C85.9703 100.866 86.0165 100.696 86.0175 100.514C86.0055 100.424 85.9934 100.336 85.9814 100.246C85.9332 100.076 85.8478 99.928 85.7233 99.8022C85.66 99.7468 85.5968 99.6914 85.5345 99.636C85.4441 99.5383 85.3357 99.4688 85.2112 99.4276C85.0917 99.3641 84.9621 99.3359 84.8245 99.341C84.6859 99.3359 84.5574 99.3641 84.4379 99.4276C84.3134 99.4678 84.2059 99.5373 84.1145 99.636C84.0623 99.7035 84.0101 99.7719 83.9579 99.8394C83.8675 99.9965 83.8213 100.166 83.8203 100.348C83.8324 100.438 83.8444 100.526 83.8565 100.616C83.9037 100.786 83.99 100.934 84.1145 101.06Z" fill="#323233"/>
<path d="M94.702 129.094C95.9944 129.094 95.9964 127.081 94.702 127.081C93.4096 127.081 93.4076 129.094 94.702 129.094Z" fill="#323233"/>
<path d="M85.1148 113.158C85.7605 113.158 85.7625 112.151 85.1148 112.151C84.4691 112.151 84.4681 113.158 85.1148 113.158Z" fill="#323233"/>
<path d="M93.6064 114.909C94.2521 114.909 94.2541 113.902 93.6064 113.902C92.9597 113.902 92.9587 114.909 93.6064 114.909Z" fill="#323233"/>
<path d="M84.6237 121.768C85.2694 121.768 85.2714 120.761 84.6237 120.761C83.977 120.761 83.976 121.768 84.6237 121.768Z" fill="#323233"/>
<path d="M82.8613 89.2272C82.8152 89.4094 82.77 89.5917 82.7238 89.774C82.7027 89.8414 82.6997 89.9079 82.7147 89.9744C82.7177 90.0408 82.7378 90.1043 82.774 90.1617C82.8051 90.2201 82.8483 90.2674 82.9035 90.3026C82.9517 90.3469 83.009 90.3771 83.0742 90.3933C83.1184 90.3993 83.1636 90.4053 83.2078 90.4114C83.2982 90.4114 83.3825 90.3882 83.4609 90.3429C83.5693 90.2724 83.6587 90.1707 83.6918 90.0418C83.738 89.8596 83.7832 89.6773 83.8294 89.4951C83.8505 89.4286 83.8535 89.3611 83.8385 89.2947C83.8354 89.2282 83.8154 89.1648 83.7792 89.1074C83.7481 89.049 83.7049 89.0017 83.6497 88.9664C83.6015 88.9221 83.5442 88.8919 83.4789 88.8758C83.4348 88.8697 83.3896 88.8637 83.3454 88.8577C83.255 88.8577 83.1707 88.8808 83.0923 88.9261C82.9839 88.9966 82.8935 89.0983 82.8613 89.2272Z" fill="#323233"/>
<path d="M72.3101 94.9064C72.9558 94.9064 72.9578 93.8994 72.3101 93.8994C71.6644 93.8994 71.6634 94.9064 72.3101 94.9064Z" fill="#323233"/>
<path d="M66.9626 89.5494C67.6093 89.5494 67.6103 88.5425 66.9626 88.5425C66.3169 88.5425 66.3149 89.5494 66.9626 89.5494Z" fill="#323233"/>
<path d="M79.0905 81.7646C79.7362 81.7646 79.7382 80.7577 79.0905 80.7577C78.4448 80.7577 78.4438 81.7646 79.0905 81.7646Z" fill="#323233"/>
<path d="M100.4 125.884C101.046 125.884 101.048 124.877 100.4 124.877C99.7542 124.877 99.7522 125.884 100.4 125.884Z" fill="#323233"/>
<path d="M101.206 129.939C101.852 129.939 101.854 128.932 101.206 128.932C100.561 128.932 100.559 129.939 101.206 129.939Z" fill="#323233"/>
<path d="M46.2698 29.0346C53.5142 38.7628 59.9673 49.077 65.5366 59.8574C67.1102 62.9034 68.6115 65.9857 70.0436 69.1002C70.3137 69.6883 71.1793 69.1767 70.9102 68.5917C65.8399 57.5666 59.8779 46.9583 53.0864 36.908C51.1673 34.0684 49.182 31.2751 47.1354 28.5261C46.7538 28.0126 45.8822 28.514 46.2698 29.0346Z" fill="#323233"/>
<path d="M42.3062 41.7988C42.3694 41.8541 42.4317 41.9085 42.495 41.9639C42.5401 42.0132 42.5944 42.0475 42.6566 42.0676C42.7169 42.0988 42.7812 42.1139 42.8504 42.1109C42.9197 42.1139 42.984 42.0988 43.0443 42.0676C43.1065 42.0475 43.1607 42.0122 43.2059 41.9639C43.232 41.9297 43.2582 41.8964 43.2843 41.8622C43.3295 41.7837 43.3526 41.6991 43.3526 41.6084C43.3465 41.5641 43.3405 41.5188 43.3345 41.4745C43.3104 41.3889 43.2672 41.3154 43.2059 41.252C43.1427 41.1966 43.0804 41.1422 43.0171 41.0868C42.9719 41.0375 42.9177 41.0033 42.8555 40.9831C42.7952 40.9519 42.7309 40.9368 42.6617 40.9398C42.5924 40.9368 42.5281 40.9519 42.4678 40.9831C42.4056 41.0033 42.3513 41.0385 42.3062 41.0868C42.28 41.1211 42.2539 41.1543 42.2278 41.1885C42.1826 41.2671 42.1595 41.3517 42.1595 41.4423C42.1656 41.4866 42.1716 41.5319 42.1776 41.5762C42.2007 41.6618 42.2439 41.7363 42.3062 41.7988Z" fill="#323233"/>
<path d="M49.2854 45.4167C49.9311 45.4167 49.9332 44.4098 49.2854 44.4098C48.6397 44.4098 48.6387 45.4167 49.2854 45.4167Z" fill="#323233"/>
<path d="M44.198 51.6346C44.3155 51.6266 44.434 51.6185 44.5515 51.6105C44.6208 51.6135 44.6851 51.5984 44.7453 51.5672C44.8076 51.547 44.8618 51.5118 44.907 51.4634C44.9562 51.4181 44.9904 51.3638 45.0104 51.3013C45.0416 51.2409 45.0566 51.1765 45.0536 51.107C45.0476 51.0627 45.0416 51.0174 45.0356 50.9731C45.0115 50.8875 44.9683 50.814 44.906 50.7505C44.8719 50.7243 44.8377 50.6982 44.8046 50.672C44.7263 50.6267 44.6419 50.6035 44.5515 50.6035C44.434 50.6116 44.3155 50.6196 44.198 50.6277C44.1288 50.6246 44.0645 50.6398 44.0042 50.671C43.942 50.6911 43.8877 50.7264 43.8425 50.7747C43.7933 50.82 43.7592 50.8744 43.7391 50.9368C43.708 50.9972 43.6929 51.0617 43.6959 51.1311C43.702 51.1755 43.708 51.2208 43.714 51.2651C43.7381 51.3507 43.7813 51.4242 43.8436 51.4876C43.8777 51.5138 43.9108 51.54 43.945 51.5662C44.0233 51.6115 44.1077 51.6346 44.198 51.6346Z" fill="#323233"/>
<path d="M53.4861 55.1036C54.1318 55.1036 54.1338 54.0967 53.4861 54.0967C52.8404 54.0967 52.8394 55.1036 53.4861 55.1036Z" fill="#323233"/>
<path d="M59.2171 61.1262C59.8628 61.1262 59.8648 60.1193 59.2171 60.1193C58.5704 60.1193 58.5694 61.1262 59.2171 61.1262Z" fill="#323233"/>
<path d="M56.6755 68.2413C56.793 68.2333 56.9114 68.2252 57.0289 68.2172C57.0982 68.2202 57.1625 68.2051 57.2228 68.1739C57.285 68.1537 57.3392 68.1185 57.3844 68.0701C57.4336 68.0248 57.4678 67.9705 57.4879 67.908C57.519 67.8476 57.5341 67.7832 57.531 67.7137C57.525 67.6694 57.519 67.6241 57.513 67.5798C57.4889 67.4942 57.4457 67.4207 57.3834 67.3572C57.3493 67.3311 57.3161 67.3049 57.282 67.2787C57.2037 67.2334 57.1193 67.2102 57.0289 67.2102C56.9114 67.2183 56.793 67.2263 56.6755 67.2344C56.6062 67.2314 56.5419 67.2465 56.4816 67.2777C56.4194 67.2978 56.3652 67.3331 56.32 67.3814C56.2708 67.4267 56.2366 67.4811 56.2165 67.5435C56.1854 67.6039 56.1703 67.6684 56.1734 67.7378C56.1794 67.7822 56.1854 67.8275 56.1914 67.8718C56.2155 67.9574 56.2587 68.0309 56.321 68.0943C56.3551 68.1205 56.3893 68.1467 56.4224 68.1729C56.4997 68.2182 56.5851 68.2403 56.6755 68.2413Z" fill="#323233"/>
<path d="M63.2049 70.2935C63.8506 70.2935 63.8526 69.2865 63.2049 69.2865C62.5582 69.2865 62.5572 70.2935 63.2049 70.2935Z" fill="#323233"/>
<path d="M40.111 35.5375C40.1743 35.5929 40.2365 35.6473 40.2998 35.7027C40.345 35.752 40.3992 35.7862 40.4615 35.8064C40.5217 35.8376 40.586 35.8527 40.6553 35.8497C40.7246 35.8527 40.7888 35.8376 40.8491 35.8064C40.9113 35.7862 40.9656 35.751 41.0108 35.7027C41.0369 35.6684 41.063 35.6342 41.0891 35.601C41.1343 35.5224 41.1574 35.4378 41.1574 35.3472C41.1514 35.3029 41.1453 35.2576 41.1393 35.2133C41.1152 35.1277 41.072 35.0542 41.0098 34.9908C40.9465 34.9354 40.8842 34.881 40.821 34.8256C40.7758 34.7763 40.7216 34.742 40.6593 34.7219C40.599 34.6907 40.5348 34.6756 40.4655 34.6786C40.3962 34.6756 40.3319 34.6907 40.2717 34.7219C40.2094 34.742 40.1552 34.7773 40.11 34.8256C40.0839 34.8598 40.0578 34.8941 40.0317 34.9273C39.9865 35.0059 39.9634 35.0904 39.9634 35.1811C39.9694 35.2254 39.9754 35.2707 39.9814 35.315C40.0055 35.4006 40.0487 35.4741 40.111 35.5375Z" fill="#323233"/>
<path d="M55.6903 36.8013C55.6351 36.8647 55.5799 36.9271 55.5257 36.9906C55.4764 37.0359 55.4423 37.0903 55.4222 37.1527C55.3911 37.2131 55.376 37.2776 55.379 37.347C55.376 37.4165 55.3911 37.481 55.4222 37.5414C55.4423 37.6038 55.4774 37.6582 55.5257 37.7035C55.5598 37.7297 55.5929 37.7559 55.6271 37.7821C55.7054 37.8274 55.7898 37.8505 55.8801 37.8505C55.9243 37.8445 55.9695 37.8384 56.0137 37.8324C56.099 37.8082 56.1724 37.7649 56.2356 37.7025C56.2909 37.6391 56.3451 37.5766 56.4003 37.5132C56.4495 37.4679 56.4837 37.4135 56.5038 37.3511C56.5349 37.2907 56.5499 37.2262 56.5469 37.1567C56.5499 37.0873 56.5349 37.0228 56.5038 36.9624C56.4837 36.9 56.4485 36.8456 56.4003 36.8003C56.3662 36.7741 56.333 36.7479 56.2989 36.7217C56.2206 36.6764 56.1362 36.6533 56.0458 36.6533C56.0017 36.6593 55.9565 36.6653 55.9123 36.6714C55.8269 36.6965 55.7536 36.7389 55.6903 36.8013Z" fill="#323233"/>
<path d="M1.44576 39.4717C3.57871 40.6891 5.75584 41.826 7.97415 42.8802C8.46421 43.1128 9.05769 43.0162 9.34791 42.5187C9.60399 42.0807 9.47947 41.3749 8.9874 41.1412C6.7701 40.087 4.59197 38.9501 2.45902 37.7327C1.98804 37.4638 1.3604 37.6209 1.08524 38.0942C0.813098 38.5614 0.972777 39.2018 1.44576 39.4717Z" fill="#323233"/>
<path d="M2.33242 35.5798C5.69754 37.3792 9.06266 39.1797 12.4268 40.9791C13.5666 41.5883 14.5828 39.8513 13.441 39.2401C10.0759 37.4407 6.71079 35.6402 3.34667 33.8408C2.20588 33.2316 1.19063 34.9696 2.33242 35.5798Z" fill="#323233"/>
<path d="M5.15017 32.715C8.76935 34.8518 12.4508 36.8788 16.1925 38.792C17.3413 39.38 18.3596 37.6431 17.2058 37.053C13.4651 35.1398 9.78261 33.1128 6.16342 30.976C5.04774 30.3175 4.03549 32.0575 5.15017 32.715Z" fill="#323233"/>
<path d="M9.24248 30.9025C12.7311 32.9225 16.2198 34.9424 19.7094 36.9624C20.8311 37.6118 21.8434 35.8718 20.7227 35.2234C17.234 33.2034 13.7454 31.1835 10.2557 29.1635C9.13503 28.514 8.12278 30.2541 9.24248 30.9025Z" fill="#323233"/>
<path d="M12.9329 28.4798C16.4808 30.6266 20.1341 32.5922 23.8799 34.3694C24.3699 34.602 24.9634 34.5064 25.2536 34.008C25.5087 33.5699 25.3862 32.864 24.8931 32.6304C21.1474 30.8532 17.4941 28.8876 13.9462 26.7408C12.8365 26.0691 11.8263 27.8102 12.9329 28.4798Z" fill="#323233"/>
<path d="M17.004 26.7025C20.2878 28.654 23.6569 30.4564 27.1024 32.1038C27.5915 32.3374 28.186 32.2397 28.4762 31.7423C28.7322 31.3033 28.6077 30.5994 28.1157 30.3648C24.6702 28.7174 21.3011 26.916 18.0173 24.9635C16.9036 24.3009 15.8924 26.041 17.004 26.7025Z" fill="#323233"/>
<path d="M20.587 23.9908C24.7475 26.0883 28.9079 28.1858 33.0684 30.2833C34.2202 30.8643 35.2385 29.1273 34.0816 28.5443C29.9212 26.4468 25.7607 24.3493 21.6003 22.2518C20.4484 21.6708 19.4302 23.4078 20.587 23.9908Z" fill="#323233"/>
<path d="M24.873 21.2831C28.8697 23.8367 33.0864 26.0037 37.4708 27.8041C37.9729 28.0105 38.5744 27.5806 38.706 27.1013C38.8647 26.5243 38.5082 26.0692 38.0051 25.8627C33.7853 24.1298 29.7313 22.0011 25.8862 19.5441C24.7936 18.8453 23.7854 20.5883 24.873 21.2831Z" fill="#323233"/>
<path d="M29.129 19.2793C32.9681 20.9881 36.772 22.7734 40.5398 24.6343C41.6957 25.2052 42.714 23.4682 41.5531 22.8952C37.7853 21.0344 33.9813 19.2491 30.1422 17.5403C29.6471 17.3198 29.0637 17.3963 28.7684 17.9018C28.5184 18.3297 28.6309 19.0568 29.129 19.2793Z" fill="#323233"/>
<path d="M33.6769 16.5776C37.3804 18.7557 41.1242 20.8652 44.906 22.9053C46.0438 23.5196 47.0601 21.7816 45.9203 21.1663C42.1384 19.1262 38.3957 17.0177 34.6912 14.8386C33.5735 14.1821 32.5612 15.9221 33.6769 16.5776Z" fill="#323233"/>
<path d="M37.3906 14.4862C41.1273 16.4397 44.9593 18.1988 48.8697 19.7727C49.3729 19.9751 49.9724 19.5522 50.1049 19.0699C50.2626 18.4959 49.9091 18.0347 49.404 17.8313C45.6553 16.3229 41.9859 14.6211 38.4048 12.7482C37.26 12.1481 36.2428 13.8861 37.3906 14.4862Z" fill="#323233"/>
<path d="M41.9426 12.146C45.2907 13.7813 48.6638 15.3632 52.0611 16.8908C52.5552 17.1133 53.1406 17.0338 53.4349 16.5293C53.6859 16.0993 53.5724 15.3753 53.0743 15.1518C49.6771 13.6232 46.3039 12.0423 42.9559 10.407C42.4688 10.1694 41.8703 10.2741 41.5821 10.7685C41.325 11.2106 41.4536 11.9064 41.9426 12.146Z" fill="#323233"/>
<path d="M46.0569 9.65789C48.7773 11.0475 51.4274 12.569 54.0012 14.2164C55.0938 14.9162 56.102 13.1742 55.0145 12.4774C52.4417 10.83 49.7905 9.30849 47.0701 7.9189C46.5871 7.67219 45.9806 7.79201 45.6964 8.28039C45.4343 8.72949 45.5718 9.41018 46.0569 9.65789Z" fill="#323233"/>
<path d="M56.7568 102.643C60.7435 107.693 64.2492 113.048 67.3914 118.661C69.4149 117.475 71.4384 116.29 73.4609 115.104C69.2643 108.602 65.3991 101.613 60.6431 95.5085C57.0872 90.944 51.7588 87.752 45.9515 89.9955C43.933 90.7748 42.5331 93.0868 43.8506 95.1732C50.8912 106.319 57.9327 117.466 64.9733 128.612C66.813 127.188 68.6537 125.764 70.4934 124.342C64.3055 116.356 60.0305 107.246 57.5762 97.457C55.618 98.5999 53.6598 99.7428 51.7016 100.886C56.2567 105.368 60.8128 109.851 65.3679 114.332C67.0249 112.671 68.6818 111.01 70.3388 109.348C64.1448 104.239 58.95 98.3733 54.7162 91.5341C54.2955 93.1412 53.8757 94.7483 53.455 96.3564C62.7941 91.661 71.9576 86.6433 80.9463 81.3025C84.8346 78.9915 81.3028 72.8964 77.3984 75.2165C68.4097 80.5573 59.2473 85.575 49.9071 90.2704C48.2411 91.1082 47.6938 93.554 48.6458 95.0927C53.1768 102.411 58.7301 108.859 65.3679 114.334C68.7963 117.161 73.6316 112.588 70.3388 109.348C65.7837 104.866 61.2276 100.384 56.6725 95.9023C54.1408 93.4121 49.9452 95.9285 50.7978 99.3309C53.5664 110.375 58.5644 120.347 65.5226 129.326C67.9769 132.493 73.1546 128.399 71.0428 125.056C64.0022 113.91 56.9607 102.763 49.9201 91.6167C49.2202 93.3426 48.5192 95.0685 47.8193 96.7934C53.3847 94.6436 56.6484 102.017 59.0755 105.778C61.8472 110.073 64.6188 114.368 67.3904 118.662C69.8377 122.455 75.6892 119.087 73.4599 115.105C70.0174 108.953 66.091 103.189 61.7257 97.6594C58.9219 94.1039 53.9771 99.1215 56.7568 102.643Z" fill="#323233"/>
<path d="M77.1413 72.7544C69.6388 77.2444 62.2468 81.9097 54.9642 86.7511C51.2105 89.2463 54.7272 95.3535 58.5121 92.8371C65.7947 87.9957 73.1867 83.3315 80.6892 78.8415C84.5705 76.5174 81.0396 70.4213 77.1413 72.7544Z" fill="#323233"/>
<path d="M74.671 80.0649C82.77 92.1574 89.7503 104.895 95.5877 118.233C97.4014 122.378 103.46 118.794 101.657 114.676C95.8197 101.338 88.8394 88.5998 80.7404 76.5073C78.2309 72.7605 72.1394 76.2848 74.671 80.0649Z" fill="#323233"/>
<path d="M75.1671 84.563C86.1863 97.9605 94.1939 113.42 98.9398 130.11C101.081 129.205 103.223 128.3 105.364 127.395C99.8386 117.554 93.75 108.052 87.0288 98.9876C84.1176 95.0605 75.641 79.9159 69.5404 86.8276C68.5272 87.9755 68.1285 89.7256 68.9911 91.0981C76.3299 102.788 83.5422 114.556 90.6279 126.402C92.6514 125.216 94.6749 124.03 96.6974 122.844C91.4554 115.93 86.2144 109.012 80.8168 102.217C76.7437 97.0885 72.529 89.8303 65.62 88.4679C62.9799 87.9473 59.6248 90.9591 61.6503 93.6457C69.3647 103.874 77.0781 114.102 84.7924 124.331C86.6322 122.907 88.4729 121.483 90.3126 120.06C80.8589 111.038 71.4063 102.014 61.9526 92.9922C59.1408 90.3086 54.2322 93.7806 56.4324 97.2627C63.1466 107.891 69.8618 118.519 76.576 129.148C78.9901 132.969 85.0766 129.438 82.6454 125.59C75.9313 114.962 69.2161 104.333 62.5019 93.7051C60.6622 95.1289 58.8215 96.5528 56.9817 97.9756C66.4354 106.998 75.8881 116.021 85.3418 125.043C88.0973 127.674 93.3624 124.088 90.8619 120.773C83.1476 110.544 75.4342 100.317 67.7198 90.0881C66.3963 91.814 65.0737 93.54 63.7502 95.2659C69.3185 96.3634 73.7582 104.553 77.0449 108.718C81.6493 114.553 86.1361 120.479 90.6269 126.403C93.2811 129.904 99.0945 126.853 96.6964 122.845C89.6107 110.999 82.3984 99.2313 75.0596 87.5416C74.8768 88.9654 74.6931 90.3892 74.5103 91.812C74.7051 91.5915 74.8999 91.371 75.0948 91.1504C74.2663 91.4948 73.4378 91.8392 72.6093 92.1826C74.1227 92.2189 79.1156 100.087 79.8638 101.08C82.2478 104.245 84.5585 107.464 86.7928 110.737C91.2636 117.285 95.411 124.038 99.2933 130.952C101.243 134.425 106.815 132.095 105.717 128.236C100.628 110.336 91.9425 93.9306 80.1369 79.5786C77.2568 76.0764 72.3091 81.087 75.1671 84.563Z" fill="#323233"/>
<path d="M43.0393 96.2979C49.1018 107.897 55.6593 119.223 62.7732 130.207C68.2542 138.67 74.2855 147.345 85.2093 148.021C89.7273 148.301 89.7112 141.251 85.2093 140.972C75.122 140.348 69.398 127.678 64.7404 120.183C59.1811 111.237 53.9883 102.074 49.1088 92.7394C47.008 88.7216 40.9395 92.2802 43.0393 96.2979Z" fill="#323233"/>
<path d="M81.6673 137.766C77.0318 128.905 72.7408 119.883 68.7923 110.692C66.7688 111.879 64.7453 113.064 62.7228 114.25C69.6107 124.904 77.2989 134.976 85.7504 144.43C87.1704 142.586 88.5903 140.74 90.0093 138.895C87.4566 137.045 84.8195 135.437 82.0057 134.015C79.0222 132.508 75.2353 135.672 77.1965 138.838C79.4811 142.525 82.4626 144.86 86.4966 146.379C85.6369 145.246 84.7763 144.113 83.9157 142.98C83.8956 143.109 83.8766 143.239 83.8565 143.368C82.5389 146.066 84.7151 149.371 87.8261 148.545C93.9107 146.929 100.099 144.53 104.008 139.323C107.722 134.377 108.454 127.925 107.261 121.969C105.773 114.543 101.379 108.056 97.5178 101.694C92.7337 93.8108 87.9486 85.9284 83.1646 78.045C81.3048 74.9808 76.7848 76.3684 76.6151 79.8243C76.4032 84.1229 78.506 88.3783 79.8336 92.388C81.3901 97.0864 82.9467 101.784 84.5032 106.482C87.7207 116.192 90.9372 125.901 94.1547 135.611C95.8759 134.284 97.5971 132.958 99.3173 131.631C93.5301 127.75 88.4668 123.017 84.2772 117.434C81.6291 113.906 75.9051 116.936 78.2078 120.991C81.4604 126.719 84.7121 132.447 87.9647 138.174C90.2041 142.118 96.2384 138.587 94.0342 134.617C91.0748 129.284 87.2557 124.689 82.5038 120.868C79.7884 118.685 75.877 120.671 76.6291 124.296C77.5952 128.949 79.465 133.112 82.3451 136.885C84.6247 139.872 89.8647 138.331 88.7691 134.169C88.4206 132.844 88.0712 131.52 87.7227 130.196C86.5689 125.814 79.7864 127.673 80.9442 132.07C81.2927 133.394 81.6422 134.719 81.9906 136.043C84.1316 135.138 86.2736 134.233 88.4146 133.328C85.8498 129.966 84.2672 126.567 83.4076 122.422C81.4494 123.565 79.4911 124.708 77.5329 125.851C81.85 129.322 85.2694 133.318 87.9647 138.173C89.9882 136.987 92.0117 135.802 94.0342 134.616C90.7815 128.888 87.5299 123.16 84.2772 117.433C82.2537 118.619 80.2313 119.804 78.2078 120.99C83.1565 127.586 88.9237 133.125 95.7705 137.717C98.281 139.401 101.881 136.598 100.933 133.736C97.9235 124.653 94.9139 115.57 91.9042 106.486C90.4511 102.101 88.9991 97.7168 87.546 93.3315C86.1973 89.2624 83.4307 84.1572 83.6436 79.8233C81.4604 80.4164 79.2773 81.0094 77.0941 81.6025C83.7721 92.6055 91.139 103.436 97.1071 114.845C99.9018 120.187 102.214 126.722 99.7532 132.636C97.4013 138.289 91.4142 140.298 85.9573 141.747C87.2808 143.473 88.6034 145.199 89.927 146.924C90.6148 145.517 90.893 144.552 90.9462 142.979C91.0015 141.325 89.7954 140.119 88.3654 139.581C86.0677 138.716 84.5433 137.34 83.266 135.279C81.6633 136.886 80.0605 138.494 78.4568 140.101C81.2696 141.522 83.9067 143.13 86.4604 144.981C89.8406 147.431 93.2509 142.277 90.7193 139.446C82.6605 130.431 75.3578 120.85 68.7902 110.691C66.2687 106.791 60.9654 110.164 62.7208 114.249C66.6693 123.438 70.9593 132.462 75.5958 141.323C77.6996 145.343 83.7681 141.784 81.6673 137.766Z" fill="#323233"/>
<path d="M68.8516 83.8833C66.6945 86.013 64.8036 88.3984 63.1928 90.9682C65.3338 91.2491 67.4758 91.529 69.6168 91.81C69.668 92.1302 69.8256 91.4747 69.7634 91.517C70.1399 91.2572 69.8849 91.09 70.4392 91.0648C70.14 91.0789 70.7585 91.3136 70.7154 91.2793C71.097 91.5844 71.0046 91.4978 71.1251 91.9782C72.2257 96.3755 79.0062 94.5126 77.9035 90.1042C76.8943 86.0693 72.6716 83.3002 68.5704 84.2679C64.2924 85.2769 62.1816 89.5927 62.8373 93.6839C63.3465 96.8609 67.7961 96.8649 69.2613 94.5257C70.5667 92.4434 72.0721 90.5926 73.8204 88.8667C77.051 85.6797 72.0801 80.6963 68.8516 83.8833Z" fill="#323233"/>
<path d="M43.9721 50.9398C43.8737 51.8421 44.5335 52.5973 45.3328 52.9125C46.1282 53.2266 47.1314 53.0333 47.6787 52.3526C48.2099 51.692 48.3846 50.7435 48.0743 49.9419C47.9006 49.4928 47.6355 49.1233 47.2408 48.8434C46.7799 48.5161 46.1211 48.3902 45.5839 48.5876C45.1099 48.7608 44.7564 49.0911 44.416 49.4526C44.2764 49.6016 44.1308 49.7396 43.9791 49.8755C43.9259 49.9238 44.0715 49.7949 44.0725 49.803C44.0735 49.811 44.0072 49.8493 44.0002 49.8533C43.961 49.8795 43.9229 49.9057 43.8827 49.9299C43.8446 49.954 43.7974 49.9711 43.7612 49.9983C43.706 50.0406 43.8717 49.9379 43.8747 49.952C43.8757 49.955 43.7783 49.9852 43.7733 49.9863C43.3686 50.1071 43.0723 50.5602 43.2089 50.9831C43.3475 51.4131 43.7622 51.6538 44.2031 51.549C44.6158 51.4504 44.9673 51.2047 45.2434 50.8885C45.381 50.7314 45.5065 50.5622 45.6331 50.3961C45.6562 50.3669 45.6783 50.3367 45.7004 50.3075C45.7094 50.2954 45.5859 50.4525 45.6371 50.389C45.6491 50.3749 45.6602 50.3598 45.6722 50.3447C45.7214 50.2823 45.7727 50.2199 45.8259 50.1605C45.8771 50.1031 45.9303 50.0457 45.9855 49.9913C46.0107 49.9671 46.0378 49.945 46.0629 49.9208C46.1402 49.8483 45.9173 50.0165 46.0408 49.9399C46.0699 49.9218 46.098 49.9027 46.1292 49.8856C46.1553 49.8715 46.2697 49.8191 46.1543 49.8695C46.0398 49.9198 46.1573 49.8725 46.1864 49.8644C46.1944 49.8624 46.2537 49.8523 46.2547 49.8473C46.2477 49.8684 46.1161 49.8493 46.2306 49.8553C46.2557 49.8564 46.2838 49.8594 46.3099 49.8584C46.3953 49.8564 46.2577 49.8564 46.2627 49.8503C46.2717 49.8392 46.4013 49.8835 46.4174 49.8886C46.4425 49.8966 46.4676 49.9067 46.4927 49.9148C46.569 49.9389 46.4575 49.9007 46.4575 49.9007C46.4846 49.8936 46.572 49.9621 46.5971 49.9782C46.6202 49.9923 46.7186 50.0668 46.6333 49.9983C46.5429 49.9258 46.6564 50.0205 46.6754 50.0376C46.7005 50.0618 46.7257 50.0859 46.7498 50.1121C46.7688 50.1323 46.8552 50.24 46.7899 50.1544C46.7246 50.0698 46.797 50.1685 46.811 50.1897C46.8301 50.2189 46.8472 50.2491 46.8632 50.2803C46.8793 50.3115 46.8923 50.3437 46.9094 50.3749C46.9406 50.4313 46.8803 50.3034 46.8803 50.3065C46.8823 50.3276 46.8984 50.3528 46.9054 50.3729C46.9285 50.4394 46.9476 50.5079 46.9636 50.5773C46.9717 50.6126 46.9777 50.6468 46.9837 50.6821C47.0038 50.7817 46.9737 50.5371 46.9817 50.676C46.9868 50.7536 46.9908 50.8301 46.9878 50.9076C46.9867 50.9429 46.9847 50.9791 46.9817 51.0143C46.9807 51.0325 46.9777 51.0496 46.9767 51.0677C46.9727 51.1443 47.0038 50.9358 46.9837 51.0103C46.9647 51.0788 46.9566 51.1493 46.9365 51.2178C46.9265 51.252 46.9164 51.2852 46.9044 51.3185C46.8984 51.3346 46.8924 51.3517 46.8863 51.3678C46.8582 51.4483 46.8933 51.3326 46.9064 51.3195C46.8652 51.3577 46.8381 51.4544 46.807 51.5047C46.7929 51.5269 46.7528 51.5672 46.7487 51.5913C46.7487 51.5913 46.8321 51.4927 46.7899 51.538C46.7738 51.5551 46.7598 51.5732 46.7447 51.5913C46.7096 51.6306 46.5971 51.7021 46.581 51.7484C46.5821 51.7464 46.6835 51.6769 46.6323 51.7091C46.6172 51.7182 46.6031 51.7303 46.5881 51.7404C46.5519 51.7645 46.5158 51.7867 46.4776 51.8068C46.4545 51.8189 46.345 51.8622 46.4324 51.833C46.5228 51.8028 46.4043 51.8411 46.3832 51.8481C46.322 51.8682 46.2055 51.8682 46.1543 51.9025C46.1563 51.9015 46.2808 51.8924 46.2185 51.8924C46.2004 51.8924 46.1824 51.8954 46.1643 51.8964C46.1281 51.8985 46.092 51.8995 46.0548 51.8995C46.0177 51.8995 45.9815 51.8974 45.9454 51.8954C45.9273 51.8944 45.9092 51.8914 45.8912 51.8904C45.8168 51.8894 46.0066 51.9136 45.9343 51.8964C45.844 51.8753 45.7546 51.8592 45.6652 51.832C45.624 51.8199 45.5829 51.8068 45.5417 51.7927C45.5246 51.7867 45.5065 51.7796 45.4895 51.7746C45.4162 51.7504 45.4965 51.7887 45.5176 51.7887C45.4533 51.7887 45.3408 51.7021 45.2866 51.6689C45.2495 51.6467 45.2143 51.6225 45.1792 51.5984C45.0828 51.5339 45.2153 51.6346 45.152 51.5782C45.0878 51.5208 45.0265 51.4635 44.9683 51.4C44.9361 51.3648 44.904 51.3295 44.8719 51.2933C44.8578 51.2782 44.7875 51.1896 44.8177 51.2288C44.8468 51.2671 44.7805 51.1755 44.7684 51.1573C44.7463 51.1221 44.7253 51.0858 44.7052 51.0496C44.6961 51.0335 44.656 50.9388 44.676 50.9922C44.658 50.9459 44.6439 50.8996 44.6309 50.8522C44.5857 50.6911 44.425 50.5854 44.2603 50.6096C44.0876 50.6337 43.9912 50.7666 43.9721 50.9398Z" fill="#323233"/>
<path d="M42.8926 41.2701C42.9057 41.1795 42.9669 41.0677 42.998 40.959C43.0141 40.9036 43.0252 40.8472 43.0432 40.7918C43.0503 40.7696 43.0593 40.7475 43.0663 40.7253C43.0924 40.6448 43.0332 40.7787 43.0854 40.684C43.1396 40.5854 43.1979 40.4907 43.2601 40.3971C43.3274 40.2944 43.1858 40.4766 43.2672 40.388C43.2832 40.3709 43.2983 40.3518 43.3144 40.3346C43.3626 40.2813 43.4148 40.2309 43.47 40.1836C43.4881 40.1675 43.5092 40.1534 43.5263 40.1373C43.3576 40.2994 43.6427 40.0477 43.6146 40.0708C43.6729 40.0235 43.6267 40.0889 43.5795 40.097C43.6006 40.094 43.6347 40.0577 43.6528 40.0457C43.698 40.0154 43.7442 39.9883 43.7914 39.9621C43.8235 39.945 43.8556 39.9298 43.8878 39.9137C43.9912 39.8624 43.7522 39.959 43.8707 39.9228C43.9279 39.9057 43.9832 39.8865 44.0404 39.8724C44.0635 39.8674 44.0866 39.8634 44.1097 39.8573C44.2403 39.8271 43.944 39.8714 44.0776 39.8604C44.1308 39.8563 44.183 39.8513 44.2362 39.8513C44.2664 39.8513 44.2955 39.8543 44.3256 39.8543C44.4552 39.8563 44.174 39.8211 44.2925 39.8483C44.3467 39.8604 44.4009 39.8725 44.4542 39.8896C44.4793 39.8976 44.5034 39.9087 44.5275 39.9157C44.6068 39.9399 44.3628 39.8352 44.4662 39.8916C44.5114 39.9158 44.5566 39.9389 44.5998 39.9671C44.6168 39.9782 44.6339 39.9903 44.651 40.0013C44.7504 40.0658 44.5154 39.8805 44.6219 39.9792C44.6942 40.0467 44.7564 40.1192 44.8257 40.1886C44.6661 40.0275 44.7896 40.1403 44.8267 40.1987C44.8609 40.2511 44.892 40.3054 44.9201 40.3618C44.9291 40.381 44.9382 40.4001 44.9472 40.4182C45.0015 40.528 44.893 40.2692 44.9201 40.3518C44.9362 40.4011 44.9563 40.4504 44.9713 40.5008C44.9844 40.5461 44.9964 40.5914 45.0065 40.6377C45.0135 40.669 45.0185 40.6992 45.0246 40.7304C45.0466 40.8472 45.0075 40.5401 45.0155 40.6659C45.0225 40.7707 45.0235 40.8723 45.0175 40.9771C45.0135 41.0375 44.9804 41.0697 45.0316 40.8784C45.0246 40.9026 45.0215 40.9287 45.0165 40.9539C45.0045 41.0083 44.9884 41.0627 44.9703 41.116C44.9482 41.1805 44.892 41.2479 44.9984 41.0556C44.9834 41.0818 44.9723 41.111 44.9583 41.1382C44.9312 41.1885 44.898 41.2339 44.8689 41.2822C44.8237 41.3587 45.0025 41.1261 44.9181 41.2167C44.897 41.2399 44.8769 41.2641 44.8548 41.2862C44.8337 41.3084 44.8106 41.3295 44.7876 41.3497C44.7363 41.395 44.648 41.4262 44.8458 41.3064C44.7986 41.3346 44.7544 41.3678 44.7062 41.395C44.6841 41.407 44.661 41.4181 44.6389 41.4292C44.5275 41.4896 44.8337 41.3577 44.7142 41.398C44.5988 41.4372 44.4843 41.4685 44.3638 41.4856C44.4341 41.4765 44.5044 41.4665 44.5747 41.4574C44.422 41.4765 44.2704 41.4755 44.1177 41.4574C44.1901 41.4675 44.2624 41.4765 44.3337 41.4866C44.2413 41.4735 44.1489 41.4614 44.0555 41.4493C44.1278 41.4594 44.2001 41.4685 44.2724 41.4785C44.1087 41.4564 43.9511 41.4141 43.7984 41.3517C43.8637 41.3789 43.929 41.407 43.9942 41.4352C43.8707 41.3819 43.7623 41.3144 43.6498 41.2419C43.8938 41.398 43.7231 41.3013 43.6558 41.2359C43.6056 41.1865 43.5594 41.1342 43.5162 41.0788C43.5594 41.1352 43.6026 41.1916 43.6458 41.2469C43.5674 41.1412 43.4891 41.0345 43.4299 40.9157C43.2491 40.5582 42.7731 40.4394 42.4256 40.5854C42.0631 40.7384 41.8492 41.1462 41.9597 41.5369C42.2258 42.4774 43.1768 43.0484 44.1157 43.0907C44.5486 43.1098 44.9995 43 45.378 42.7896C45.8139 42.5479 46.1151 42.1612 46.2999 41.7061C46.6303 40.8945 46.3833 39.9449 45.8581 39.2824C45.6 38.9571 45.2234 38.7114 44.8237 38.6017C44.3246 38.4647 43.8054 38.5423 43.3525 38.7839C42.8695 39.0417 42.5371 39.4646 42.3493 39.9731C42.267 40.1957 42.2338 40.4474 42.2529 40.684C42.265 40.8371 42.2921 40.966 42.3533 41.106C42.4025 41.2177 42.499 41.2882 42.5572 41.3587C42.6486 41.4665 42.8725 41.4151 42.8926 41.2701Z" fill="#323233"/>
<path d="M56.2034 68.0409C56.7156 68.4689 57.4075 68.3823 57.9106 67.9815C58.1848 67.763 58.4077 67.4861 58.5051 67.1417C58.6005 66.8064 58.5995 66.4378 58.5583 66.0945C58.471 65.3674 58.2852 64.6535 57.8313 64.0655C57.4406 63.558 56.8833 63.2639 56.2557 63.1794C55.0265 63.0142 53.7863 63.7332 53.4157 64.9365C53.0452 66.1398 53.6035 67.5254 54.6549 68.1859C55.8801 68.9552 57.6846 68.6179 58.5724 67.4841C58.7009 67.3199 58.7933 67.1679 58.7933 66.9504C58.7933 66.7651 58.711 66.5436 58.5724 66.4167C58.2962 66.1619 57.774 66.0904 57.5069 66.4167C57.4416 66.4973 57.3723 66.5738 57.296 66.6453C57.2689 66.6705 57.1926 66.7148 57.1795 66.748C57.1805 66.745 57.299 66.6624 57.2307 66.7077C57.2026 66.7268 57.1745 66.748 57.1464 66.7671C57.053 66.8306 56.9576 66.889 56.8582 66.9403C56.815 66.9625 56.7568 66.9786 56.7176 67.0068C56.7206 67.0048 56.8562 66.9544 56.7778 66.9796C56.7447 66.9897 56.7126 67.0037 56.6804 67.0148C56.582 67.0481 56.4826 67.0742 56.3802 67.0944C56.3551 67.0994 56.329 67.1034 56.3039 67.1085C56.2657 67.1155 56.2155 67.1004 56.3008 67.1095C56.3932 67.1196 56.33 67.1055 56.2968 67.1075C56.2627 67.1095 56.2285 67.1125 56.1944 67.1145C56.092 67.1185 55.9895 67.1135 55.8871 67.1075C55.7455 67.0984 56.0187 67.1357 55.8801 67.1065C55.8218 67.0934 55.7636 67.0823 55.7053 67.0662C55.6561 67.0531 55.6069 67.038 55.5587 67.0209C55.4011 66.9655 55.633 67.0662 55.5196 67.0058C55.4242 66.9554 55.3358 66.896 55.2434 66.8406C55.1721 66.7983 55.2996 66.8779 55.2936 66.8799C55.2866 66.8809 55.2444 66.8376 55.2384 66.8326C55.2032 66.7993 55.1671 66.7661 55.1339 66.7319C55.1008 66.6976 55.0717 66.6563 55.0365 66.6241C54.9773 66.5677 55.0777 66.6775 55.0737 66.6745C55.0526 66.6624 55.0305 66.6151 55.0175 66.5949C54.9622 66.5144 54.913 66.4298 54.8698 66.3432C54.8588 66.322 54.8498 66.2979 54.8377 66.2777C54.7955 66.2062 54.8658 66.3412 54.8608 66.3372C54.8317 66.313 54.8146 66.2133 54.8036 66.176C54.7714 66.0753 54.7493 65.9726 54.7282 65.8689C54.7011 65.736 54.7343 66.0018 54.7293 65.8659C54.7272 65.8095 54.7222 65.7531 54.7222 65.6967C54.7222 65.6484 54.7252 65.6001 54.7262 65.5517C54.7262 65.5467 54.7302 65.4802 54.7323 65.4802C54.7383 65.4792 54.7041 65.6293 54.7232 65.5497C54.7473 65.448 54.7644 65.3473 54.7985 65.2476C54.8066 65.2255 54.8166 65.2023 54.8226 65.1802C54.8457 65.1016 54.8006 65.2436 54.7985 65.2376C54.7905 65.2194 54.8548 65.1268 54.8648 65.1087C54.8879 65.0674 54.915 65.0281 54.9401 64.9878C54.9502 64.9717 55.0004 64.9063 54.9401 64.9848C54.8779 65.0664 54.9442 64.9818 54.9582 64.9667C54.9954 64.9274 55.1189 64.7572 55.1751 64.7603C55.1842 64.7603 55.0556 64.8388 55.1259 64.8005C55.146 64.7895 55.1641 64.7734 55.1832 64.7613C55.2283 64.7321 55.2745 64.7039 55.3227 64.6787C55.3639 64.6566 55.4071 64.6384 55.4473 64.6173C55.5166 64.58 55.388 64.6475 55.389 64.6414C55.391 64.6354 55.4473 64.6193 55.4543 64.6173C55.5507 64.5871 55.6461 64.5579 55.7455 64.5377C55.7686 64.5337 55.7917 64.5307 55.8138 64.5256C55.8901 64.5075 55.7465 64.5397 55.7465 64.5347C55.7475 64.5287 55.8731 64.5256 55.8851 64.5246C55.9313 64.5226 55.9775 64.5226 56.0237 64.5236C56.0468 64.5246 56.0699 64.5266 56.093 64.5277C56.108 64.5287 56.1241 64.5297 56.1392 64.5317C56.1773 64.5357 56.1693 64.5337 56.1171 64.5277C56.093 64.5458 56.0488 64.5136 56.1181 64.5287C56.1482 64.5347 56.1783 64.5397 56.2075 64.5468C56.2516 64.5569 56.2958 64.5689 56.34 64.582C56.3631 64.5891 56.4575 64.6072 56.4685 64.6273C56.4726 64.6344 56.345 64.5619 56.4123 64.6052C56.4374 64.6213 56.4675 64.6324 56.4937 64.6465C56.5338 64.6686 56.572 64.6928 56.6111 64.718C56.6232 64.725 56.6614 64.7452 56.6674 64.7572C56.6704 64.7623 56.572 64.6646 56.6222 64.724C56.6553 64.7633 56.7015 64.7965 56.7377 64.8338C56.7648 64.862 56.8733 64.9979 56.805 64.9032C56.8743 64.9999 56.9365 65.1006 56.9917 65.2063C57.0199 65.2597 57.044 65.3141 57.0701 65.3685C57.0199 65.2647 57.0952 65.4279 57.1082 65.4621C57.2177 65.741 57.3051 66.032 57.3623 66.3261C57.3683 66.3583 57.3743 66.3895 57.3794 66.4217C57.3974 66.5275 57.3733 66.3472 57.3844 66.454C57.3914 66.5285 57.3964 66.604 57.3964 66.6785C57.3964 66.7258 57.3904 66.8557 57.3904 66.8537C57.3964 66.8024 57.3824 66.9041 57.3824 66.902C57.3834 66.895 57.3422 67.1236 57.3633 67.0279C57.3482 67.0974 57.3312 67.1659 57.3071 67.2323C57.288 67.2867 57.3081 67.2303 57.3121 67.2213C57.3061 67.2384 57.2779 67.2887 57.3091 67.2474C57.2257 67.3562 57.1795 67.3814 57.0771 67.4347C57.0339 67.4579 57.062 67.4448 57.0731 67.4408C57.044 67.4539 57.0118 67.4609 56.9817 67.47C56.9235 67.4871 56.9676 67.4821 56.8883 67.4841C56.8019 67.4861 56.7748 67.476 56.6835 67.4146C56.3159 67.1608 55.853 67.7469 56.2034 68.0409Z" fill="#323233"/>
<path d="M49.911 44.8901C49.8939 44.8599 49.8789 44.8287 49.8618 44.7984C49.8237 44.732 49.8568 44.7904 49.8628 44.8065C49.8568 44.7914 49.8508 44.7753 49.8447 44.7592C49.8196 44.6847 49.7996 44.6091 49.7845 44.5316C49.7815 44.5155 49.7795 44.4984 49.7765 44.4823C49.7775 44.4863 49.7805 44.5678 49.7825 44.5175C49.7835 44.4792 49.7765 44.439 49.7765 44.4007C49.7754 44.3675 49.7765 44.3332 49.7785 44.3C49.7805 44.2507 49.7975 44.151 49.7785 44.2557C49.7915 44.1832 49.8046 44.1117 49.8237 44.0402C49.8327 44.007 49.8427 43.9747 49.8538 43.9415C49.8588 43.9254 49.8648 43.9093 49.8709 43.8932C49.8739 43.8851 49.9181 43.7854 49.8839 43.8559C49.8528 43.9214 49.901 43.8227 49.909 43.8066C49.9271 43.7703 49.9462 43.7351 49.9663 43.7009C49.9944 43.6525 50.0496 43.5247 50.0988 43.5005C50.1028 43.4985 50.0285 43.581 50.0707 43.5387C50.0827 43.5267 50.0928 43.5126 50.1038 43.4995C50.1299 43.4693 50.157 43.4411 50.1852 43.4129C50.2093 43.3887 50.2334 43.3655 50.2595 43.3424C50.2776 43.3263 50.386 43.2286 50.3217 43.287C50.2595 43.3424 50.3438 43.2729 50.3619 43.2608C50.3941 43.2397 50.4282 43.2185 50.4623 43.1994C50.4915 43.1833 50.5216 43.1682 50.5517 43.1531C50.5668 43.145 50.624 43.1219 50.5467 43.1541C50.4573 43.1913 50.5608 43.1501 50.5738 43.146C50.6381 43.1239 50.7033 43.1098 50.7686 43.0947C50.6381 43.0997 50.862 43.0725 50.7686 43.0947C50.8098 43.0927 50.851 43.0917 50.8921 43.0917C50.9333 43.0917 50.9775 43.0997 51.0177 43.0977C51.0759 43.0937 50.9554 43.0896 50.9504 43.0876C50.9634 43.0947 50.9885 43.0937 51.0026 43.0967C51.0829 43.1158 51.1603 43.143 51.2396 43.1652C51.2968 43.1803 51.1814 43.141 51.1804 43.139C51.1894 43.1491 51.2285 43.1611 51.2436 43.1692C51.2757 43.1853 51.3059 43.2024 51.337 43.2195C51.3732 43.2407 51.4073 43.2638 51.4414 43.287C51.5509 43.3585 51.3772 43.2266 51.4485 43.29C51.5067 43.3424 51.564 43.3937 51.6182 43.4511C51.6473 43.4823 51.6734 43.5146 51.7015 43.5468C51.7648 43.6213 51.6312 43.4421 51.7045 43.5538C51.7467 43.6193 51.7899 43.6858 51.8261 43.7552C51.8431 43.7875 51.8582 43.8207 51.8743 43.8529C51.9195 43.9455 51.8542 43.8146 51.8542 43.8046C51.8532 43.8227 51.8723 43.8539 51.8793 43.872C51.9044 43.9455 51.9255 44.0201 51.9405 44.0966C51.9456 44.1218 51.9666 44.2476 51.9496 44.1369C51.9325 44.0231 51.9506 44.1822 51.9506 44.2124C51.9516 44.2476 51.9516 44.2829 51.9496 44.3181C51.9486 44.3413 51.9446 44.3654 51.9446 44.3886C51.9466 44.4531 51.9576 44.306 51.9566 44.308C51.9305 44.3856 51.9245 44.4712 51.8984 44.5497C51.8923 44.5668 51.8843 44.583 51.8803 44.6001C51.8632 44.6625 51.9104 44.5296 51.9094 44.5306C51.8853 44.5558 51.8733 44.6051 51.8542 44.6363C51.8381 44.6645 51.821 44.6927 51.802 44.7199C51.7929 44.734 51.7829 44.7461 51.7738 44.7602C51.7146 44.8488 51.8592 44.6635 51.806 44.7189C51.7578 44.7692 51.7136 44.8226 51.6604 44.8699C51.6493 44.88 51.6333 44.8901 51.6242 44.9011C51.584 44.9475 51.6955 44.8478 51.6925 44.8498C51.6563 44.872 51.6222 44.9001 51.586 44.9233C51.5318 44.9585 51.4746 44.9898 51.4163 45.018C51.3973 45.027 51.3752 45.0351 51.3571 45.0451C51.3501 45.0492 51.5007 44.9918 51.4374 45.0099C51.4013 45.02 51.3661 45.0361 51.329 45.0482C51.2446 45.0753 51.1593 45.0925 51.0729 45.1106C50.9715 45.1317 51.2386 45.0965 51.1 45.1066C51.0558 45.1096 51.0127 45.1136 50.9685 45.1146C50.8851 45.1166 50.8038 45.1116 50.7214 45.1056C50.619 45.0985 50.8861 45.1378 50.7505 45.1086C50.7084 45.0995 50.6652 45.0915 50.623 45.0804C50.5869 45.0713 50.5497 45.0602 50.5136 45.0482C50.4935 45.0411 50.4734 45.0331 50.4523 45.027C50.3679 44.9998 50.5075 45.0502 50.5206 45.0572C50.4513 45.0159 50.376 44.9867 50.3077 44.9424C50.2756 44.9223 50.2454 44.8991 50.2153 44.878C50.133 44.8196 50.2695 44.9203 50.2725 44.9223C50.2585 44.9062 50.2384 44.8941 50.2233 44.88C50.1581 44.8216 50.0998 44.7562 50.0456 44.6877C49.9542 44.5699 49.7283 44.4903 49.5847 44.4964C49.438 44.5034 49.3075 44.5457 49.19 44.6363C48.95 44.8226 48.8375 45.2093 49.0223 45.4791C49.5716 46.2777 50.5276 46.5566 51.4535 46.3703C51.8743 46.2857 52.277 46.0732 52.5893 45.7782C52.9538 45.4348 53.1506 44.9696 53.1988 44.4762C53.2872 43.571 52.7228 42.6164 51.9355 42.1904C51.4977 41.9538 51.0006 41.8682 50.5125 41.98C50.1058 42.0736 49.7092 42.3234 49.4431 42.6456C48.8435 43.3736 48.6075 44.4974 49.192 45.31C49.3236 45.4922 49.5535 45.5808 49.7604 45.46C49.9582 45.3452 50.0235 45.0854 49.911 44.8901Z" fill="#323233"/>
<path d="M63.0151 81.373C62.6757 79.8394 62.4397 77.467 64.0856 76.5577C64.7684 76.1801 65.6732 76.3503 66.3431 76.7078C67.1926 77.1609 67.8504 77.8849 68.5463 78.5364C69.2583 79.203 70.2073 78.2101 69.6007 77.4791C68.1466 75.727 65.6371 73.8118 63.3083 75.2235C62.4015 75.7733 61.7628 76.7632 61.556 77.7983C61.2949 79.1033 61.6082 80.4073 62.0089 81.6499C62.2157 82.2923 63.1607 82.0315 63.0151 81.373Z" fill="#323233"/>
<path d="M54.0425 87.1186C53.8567 86.8749 53.6749 86.5809 53.5655 86.3131C53.5183 86.1963 53.4681 86.0362 53.4329 85.8972C53.4148 85.8257 53.3988 85.7532 53.3847 85.6797C53.3767 85.6384 53.3696 85.5961 53.3626 85.5538C53.3455 85.4411 53.3706 85.6867 53.3556 85.4904C53.3445 85.3434 53.3315 85.1974 53.3325 85.0493C53.3325 84.9648 53.3355 84.8812 53.3415 84.7966C53.3445 84.7543 53.3485 84.713 53.3526 84.6707C53.3566 84.6264 53.3666 84.5841 53.3546 84.6526C53.3807 84.4985 53.4138 84.3465 53.46 84.1975C53.4811 84.128 53.5052 84.0595 53.5313 83.991C53.5454 83.9518 53.5604 83.9135 53.5755 83.8742C53.5313 83.985 53.5855 83.8561 53.5956 83.835C53.6639 83.694 53.7452 83.5641 53.8296 83.4332C53.8406 83.4161 53.9059 83.3325 53.8366 83.4201C53.8567 83.3959 53.8768 83.3718 53.8969 83.3476C53.9551 83.2791 54.0174 83.2137 54.0826 83.1522C54.1087 83.1271 54.2373 83.0173 54.183 83.0606C54.1158 83.115 54.2082 83.0425 54.2252 83.0304C54.2554 83.0093 54.2865 82.9881 54.3176 82.969C54.3718 82.9337 54.4281 82.9015 54.4853 82.8703C54.5185 82.8532 54.5506 82.8361 54.5847 82.82C54.6018 82.8119 54.7444 82.7495 54.655 82.7867C54.5847 82.8149 54.7474 82.7545 54.7816 82.7434C54.8519 82.7203 54.9242 82.7001 54.9965 82.682C55.0597 82.6659 55.124 82.6538 55.1883 82.6417C55.2154 82.6367 55.2435 82.6327 55.2716 82.6276C55.0969 82.6599 55.2776 82.6296 55.3088 82.6266C55.4393 82.6165 55.5699 82.6135 55.7004 82.6196C55.7747 82.6226 55.849 82.6317 55.9234 82.6377C55.7657 82.6256 55.9464 82.6437 56.0097 82.6568C56.1634 82.689 56.308 82.7535 56.4596 82.7887C56.556 82.8109 56.3532 82.7324 56.4405 82.7797C56.4807 82.8008 56.5229 82.8179 56.563 82.8391C56.6273 82.8723 56.6906 82.9086 56.7518 82.9468C56.8211 82.9901 56.8854 83.0415 56.9547 83.0838C57.037 83.1341 56.8764 82.9972 56.9376 83.0717C56.9647 83.1049 57.0089 83.1341 57.039 83.1623C57.0923 83.2127 57.1395 83.268 57.1897 83.3214C57.277 83.411 57.1987 83.3285 57.1826 83.3063C57.2158 83.3516 57.2469 83.398 57.277 83.4453C57.4849 83.7655 57.9027 83.8984 58.2431 83.699C58.5695 83.5077 58.695 83.0586 58.4961 82.7303C57.6777 81.376 55.9013 80.8947 54.4411 81.3971C52.8414 81.9469 51.9296 83.5389 52.1244 85.2075C52.2319 86.1298 52.6356 87.0441 53.3375 87.6664C53.5052 87.8154 53.7482 87.8477 53.93 87.7017C54.0846 87.5758 54.181 87.3009 54.0425 87.1186Z" fill="#323233"/>
<path d="M73.1476 75.4933C72.8262 75.0372 72.7047 74.569 72.7298 74.0323C72.7308 74.0081 72.7479 73.8097 72.7379 73.8863C72.7449 73.8268 72.7569 73.7684 72.768 73.71C72.8001 73.554 72.8393 73.3999 72.8915 73.2499C72.9447 73.0978 73.1144 72.7716 73.2349 72.6155C73.2691 72.5722 73.4067 72.4221 73.486 72.3496C73.5934 72.25 73.6055 72.2389 73.7672 72.1422C73.8264 72.107 73.8877 72.0717 73.952 72.0435C74.0433 72.0022 73.8827 72.0677 73.9771 72.0355C74.0052 72.0254 74.0333 72.0163 74.0624 72.0073C74.1287 71.9871 74.196 71.969 74.2643 71.9549C74.3034 71.9469 74.3426 71.9398 74.3818 71.9328C74.4812 71.9156 74.2944 71.9388 74.3938 71.9318C74.5324 71.9217 74.67 71.9167 74.8085 71.9207C74.8778 71.9227 74.9471 71.9277 75.0174 71.9348C74.8999 71.9247 75.1068 71.9499 75.144 71.9579C75.2815 71.9861 75.4171 72.0244 75.5487 72.0727C75.5868 72.0858 75.624 72.0999 75.6611 72.116C75.635 72.105 75.5637 72.0677 75.6742 72.1241C75.7455 72.1603 75.8178 72.1956 75.8881 72.2359C75.9574 72.2751 76.0257 72.3184 76.0929 72.3627C76.118 72.3799 76.1421 72.397 76.1662 72.4151C76.2225 72.4544 76.116 72.3678 76.2014 72.4433C76.3219 72.55 76.4314 72.6608 76.5408 72.7796C76.6232 72.8692 76.5689 72.8118 76.5509 72.7877C76.575 72.8189 76.5971 72.8521 76.6192 72.8843C76.6694 72.9589 76.7145 73.0354 76.7567 73.1139C76.7949 73.1834 76.83 73.2549 76.8652 73.3264C76.8973 73.3918 76.8652 73.3214 76.8612 73.3103C76.8843 73.3657 76.9033 73.4241 76.9224 73.4815C77.1745 74.2508 78.3092 73.9396 78.1325 73.1472C77.7961 71.6357 76.116 70.5321 74.5987 70.661C72.9648 70.7999 71.7708 72.1311 71.6272 73.7392C71.5499 74.5962 71.811 75.446 72.3753 76.0935C72.7389 76.5043 73.4699 75.9525 73.1476 75.4933Z" fill="#323233"/>
<path d="M25.7527 6.928C25.3138 6.80213 24.8639 6.92296 24.654 7.35695C24.4924 7.68925 24.5285 8.1152 24.6018 8.46763C24.7223 9.05167 25.11 9.60045 25.5659 9.97302C26.5761 10.7967 28.0593 11.0343 29.1399 10.1976C30.118 9.44034 30.4433 8.03666 30.1029 6.87262C29.7344 5.61192 28.5584 4.72479 27.2289 4.84663C26.4767 4.91611 25.7938 5.20913 25.2214 5.70354C24.638 6.20702 24.3086 6.91088 24.2734 7.67919C24.2574 8.03665 24.5596 8.34075 24.896 8.38606C25.2104 8.42835 25.6362 8.22496 25.6834 7.87051C25.6984 7.76075 25.7195 7.652 25.7516 7.54527C25.7557 7.53117 25.8039 7.41838 25.7978 7.41133C25.8149 7.43046 25.7275 7.55734 25.7778 7.45967C25.7918 7.43248 25.8049 7.40329 25.8189 7.3761C25.8691 7.27943 25.9264 7.18478 25.9846 7.09415C25.9967 7.07603 26.068 6.99647 26.065 6.97835C26.072 7.02064 25.9645 7.09817 26.0348 7.02063C26.0559 6.99747 26.076 6.9723 26.0971 6.94914C26.1714 6.86758 26.2507 6.79005 26.3351 6.71856C26.3532 6.70346 26.3722 6.68935 26.3903 6.67323C26.4506 6.61987 26.3361 6.72057 26.3331 6.71755C26.3331 6.71755 26.4767 6.61887 26.4908 6.60981C26.5851 6.5504 26.6846 6.50005 26.784 6.44869C26.9055 6.38626 26.6544 6.494 26.783 6.44768C26.8432 6.42653 26.9025 6.40338 26.9627 6.38525C27.0692 6.35202 27.1766 6.33088 27.2851 6.30772C27.4146 6.28154 27.1164 6.31779 27.3001 6.30772C27.3544 6.3047 27.4096 6.30067 27.4638 6.29967C27.5181 6.29866 27.5723 6.30067 27.6275 6.30369C27.6586 6.30571 27.6898 6.31074 27.7199 6.31174C27.7972 6.31477 27.6446 6.30369 27.6426 6.30067C27.6717 6.33893 27.9007 6.35806 27.9599 6.3782C27.9529 6.37618 28.0483 6.40842 28.0483 6.41043C28.0463 6.41748 27.9147 6.34397 27.984 6.38425C28.0322 6.41245 28.0834 6.43358 28.1316 6.46077C28.1788 6.48796 28.223 6.51817 28.2682 6.54838C28.4038 6.639 28.1798 6.46177 28.2993 6.57556C28.3696 6.64303 28.4349 6.7115 28.5002 6.784C28.5825 6.87563 28.4239 6.66418 28.5082 6.7981C28.5403 6.84845 28.5725 6.89779 28.6016 6.94914C28.6237 6.98841 28.6428 7.02769 28.6639 7.06797C28.7442 7.22204 28.6307 6.96425 28.6729 7.08206C28.7111 7.1888 28.7462 7.29454 28.7723 7.40429C28.7844 7.45565 28.7934 7.508 28.8044 7.55936C28.8316 7.69026 28.7934 7.41637 28.8044 7.55029C28.8135 7.66408 28.8205 7.77686 28.8185 7.89165C28.8175 7.94502 28.8145 7.99739 28.8105 8.05076C28.8085 8.07291 28.8044 8.09607 28.8044 8.11822C28.8044 8.19274 28.8125 8.04672 28.8155 8.04269C28.7703 8.10311 28.7663 8.29745 28.7442 8.37498C28.7301 8.42533 28.7141 8.47568 28.696 8.52502C28.689 8.54617 28.6779 8.56732 28.6729 8.58846C28.6548 8.65895 28.694 8.52503 28.701 8.52402C28.6759 8.52906 28.5634 8.78885 28.5444 8.81906C28.5333 8.83718 28.453 8.9409 28.457 8.94694C28.452 8.93889 28.5514 8.84222 28.4982 8.89257C28.4821 8.90666 28.469 8.92681 28.455 8.94292C28.3817 9.02649 28.2913 9.09497 28.218 9.17754C28.1658 9.23695 28.2692 9.12819 28.2692 9.13926C28.2692 9.14531 28.2059 9.18458 28.1949 9.19163C28.1557 9.21781 28.1166 9.24197 28.0754 9.26513C28.0573 9.2752 27.8956 9.36482 27.984 9.31548C28.0674 9.26916 27.98 9.31648 27.9539 9.32555C27.9238 9.33562 27.8946 9.34569 27.8645 9.35575C27.8123 9.37187 27.7591 9.38596 27.7048 9.39704C27.6828 9.40207 27.6576 9.40409 27.6356 9.41013C27.5482 9.4353 27.7631 9.40308 27.6717 9.40611C27.5612 9.40913 27.4528 9.42021 27.3423 9.41517C27.2871 9.41215 27.2329 9.4061 27.1776 9.40107C27.3072 9.41315 27.2088 9.40409 27.1375 9.38899C27.028 9.36583 26.9206 9.33562 26.8151 9.29735C26.785 9.28628 26.7559 9.27319 26.7257 9.26312C26.6464 9.23694 26.8131 9.31447 26.7428 9.26916C26.6896 9.23492 26.6263 9.21278 26.5701 9.18156C26.5138 9.15035 26.4586 9.11712 26.4044 9.08188C26.3843 9.06879 26.3642 9.05569 26.3441 9.04159C26.3311 9.03253 26.2226 8.95198 26.2899 9.00333C26.3431 9.04361 26.2246 8.94694 26.2035 8.92781C26.1563 8.88552 26.1102 8.84121 26.066 8.79489C26.0218 8.74857 25.9816 8.70124 25.9404 8.6529C26.0198 8.74655 25.9153 8.61665 25.8922 8.58141C25.8581 8.52905 25.826 8.47468 25.7958 8.4193C25.7768 8.38405 25.7105 8.231 25.7547 8.34378C25.7085 8.22697 25.6693 8.10714 25.6432 7.98429C25.6382 7.96113 25.6341 7.93797 25.6301 7.91481C25.6141 7.83324 25.6362 8.00343 25.6311 7.91885C25.6271 7.84836 25.6231 7.77988 25.6251 7.70939C25.6271 7.6238 25.6362 7.61072 25.5699 7.69933C25.5116 7.77586 25.5197 7.72853 25.5809 7.7245C25.6372 7.72047 25.6984 7.70235 25.7547 7.69429C26.1604 7.63488 26.0991 7.02769 25.7527 6.928Z" fill="#323233"/>
<path d="M9.77757 13.1792C9.39396 13.874 9.27346 14.6161 9.45723 15.3925C9.64401 16.1839 10.1542 16.8757 10.842 17.3036C12.2931 18.2049 14.3246 17.793 15.3238 16.4195C16.1483 15.2867 16.1493 13.6675 15.5418 12.4431C15.2465 11.847 14.7374 11.3072 14.1409 11.0092C13.4219 10.6507 12.6476 10.5782 11.8633 10.7303C10.2606 11.0414 8.79042 12.4985 8.85469 14.1972C8.87076 14.6241 9.21822 15.036 9.67112 15.0158C10.1471 14.9947 10.4444 14.6554 10.4876 14.1972C10.5026 14.0361 10.4534 14.3412 10.4885 14.1861C10.5036 14.1207 10.5157 14.0562 10.5338 13.9908C10.5488 13.9354 10.5659 13.881 10.583 13.8266C10.595 13.7904 10.6111 13.7551 10.6201 13.7189C10.6452 13.6132 10.5478 13.8629 10.598 13.7672C10.6553 13.6585 10.7055 13.5457 10.7677 13.44C10.7968 13.3906 10.827 13.3423 10.8591 13.295C10.8691 13.2799 10.9154 13.2023 10.9254 13.2013C10.9103 13.2033 10.8079 13.3413 10.8963 13.2416C10.9796 13.148 11.062 13.0553 11.1533 12.9697C11.1955 12.9304 11.2397 12.8932 11.2829 12.8549C11.3 12.8398 11.3291 12.8076 11.3502 12.7995C11.2015 12.8529 11.2688 12.859 11.3381 12.8136C11.4436 12.7442 11.549 12.6757 11.6595 12.6163C11.7107 12.5891 11.7639 12.5649 11.8151 12.5377C11.8362 12.5277 11.9276 12.4814 11.8181 12.5347C11.6956 12.5941 11.8483 12.5247 11.8764 12.5146C11.9939 12.4723 12.1134 12.4371 12.2359 12.4089C12.2911 12.3958 12.3494 12.3887 12.4046 12.3756C12.497 12.3525 12.3202 12.3937 12.3172 12.3867C12.3192 12.3917 12.4498 12.3756 12.4588 12.3746C12.5823 12.3676 12.7039 12.3736 12.8274 12.3786C12.9891 12.3847 12.6647 12.3434 12.8234 12.3766C12.8977 12.3927 12.972 12.4058 13.0453 12.426C13.1005 12.4411 13.1537 12.4612 13.209 12.4773C13.3606 12.5226 13.0744 12.4048 13.216 12.4783C13.3325 12.5388 13.442 12.6042 13.5524 12.6747C13.6779 12.7552 13.4279 12.5589 13.5675 12.6888C13.6066 12.725 13.6468 12.7613 13.685 12.7985C13.7291 12.8428 13.7693 12.8902 13.8115 12.9365C13.9069 13.0382 13.7171 12.7915 13.8225 12.9506C13.8868 13.0483 13.9491 13.1449 14.0033 13.2487C14.0254 13.2899 14.0786 13.4692 14.0515 13.3393C14.0244 13.2084 14.0726 13.3957 14.0867 13.437C14.1258 13.5487 14.159 13.6615 14.1861 13.7763C14.2001 13.8387 14.2112 13.9012 14.2242 13.9636C14.2533 14.1076 14.2102 13.7753 14.2252 13.9767C14.2343 14.0955 14.2413 14.2133 14.2393 14.3331C14.2383 14.3875 14.2363 14.4429 14.2323 14.4973C14.2303 14.5335 14.2252 14.5698 14.2232 14.606C14.2142 14.7319 14.2162 14.5647 14.2333 14.5376C14.1821 14.6151 14.1861 14.7903 14.16 14.8829C14.1459 14.9353 14.1298 14.9866 14.1128 15.038C14.0997 15.0773 14.0455 15.2928 14.0696 15.1608C14.0917 15.042 14.0555 15.184 14.0334 15.2273C14.0043 15.2827 13.9742 15.3371 13.941 15.3904C13.9129 15.4358 13.8838 15.4801 13.8527 15.5244C13.8436 15.5375 13.7884 15.6039 13.7904 15.611C13.7844 15.5918 13.9129 15.467 13.8256 15.5636C13.7472 15.6512 13.6669 15.7338 13.5805 15.8144C13.456 15.9322 13.6358 15.7842 13.5725 15.8244C13.4942 15.8738 13.4199 15.9281 13.3395 15.9735C13.2793 16.0077 13.217 16.0359 13.1557 16.0681C13.0744 16.1114 13.1798 16.058 13.1919 16.054C13.1477 16.0691 13.1055 16.0862 13.0614 16.1003C12.9087 16.1507 12.7511 16.1889 12.5914 16.2121C12.733 16.192 12.5833 16.2081 12.5261 16.2111C12.4568 16.2141 12.3875 16.2151 12.3192 16.2141C12.2389 16.2121 12.1586 16.2061 12.0792 16.198C12.0451 16.195 12.0109 16.191 11.9768 16.1859C12.0531 16.198 12.0441 16.196 11.9748 16.1809C11.8854 16.1607 11.796 16.1406 11.7087 16.1134C11.6765 16.1033 11.6434 16.0923 11.6113 16.0812C11.5882 16.0731 11.4526 16.0107 11.5611 16.0631C11.4888 16.0278 11.4174 15.9916 11.3482 15.9503C11.319 15.9332 11.2889 15.9151 11.2608 15.8959C11.2477 15.8879 11.1132 15.7882 11.1694 15.8325C11.2226 15.8748 11.1403 15.8053 11.1383 15.8033C11.1071 15.7731 11.074 15.7449 11.0429 15.7147C10.9816 15.6543 10.9224 15.5908 10.8681 15.5233C10.9214 15.5898 10.8139 15.4428 10.7968 15.4176C10.7497 15.3451 10.7065 15.2696 10.6653 15.1931C10.591 15.0521 10.5719 15.0038 10.5207 14.8235C10.4775 14.6705 10.4544 14.5486 10.4464 14.4278C10.4243 14.0965 10.4363 13.8166 10.5639 13.5084C10.7567 13.0563 10.0105 12.7573 9.77757 13.1792Z" fill="#323233"/>
<path d="M39.3638 1.9003C38.5454 2.5961 38.8868 3.82056 39.5315 4.50629C40.2927 5.31487 41.55 5.40247 42.4377 4.74896C43.3265 4.09646 43.8667 2.98378 43.7934 1.87211C43.7513 1.23169 43.5133 0.543934 42.9208 0.213654C42.3504 -0.103536 41.6273 0.00118374 41.0087 0.0938233C40.5016 0.169345 39.9784 0.321393 39.5516 0.614416C38.9792 1.00612 38.6418 1.54484 38.5836 2.24266C38.5484 2.67062 38.9843 3.07944 39.4 3.06132C39.869 3.04017 40.1823 2.70183 40.2164 2.24266C40.2285 2.07551 40.1672 2.44406 40.2094 2.28697C40.2204 2.2467 40.2315 2.2054 40.2425 2.16613C40.2606 2.09564 40.3078 2.1037 40.2054 2.24669C40.2275 2.21547 40.2425 2.17318 40.2626 2.13995C40.3701 1.96172 40.1401 2.26582 40.2817 2.11075C40.3098 2.08055 40.3389 2.05134 40.3691 2.02314C40.4363 1.96172 40.4966 1.96474 40.3359 2.04429C40.4052 2.01005 40.4695 1.95367 40.5378 1.9154C40.6101 1.87513 40.6894 1.84692 40.7607 1.80564C40.5508 1.9305 40.7527 1.8127 40.829 1.78551C40.9194 1.75329 41.0097 1.72408 41.1021 1.6979C41.2708 1.65057 41.4436 1.61332 41.6163 1.58412C41.6474 1.57909 41.6786 1.57404 41.7097 1.569C41.8794 1.54081 41.5179 1.59016 41.6876 1.57203C41.7991 1.55995 41.9095 1.54584 42.022 1.54081C42.0843 1.53779 42.1566 1.52975 42.2188 1.54284C42.1736 1.53377 42.0933 1.50456 42.2068 1.5539C41.9959 1.46227 42.2228 1.55995 42.2158 1.57203C42.2058 1.58915 42.0853 1.44716 42.1887 1.56498C42.256 1.6405 42.1013 1.40287 42.1726 1.54686C42.1827 1.567 42.251 1.65862 42.2429 1.67977C42.2409 1.6848 42.1937 1.5237 42.2208 1.64151C42.2359 1.70898 42.255 1.77645 42.271 1.84391C42.3112 2.01308 42.265 1.71099 42.268 1.82176C42.269 1.86405 42.2751 1.90735 42.2761 1.94964C42.2791 2.03422 42.2771 2.11881 42.271 2.20239C42.27 2.21951 42.268 2.23661 42.267 2.25272C42.258 2.33731 42.261 2.3202 42.2771 2.20239C42.2771 2.20239 42.253 2.34336 42.251 2.35343C42.2309 2.45412 42.2048 2.55381 42.1736 2.65149C42.1606 2.69277 42.1465 2.73305 42.1325 2.77333C42.1294 2.78139 42.1264 2.78943 42.1234 2.79749C42.0933 2.87502 42.0993 2.86194 42.1425 2.75721C42.1495 2.8126 42.0592 2.93544 42.032 2.9868C41.9848 3.07642 41.9326 3.16301 41.8754 3.24659C41.8573 3.27277 41.8312 3.30097 41.8171 3.32816C41.8844 3.24257 41.8925 3.23149 41.8412 3.29291C41.8202 3.31808 41.7981 3.34326 41.776 3.36743C41.7197 3.42785 41.6585 3.48121 41.6002 3.53861C41.4797 3.65542 41.7358 3.45202 41.5962 3.54365C41.5691 3.56178 41.543 3.58091 41.5159 3.59803C41.4406 3.64636 41.3622 3.68562 41.2829 3.72691C41.1624 3.79034 41.2889 3.75409 41.3 3.72187C41.2919 3.74503 41.1373 3.77423 41.1122 3.78128C41.08 3.78934 41.0479 3.79538 41.0158 3.80243C40.8501 3.83968 41.1754 3.80343 41.0188 3.80041C40.9786 3.79941 40.833 3.77827 40.7989 3.79338C40.83 3.7974 40.8621 3.80041 40.8933 3.80444C40.8641 3.7994 40.836 3.79236 40.8069 3.78531C40.7788 3.77826 40.7497 3.7702 40.7225 3.76114C40.7085 3.7561 40.6944 3.75208 40.6804 3.74705C40.6131 3.72188 40.6251 3.72792 40.7155 3.76518C40.6854 3.77022 40.604 3.7108 40.5759 3.69469C40.5438 3.67656 40.5117 3.65742 40.4805 3.63728C40.4474 3.61614 40.2998 3.48926 40.4293 3.60506C40.362 3.54565 40.2948 3.48725 40.2335 3.42079C40.2134 3.39864 40.1953 3.37649 40.1753 3.35434C40.1331 3.30298 40.1381 3.30902 40.1883 3.37245C40.1712 3.34829 40.1542 3.32412 40.1381 3.29895C40.0909 3.22544 40.0507 3.14892 40.0146 3.07038C40.0758 3.20733 40.0216 3.07642 40.0126 3.04823C40.0005 3.00795 39.9925 2.96666 39.9804 2.92638C39.9423 2.79749 39.9794 3.0452 39.9764 2.91026C39.9754 2.86898 39.9724 2.82872 39.9734 2.78642C39.9744 2.76024 39.9875 2.62228 39.9714 2.76527C39.9704 2.77735 40.0106 2.48433 39.9834 2.64041C39.9905 2.59913 39.9995 2.55885 40.0116 2.51857C40.0196 2.49239 40.0286 2.4662 40.0387 2.44002C40.0206 2.48332 40.0236 2.4793 40.0467 2.42996C40.2757 1.97784 39.7414 1.57908 39.3638 1.9003Z" fill="#323233"/>
<path d="M51.311 27.8021C52.0109 27.3731 52.7108 26.9442 53.4098 26.5152C53.6337 26.3783 53.7392 26.0581 53.5895 25.8265C53.4449 25.6009 53.1426 25.4992 52.9026 25.6462C52.2027 26.0752 51.5028 26.5041 50.8038 26.9331C50.5799 27.07 50.4745 27.3902 50.6241 27.6218C50.7687 27.8464 51.0709 27.9491 51.311 27.8021Z" fill="#323233"/>
<path d="M52.5562 29.6871C53.5182 29.1363 54.4803 28.5865 55.4423 28.0357C55.6703 27.9048 55.7687 27.5735 55.6221 27.347C55.4734 27.1154 55.1792 27.0267 54.9352 27.1667C53.9732 27.7175 53.0111 28.2673 52.0491 28.8181C51.8211 28.949 51.7227 29.2803 51.8693 29.5069C52.0179 29.7375 52.3122 29.8261 52.5562 29.6871Z" fill="#323233"/>
<path d="M53.4841 31.7624C54.3186 31.1975 55.1521 30.6326 55.9866 30.0667C56.2035 29.9197 56.32 29.6166 56.1664 29.378C56.0268 29.1615 55.7125 29.0396 55.4795 29.1977C54.645 29.7626 53.8115 30.3275 52.977 30.8934C52.7601 31.0404 52.6436 31.3435 52.7973 31.5822C52.9368 31.7987 53.2512 31.9205 53.4841 31.7624Z" fill="#323233"/>
<path d="M55.3781 32.8117C56.1403 32.5298 56.9025 32.2478 57.6647 31.9659C57.9107 31.8752 58.1035 31.6205 58.0151 31.3466C57.9368 31.1049 57.6616 30.8975 57.3975 30.9952C56.6353 31.2771 55.8731 31.559 55.1109 31.841C54.8649 31.9316 54.6721 32.1864 54.7605 32.4603C54.8378 32.7019 55.1139 32.9094 55.3781 32.8117Z" fill="#323233"/>
<path d="M57.6947 34.6866C58.0481 34.4782 58.4016 34.2708 58.7561 34.0623C58.8656 33.9979 58.9529 33.8841 58.9871 33.7612C59.0202 33.6404 59.0052 33.4803 58.9369 33.3736C58.8676 33.2658 58.7651 33.1712 58.6366 33.142C58.5051 33.1118 58.3685 33.1229 58.25 33.1923C57.8965 33.4008 57.543 33.6082 57.1885 33.8166C57.0791 33.8811 56.9917 33.9949 56.9576 34.1177C56.9244 34.2385 56.9395 34.3987 57.0078 34.5054C57.0771 34.6131 57.1795 34.7078 57.308 34.737C57.4396 34.7672 57.5762 34.7561 57.6947 34.6866Z" fill="#323233"/>
<path d="M58.5735 37.7679C59.0606 37.5031 59.5476 37.2382 60.0347 36.9734C60.2656 36.8476 60.358 36.5082 60.2144 36.2847C60.0628 36.049 59.7746 35.9695 59.5275 36.1044C59.0405 36.3693 58.5534 36.6341 58.0664 36.8989C57.8354 37.0248 57.742 37.3641 57.8867 37.5877C58.0373 37.8233 58.3255 37.9028 58.5735 37.7679Z" fill="#323233"/>
<path d="M57.7179 41.1845C58.9189 40.3467 60.2013 39.6338 61.5469 39.0558C61.796 38.9491 61.8522 38.5805 61.7267 38.3671C61.5761 38.1083 61.2899 38.0791 61.0398 38.1868C59.6942 38.7648 58.4118 39.4777 57.2107 40.3155C56.9888 40.4706 56.8864 40.7566 57.031 41.0043C57.1605 41.2248 57.4949 41.3406 57.7179 41.1845Z" fill="#323233"/>
<path d="M60.1752 43.3142C60.6141 43.0403 61.067 42.7896 61.5329 42.5651C61.6414 42.5127 61.7508 42.4613 61.8613 42.412C61.9246 42.3838 61.9878 42.3566 62.0501 42.3284C62.1063 42.3043 62.1134 42.3012 62.0732 42.3183C62.1053 42.3052 62.1364 42.2922 62.1686 42.2791C62.4076 42.1804 62.6496 42.0898 62.8936 42.0042C63.1407 41.9176 63.3315 41.6558 63.2441 41.3849C63.1648 41.1392 62.8916 40.9408 62.6265 41.0335C61.5932 41.395 60.598 41.8652 59.6681 42.4452C59.4452 42.5842 59.3377 42.9014 59.4883 43.134C59.6319 43.3575 59.9362 43.4632 60.1752 43.3142Z" fill="#323233"/>
<path d="M61.3309 45.4127C62.2608 44.9283 63.1907 44.444 64.1196 43.9606C64.3526 43.8388 64.4419 43.4924 64.2993 43.2719C64.1457 43.0332 63.8625 42.9607 63.6125 43.0916C62.6826 43.576 61.7527 44.0603 60.8238 44.5437C60.5908 44.6655 60.5014 45.0119 60.644 45.2324C60.7966 45.4701 61.0808 45.5426 61.3309 45.4127Z" fill="#323233"/>
<path d="M62.4176 47.3823C62.8614 47.0903 63.3214 46.8234 63.7964 46.5848C64.2985 46.3331 64.669 46.176 65.1892 45.9907C65.4362 45.9021 65.6281 45.6433 65.5397 45.3714C65.4614 45.1277 65.1872 44.9253 64.9221 45.02C63.8636 45.3986 62.8504 45.895 61.9105 46.5123C61.6915 46.6563 61.5781 46.9644 61.7307 47.2011C61.8713 47.4216 62.1826 47.5374 62.4176 47.3823Z" fill="#323233"/>
<path d="M65.0837 50.234C65.7495 49.8684 66.4152 49.5019 67.08 49.1364C67.311 49.0095 67.4044 48.6722 67.2598 48.4476C67.1092 48.213 66.8189 48.1314 66.5729 48.2674C65.9071 48.6329 65.2413 48.9994 64.5765 49.365C64.3456 49.4918 64.2522 49.8292 64.3968 50.0537C64.5474 50.2873 64.8366 50.3699 65.0837 50.234Z" fill="#323233"/>
<path d="M67.2649 52.1301C67.7499 51.8612 68.2339 51.5924 68.719 51.3235C68.9489 51.1956 69.0433 50.8593 68.8987 50.6347C68.7481 50.4011 68.4579 50.3175 68.2118 50.4545C67.7268 50.7234 67.2428 50.9922 66.7577 51.2611C66.5278 51.389 66.4334 51.7253 66.578 51.9498C66.7276 52.1834 67.0178 52.267 67.2649 52.1301Z" fill="#323233"/>
<path d="M67.7751 55.1973C68.6548 54.6696 69.5345 54.141 70.4142 53.6133C70.6391 53.4784 70.7426 53.1541 70.5939 52.9246C70.4473 52.697 70.148 52.5993 69.907 52.7443C69.0273 53.272 68.1476 53.8006 67.268 54.3282C67.043 54.4632 66.9396 54.7874 67.0882 55.017C67.2348 55.2436 67.5341 55.3423 67.7751 55.1973Z" fill="#323233"/>
<path d="M68.0673 58.2513C69.195 57.622 70.3238 56.9926 71.4515 56.3623C71.6885 56.2304 71.7668 55.9041 71.6312 55.6735C71.4917 55.4339 71.1824 55.3604 70.9444 55.4933C69.8166 56.1226 68.6879 56.752 67.5602 57.3823C67.3232 57.5142 67.2448 57.8405 67.3804 58.0711C67.52 58.3107 67.8293 58.3842 68.0673 58.2513Z" fill="#323233"/>
<path d="M69.2412 60.8694C70.1882 60.1746 71.2104 59.5905 72.289 59.1273C72.532 59.0236 72.6033 58.647 72.4687 58.4386C72.306 58.1858 72.0409 58.1466 71.7818 58.2583C70.7033 58.7215 69.681 59.3056 68.734 60.0004C68.5232 60.1554 68.3966 60.4444 68.5543 60.6891C68.6889 60.8986 69.0142 61.0355 69.2412 60.8694Z" fill="#323233"/>
<path d="M71.2656 62.6225C72.4345 61.9378 73.6024 61.2541 74.7713 60.5693C75.3287 60.2431 74.8246 59.3721 74.2642 59.6993C73.0953 60.384 71.9274 61.0678 70.7585 61.7525C70.2012 62.0798 70.7053 62.9498 71.2656 62.6225Z" fill="#323233"/>
<path d="M72.1744 65.5195C73.505 64.9214 74.7814 64.2095 75.9894 63.3908C76.2134 63.2388 76.3128 62.9478 76.1692 62.7021C76.0386 62.4785 75.7082 62.3688 75.4823 62.5218C74.2742 63.3405 72.9979 64.0524 71.6673 64.6505C71.4202 64.7613 71.361 65.1228 71.4875 65.3393C71.6372 65.594 71.9264 65.6313 72.1744 65.5195Z" fill="#323233"/>
<path d="M74.7795 67.2837C75.5448 66.8094 76.2417 66.2193 76.8261 65.5336C76.9968 65.3332 77.037 65.015 76.8261 64.8217C76.6383 64.6495 76.2989 64.6082 76.1161 64.8217C75.841 65.1439 75.5427 65.446 75.2214 65.7229C75.1441 65.7894 75.0667 65.8548 74.9864 65.9172C74.9653 65.9344 74.9442 65.9565 74.9201 65.9696C74.9442 65.9565 74.9934 65.9142 74.9412 65.9535C74.896 65.9877 74.8508 66.0219 74.8057 66.0552C74.6319 66.1821 74.4542 66.3009 74.2714 66.4147C74.0485 66.5526 73.942 66.8708 74.0916 67.1034C74.2363 67.328 74.5405 67.4317 74.7795 67.2837Z" fill="#323233"/>
<path d="M48.1457 26.2997C49.5707 25.3492 51.085 24.5315 52.6707 23.8841C52.9217 23.7813 53.0995 23.5487 53.0211 23.2648C52.9559 23.0261 52.6556 22.8096 52.4035 22.9133C50.7355 23.5951 49.1398 24.4298 47.6385 25.4307C47.4126 25.5808 47.3162 25.8748 47.4588 26.1195C47.5893 26.343 47.9187 26.4508 48.1457 26.2997Z" fill="#323233"/>
</svg>
