<svg width="210" height="160" viewBox="0 0 210 160" fill="none" xmlns="http://www.w3.org/2000/svg">
<path d="M189.113 5.86699C173.552 5.10083 160.72 16.4967 153.073 29.0592C143.842 44.2232 141.483 62.3571 134.999 78.6728C131.935 86.3803 127.914 94.2103 121.51 99.6701C115.131 105.108 106.864 106.763 98.684 106.137C89.9608 105.47 81.517 102.642 73.2701 99.8863C65.7819 97.3846 58.2787 95.094 50.4753 93.7968C35.8091 91.3588 19.4753 91.8171 6.83747 100.594C5.33405 101.638 3.90225 102.784 2.546 104.013C1.39358 105.058 3.10181 106.762 4.25025 105.721C15.6173 95.4128 31.5762 93.7629 46.2097 95.5942C53.8361 96.5486 61.3393 98.4576 68.6256 100.877C76.788 103.588 84.9554 106.525 93.4718 107.914C101.592 109.239 110.076 109.047 117.537 105.22C124.862 101.461 129.987 94.6038 133.679 87.4154C141.899 71.4096 144.108 53.184 151.623 36.9082C157.63 23.8963 168.825 10.5537 183.818 8.48731C185.571 8.24521 187.349 8.1954 189.115 8.28208C190.663 8.35879 190.659 5.94371 189.113 5.86699Z" fill="#323233"/>
<path d="M29.7834 155.766C43.1769 152.225 52.276 141.068 58.4835 129.261C65.0272 116.815 68.5441 103.106 74.6303 90.4582C80.4879 78.2842 89.0281 66.439 102.57 62.4637C110.919 60.0128 119.762 60.8128 128.217 62.2415C136.863 63.7021 145.415 65.8422 154.173 66.5645C170.586 67.9185 187.413 63.9691 201.583 55.5792C203.302 54.5619 204.978 53.475 206.614 52.3302C207.876 51.4465 206.673 49.3522 205.398 50.2449C191.881 59.7049 175.443 64.7214 158.955 64.3936C150.271 64.2212 141.794 62.3202 133.295 60.7132C124.874 59.1211 116.231 57.7461 107.664 58.9248C100.34 59.9331 93.5781 62.9967 87.9493 67.786C82.8136 72.1549 78.7886 77.7302 75.4914 83.5796C72.0351 89.7109 69.3187 96.2388 66.8259 102.813C64.365 109.302 62.1327 115.867 59.2581 122.192C53.848 134.1 46.1808 146.571 33.6593 151.909C32.1956 152.533 30.6803 153.031 29.1431 153.437C27.6436 153.833 28.28 156.163 29.7834 155.766Z" fill="#323233"/>
<path d="M9.9845 108.254C15.4224 118.635 20.8604 129.016 26.2994 139.397C27.8266 142.313 29.3539 145.228 30.8812 148.143C31.602 149.52 33.6832 148.3 32.9623 146.924C27.5244 136.544 22.0864 126.163 16.6475 115.782C15.1202 112.866 13.5929 109.951 12.0666 107.036C11.3447 105.659 9.26362 106.879 9.9845 108.254Z" fill="#323233"/>
<path d="M14.7313 104.828C19.8879 114.576 25.293 124.19 30.9457 133.658C32.5496 136.344 34.1733 139.018 35.8159 141.68C36.6303 142.999 38.7154 141.787 37.897 140.461C32.1071 131.077 26.5578 121.545 21.26 111.874C19.7576 109.13 18.2751 106.375 16.8124 103.61C16.0856 102.236 14.0045 103.454 14.7313 104.828Z" fill="#323233"/>
<path d="M20.3573 102.647C25.8857 111.967 31.5255 121.22 37.2777 130.403C38.9153 133.017 40.5619 135.624 42.2175 138.228C43.0487 139.535 45.1358 138.324 44.2986 137.009C38.4838 127.866 32.7774 118.654 27.1863 109.372C25.5944 106.73 24.0124 104.082 22.4384 101.429C21.6469 100.094 19.5628 101.307 20.3573 102.647Z" fill="#323233"/>
<path d="M27.8813 100.963C32.5536 109.117 37.226 117.271 41.8983 125.425C43.2307 127.749 44.5621 130.075 45.8945 132.399C46.6661 133.747 48.7502 132.532 47.9756 131.181C43.3033 123.027 38.6309 114.873 33.9586 106.719C32.6262 104.395 31.2948 102.069 29.9625 99.7449C29.1899 98.3968 27.1067 99.6113 27.8813 100.963Z" fill="#323233"/>
<path d="M35.3616 100.655C40.0041 109.429 44.8057 118.12 49.7624 126.72C50.5379 128.065 52.621 126.851 51.8435 125.502C46.8858 116.901 42.0842 108.211 37.4417 99.436C36.7159 98.0611 34.6347 99.2806 35.3616 100.655Z" fill="#323233"/>
<path d="M42.3527 101.616C45.5873 108.463 49.0495 115.2 52.7325 121.815C53.4881 123.172 55.5702 121.957 54.8136 120.597C51.1306 113.981 47.6694 107.244 44.4338 100.397C44.1554 99.8076 43.3123 99.6551 42.7853 99.964C42.1827 100.317 42.0733 101.024 42.3527 101.616Z" fill="#323233"/>
<path d="M48.8595 102.028C51.3036 106.837 53.7476 111.644 56.1917 116.452C56.8956 117.837 58.9757 116.616 58.2728 115.234C55.8287 110.425 53.3847 105.618 50.9406 100.81C50.2367 99.425 48.1555 100.646 48.8595 102.028Z" fill="#323233"/>
<path d="M55.1705 103.211C56.3399 105.848 57.6454 108.423 59.0832 110.925C59.3974 111.473 60.1879 111.71 60.7318 111.358C61.2837 111.001 61.5004 110.292 61.1643 109.706C59.7265 107.205 58.421 104.631 57.2517 101.993C56.9951 101.414 56.1082 101.233 55.6031 101.559C55.0055 101.946 54.8961 102.591 55.1705 103.211Z" fill="#323233"/>
<path d="M75.207 94.9525C75.6902 95.9847 76.1735 97.0169 76.6567 98.0491C76.778 98.3091 77.1111 98.5303 77.3766 98.6041C77.665 98.6838 78.0488 98.6479 78.3053 98.4825C78.5628 98.3161 78.7896 98.069 78.8592 97.7612C78.9347 97.4284 78.882 97.1394 78.7378 96.8306C78.2546 95.7984 77.7714 94.7662 77.2881 93.7341C77.1668 93.474 76.8337 93.2528 76.5683 93.1791C76.2799 93.0994 75.8961 93.1352 75.6395 93.3006C75.382 93.467 75.1553 93.7141 75.0857 94.022C75.0091 94.3547 75.0618 94.6437 75.207 94.9525Z" fill="#323233"/>
<path d="M79.3643 88.3012C81.002 92.7886 83.0046 97.1355 85.371 101.284C86.1407 102.633 88.2237 101.418 87.4521 100.066C85.1891 96.0974 83.2551 91.9527 81.6891 87.6596C81.4653 87.0478 80.8707 86.6334 80.2065 86.8167C79.6179 86.9781 79.1406 87.6855 79.3643 88.3012Z" fill="#323233"/>
<path d="M82.5801 84.5529C85.571 90.5159 88.3462 96.5865 90.8827 102.757C91.1303 103.359 91.6831 103.788 92.3652 103.6C92.934 103.443 93.456 102.721 93.2074 102.114C90.5913 95.7495 87.7466 89.4837 84.6622 83.3335C83.9652 81.9456 81.8851 83.1671 82.5801 84.5529Z" fill="#323233"/>
<path d="M87.0553 80.0168C90.3485 88.1347 94.1279 96.0445 98.4005 103.69C99.1582 105.046 101.241 103.831 100.482 102.472C96.3124 95.0103 92.5927 87.2968 89.379 79.3751C89.1344 78.7714 88.5766 78.3449 87.8965 78.5322C87.3257 78.6887 86.8087 79.409 87.0553 80.0168Z" fill="#323233"/>
<path d="M91.4732 74.9755C94.4621 82.6461 97.9661 90.1125 101.992 97.2909C103.133 99.3254 104.316 101.335 105.536 103.323C106.347 104.644 108.433 103.432 107.617 102.104C103.384 95.2116 99.6266 88.0312 96.3881 80.6176C95.4813 78.5413 94.6202 76.445 93.7969 74.3338C93.5602 73.7271 92.9885 73.3046 92.3144 73.491C91.7367 73.6494 91.2355 74.3647 91.4732 74.9755Z" fill="#323233"/>
<path d="M95.897 71.4754C99.4994 79.1042 103.315 86.6323 107.345 94.0439C108.501 96.171 109.675 98.2892 110.867 100.397C111.63 101.75 113.713 100.534 112.948 99.1789C108.799 91.8331 104.857 84.3717 101.132 76.8017C100.063 74.6287 99.0122 72.4468 97.9781 70.2569C97.6997 69.6671 96.8565 69.5146 96.3295 69.8235C95.728 70.1762 95.6186 70.8836 95.897 71.4754Z" fill="#323233"/>
<path d="M101.023 67.8667C102.913 71.829 104.849 75.7695 106.834 79.685C108.761 83.4859 110.709 87.2819 112.869 90.9573C114.094 93.0416 115.392 95.0821 116.788 97.0568C117.163 97.5878 117.84 97.8399 118.436 97.4902C118.96 97.1823 119.247 96.3733 118.869 95.8383C113.932 88.8541 110.168 81.0699 106.39 73.4192C105.279 71.1695 104.185 68.9128 103.105 66.6482C102.824 66.0594 101.984 65.905 101.456 66.2148C100.855 66.5665 100.741 67.2759 101.023 67.8667Z" fill="#323233"/>
<path d="M106.306 65.8422C110.205 74.6805 114.625 83.2837 119.539 91.599C120.328 92.935 122.413 91.7215 121.62 90.3805C116.706 82.0652 112.286 73.463 108.388 64.6237C108.124 64.0269 107.255 63.8875 106.739 64.1903C106.126 64.55 106.043 65.2434 106.306 65.8422Z" fill="#323233"/>
<path d="M112.998 65.4906C116.584 73.2459 120.369 80.9076 124.35 88.4666C125.074 89.8415 127.155 88.622 126.431 87.2481C122.45 79.6891 118.665 72.0274 115.079 64.2721C114.806 63.6803 113.954 63.5318 113.431 63.8387C112.825 64.1934 112.724 64.8958 112.998 65.4906Z" fill="#323233"/>
<path d="M119.624 65.7087C121.834 71.3429 124.521 76.7728 127.693 81.9258C128.507 83.2459 130.592 82.0344 129.774 80.7073C126.714 75.7367 124.081 70.504 121.948 65.0671C121.711 64.4604 121.141 64.0379 120.466 64.2242C119.889 64.3817 119.385 65.098 119.624 65.7087Z" fill="#323233"/>
<path d="M125.42 66.0325C126.875 69.7219 128.593 73.2966 130.595 76.72C131.378 78.06 133.462 76.8465 132.676 75.5015C130.781 72.2615 129.121 68.885 127.744 65.3909C127.505 64.7851 126.938 64.3617 126.262 64.548C125.686 64.7054 125.18 65.4228 125.42 66.0325Z" fill="#323233"/>
<path d="M131.231 67.0387C131.931 68.5631 132.63 70.0885 133.33 71.6128C133.45 71.8719 133.787 72.095 134.05 72.1678C134.338 72.2475 134.722 72.2116 134.979 72.0462C135.571 71.6636 135.694 71.01 135.411 70.3943C134.711 68.869 134.012 67.3446 133.312 65.8193C133.193 65.5602 132.856 65.337 132.592 65.2643C132.304 65.1846 131.92 65.2205 131.664 65.3859C131.071 65.7694 130.949 66.422 131.231 67.0387Z" fill="#323233"/>
<path d="M146.388 57.0846C146.782 57.7502 147.176 58.4147 147.571 59.0792C147.726 59.3413 147.996 59.5525 148.291 59.6342C148.579 59.7139 148.964 59.678 149.219 59.5126C149.477 59.3462 149.704 59.0992 149.773 58.7913C149.845 58.4755 149.82 58.1457 149.652 57.8607C149.257 57.1962 148.863 56.5307 148.469 55.8661C148.314 55.6041 148.043 55.3929 147.749 55.3112C147.46 55.2315 147.077 55.2673 146.82 55.4327C146.563 55.5991 146.336 55.8462 146.266 56.154C146.195 56.4699 146.22 56.8007 146.388 57.0846Z" fill="#323233"/>
<path d="M149.452 50.1183C151.23 53.6114 153.007 57.1045 154.785 60.5976C155.08 61.1784 155.895 61.3468 156.433 61.031C157.022 60.6852 157.162 59.9619 156.866 59.3791C155.088 55.886 153.311 52.3929 151.533 48.8998C151.238 48.319 150.423 48.1506 149.885 48.4664C149.296 48.8111 149.156 49.5345 149.452 50.1183Z" fill="#323233"/>
<path d="M152.193 45.3431C155.125 51.0679 158.057 56.7937 160.988 62.5185C161.696 63.9014 163.777 62.6809 163.069 61.3001C160.138 55.5752 157.206 49.8494 154.275 44.1246C153.567 42.7407 151.486 43.9612 152.193 45.3431Z" fill="#323233"/>
<path d="M154.954 38.86C158.253 46.0882 161.793 53.2039 165.566 60.1951C166.304 61.563 168.386 60.3445 167.647 58.9766C163.874 51.9854 160.334 44.8698 157.035 37.6415C156.764 37.0487 155.907 36.9022 155.386 37.2081C154.779 37.5638 154.682 38.2652 154.954 38.86Z" fill="#323233"/>
<path d="M158.885 33.8217C162.886 42.5016 167.398 50.9404 172.392 59.0863C173.202 60.4084 175.289 59.1968 174.473 57.8677C169.479 49.7209 164.967 41.2831 160.966 32.6032C160.694 32.0114 159.841 31.8639 159.318 32.1698C158.711 32.5245 158.612 33.2279 158.885 33.8217Z" fill="#323233"/>
<path d="M162.282 27.9235C166.775 35.4906 171.268 43.0576 175.762 50.6246C177.029 52.7567 178.294 54.8898 179.561 57.0219C180.354 58.356 182.438 57.1435 181.642 55.8034C177.149 48.2364 172.656 40.6694 168.162 33.1024C166.895 30.9703 165.63 28.8372 164.363 26.7051C163.57 25.37 161.486 26.5835 162.282 27.9235Z" fill="#323233"/>
<path d="M166.916 25.2354C172.014 33.4181 177.112 41.6009 182.21 49.7826C183.655 52.101 185.099 54.4194 186.543 56.7379C187.363 58.053 189.449 56.8425 188.624 55.5194C183.526 47.3366 178.429 39.1539 173.331 30.9712C171.886 28.6527 170.442 26.3343 168.997 24.0159C168.177 22.7018 166.091 23.9123 166.916 25.2354Z" fill="#323233"/>
<path d="M171.434 20.6892C176.609 29.1618 181.785 37.6355 186.961 46.1082C188.422 48.4993 189.882 50.8915 191.344 53.2826C192.152 54.6057 194.237 53.3942 193.425 52.0641C188.25 43.5915 183.073 35.1178 177.898 26.6452C176.437 24.253 174.976 21.8618 173.515 19.4707C172.706 18.1466 170.621 19.3581 171.434 20.6892Z" fill="#323233"/>
<path d="M178.064 16.7567C183.139 25.5611 188.214 34.3656 193.29 43.171C194.728 45.6668 196.167 48.1625 197.606 50.6583C198.382 52.0033 200.465 50.7888 199.687 49.4398C194.612 40.6354 189.537 31.831 184.461 23.0255C183.022 20.5297 181.584 18.034 180.145 15.5382C179.369 14.1922 177.286 15.4077 178.064 16.7567Z" fill="#323233"/>
<path d="M184.962 13.0175C189.916 22.5254 195.056 31.9355 200.383 41.2391C201.886 43.8634 203.403 46.4788 204.935 49.0851C205.722 50.4232 207.806 49.2097 207.016 47.8666C201.586 38.6238 196.338 29.2734 191.279 19.8204C189.852 17.1542 188.441 14.4801 187.044 11.798C186.325 10.4201 184.244 11.6396 184.962 13.0175Z" fill="#323233"/>
<path d="M0.846673 99.8415C7.81687 94.2322 16.3879 90.9224 25.1628 89.4967C35.0484 87.8907 45.1964 88.7047 54.9796 90.6066C59.8836 91.5601 65.3841 92.4598 69.3565 95.7347C69.8317 96.1262 70.5178 95.4467 70.0386 95.0512C66.4868 92.123 61.9209 91.0729 57.523 90.1394C52.4231 89.0574 47.2547 88.2503 42.0514 87.8897C32.3756 87.2171 22.502 88.1507 13.395 91.6338C8.62823 93.4571 4.14684 95.9539 0.166567 99.157C-0.319657 99.5476 0.366416 100.227 0.846673 99.8415Z" fill="#323233"/>
<path d="M31.5991 159.991C40.6693 158.346 48.6428 153.03 54.7569 146.259C61.6386 138.638 66.0712 129.236 69.3813 119.594C71.373 113.793 72.9848 107.87 74.5896 101.952C74.7527 101.351 73.823 101.095 73.6599 101.695C70.8718 111.978 68.0569 122.37 63.2464 131.925C59.0245 140.309 53.1361 147.998 45.2889 153.272C41.069 156.108 36.353 158.151 31.3436 159.06C30.7341 159.17 30.9916 160.101 31.5991 159.991Z" fill="#323233"/>
<path d="M64.7447 91.9646C70.2672 81.8869 76.2351 71.579 85.183 64.1395C89.9209 60.2011 95.4265 57.3636 101.359 55.7226C107.601 53.995 114.135 53.5486 120.579 54.0498C128.251 54.6466 135.762 56.5685 143.018 59.0812C143.605 59.2844 143.858 58.3519 143.274 58.1496C130.526 53.735 116.716 51.1983 103.356 54.2251C97.2312 55.613 91.4154 58.1875 86.3851 61.9685C81.7347 65.4646 77.8051 69.8006 74.3657 74.4773C70.4193 79.8434 67.1102 85.643 63.9124 91.4774C63.6131 92.0224 64.4454 92.5106 64.7447 91.9646Z" fill="#323233"/>
<path d="M73.3089 108.277C86.1963 111.919 99.8662 115.502 113.205 112.06C119.076 110.546 124.575 107.666 128.814 103.281C133.433 98.5024 136.772 92.4587 139.602 86.4928C142.869 79.6063 145.408 72.4069 147.909 65.2135C148.114 64.6257 147.182 64.3726 146.979 64.9564C144.772 71.3089 142.539 77.6664 139.784 83.8057C137.123 89.7368 134.015 95.6928 129.832 100.702C125.873 105.444 120.71 108.759 114.831 110.594C108.965 112.423 102.769 112.805 96.6725 112.28C88.8004 111.602 81.1422 109.487 73.5654 107.346C72.9668 107.177 72.7113 108.109 73.3089 108.277Z" fill="#323233"/>
<path d="M137.592 56.1341C140.156 45.7186 143.563 35.3829 149.122 26.155C154.252 17.6395 161.317 10.2289 170.154 5.55917C174.942 3.02952 180.196 1.3856 185.603 0.968145C186.217 0.920322 186.222 -0.0461057 185.603 0.00171741C175.76 0.761906 166.647 5.4137 159.389 11.9834C151.528 19.0971 146.052 28.3967 142.169 38.1885C139.89 43.9352 138.14 49.8773 136.663 55.8771C136.514 56.4809 137.444 56.7379 137.592 56.1341Z" fill="#323233"/>
<path d="M146.13 70.4302C154.723 72.4906 163.674 72.9011 172.429 71.7404C181.164 70.5827 189.688 67.8996 197.49 63.7878C201.882 61.4724 206.022 58.6996 209.838 55.5214C210.316 55.1239 209.63 54.4434 209.156 54.8379C202.46 60.4123 194.712 64.6805 186.472 67.4782C178.247 70.2698 169.544 71.6169 160.861 71.3927C155.984 71.2672 151.13 70.6355 146.386 69.4977C145.783 69.3542 145.525 70.2848 146.13 70.4302Z" fill="#323233"/>
</svg>
