<svg width="83" height="104" viewBox="0 0 83 104" fill="none" xmlns="http://www.w3.org/2000/svg">
<path d="M27.4548 43.7292C27.9147 42.9326 28.9338 42.6597 29.7307 43.1198L55.7685 58.1523C56.5655 58.6124 56.8387 59.6313 56.3787 60.4279C55.9188 61.2245 54.8998 61.4974 54.1028 61.0373L28.065 46.0048C27.269 45.5452 26.9949 44.5258 27.4548 43.7292Z" fill="#FF725E"/>
<path d="M25.7223 51.0274C26.1822 50.2308 27.2013 49.9579 27.9982 50.418L50.3151 63.3023C51.112 63.7624 51.3852 64.7813 50.9253 65.5779C50.4654 66.3745 49.4463 66.6474 48.6494 66.1873L26.3325 53.303C25.5356 52.8429 25.2623 51.824 25.7223 51.0274Z" fill="#FF725E"/>
<path d="M27.553 60.3827C28.0129 59.5861 29.032 59.3132 29.8289 59.7733L41.3044 66.3985C42.1013 66.8586 42.3745 67.8775 41.9146 68.6741C41.4547 69.4707 40.4356 69.7436 39.6387 69.2835L28.1632 62.6583C27.3663 62.1982 27.0931 61.1793 27.553 60.3827Z" fill="#FF725E"/>
<path d="M47.1523 9.61315C47.6122 8.81655 48.6313 8.5437 49.4282 9.00379L75.4661 24.0363C76.263 24.4964 76.5362 25.5153 76.0763 26.3119C75.6158 27.1094 74.5973 27.3814 73.8004 26.9213L47.7625 11.8888C46.966 11.4301 46.6919 10.4106 47.1523 9.61315Z" fill="#FF725E"/>
<path d="M45.5913 16.6141C46.0518 15.8167 47.0704 15.5447 47.8673 16.0048L70.1842 28.889C70.9811 29.3491 71.2543 30.3681 70.7944 31.1647C70.3344 31.9613 69.3154 32.2341 68.5185 31.774L46.2016 18.8898C45.4042 18.4305 45.1309 17.4116 45.5913 16.6141Z" fill="#FF725E"/>
<path d="M47.5936 25.6724C48.0535 24.8758 49.0726 24.603 49.8695 25.063L61.345 31.6882C62.1419 32.1483 62.4151 33.1672 61.9552 33.9638C61.4948 34.7613 60.4762 35.0333 59.6793 34.5732L48.2038 27.948C47.4069 27.4879 47.1337 26.469 47.5936 25.6724Z" fill="#FF725E"/>
<path d="M8.05819 77.3241C8.51813 76.5275 9.53721 76.2546 10.3341 76.7147L36.3719 91.7472C37.1689 92.2073 37.4421 93.2262 36.9821 94.0228C36.5222 94.8194 35.5032 95.0923 34.7062 94.6322L8.66842 79.5997C7.87237 79.1401 7.59826 78.1207 8.05819 77.3241Z" fill="#FF725E"/>
<path d="M13.3409 72.4717C13.8009 71.6751 14.8199 71.4022 15.6168 71.8623L37.9337 84.7466C38.7306 85.2067 39.0039 86.2256 38.5439 87.0222C38.084 87.8188 37.0649 88.0917 36.268 87.6316L13.9511 74.7473C13.1537 74.2881 12.881 73.2683 13.3409 72.4717Z" fill="#FF725E"/>
<path d="M22.1795 69.6736C22.6395 68.877 23.6585 68.6041 24.4555 69.0642L35.931 75.6894C36.7279 76.1495 37.0006 77.1693 36.5412 77.965C36.0817 78.7607 35.0622 79.0345 34.2653 78.5744L22.7898 71.9492C21.9928 71.4891 21.7196 70.4702 22.1795 69.6736Z" fill="#FF725E"/>
<path d="M33.0909 38.6847C33.5508 37.8881 34.5699 37.6152 35.3668 38.0753L57.6837 50.9596C58.4815 51.4202 58.7539 52.4386 58.2939 53.2352C57.8335 54.0327 56.8149 54.3047 56.018 53.8446L33.702 40.9608C32.9051 40.5007 32.6305 39.4821 33.0909 38.6847Z" fill="#FF725E"/>
<path d="M41.4649 35.2207C41.9254 34.4233 42.9439 34.1513 43.7408 34.6114L56.4466 41.9468C57.2444 42.4074 57.5167 43.4258 57.0568 44.2224C56.5969 45.019 55.5778 45.2919 54.7809 44.8318L42.0751 37.4964C41.2782 37.0363 41.005 36.0173 41.4649 35.2207Z" fill="#FF725E"/>
<path d="M26.9766 43.4474C32.6196 33.6737 42.8459 32.9764 51.8702 32.3613C60.5554 31.7686 68.7595 31.2094 73.2196 23.4845C73.8331 22.4218 75.1919 22.058 76.255 22.6718C77.3181 23.2856 77.6824 24.6441 77.0688 25.7068C71.4254 35.4813 61.1982 36.1782 52.1747 36.7937C43.4896 37.3864 35.2855 37.9457 30.8259 45.6697C26.3663 53.3937 29.9835 60.7789 33.8133 68.5958C37.7919 76.7179 42.3015 85.9238 36.6585 95.6975C36.045 96.7602 34.6862 97.124 33.6231 96.5102C32.56 95.8965 32.1957 94.5379 32.8093 93.4752C37.2689 85.7511 33.6516 78.3659 29.8218 70.5491C25.8418 62.4273 21.3336 53.221 26.9766 43.4474Z" fill="#FF725E"/>
<path d="M6.76646 78.4513C12.4099 68.6768 22.6367 67.9786 31.6611 67.3635C40.3467 66.77 48.5513 66.2099 53.0119 58.4842C57.472 50.7593 53.8548 43.374 50.026 35.5555C46.047 27.432 41.5383 18.2265 47.1817 8.45203C47.7953 7.38932 49.1541 7.02553 50.2172 7.6393C51.2803 8.25308 51.6446 9.61164 51.031 10.6743C46.5709 18.3992 50.1882 25.7844 54.017 33.603C57.9951 41.726 62.5047 50.932 56.8612 60.7065C51.2172 70.4818 40.9891 71.1804 31.9651 71.7968C23.2799 72.3895 15.0753 72.9496 10.6152 80.6745C10.0017 81.7372 8.64293 82.101 7.57981 81.4872C6.51719 80.8726 6.15289 79.514 6.76646 78.4513Z" fill="#FF725E"/>
<path d="M66.3931 46.2424C65.4626 45.7052 65.1439 44.5165 65.6809 43.5864C66.2174 42.6572 67.4068 42.338 68.3372 42.8752C69.2668 43.4118 69.5864 44.6011 69.0494 45.5312C68.5129 46.4604 67.3227 46.7791 66.3931 46.2424Z" fill="#FF725E"/>
<path d="M16.0903 59.6463C15.1607 59.1096 14.8411 57.9204 15.3781 56.9903C15.9151 56.0602 17.104 55.7419 18.0345 56.279C18.9649 56.8162 19.2836 58.005 18.7466 58.935C18.2096 59.8651 17.0199 60.183 16.0903 59.6463Z" fill="#FF725E"/>
<path d="M43.7415 85.4748C42.8111 84.9376 42.4923 83.7488 43.0293 82.8188C43.5658 81.8895 44.7552 81.5703 45.6857 82.1075C46.6153 82.6442 46.9349 83.8334 46.3979 84.7635C45.8609 85.6936 44.6711 86.0115 43.7415 85.4748Z" fill="#FF725E"/>
<path d="M61.3356 13.3509C60.4052 12.8137 60.0864 11.6249 60.6234 10.6949C61.1604 9.76477 62.3493 9.44645 63.2798 9.98363C64.2093 10.5203 64.5289 11.7096 63.9919 12.6396C63.4554 13.5689 62.2661 13.8881 61.3356 13.3509Z" fill="#FF725E"/>
<path d="M34.4752 27.8036C33.5456 27.267 33.226 26.0777 33.763 25.1476C34.3 24.2175 35.4889 23.8992 36.4193 24.4364C37.3498 24.9736 37.6685 26.1623 37.1315 27.0924C36.5945 28.0225 35.4048 28.3403 34.4752 27.8036Z" fill="#FF725E"/>
<path d="M17.9602 93.994C17.0306 93.4574 16.711 92.2681 17.248 91.338C17.785 90.4079 18.9739 90.0896 19.9043 90.6268C20.8348 91.164 21.1535 92.3527 20.6165 93.2828C20.0795 94.2129 18.8898 94.5307 17.9602 93.994Z" fill="#FF725E"/>
<path d="M27.1224 42.2633C27.5776 41.475 28.577 41.1998 29.3545 41.6487L54.7572 56.3145C55.5347 56.7634 55.796 57.7665 55.3409 58.5548C54.8858 59.3431 53.8863 59.6183 53.1089 59.1695L27.7061 44.5036C26.9295 44.0553 26.6673 43.0516 27.1224 42.2633Z" fill="white"/>
<path d="M25.382 49.4705C25.8372 48.6822 26.8366 48.407 27.614 48.8559L49.3866 61.4259C50.1641 61.8748 50.4255 62.8779 49.9703 63.6662C49.5152 64.4545 48.5158 64.7297 47.7383 64.2809L25.9657 51.7108C25.1882 51.262 24.9269 50.2589 25.382 49.4705Z" fill="white"/>
<path d="M27.1178 58.6847C27.573 57.8964 28.5724 57.6211 29.3499 58.07L40.5455 64.5336C41.3229 64.9825 41.5843 65.9856 41.1291 66.7739C40.674 67.5622 39.6746 67.8374 38.8971 67.3885L27.7015 60.9249C26.924 60.4761 26.6627 59.473 27.1178 58.6847Z" fill="white"/>
<path d="M46.6148 8.50267C47.0699 7.71436 48.0694 7.43915 48.8468 7.88801L74.2496 22.5539C75.0271 23.0027 75.2884 24.0058 74.8333 24.7941C74.3776 25.5833 73.3787 25.8577 72.6012 25.4088L47.1985 10.7429C46.4214 10.2954 46.1592 9.29182 46.6148 8.50267Z" fill="white"/>
<path d="M45.0441 15.4157C45.4997 14.6265 46.4986 14.3522 47.2761 14.801L69.0487 27.3711C69.8262 27.8199 70.0875 28.823 69.6324 29.6113C69.1772 30.3996 68.1778 30.6749 67.4003 30.226L45.6277 17.656C44.8498 17.208 44.5884 16.2048 45.0441 15.4157Z" fill="white"/>
<path d="M46.9496 24.3359C47.4048 23.5476 48.4042 23.2724 49.1816 23.7212L60.3773 30.1848C61.1547 30.6337 61.4161 31.6368 60.9609 32.4251C60.5053 33.2143 59.5064 33.4886 58.7289 33.0398L47.5333 26.5762C46.7558 26.1273 46.4945 25.1242 46.9496 24.3359Z" fill="white"/>
<path d="M7.92789 75.5083C8.38303 74.72 9.38247 74.4448 10.1599 74.8936L35.5627 89.5595C36.3402 90.0083 36.6015 91.0114 36.1464 91.7997C35.6912 92.5881 34.6918 92.8633 33.9144 92.4144L8.5116 77.7486C7.73496 77.3002 7.47275 76.2966 7.92789 75.5083Z" fill="white"/>
<path d="M13.1296 70.6915C13.5848 69.9032 14.5842 69.628 15.3617 70.0768L37.1343 82.6469C37.9117 83.0957 38.1731 84.0988 37.7179 84.8871C37.2628 85.6754 36.2634 85.9507 35.4859 85.5018L13.7133 72.9318C12.9354 72.4838 12.6745 71.4798 13.1296 70.6915Z" fill="white"/>
<path d="M21.8005 67.8788C22.2556 67.0905 23.255 66.8152 24.0325 67.2641L35.2281 73.7277C36.0056 74.1766 36.2664 75.1805 35.8118 75.968C35.3571 76.7554 34.3572 77.0315 33.5798 76.5826L22.3842 70.119C21.6067 69.6702 21.3453 68.6671 21.8005 67.8788Z" fill="white"/>
<path d="M32.6714 37.2549C33.1265 36.4666 34.1259 36.1913 34.9034 36.6402L56.676 49.2102C57.4543 49.6596 57.7148 50.6622 57.2597 51.4505C56.804 52.2397 55.8051 52.514 55.0277 52.0652L33.2559 39.4956C32.4784 39.0468 32.2157 38.044 32.6714 37.2549Z" fill="white"/>
<path d="M40.8913 33.7885C41.347 32.9993 42.3459 32.725 43.1234 33.1738L55.5192 40.3304C56.2975 40.7797 56.558 41.7823 56.1029 42.5706C55.6478 43.3589 54.6484 43.6342 53.8709 43.1853L41.475 36.0287C40.6975 35.5799 40.4362 34.5768 40.8913 33.7885Z" fill="white"/>
<path d="M26.656 41.9883C32.2402 32.3165 42.257 31.567 51.0965 30.9059C59.6037 30.2689 67.6398 29.6678 72.0534 22.0234C72.6606 20.9717 73.9931 20.6048 75.0303 21.2036C76.0675 21.8024 76.416 23.1398 75.8088 24.1915C70.2241 33.8642 60.2065 34.6132 51.3678 35.2748C42.8605 35.9118 34.8245 36.5129 30.4114 44.1564C25.9982 51.8 29.4952 59.0606 33.1976 66.7455C37.044 74.7306 41.4036 83.7812 35.8194 93.4531C35.2123 94.5047 33.8797 94.8717 32.8425 94.2729C31.8053 93.6741 31.4569 92.3366 32.064 91.2849C36.4772 83.6414 32.9802 76.3808 29.2778 68.6958C25.4301 60.7112 21.0718 51.6602 26.656 41.9883Z" fill="#FAC855"/>
<path d="M6.65636 76.6276C12.2411 66.9549 22.2583 66.2046 31.0978 65.5435C39.6056 64.9057 47.6421 64.3037 52.0563 56.6584C56.4699 49.014 52.973 41.7534 49.2715 34.0668C45.4248 26.0804 41.066 17.0302 46.6507 7.35753C47.2578 6.30589 48.5904 5.93893 49.6276 6.53774C50.6648 7.13654 51.0132 8.474 50.406 9.52564C45.9924 17.17 49.4894 24.4307 53.1908 32.1173C57.0367 40.1032 61.3963 49.1539 55.8116 58.8265C50.2265 68.5001 40.2078 69.2508 31.3687 69.9132C22.8614 70.5502 14.8249 71.1522 10.4113 78.7966C9.80408 79.8482 8.47153 80.2152 7.43434 79.6164C6.39765 79.0168 6.04918 77.6793 6.65636 76.6276Z" fill="#FF527F"/>
<path d="M65.2318 44.5061C64.3241 43.982 64.0192 42.8117 64.5506 41.8913C65.0815 40.9718 66.2479 40.6498 67.1557 41.1739C68.0626 41.6975 68.3683 42.8682 67.8369 43.7886C67.306 44.7082 66.1387 45.0297 65.2318 44.5061Z" fill="#FAC855"/>
<path d="M15.8991 58.0278C14.9922 57.5042 14.6865 56.3334 15.2179 55.413C15.7493 54.4926 16.9153 54.1716 17.823 54.6956C18.7308 55.2197 19.0357 56.39 18.5043 57.3104C17.9729 58.2308 16.806 58.5514 15.8991 58.0278Z" fill="#FAC855"/>
<path d="M42.8163 83.3298C41.9085 82.8057 41.6036 81.6354 42.135 80.715C42.666 79.7955 43.8324 79.4735 44.7402 79.9976C45.6471 80.5212 45.9528 81.692 45.4214 82.6124C44.89 83.5328 43.7232 83.8534 42.8163 83.3298Z" fill="#FAC855"/>
<path d="M60.479 12.1026C59.5713 11.5785 59.2664 10.4082 59.7978 9.48781C60.3292 8.56741 61.4952 8.24632 62.4029 8.7704C63.3098 9.29399 63.6156 10.4648 63.0842 11.3852C62.5532 12.3047 61.3868 12.6267 60.479 12.1026Z" fill="#FAC855"/>
<path d="M34.0925 26.5169C33.1856 25.9934 32.8798 24.8226 33.4112 23.9022C33.9426 22.9818 35.1086 22.6607 36.0164 23.1848C36.9241 23.7088 37.229 24.8791 36.6976 25.7995C36.1662 26.7199 34.9994 27.0405 34.0925 26.5169Z" fill="#FAC855"/>
<path d="M17.5221 91.8865C16.6152 91.363 16.3094 90.1922 16.8409 89.2718C17.3723 88.3514 18.5383 88.0303 19.446 88.5544C20.3538 89.0785 20.6587 90.2487 20.1273 91.1691C19.5959 92.0895 18.429 92.4101 17.5221 91.8865Z" fill="#FAC855"/>
</svg>
