<svg width="104" height="111" viewBox="0 0 104 111" fill="none" xmlns="http://www.w3.org/2000/svg">
<path d="M12.56 93.6506V101.904H3V111H104V101.904H92.3052V91.8946C92.3052 88.1643 90.6168 84.8281 87.9785 82.6298V73.8829C87.9785 50.6698 71.4602 31.3197 49.7512 27.3113C47.7555 24.888 44.7605 23.3423 41.4157 23.3423C40.7344 23.3423 40.0704 23.414 39.4229 23.5368V15.4621H15.8285V67.8256H12.559V77.9699H15.8285H15.8787C15.8516 78.1586 15.8285 78.3482 15.8285 78.5418C15.8285 82.2573 21.0105 85.1681 27.6257 85.1681C34.2409 85.1681 39.4229 82.2573 39.4229 78.5418C39.4229 78.3482 39.4007 78.1586 39.3727 77.9699H39.4229H42.6934V67.8256H39.4229V45.2592C40.0695 45.382 40.7344 45.4537 41.4157 45.4537C43.9797 45.4537 46.3359 44.5408 48.1972 43.0255C62.0945 46.1819 72.5165 58.8134 72.5165 73.8829V83.1437C70.2077 85.3312 68.7532 88.4395 68.7532 91.8946V101.904H42.6943V93.6506H12.56Z" fill="#FF725E"/>
<path d="M34.674 9.5181L24.674 4.54217L21 16.1848L32.6375 16.1848L34.674 9.5181Z" fill="#FF725E" stroke="#FF725E" stroke-width="2" stroke-miterlimit="10"/>
<path d="M84.8286 90.1537H71.1712V72.5022C71.1712 54.3363 56.6503 39.5572 38.8019 39.5572V25.6567C64.1814 25.6567 84.8286 46.6712 84.8286 72.5022V90.1537Z" fill="white" stroke="#0F355B" stroke-width="2" stroke-miterlimit="10"/>
<path d="M35.8159 77.2075C35.8159 80.3569 30.9206 82.9096 24.8831 82.9096C18.8455 82.9096 13.9503 80.3569 13.9503 77.2075C13.9503 74.058 18.8455 71.5053 24.8831 71.5053C30.9216 71.5053 35.8159 74.059 35.8159 77.2075Z" fill="white" stroke="#0F355B" stroke-width="2" stroke-miterlimit="10"/>
<path d="M35.8158 14.4669H13.9502V75.6377H35.8158V14.4669Z" fill="#05CDFF" stroke="#0F355B" stroke-width="2" stroke-miterlimit="10"/>
<path d="M39.117 67.3739H10.65V75.6377H39.117V67.3739Z" fill="#FF527F" stroke="#0F355B" stroke-width="2" stroke-miterlimit="10"/>
<path d="M32.5 7.00302L22.5 2.02709L18.826 13.6697L30.4634 13.6697L32.5 7.00302Z" fill="#FF527F" stroke="#0F355B" stroke-width="2" stroke-miterlimit="10"/>
<path d="M39.117 93.4659H10.65V101.805H39.117V93.4659Z" fill="#FAC855" stroke="#0F355B" stroke-width="2" stroke-miterlimit="10"/>
<path d="M101 101.805H1V109.01H101V101.805Z" fill="white" stroke="#0F355B" stroke-width="2" stroke-miterlimit="10"/>
<path d="M78.2837 79.5934C72.2569 79.5934 67.3724 84.5658 67.3724 90.6998V101.806H89.1961V90.6998C89.1961 84.5658 84.3106 79.5934 78.2837 79.5934Z" fill="#FAC855" stroke="#0F355B" stroke-width="2" stroke-miterlimit="10"/>
<path d="M78.0008 95.2978C80.7922 95.2978 83.0551 92.9947 83.0551 90.1537C83.0551 87.3126 80.7922 85.0095 78.0008 85.0095C75.2094 85.0095 72.9466 87.3126 72.9466 90.1537C72.9466 92.9947 75.2094 95.2978 78.0008 95.2978Z" fill="white" stroke="#0F355B" stroke-width="2" stroke-miterlimit="10"/>
<path d="M38.803 42.7851C44.3259 42.7851 48.8031 38.2282 48.8031 32.607C48.8031 26.9858 44.3259 22.4289 38.803 22.4289C33.28 22.4289 28.8027 26.9858 28.8027 32.607C28.8027 38.2282 33.28 42.7851 38.803 42.7851Z" fill="white" stroke="#0F355B" stroke-width="2" stroke-miterlimit="10"/>
<path d="M43.4396 32.6069C43.4396 35.2132 41.3637 37.3271 38.8029 37.3271C36.2422 37.3271 34.1652 35.2142 34.1652 32.6069C34.1652 30.0006 36.2412 27.8877 38.8029 27.8877C41.3637 27.8867 43.4396 29.9996 43.4396 32.6069Z" fill="#FAC855" stroke="#0F355B" stroke-width="2" stroke-miterlimit="10"/>
<path d="M18.901 22.4289V52.2572" stroke="#0F355B" stroke-width="2" stroke-miterlimit="10" stroke-linecap="square"/>
</svg>
