<svg width="30" height="30" viewBox="0 0 30 30" fill="none" xmlns="http://www.w3.org/2000/svg">
<path d="M27.6747 3.999L24.9895 1.31554C24.1429 0.466949 23.015 0 21.8168 0C20.6186 0 19.4907 0.466949 18.644 1.31554L16.2715 3.6892C15.431 4.53157 14.9588 5.67324 14.9588 6.86356C14.9588 8.05387 15.431 9.19555 16.2715 10.0379L18.3343 12.1018L12.0935 18.3457L10.0307 16.2819C9.18403 15.4333 8.05613 14.9663 6.85793 14.9663C5.65972 14.9663 4.53183 15.4333 3.68516 16.2819L1.31269 18.6555C0.472113 19.4979 0 20.6396 0 21.8299C0 23.0202 0.472113 24.1619 1.31269 25.0042L3.9963 27.6877C4.69189 28.3836 6.68291 30 10.1534 30C14.288 30 18.6709 27.7116 23.184 23.1978C32.5258 13.8498 30.4016 6.73185 27.6747 3.999ZM18.3867 5.80544L20.7592 3.43178C20.8978 3.29231 21.0626 3.18164 21.2441 3.10612C21.4256 3.0306 21.6202 2.99172 21.8168 2.99172C22.0133 2.99172 22.208 3.0306 22.3895 3.10612C22.571 3.18164 22.7358 3.29231 22.8744 3.43178L24.4944 5.05114L20.0053 9.54103L18.3867 7.92168C18.2477 7.78281 18.1374 7.61787 18.0621 7.43631C17.9868 7.25474 17.9481 7.06011 17.9481 6.86356C17.9481 6.667 17.9868 6.47237 18.0621 6.29081C18.1374 6.10924 18.2477 5.94431 18.3867 5.80544ZM3.42787 22.888C3.28883 22.7491 3.17853 22.5842 3.10327 22.4026C3.02801 22.2211 2.98927 22.0264 2.98927 21.8299C2.98927 21.6333 3.02801 21.4387 3.10327 21.2571C3.17853 21.0756 3.28883 20.9106 3.42787 20.7718L5.80034 18.3981C5.93894 18.2586 6.10372 18.148 6.28522 18.0724C6.46672 17.9969 6.66136 17.958 6.85793 17.958C7.0545 17.958 7.24913 17.9969 7.43063 18.0724C7.61213 18.148 7.77692 18.2586 7.91552 18.3981L9.53406 20.0175L5.04791 24.5074L3.42787 22.888ZM21.0688 21.0816C16.457 25.6942 12.7652 27.0067 10.1534 27.0067C8.13541 27.0067 6.76219 26.224 6.11148 25.5715C6.1055 25.5655 10.5917 21.0756 10.5917 21.0756L11.0359 21.5201C11.1745 21.6595 11.3393 21.7702 11.5208 21.8457C11.7023 21.9213 11.897 21.9601 12.0935 21.9601C12.2901 21.9601 12.4847 21.9213 12.6662 21.8457C12.8477 21.7702 13.0125 21.6595 13.1511 21.5201L21.5071 13.1599C21.6462 13.021 21.7565 12.8561 21.8317 12.6745C21.907 12.493 21.9457 12.2983 21.9457 12.1018C21.9457 11.9052 21.907 11.7106 21.8317 11.529C21.7565 11.3475 21.6462 11.1825 21.5071 11.0437L21.0628 10.5992L25.552 6.10925C27.0524 7.61187 29.2423 12.9025 21.0688 21.0816Z" fill="#333333"/>
</svg>
